<svg id="header_reserve.svg" xmlns="http://www.w3.org/2000/svg" width="94.85" height="55.25" viewBox="0 0 94.85 55.25">
  <defs>
    <style>
      .cls-1 {
        fill: #fff;
        fill-rule: evenodd;
      }
    </style>
  </defs>
  <path id="見学_入居相談" data-name="見学・入居相談" class="cls-1" d="M1216.84,65.722a3.283,3.283,0,0,1-1.44,2.371,7.19,7.19,0,0,1-3.12,1.1,3.637,3.637,0,0,1,.63,1.066,7.412,7.412,0,0,0,3.81-1.786,4.317,4.317,0,0,0,1.35-2.746h1.7v3c0,0.975.42,1.156,2.68,1.156,2.88,0,3.06-.165,3.38-2.9a4.7,4.7,0,0,1-1.13-.48c-0.15,2.311-.15,2.311-2.17,2.311-1.47,0-1.61-.045-1.61-0.5v-2.6h1.31c0.75,0,1.26.015,1.65,0.045a11.106,11.106,0,0,1-.08-1.576V59a17.774,17.774,0,0,1,.08-1.966,15.706,15.706,0,0,1-1.59.075h-6.49a12.039,12.039,0,0,1-1.57-.075c0.04,0.33.07,1.066,0.07,1.966v5.193a11.741,11.741,0,0,1-.07,1.576c0.45-.03.85-0.045,1.66-0.045h0.95Zm-1.43-7.564h7.28v1.456h-7.28V58.158Zm0,2.461h7.28v1.5h-7.28v-1.5Zm0,2.506h7.28v1.591h-7.28V63.126Zm14.31-4.262c-0.85,0-1.12-.015-1.74-0.06a8.406,8.406,0,0,1,.06,1.231v1.2a9.124,9.124,0,0,1-.07,1.081h1.18V59.839h10.34v2.476h1.19a7.685,7.685,0,0,1-.08-1.081v-1.2a10.1,10.1,0,0,1,.06-1.231c-0.55.045-.85,0.06-1.77,0.06h-1.02a14.289,14.289,0,0,0,1.35-1.951l-1.14-.405a8.577,8.577,0,0,1-1.45,2.356h-1.53a15.849,15.849,0,0,0-1.11-2.386l-1.11.3a9.256,9.256,0,0,1,1.03,2.086h-2.01a13.343,13.343,0,0,0-1.49-2.191l-1.06.33a9.346,9.346,0,0,1,1.32,1.861h-0.95Zm5.24,6.963h4.31a11.878,11.878,0,0,1,1.66.09V64.7a12.487,12.487,0,0,1-1.66.09h-4.31V64.446a17.446,17.446,0,0,0,3.32-2.191c0.31-.27.31-0.27,0.52-0.435l-0.64-.69a6.819,6.819,0,0,1-1.13.06h-5.28a13.5,13.5,0,0,1-1.47-.075v1.141a13.356,13.356,0,0,1,1.44-.075h5.12a12.7,12.7,0,0,1-2.45,1.531h-0.63a8.467,8.467,0,0,1,.05.87v0.21h-4.39a12.415,12.415,0,0,1-1.63-.09v1.216a12,12,0,0,1,1.63-.09h4.39v2.791c0,0.3-.09.345-0.77,0.345a14.646,14.646,0,0,1-1.95-.15,4.256,4.256,0,0,1,.36,1.141c0.53,0.045,1.28.075,1.67,0.075,1.54,0,1.84-.2,1.84-1.2v-3Zm10.2-3.962a1.388,1.388,0,1,0,1.38,1.381A1.374,1.374,0,0,0,1245.16,61.865Zm8.42-3.437a12.128,12.128,0,0,1-.5,3.212,11.6,11.6,0,0,1-2.38,4.382,12.321,12.321,0,0,1-3.35,2.776,3.327,3.327,0,0,1,.93,1.1,14.714,14.714,0,0,0,3.86-3.662,12.869,12.869,0,0,0,2.13-4.772,12.417,12.417,0,0,0,1.81,4.247,14.55,14.55,0,0,0,4.1,4.142,4.467,4.467,0,0,1,.98-1.171,11.344,11.344,0,0,1-2.65-2.011,12.645,12.645,0,0,1-2.29-3.047,11.126,11.126,0,0,1-1.38-5.433,6.83,6.83,0,0,1,.06-0.99,6.044,6.044,0,0,1-1.38.09h-2.1a6.549,6.549,0,0,1-1.22-.075V58.5c0.51-.045.92-0.075,1.23-0.075h2.15Zm16.23,4.922v1.741h-2.25c-0.59,0-.8-0.015-1.23-0.045a11.617,11.617,0,0,1,.06,1.321v2.356a8.874,8.874,0,0,1-.08,1.381h1.19v-0.69h6.33V70.1h1.19a12.778,12.778,0,0,1-.08-1.471V66.367a12.1,12.1,0,0,1,.06-1.336,10.793,10.793,0,0,1-1.34.06h-2.73V63.351h3.56a14.419,14.419,0,0,1,1.5.075V62.255a8.423,8.423,0,0,1-1.48.09h-3.58V60.8h2.93c0.65,0,1.02.015,1.53,0.045-0.03-.375-0.04-0.675-0.04-1.171v-1.5c0-.5.01-0.855,0.04-1.2a15.214,15.214,0,0,1-1.61.06h-7.71a16,16,0,0,1-1.86-.075,13.233,13.233,0,0,1,.07,1.666c0,6.213-.33,8.269-1.68,10.37a5.562,5.562,0,0,1,.98.96,13.189,13.189,0,0,0,1.74-6.6h4.49Zm0-1.005h-4.44l0.03-1.546h4.41v1.546Zm-4.4-2.551V58.038h8.83v1.756h-8.83Zm2.09,6.3h6.33v2.311h-6.33V66.1Zm15.07-5.778a9.791,9.791,0,0,1,.98.045V59.239a6.111,6.111,0,0,1-.98.06h-1.03V57.918a13.572,13.572,0,0,1,.07-1.546h-1.27a7.76,7.76,0,0,1,.09,1.546V59.3h-1.14a6.571,6.571,0,0,1-1.1-.06v1.141a6.828,6.828,0,0,1,1.08-.06h0.99a12.94,12.94,0,0,1-2.51,5.148,3.922,3.922,0,0,1,.66,1.1,13.514,13.514,0,0,0,2.11-4.532c-0.08,1.426-.09,1.831-0.09,2.431v3.917a13.421,13.421,0,0,1-.09,1.771h1.29a13.112,13.112,0,0,1-.09-1.771V64.011c0-.465-0.02-1.02-0.06-2.311a10.853,10.853,0,0,0,1.65,2.972,4.342,4.342,0,0,1,.61-1.051,9.123,9.123,0,0,1-2.11-3.3h0.94Zm2.66,9.77V69.054h4.5v0.975h1.2c-0.04-.39-0.07-1.005-0.07-1.831v-9.62c0-.75.01-1.155,0.04-1.5a10.456,10.456,0,0,1-1.18.045h-4.46c-0.68,0-.84,0-1.22-0.03,0.05,0.69.06,1.111,0.06,1.606v9.515c0,0.765-.03,1.336-0.07,1.876h1.2Zm0-11.9h4.5v2.491h-4.5V58.188Zm0,3.542h4.5v2.551h-4.5V61.73Zm0,3.6h4.5V68h-4.5V65.332Zm8.67-7.339a7.941,7.941,0,0,1,1.12-.06h1.85a8.032,8.032,0,0,1,1.12.06V56.9a5.776,5.776,0,0,1-1.12.075h-1.85a5.591,5.591,0,0,1-1.12-.075v1.1Zm-0.67,2.131a9.675,9.675,0,0,1,1.21-.06h2.91a7.149,7.149,0,0,1,1.09.06V59a7.683,7.683,0,0,1-1.2.06h-2.8a6.561,6.561,0,0,1-1.21-.075v1.14Zm0.65,2.086a5.967,5.967,0,0,1,1.01-.06h2.08a5.726,5.726,0,0,1,.98.06V61.145a5.15,5.15,0,0,1-.98.06h-2.08a5.807,5.807,0,0,1-1.01-.06V62.21Zm0,2.071a5.856,5.856,0,0,1,.99-0.06h2.09a5.635,5.635,0,0,1,.99.06v-1.05a7.684,7.684,0,0,1-.98.045h-2.08a8.582,8.582,0,0,1-1.01-.045v1.05Zm1.07,5.748V69.174h1.99v0.615h1.04a9.073,9.073,0,0,1-.03-0.99V66.4a10.852,10.852,0,0,1,.04-1.141,4.585,4.585,0,0,1-.91.045h-2.27a5.312,5.312,0,0,1-.97-0.06,11.3,11.3,0,0,1,.06,1.216v2.1a14.033,14.033,0,0,1-.08,1.471h1.13Zm-0.03-3.842h2.02v2.041h-2.02V66.187Zm4.83-8.855a5.375,5.375,0,0,1-1.11,2.566l1,0.435a8.1,8.1,0,0,0,1.17-2.746Zm5.79-.135a7.279,7.279,0,0,1-1.6,2.356,6.3,6.3,0,0,1,.88.57,11.236,11.236,0,0,0,1.77-2.461Zm-5.91,6.513a5.231,5.231,0,0,1-1.17,2.581l1.02,0.45a8.385,8.385,0,0,0,1.2-2.731Zm5.88-.03a6.593,6.593,0,0,1-1.48,2.3,5.272,5.272,0,0,1,.88.585,12.463,12.463,0,0,0,1.64-2.416Zm-3.59-7.084a4.826,4.826,0,0,1,.08.946,4.629,4.629,0,0,1-1.53,3.827,5.233,5.233,0,0,1-2.24,1.156,2.844,2.844,0,0,1,.68.975,6.4,6.4,0,0,0,2.79-2.011,4.78,4.78,0,0,0,.87-1.651,4.832,4.832,0,0,0,.87,1.516,7.36,7.36,0,0,0,2.81,2.146,4.214,4.214,0,0,1,.63-1.05,6.031,6.031,0,0,1-1.5-.705,5.339,5.339,0,0,1-1.49-1.351,4.747,4.747,0,0,1-.79-2.882,6.1,6.1,0,0,1,.06-0.916h-1.24Zm-0.03,5.943a6.188,6.188,0,0,1,.06,1.021,5.792,5.792,0,0,1-.94,3.542,5.415,5.415,0,0,1-2.97,2.086,3.517,3.517,0,0,1,.66,1.02,6.586,6.586,0,0,0,2.71-1.951,5.01,5.01,0,0,0,1.14-2.236,6.018,6.018,0,0,0,1.22,2.1,8.568,8.568,0,0,0,2.69,2.071,3.933,3.933,0,0,1,.66-1.126,6.687,6.687,0,0,1-3.06-2.236,5.211,5.211,0,0,1-.99-3.362,5.39,5.39,0,0,1,.06-0.93h-1.24Z" transform="translate(-1212.28 -15)"/>
  <path id="シェイプ_558" data-name="シェイプ 558" class="cls-1" d="M1276,24.131l-3.83-3.831-2.6,2.6V15h-13.76L1250,20.815V42.984h19.57v-12.4l0.09-.09Zm-3.86-2.333,2.35,2.348-1.45,1.456-2.34-2.347Zm-15.77-5.871V21.37h-5.44Zm12.15,26.006h-17.47V22.419h6.37V16.048h11.1v7.906l-2.44,2.45h-11.83v1.05h10.79l-2.9,2.916h-7.89v1.05h7.58l-0.6,2.917h-6.98v1.049h6.46l5.15-1.071,2.66-2.677v10.3ZM1263.29,30.7l2.35,2.346-0.3.3-0.09.019-2.87.6L1262.99,31Zm3.09,1.6-2.35-2.349,0.22-.221L1269.96,24l2.34,2.349Z" transform="translate(-1212.28 -15)"/>
</svg>
