<svg id="header_document_small.svg" xmlns="http://www.w3.org/2000/svg" width="102.84" height="27" viewBox="0 0 102.84 27">
  <defs>
    <style>
      .cls-1 {
        fill: #fff;
        fill-rule: evenodd;
      }
    </style>
  </defs>
  <path id="シェイプ_558" data-name="シェイプ 558" class="cls-1" d="M1034.93,22.866a0.522,0.522,0,1,0,.51.522A0.519,0.519,0,0,0,1034.93,22.866Zm0,3.681a0.522,0.522,0,1,0,.51.522A0.52,0.52,0,0,0,1034.93,26.547Zm-12.48-7.361a0.521,0.521,0,0,0,0,1.043A0.521,0.521,0,0,0,1022.45,19.186Zm0,3.68a0.522,0.522,0,0,0,0,1.044A0.522,0.522,0,0,0,1022.45,22.866Zm0,3.681a0.522,0.522,0,0,0,0,1.043A0.522,0.522,0,0,0,1022.45,26.547Zm24.95-12.088h-1.81v-1.84a0.61,0.61,0,0,0-.61-0.614h-10.05a3.035,3.035,0,0,0-2.43,1.23,3,3,0,0,0-2.42-1.23h-10.05a0.61,0.61,0,0,0-.61.614v1.84h-1.81a0.61,0.61,0,0,0-.61.613V35.929a0.609,0.609,0,0,0,.61.613h10.97a1.8,1.8,0,0,1,1.63,1.018,2.552,2.552,0,0,0,4.59,0,1.8,1.8,0,0,1,1.62-1.018h10.98a0.609,0.609,0,0,0,.61-0.613V15.072A0.61,0.61,0,0,0,1047.4,14.459Zm-14.38.613a1.918,1.918,0,0,1,1.91-1.932h9.54V32.955h-9.54a2.928,2.928,0,0,0-1.77.6l-0.14.111V15.072Zm-2.94-1.841a1.834,1.834,0,0,1,1.82,1.841v18.4a3.008,3.008,0,0,0-1.82-.615h-9.45V13.232h9.45Zm16.72,22.084h-10.38a2.993,2.993,0,0,0-2.7,1.7,1.365,1.365,0,0,1-1.22.758,1.35,1.35,0,0,1-1.21-.758,3,3,0,0,0-2.71-1.7h-10.37V15.685h1.21v17.79a0.61,0.61,0,0,0,.61.614h10.05a1.834,1.834,0,0,1,1.82,1.84,0.605,0.605,0,1,0,1.21,0,1.834,1.834,0,0,1,1.82-1.84h10.05a0.61,0.61,0,0,0,.61-0.614V15.685h1.21v19.63Zm-16.72-16.13h-5.21a0.521,0.521,0,0,0,0,1.043h5.21A0.521,0.521,0,0,0,1030.08,19.186Zm0,3.68h-5.21a0.522,0.522,0,0,0,0,1.044h5.21A0.522,0.522,0,0,0,1030.08,22.866Zm0,3.681h-5.21a0.522,0.522,0,0,0,0,1.043h5.21A0.522,0.522,0,0,0,1030.08,26.547Zm12.48-3.681h-5.21a0.522,0.522,0,0,0,0,1.044h5.21A0.522,0.522,0,0,0,1042.56,22.866Zm0,3.681h-5.21a0.522,0.522,0,0,0,0,1.043h5.21A0.522,0.522,0,0,0,1042.56,26.547Zm-7.63-7.429a0.521,0.521,0,1,0,.51.52A0.519,0.519,0,0,0,1034.93,19.118Zm7.63,0h-5.21a0.521,0.521,0,0,0,0,1.043h5.21A0.521,0.521,0,0,0,1042.56,19.118Z" transform="translate(-1017 -12)"/>
  <path id="資料請求" class="cls-1" d="M1067.21,20.488c-0.38,1.486-1.68,2.341-3.9,2.551a2.648,2.648,0,0,1,.58.885,7.192,7.192,0,0,0,2.31-.765,3.675,3.675,0,0,0,1.64-1.666c0.93,1.531,2.26,2.311,4.89,2.852a4.257,4.257,0,0,1,.53-1.036,8.054,8.054,0,0,1-3.22-.9,3.5,3.5,0,0,1-1.66-1.921h2.88a3.879,3.879,0,0,1-1.25,1.066,4.817,4.817,0,0,1,1,.45,6.944,6.944,0,0,0,1.36-1.426,2.859,2.859,0,0,1,.21-0.285,2.32,2.32,0,0,0,.17-0.225l-0.68-.54a5.27,5.27,0,0,1-1.15.075h-4.85c0.24-.345.37-0.555,0.66-1.006l-1.11-.285a5.992,5.992,0,0,1-2.37,2.776,2.266,2.266,0,0,1,.76.705,9.243,9.243,0,0,0,1.41-1.306h1.79Zm-3.9-.33a13.321,13.321,0,0,0-2.43-1.426l-0.71.81a9.411,9.411,0,0,1,2.43,1.5Zm0.16,1.441a15.256,15.256,0,0,1-3.77,1.336l0.42,1.141a5.177,5.177,0,0,1,.68-0.3,31.217,31.217,0,0,0,2.97-1.246Zm0.42,8.239a10.236,10.236,0,0,1-4.32,1.306,3.572,3.572,0,0,1,.66.991,12.788,12.788,0,0,0,4.55-1.651Zm3.84,0.645a12.3,12.3,0,0,0,4.69,1.636,4.861,4.861,0,0,1,.66-1.005,11.31,11.31,0,0,1-4.51-1.261Zm-4.71-6.468c-0.7,0-1.2-.015-1.54-0.045,0.03,0.435.04,0.9,0.04,1.591v2.761a11.03,11.03,0,0,1-.06,1.531,15.489,15.489,0,0,1,1.65-.06h6.38a15.369,15.369,0,0,1,1.65.06,13.867,13.867,0,0,1-.06-1.576V25.621c0-.735.02-1.216,0.05-1.651-0.41.03-.72,0.045-1.55,0.045h-6.56Zm-0.4.84h7.36v0.825h-7.36V24.856Zm0,1.621h7.36V27.3h-7.36V26.476Zm0,1.621h7.36v0.84h-7.36V28.1Zm23.49-.96-3.95.915a8.018,8.018,0,0,1-1.45.24l0.24,1.246c0.36-.12.79-0.24,1.41-0.39l3.75-.886v2.131a11.32,11.32,0,0,1-.09,1.7h1.32a10.368,10.368,0,0,1-.09-1.666V27.992l0.29-.06a13.236,13.236,0,0,1,1.44-.27l-0.23-1.246a8.582,8.582,0,0,1-1.38.42l-0.12.03v-6.8a10,10,0,0,1,.09-1.606h-1.32a10.579,10.579,0,0,1,.09,1.621v7.054Zm-8.34-2.581a12.455,12.455,0,0,1-.83,1.921,9.679,9.679,0,0,1-1.74,2.446,3.205,3.205,0,0,1,.62,1.036,11.076,11.076,0,0,0,2.23-4.082c-0.04.72-.07,1.5-0.07,2.236v2.371a13,13,0,0,1-.09,1.651h1.26a12.244,12.244,0,0,1-.08-1.621V27.782c0-.36-0.06-1.5-0.09-2.071a9.487,9.487,0,0,0,1.67,2.416,5.5,5.5,0,0,1,.57-0.99,8.809,8.809,0,0,1-2.07-2.581h0.73a8.157,8.157,0,0,1,1.14.06V23.5a7.331,7.331,0,0,1-1.12.06h-0.83V20.008a10.1,10.1,0,0,1,.08-1.561h-1.26a10.043,10.043,0,0,1,.09,1.576v3.542h-1.16a6.665,6.665,0,0,1-1.3-.075V24.63a7.308,7.308,0,0,1,1.32-.075h0.93Zm-2.24-4.772a13,13,0,0,1,.98,3.2l0.91-.39a18.759,18.759,0,0,0-.97-3.227Zm4.94-.465a11.844,11.844,0,0,1-1.08,3.257l0.82,0.405a16.274,16.274,0,0,0,1.22-3.257Zm1.48,1.036a12.36,12.36,0,0,1,2.7,2.386l0.74-.9a15.3,15.3,0,0,0-2.69-2.311Zm-0.46,3.737a11.808,11.808,0,0,1,2.7,2.341l0.74-.885a14.428,14.428,0,0,0-2.68-2.266Zm17.97-3.677v0.945h-1.43a10.465,10.465,0,0,1-1.35-.06v0.991a8.907,8.907,0,0,1,1.34-.075h1.44v0.96h-1.95a7.8,7.8,0,0,1-1.53-.09v1.081a8.427,8.427,0,0,1,1.53-.09h5.4a8.2,8.2,0,0,1,1.49.09V23.085a9.59,9.59,0,0,1-1.49.09h-2.43v-0.96h1.68a11.438,11.438,0,0,1,1.37.06V21.3a10.366,10.366,0,0,1-1.35.06h-1.7V20.413h2.16a9.05,9.05,0,0,1,1.44.075v-1.05a7.2,7.2,0,0,1-1.44.09h-2.16a5.75,5.75,0,0,1,.09-1.2h-1.2a5.068,5.068,0,0,1,.09,1.2h-1.77a7.112,7.112,0,0,1-1.4-.09v1.05a8.572,8.572,0,0,1,1.4-.075h1.77Zm-1.73,9.125h4.54v0.991c0,0.33-.11.42-0.51,0.42a11.2,11.2,0,0,1-1.62-.15,3.828,3.828,0,0,1,.28,1.066c0.51,0.045.95,0.06,1.32,0.06,1.26,0,1.58-.24,1.58-1.231V26.416a13.224,13.224,0,0,1,.06-1.591,7.661,7.661,0,0,1-1.38.075h-4.01a11.429,11.429,0,0,1-1.34-.06c0.03,0.405.05,0.66,0.05,1.306v4.262a11.085,11.085,0,0,1-.08,1.651h1.2a11.036,11.036,0,0,1-.09-1.651v-0.87Zm0-.9v-0.96h4.54v0.96h-4.54Zm0-1.846V25.8h4.54v0.991h-4.54Zm-6.46-6.858a7.851,7.851,0,0,1,1.12-.06h2a8.409,8.409,0,0,1,1.12.06v-1.1a5.966,5.966,0,0,1-1.12.075h-2a5.776,5.776,0,0,1-1.12-.075v1.1Zm-0.53,2.116a9.207,9.207,0,0,1,1.2-.06h2.75a10.617,10.617,0,0,1,1.11.045v-1.1a5.868,5.868,0,0,1-1.2.075h-2.66a6.432,6.432,0,0,1-1.2-.075v1.111Zm0.57,2.086a8.466,8.466,0,0,1,1.01-.045h2.16a8.53,8.53,0,0,1,.97.045V23.085a5.243,5.243,0,0,1-.97.06h-2.16a5.819,5.819,0,0,1-1.01-.06v1.051Zm0,2.086a8.673,8.673,0,0,1,.99-0.045h2.16a8.434,8.434,0,0,1,.99.045v-1.05a5.672,5.672,0,0,1-.97.06h-2.16a5.893,5.893,0,0,1-1.01-.06v1.05Zm1.13,5.763V31.2h2.01v0.585h1.06a10.449,10.449,0,0,1-.06-1.231V28.427a10.392,10.392,0,0,1,.05-1.156,8.814,8.814,0,0,1-1.07.045h-1.87a9.144,9.144,0,0,1-1.22-.06,8.8,8.8,0,0,1,.06,1.216v2.041c0,0.525-.03,1.005-0.07,1.471h1.11Zm0-3.737h2.01v2.026h-2.01V28.247Zm20.07-6.048v8.224c0,0.36-.12.435-0.68,0.435a12.487,12.487,0,0,1-1.96-.18,3.57,3.57,0,0,1,.28,1.171c0.78,0.06,1.29.09,1.85,0.09,1.27,0,1.63-.27,1.63-1.216V26.656c-0.03-1.111-.04-1.741-0.06-1.891,0-.105-0.01-0.285-0.01-0.5a11.83,11.83,0,0,0,1.86,3.422,13.539,13.539,0,0,0,3.6,3.257,4.848,4.848,0,0,1,.81-1.081,10.789,10.789,0,0,1-2.58-1.8,13.712,13.712,0,0,1-1.5-1.666,19.019,19.019,0,0,0,2.01-1.861c0.78-.825.78-0.825,0.9-0.96l-1-.765a11.012,11.012,0,0,1-2.51,2.731,11.587,11.587,0,0,1-1.47-3.347H1118a10.707,10.707,0,0,1,1.59.09V21.074a11.182,11.182,0,0,1-1.59.09h-4.37V20.1a11.866,11.866,0,0,1,.09-1.621h-1.3a11.419,11.419,0,0,1,.09,1.621v1.066h-4.31a10.99,10.99,0,0,1-1.59-.09v1.216a11.152,11.152,0,0,1,1.55-.09h4.35Zm2.3-2.942a8.452,8.452,0,0,1,2.17,1.771l0.83-.735a10.721,10.721,0,0,0-2.22-1.726Zm-6.85,4.322a11.461,11.461,0,0,1,2.03,2.656l0.96-.75a15.959,15.959,0,0,0-2.09-2.6Zm3.83,2.761a18.352,18.352,0,0,1-2.87,1.876,10.389,10.389,0,0,1-2.23,1.006l0.58,1.231c0.26-.165.44-0.27,0.77-0.465a31.284,31.284,0,0,0,4.11-2.551Z" transform="translate(-1017 -12)"/>
</svg>
