<svg id="header_favorite_small.svg" xmlns="http://www.w3.org/2000/svg" width="104.781" height="22" viewBox="0 0 104.781 22">
  <defs>
    <style>
      .cls-1 {
        fill: #313131;
        fill-rule: evenodd;
      }
    </style>
  </defs>
  <path id="お気に入り_のコピー" data-name="お気に入り のコピー" class="cls-1" d="M896.875,20.968a15.159,15.159,0,0,1-3.06.645v-1.44a8.577,8.577,0,0,1,.075-1.395h-1.11a9.963,9.963,0,0,1,.075,1.425v1.485c-0.45.03-1.035,0.045-1.44,0.045a8.5,8.5,0,0,1-1.53-.105v0.99H890.5c0.165,0.015.57,0.015,0.795,0.015,0.435,0,.69,0,0.96-0.015,0.465-.03.465-0.03,0.6-0.045v2.835a8.024,8.024,0,0,0-2.115,1.23,2.714,2.714,0,0,0-1.185,1.995,1.809,1.809,0,0,0,.69,1.41,3.962,3.962,0,0,0,2.475.96,1.011,1.011,0,0,0,1.1-1.2v-3.75a10.121,10.121,0,0,1,3.18-.585c1.965,0,3.21.915,3.21,2.385a1.991,1.991,0,0,1-2.01,2.115c-1.1,0-1.545-.645-1.545-2.2a4.453,4.453,0,0,1,.03-0.585,3.251,3.251,0,0,1-.99.39,5.473,5.473,0,0,0,.18,1.695,2.212,2.212,0,0,0,2.31,1.695A3.086,3.086,0,0,0,899.7,25.2a5.078,5.078,0,0,0-2.655-.63,10.626,10.626,0,0,0-3.225.54V22.513a26.327,26.327,0,0,0,2.655-.45c0.21-.045.27-0.06,0.45-0.09Zm-4.02,8.279c0,0.645-.045.735-0.345,0.735a2.8,2.8,0,0,1-1.335-.435,1.148,1.148,0,0,1-.645-0.9c0-.72.84-1.53,2.325-2.25v2.85ZM901.87,22.9a12.6,12.6,0,0,0-3.03-2.85l-0.78.585a12.284,12.284,0,0,1,3.03,2.94Zm12.81-2.37a10.788,10.788,0,0,1,1.89.1v-1.08a12.361,12.361,0,0,1-1.89.105H907.3c0.225-.4.285-0.54,0.42-0.81a3.449,3.449,0,0,1,.255-0.525l-1.065-.24a3.008,3.008,0,0,1-.285.885,10.176,10.176,0,0,1-2.864,3.795,1.777,1.777,0,0,1,.705.66,11.749,11.749,0,0,0,2.354-2.895h7.86Zm-1.41,9.974a35.078,35.078,0,0,0-2.97-2.475,15.81,15.81,0,0,0,1.29-1.56c0.3-.405.3-0.405,0.375-0.51,0.15-.18.15-0.18,0.21-0.255l-0.96-.555a7.673,7.673,0,0,1-1.68,2.325,27.829,27.829,0,0,0-2.865-1.815l-0.644.6a28.72,28.72,0,0,1,2.864,1.845,14.478,14.478,0,0,1-4.649,2.8,2.514,2.514,0,0,1,.72.825,16.009,16.009,0,0,0,4.694-3.06,25.205,25.205,0,0,1,2.925,2.61Zm0.69-5.73a16.3,16.3,0,0,0,.57,4.92c0.4,1.215,1.14,2.1,1.725,2.1a1.122,1.122,0,0,0,.9-0.975,8.752,8.752,0,0,0,.4-2.055,2.265,2.265,0,0,1-.825-0.585c-0.09,1.38-.33,2.5-0.54,2.5a2.192,2.192,0,0,1-.75-1.185,13.9,13.9,0,0,1-.555-4.365,11.719,11.719,0,0,1,.06-1.275,11.823,11.823,0,0,1-1.7.075h-7.184a9.047,9.047,0,0,1-1.395-.09v1.02a10.828,10.828,0,0,1,1.545-.09h7.739Zm-7.485-2.055a8.806,8.806,0,0,1,1.395-.075h5.985a7.6,7.6,0,0,1,1.47.09v-1.02a8.2,8.2,0,0,1-1.47.09H907.78a6.988,6.988,0,0,1-1.3-.075v0.99Zm14.506-3.57a8.354,8.354,0,0,1-.21,1.2,24.811,24.811,0,0,0-.675,5.939,21.5,21.5,0,0,0,.39,4.245c0.045,0.285.06,0.36,0.09,0.6l1.08-.09V30.822a13.074,13.074,0,0,1,1.215-4.125l-0.72-.345a13.935,13.935,0,0,0-.975,2.925c-0.06-.795-0.09-1.68-0.09-2.85a22.172,22.172,0,0,1,.45-4.695,21.312,21.312,0,0,1,.63-2.4Zm3.09,2.835a20,20,0,0,0,2.4.15,25.342,25.342,0,0,0,3.225-.195q0.99-.135,1.035-0.135l-0.075-1.065a16.1,16.1,0,0,1-4.02.405,10.188,10.188,0,0,1-2.55-.225Zm1.1,2.925a4.143,4.143,0,0,0-1.305,2.79,2.12,2.12,0,0,0,.45,1.38c0.645,0.78,1.725,1.14,3.435,1.14a15.482,15.482,0,0,0,3.075-.3c0.3-.045.33-0.06,0.525-0.075l-0.15-1.155a9.874,9.874,0,0,1-3.45.525c-1.935,0-2.88-.54-2.88-1.65a3.484,3.484,0,0,1,1.125-2.2Zm14.955-4.68a13.039,13.039,0,0,1-.48,3.27,12.136,12.136,0,0,1-2.31,4.365,12.562,12.562,0,0,1-3.479,2.955,2.691,2.691,0,0,1,.81.885,14.1,14.1,0,0,0,1.889-1.47,14.245,14.245,0,0,0,2.025-2.28,12.92,12.92,0,0,0,2.1-4.86,11.819,11.819,0,0,0,.945,2.775,13.8,13.8,0,0,0,2.145,3.24,14.058,14.058,0,0,0,2.91,2.565,3.311,3.311,0,0,1,.84-0.96,12.209,12.209,0,0,1-2.8-2.175,13.408,13.408,0,0,1-2.25-3.1,10.937,10.937,0,0,1-1.275-5.235,7.766,7.766,0,0,1,.06-0.99,7.143,7.143,0,0,1-1.395.09h-1.98a5.632,5.632,0,0,1-1.14-.075v1.08c0.5-.045.855-0.075,1.14-0.075h2.25Zm11.941-1.53a3.007,3.007,0,0,1-.045.48,37.911,37.911,0,0,0-.51,5.535v0.345l0.03,1.56,0.015,0.27v0.165l1.08-.045c-0.015-.225-0.015-0.3-0.015-0.36a7.827,7.827,0,0,1,.81-3.345c0.855-1.755,1.815-2.61,2.955-2.61,1.44,0,2.28,1.395,2.28,3.81,0,2.4-.825,3.975-2.58,4.98a7.926,7.926,0,0,1-3.045.945,3.1,3.1,0,0,1,.6,1.02,11.354,11.354,0,0,0,2.67-.885,6.188,6.188,0,0,0,3.465-5.895,6.161,6.161,0,0,0-.9-3.645,2.824,2.824,0,0,0-2.4-1.335,3.578,3.578,0,0,0-3,1.935,6.692,6.692,0,0,0-.915,2.235c-0.075.315-.075,0.315-0.105,0.435l-0.06-.015c0.045-.765.255-2.4,0.495-3.915a8.5,8.5,0,0,1,.345-1.545Z" transform="translate(-855 -14)"/>
  <path id="シェイプ_30_のコピー_3" data-name="シェイプ 30 のコピー 3" class="cls-1" d="M867.493,35.995a1.482,1.482,0,0,1-.966-0.358c-1.01-.872-1.984-1.7-2.842-2.417l0,0a52.793,52.793,0,0,1-6.2-5.759A9.145,9.145,0,0,1,855,21.436a7.675,7.675,0,0,1,1.983-5.275,6.758,6.758,0,0,1,5-2.15,6.324,6.324,0,0,1,3.927,1.341,7.918,7.918,0,0,1,1.588,1.638,7.918,7.918,0,0,1,1.588-1.638,6.324,6.324,0,0,1,3.927-1.341,6.76,6.76,0,0,1,5,2.15,7.675,7.675,0,0,1,1.983,5.275,9.145,9.145,0,0,1-2.479,6.022,52.929,52.929,0,0,1-6.2,5.759c-0.86.722-1.835,1.546-2.847,2.421a1.489,1.489,0,0,1-.966.357h0Zm-5.515-20.539a5.3,5.3,0,0,0-3.923,1.685,6.247,6.247,0,0,0-1.595,4.295,7.7,7.7,0,0,0,2.142,5.1,51.656,51.656,0,0,0,6.028,5.579l0,0.006c0.862,0.726,1.84,1.549,2.857,2.429,1.023-.88,2-1.706,2.866-2.434a51.718,51.718,0,0,0,6.027-5.579,7.7,7.7,0,0,0,2.142-5.1,6.252,6.252,0,0,0-1.595-4.295,5.3,5.3,0,0,0-3.923-1.685,4.9,4.9,0,0,0-3.032,1.038,7.058,7.058,0,0,0-1.689,1.932,0.929,0.929,0,0,1-1.588,0,7.058,7.058,0,0,0-1.689-1.932,4.9,4.9,0,0,0-3.032-1.038h0Zm0,0" transform="translate(-855 -14)"/>
</svg>
