<svg id="img_docment_sp.svg" xmlns="http://www.w3.org/2000/svg" width="204.469" height="48" viewBox="0 0 204.469 48">
  <defs>
    <style>
      .cls-1 {
        fill: #fff;
        fill-rule: evenodd;
      }
    </style>
  </defs>
  <path id="資料請求" class="cls-1" d="M182.061,231.106c-0.8,3.168-3.584,4.993-8.322,5.441a5.516,5.516,0,0,1,1.249,1.888,15.355,15.355,0,0,0,4.929-1.632,7.819,7.819,0,0,0,3.489-3.553c1.984,3.265,4.833,4.929,10.434,6.081a9.427,9.427,0,0,1,1.121-2.208,17.085,17.085,0,0,1-6.85-1.92,7.478,7.478,0,0,1-3.553-4.1H190.7a8.478,8.478,0,0,1-2.657,2.272,10.612,10.612,0,0,1,2.112.96,14.562,14.562,0,0,0,2.913-3.04,3.594,3.594,0,0,1,.448-0.608,3.209,3.209,0,0,0,.352-0.481l-1.44-1.152a11.425,11.425,0,0,1-2.465.16H179.629c0.512-.736.8-1.184,1.408-2.144l-2.368-.608a12.722,12.722,0,0,1-5.058,5.921,4.858,4.858,0,0,1,1.633,1.5,19.7,19.7,0,0,0,3.008-2.784h3.809Zm-8.322-.7a27.686,27.686,0,0,0-5.185-3.04l-1.5,1.728a20.284,20.284,0,0,1,5.185,3.2Zm0.352,3.073a32.653,32.653,0,0,1-8.034,2.849l0.9,2.432a11.593,11.593,0,0,1,1.44-.64c2.913-1.088,3.937-1.536,6.338-2.656Zm0.9,17.572a21.924,21.924,0,0,1-9.219,2.785,7.6,7.6,0,0,1,1.409,2.112,27.146,27.146,0,0,0,9.7-3.521Zm8.194,1.376a26.131,26.131,0,0,0,9.986,3.489,10.772,10.772,0,0,1,1.409-2.144,24.11,24.11,0,0,1-9.6-2.689Zm-10.051-13.795c-1.5,0-2.56-.032-3.3-0.1,0.064,0.928.1,1.921,0.1,3.393v5.889a25.387,25.387,0,0,1-.128,3.265,32.948,32.948,0,0,1,3.521-.128h13.6a32.915,32.915,0,0,1,3.52.128,27.191,27.191,0,0,1-.128-3.361v-5.665c0-1.568.032-2.593,0.1-3.521-0.864.064-1.536,0.1-3.3,0.1H173.131Zm-0.864,1.793h15.716v1.76H172.267v-1.76Zm0,3.456h15.716v1.761H172.267v-1.761Zm0,3.457h15.716v1.793H172.267v-1.793Zm48.837-2.048-8.418,1.952a17.212,17.212,0,0,1-3.105.512l0.512,2.657c0.769-.256,1.7-0.512,3.009-0.832l8-1.889v4.545a24.127,24.127,0,0,1-.192,3.617h2.817a20.915,20.915,0,0,1-.192-3.553v-5.185l0.608-.128a28.765,28.765,0,0,1,3.073-.576l-0.48-2.657a18.817,18.817,0,0,1-2.945.9l-0.256.064v-14.5a20.142,20.142,0,0,1,.192-3.424h-2.817a22.546,22.546,0,0,1,.192,3.456v15.044Zm-17.8-5.5a26.5,26.5,0,0,1-1.761,4.1,20.626,20.626,0,0,1-3.713,5.218,6.812,6.812,0,0,1,1.313,2.208,23.478,23.478,0,0,0,4.769-8.706c-0.1,1.536-.16,3.2-0.16,4.769v5.057a27.708,27.708,0,0,1-.192,3.521h2.689a26.321,26.321,0,0,1-.161-3.457v-5.825c0-.768-0.128-3.2-0.192-4.417a20.2,20.2,0,0,0,3.553,5.153,13.179,13.179,0,0,1,1.217-2.112,18.786,18.786,0,0,1-4.417-5.5h1.568a17.426,17.426,0,0,1,2.433.128v-2.369a15.823,15.823,0,0,1-2.4.128h-1.761v-7.586a21.807,21.807,0,0,1,.161-3.328h-2.689a21.4,21.4,0,0,1,.192,3.36v7.554h-2.465a14.283,14.283,0,0,1-2.784-.16v2.433a15.736,15.736,0,0,1,2.816-.16h1.985ZM198.539,229.6a27.735,27.735,0,0,1,2.08,6.818l1.953-.832a39.229,39.229,0,0,0-2.081-6.882Zm10.53-.992a24.909,24.909,0,0,1-2.3,6.946l1.76,0.864a34.826,34.826,0,0,0,2.593-6.946Zm3.169,2.209A26.565,26.565,0,0,1,218,235.907l1.569-1.921a32.594,32.594,0,0,0-5.73-4.929Zm-0.992,7.969a25,25,0,0,1,5.761,4.993l1.569-1.888a29.922,29.922,0,0,0-5.7-4.833Zm37.058-7.841v2.016h-3.041a22.325,22.325,0,0,1-2.88-.128v2.112a18.766,18.766,0,0,1,2.848-.16H248.3v2.049h-4.161a16.728,16.728,0,0,1-3.265-.192v2.3a18.151,18.151,0,0,1,3.265-.192h11.523a17.417,17.417,0,0,1,3.169.192v-2.3a20.332,20.332,0,0,1-3.169.192h-5.185v-2.049h3.585a24.206,24.206,0,0,1,2.912.128v-2.08a22.01,22.01,0,0,1-2.88.128h-3.617v-2.016h4.609a19.411,19.411,0,0,1,3.073.16v-2.241a15.506,15.506,0,0,1-3.073.192h-4.609a11.567,11.567,0,0,1,.192-2.56h-2.561a11.4,11.4,0,0,1,.192,2.56h-3.777a15.008,15.008,0,0,1-2.977-.192v2.241a18.083,18.083,0,0,1,2.977-.16H248.3Zm-3.681,19.46h9.667v2.112c0,0.7-.224.9-1.089,0.9a23.935,23.935,0,0,1-3.457-.32,8.145,8.145,0,0,1,.609,2.273c1.088,0.1,2.016.128,2.816,0.128,2.689,0,3.361-.512,3.361-2.625v-9.122a30.632,30.632,0,0,1,.128-3.392,16.277,16.277,0,0,1-2.945.16h-8.546a24.071,24.071,0,0,1-2.848-.128c0.064,0.864.1,1.408,0.1,2.784v9.09a23.984,23.984,0,0,1-.16,3.521h2.56a23.525,23.525,0,0,1-.192-3.521v-1.856Zm0-1.921v-2.048h9.667v2.048h-9.667Zm0-3.936v-2.113h9.667v2.113h-9.667Zm-13.795-14.628a16.911,16.911,0,0,1,2.4-.128h4.257a18.114,18.114,0,0,1,2.4.128v-2.336a12.855,12.855,0,0,1-2.4.16h-4.257a12.441,12.441,0,0,1-2.4-.16v2.336Zm-1.121,4.513a19.459,19.459,0,0,1,2.561-.128h5.858a22.369,22.369,0,0,1,2.368.1v-2.336a12.475,12.475,0,0,1-2.56.16h-5.666a13.692,13.692,0,0,1-2.561-.16v2.368Zm1.217,4.449a17.858,17.858,0,0,1,2.144-.1h4.609a18.543,18.543,0,0,1,2.081.1v-2.24a11.248,11.248,0,0,1-2.081.128h-4.609a12.276,12.276,0,0,1-2.144-.128v2.24Zm0,4.449a18.373,18.373,0,0,1,2.112-.1h4.609a18,18,0,0,1,2.113.1v-2.24a12.164,12.164,0,0,1-2.081.128h-4.609a12.511,12.511,0,0,1-2.144-.128v2.24Zm2.4,12.291v-1.664h4.289v1.248h2.273a20.181,20.181,0,0,1-.128-2.625v-4.545a22.77,22.77,0,0,1,.1-2.464,18.5,18.5,0,0,1-2.273.1h-4a19.339,19.339,0,0,1-2.592-.128,20.6,20.6,0,0,1,.128,2.592v4.353c0,1.12-.064,2.145-0.16,3.137h2.368Zm0-7.97h4.289v4.321h-4.289v-4.321Zm41.54-12.9v17.54c0,0.768-.256.928-1.441,0.928a26.784,26.784,0,0,1-4.193-.384,7.9,7.9,0,0,1,.609,2.5c1.664,0.128,2.752.192,3.937,0.192,2.72,0,3.488-.576,3.488-2.593V244.26c-0.064-2.368-.1-3.712-0.128-4.032,0-.224-0.032-0.609-0.032-1.057a25.006,25.006,0,0,0,3.969,7.3,28.711,28.711,0,0,0,7.682,6.945,10.339,10.339,0,0,1,1.729-2.3,23.034,23.034,0,0,1-5.506-3.841,28.331,28.331,0,0,1-3.2-3.553,42.945,42.945,0,0,0,4.289-3.968c1.664-1.761,1.664-1.761,1.92-2.049l-2.144-1.632a23.427,23.427,0,0,1-5.346,5.825,25.031,25.031,0,0,1-3.137-7.138h9.219a23.066,23.066,0,0,1,3.393.192v-2.592a23.985,23.985,0,0,1-3.393.192h-9.315v-2.273a25.292,25.292,0,0,1,.192-3.456h-2.784a24.337,24.337,0,0,1,.192,3.456v2.273h-9.186a23.349,23.349,0,0,1-3.393-.192v2.592a23.732,23.732,0,0,1,3.3-.192h9.283Zm4.9-6.273a18.052,18.052,0,0,1,4.641,3.777l1.761-1.568a22.568,22.568,0,0,0-4.738-3.681Zm-14.6,9.218a24.688,24.688,0,0,1,4.321,5.665l2.049-1.6a33.376,33.376,0,0,0-4.449-5.537Zm8.162,5.889a39.444,39.444,0,0,1-6.113,4,22.256,22.256,0,0,1-4.769,2.145l1.248,2.624c0.544-.352.928-0.576,1.632-0.992a65.418,65.418,0,0,0,8.771-5.441Z" transform="translate(-86 -216)"/>
  <path id="シェイプ_558" data-name="シェイプ 558" class="cls-1" d="M117.8,235.314a0.928,0.928,0,1,0,.913.928A0.921,0.921,0,0,0,117.8,235.314Zm0,6.546a0.927,0.927,0,1,0,.913.927A0.921,0.921,0,0,0,117.8,241.86ZM95.668,228.768a0.928,0.928,0,1,0,.913.928A0.922,0.922,0,0,0,95.668,228.768Zm0,6.546a0.928,0.928,0,1,0,.913.928A0.921,0.921,0,0,0,95.668,235.314Zm0,6.546a0.927,0.927,0,1,0,.913.927A0.921,0.921,0,0,0,95.668,241.86Zm44.258-21.5H136.7V217.09A1.082,1.082,0,0,0,135.629,216H117.8a5.338,5.338,0,0,0-4.3,2.186A5.341,5.341,0,0,0,109.2,216H91.371A1.082,1.082,0,0,0,90.3,217.09v3.273H87.074A1.083,1.083,0,0,0,86,221.453v37.092a1.082,1.082,0,0,0,1.074,1.09h19.474a3.2,3.2,0,0,1,2.882,1.809,4.518,4.518,0,0,0,8.139,0,3.2,3.2,0,0,1,2.883-1.81h19.474a1.082,1.082,0,0,0,1.074-1.09V221.453A1.083,1.083,0,0,0,139.926,220.363Zm-25.513,1.09a3.414,3.414,0,0,1,3.384-3.435h16.919v35.236H117.8a5.107,5.107,0,0,0-3.126,1.06l-0.258.2V221.453Zm-5.21-3.272a3.252,3.252,0,0,1,3.223,3.272v32.731a5.3,5.3,0,0,0-3.223-1.094H92.445V218.181H109.2Zm29.648,39.272h-18.4a5.336,5.336,0,0,0-4.8,3.015,2.384,2.384,0,0,1-4.3,0,5.338,5.338,0,0,0-4.8-3.015h-18.4V222.545H90.3V254.18a1.083,1.083,0,0,0,1.074,1.092H109.2a3.252,3.252,0,0,1,3.223,3.273,1.074,1.074,0,1,0,2.148,0,3.252,3.252,0,0,1,3.223-3.273h17.832a1.083,1.083,0,0,0,1.074-1.092V222.545h2.148v34.908ZM109.2,228.768H99.965a0.928,0.928,0,0,0,0,1.855H109.2A0.928,0.928,0,0,0,109.2,228.768Zm0,6.546H99.965a0.928,0.928,0,0,0,0,1.855H109.2A0.928,0.928,0,0,0,109.2,235.314Zm0,6.546H99.965a0.927,0.927,0,0,0,0,1.854H109.2A0.927,0.927,0,0,0,109.2,241.86Zm22.129-6.546h-9.238a0.928,0.928,0,0,0,0,1.855h9.238A0.928,0.928,0,0,0,131.332,235.314Zm0,6.546h-9.238a0.927,0.927,0,0,0,0,1.854h9.238A0.927,0.927,0,0,0,131.332,241.86ZM117.8,228.647a0.928,0.928,0,1,0,.913.928A0.922,0.922,0,0,0,117.8,228.647Zm13.535,0h-9.238a0.928,0.928,0,0,0,0,1.856h9.238A0.928,0.928,0,0,0,131.332,228.647Z" transform="translate(-86 -216)"/>
</svg>
