<svg id="img_reserve.svg" xmlns="http://www.w3.org/2000/svg" width="253.91" height="39" viewBox="0 0 253.91 39">
  <defs>
    <style>
      .cls-1 {
        fill: #fff;
        fill-rule: evenodd;
      }
    </style>
  </defs>
  <path id="シェイプ_558" data-name="シェイプ 558" class="cls-1" d="M1050,209.726l-5.16-5.339-3.5,3.622V197h-18.51l-7.83,8.106V236h26.34V218.717l0.12-.127Zm-5.19-3.252,3.16,3.273-1.95,2.03-3.16-3.272Zm-21.24-8.181v7.586h-7.32Zm16.36,36.244h-23.52v-27.2h8.57v-8.88h14.95v11.018l-3.28,3.415h-15.93v1.463h14.53l-3.91,4.064h-10.62v1.462h10.21l-0.82,4.065h-9.39v1.462h8.69l6.94-1.492,3.58-3.731v14.35Zm-7.04-15.657,3.16,3.271-0.4.424-0.13.026-3.86.831,0.83-4.132Zm4.16,2.236-3.16-3.273,0.29-.309,7.68-7.993,3.16,3.273Z" transform="translate(-1015 -197)"/>
  <path id="見学_入居相談をする" data-name="見学・入居相談をする" class="cls-1" d="M1064.31,219.264a4.8,4.8,0,0,1-2.12,3.476,10.511,10.511,0,0,1-4.57,1.606,5.233,5.233,0,0,1,.92,1.562,10.882,10.882,0,0,0,5.59-2.618,6.428,6.428,0,0,0,1.98-4.026h2.49v4.4c0,1.43.61,1.694,3.93,1.694,4.23,0,4.49-.242,4.95-4.246a6.892,6.892,0,0,1-1.65-.7c-0.22,3.388-.22,3.388-3.19,3.388-2.15,0-2.35-.066-2.35-0.726v-3.806h1.91c1.1,0,1.85.022,2.42,0.066a17.782,17.782,0,0,1-.11-2.31v-7.612c0-1.232.05-2.376,0.11-2.882a22.9,22.9,0,0,1-2.33.11h-9.5a17.77,17.77,0,0,1-2.31-.11,28.792,28.792,0,0,1,.11,2.882v7.612a16.715,16.715,0,0,1-.11,2.31c0.66-.044,1.25-0.066,2.44-0.066h1.39Zm-2.09-11.088h10.67v2.134h-10.67v-2.134Zm0,3.608h10.67v2.2h-10.67v-2.2Zm0,3.674h10.67v2.332h-10.67v-2.332Zm20.54-6.248c-1.25,0-1.65-.022-2.55-0.088a12.76,12.76,0,0,1,.09,1.8v1.76a11.3,11.3,0,0,1-.11,1.584h1.74v-3.63h15.16v3.63h1.73a13.7,13.7,0,0,1-.11-1.584v-1.76a14.473,14.473,0,0,1,.09-1.8c-0.81.066-1.25,0.088-2.59,0.088h-1.5a21.616,21.616,0,0,0,1.98-2.86l-1.67-.594a12.534,12.534,0,0,1-2.14,3.454h-2.24a21.215,21.215,0,0,0-1.63-3.5l-1.63.44a13.292,13.292,0,0,1,1.52,3.058h-2.95a19.635,19.635,0,0,0-2.17-3.212l-1.57.484a13.573,13.573,0,0,1,1.94,2.728h-1.39Zm7.68,10.208h6.32a17.632,17.632,0,0,1,2.44.132v-1.782a18.452,18.452,0,0,1-2.44.132h-6.32v-0.506a25.51,25.51,0,0,0,4.86-3.212c0.47-.4.47-0.4,0.77-0.638l-0.94-1.012a10.038,10.038,0,0,1-1.65.088h-7.75a19.924,19.924,0,0,1-2.15-.11v1.672a19.7,19.7,0,0,1,2.11-.11h7.5a18.671,18.671,0,0,1-3.58,2.244h-0.93a10.913,10.913,0,0,1,.07,1.276V217.9h-6.43a18.37,18.37,0,0,1-2.39-.132v1.782a17.634,17.634,0,0,1,2.39-.132h6.43v4.092c0,0.44-.13.506-1.12,0.506a21.36,21.36,0,0,1-2.86-.22,6,6,0,0,1,.52,1.672c0.77,0.066,1.87.11,2.45,0.11,2.26,0,2.7-.286,2.7-1.76v-4.4Zm19.36-5.808a2.035,2.035,0,1,0,2.03,2.024A2.025,2.025,0,0,0,1109.8,213.61Zm18.07-5.038a17.862,17.862,0,0,1-.73,4.708,16.991,16.991,0,0,1-3.5,6.424,17.656,17.656,0,0,1-4.91,4.07,4.833,4.833,0,0,1,1.37,1.606,21.313,21.313,0,0,0,5.65-5.368,18.749,18.749,0,0,0,3.13-7,18.092,18.092,0,0,0,2.66,6.226,21.3,21.3,0,0,0,6.01,6.072,6.379,6.379,0,0,1,1.43-1.716,16.718,16.718,0,0,1-3.88-2.948,19.005,19.005,0,0,1-3.36-4.466,16.243,16.243,0,0,1-2.03-7.964,12.345,12.345,0,0,1,.09-1.452,8.817,8.817,0,0,1-2.02.132h-3.08a9.443,9.443,0,0,1-1.78-.11v1.892c0.74-.066,1.34-0.11,1.8-0.11h3.15Zm23.36,7.216v2.552h-3.3c-0.86,0-1.17-.022-1.8-0.066a17,17,0,0,1,.08,1.936v3.454a12.875,12.875,0,0,1-.11,2.024h1.74v-1.012h9.29v1.012h1.73c-0.06-.66-0.11-1.32-0.11-2.156V220.21a17.335,17.335,0,0,1,.09-1.958,15.866,15.866,0,0,1-1.96.088h-4v-2.552h5.21a21.227,21.227,0,0,1,2.2.11v-1.716a12.339,12.339,0,0,1-2.17.132h-5.24v-2.266h4.29c0.95,0,1.5.022,2.24,0.066-0.04-.55-0.06-0.99-0.06-1.716v-2.2c0-.726.02-1.254,0.06-1.76a22.188,22.188,0,0,1-2.35.088h-11.31a23.55,23.55,0,0,1-2.73-.11,18.844,18.844,0,0,1,.11,2.442c0,9.108-.48,12.122-2.46,15.2a7.872,7.872,0,0,1,1.43,1.408c1.67-2.9,2.27-5.214,2.55-9.68h6.58Zm0-1.474h-6.51l0.04-2.266h6.47v2.266Zm-6.45-3.74V208h12.94v2.574h-12.94Zm3.06,9.24h9.29V223.2h-9.29v-3.388Zm21.67-8.47a14.18,14.18,0,0,1,1.43.066v-1.65a8.833,8.833,0,0,1-1.43.088h-1.52v-2.024a19.182,19.182,0,0,1,.11-2.266h-1.87a10.654,10.654,0,0,1,.14,2.266v2.024h-1.68a9.653,9.653,0,0,1-1.6-.088v1.672a10.006,10.006,0,0,1,1.58-.088h1.45a18.922,18.922,0,0,1-3.67,7.546,6.178,6.178,0,0,1,.97,1.606,20.03,20.03,0,0,0,3.08-6.644c-0.11,2.09-.13,2.684-0.13,3.564v5.742a19.085,19.085,0,0,1-.14,2.6h1.9a18.635,18.635,0,0,1-.14-2.6v-6.4c0-.682-0.02-1.5-0.08-3.388a15.65,15.65,0,0,0,2.42,4.356,6.246,6.246,0,0,1,.9-1.54,13.161,13.161,0,0,1-3.1-4.84h1.38Zm3.9,14.322v-1.518h6.6v1.43h1.76a24.271,24.271,0,0,1-.11-2.684v-14.1c0-1.1.02-1.694,0.06-2.2a15.37,15.37,0,0,1-1.73.066h-6.54c-0.99,0-1.23,0-1.78-.044,0.06,1.012.09,1.628,0.09,2.354v13.948c0,1.122-.05,1.958-0.11,2.75h1.76Zm0-17.446h6.6v3.652h-6.6V208.22Zm0,5.192h6.6v3.74h-6.6v-3.74Zm0,5.28h6.6v3.916h-6.6v-3.916Zm12.27-10.758a11.9,11.9,0,0,1,1.65-.088h2.71a11.808,11.808,0,0,1,1.65.088v-1.606a8.579,8.579,0,0,1-1.65.11h-2.71a8.33,8.33,0,0,1-1.65-.11v1.606Zm-0.96,3.124a13.755,13.755,0,0,1,1.76-.088h4.26a10.6,10.6,0,0,1,1.61.088v-1.65a11.389,11.389,0,0,1-1.76.088h-4.11a9.336,9.336,0,0,1-1.76-.11v1.672Zm0.94,3.058a8.65,8.65,0,0,1,1.48-.088h3.05a8.3,8.3,0,0,1,1.43.088v-1.562a7.391,7.391,0,0,1-1.43.088h-3.05a8.5,8.5,0,0,1-1.48-.088v1.562Zm0,3.036a8.483,8.483,0,0,1,1.45-.088h3.06a8.119,8.119,0,0,1,1.45.088v-1.54a11.109,11.109,0,0,1-1.43.066h-3.05a12.6,12.6,0,0,1-1.48-.066v1.54Zm1.56,8.426v-1.254h2.93v0.9h1.52a11.707,11.707,0,0,1-.05-1.452v-3.52a16.331,16.331,0,0,1,.07-1.672,6.794,6.794,0,0,1-1.34.066h-3.32a7.8,7.8,0,0,1-1.43-.088,16.329,16.329,0,0,1,.08,1.782v3.08a21.54,21.54,0,0,1-.11,2.156h1.65Zm-0.04-5.632h2.97v2.992h-2.97v-2.992Zm7.08-12.98a7.729,7.729,0,0,1-1.62,3.762l1.47,0.638a12.3,12.3,0,0,0,1.72-4.026Zm8.5-.2a10.716,10.716,0,0,1-2.36,3.454,9.213,9.213,0,0,1,1.3.836,16.861,16.861,0,0,0,2.6-3.608Zm-8.67,9.548a7.673,7.673,0,0,1-1.72,3.784l1.5,0.66a12.025,12.025,0,0,0,1.76-4Zm8.62-.044a9.7,9.7,0,0,1-2.18,3.366,7.744,7.744,0,0,1,1.3.858,18.03,18.03,0,0,0,2.4-3.542Zm-5.26-10.384a6.929,6.929,0,0,1,.11,1.386,6.793,6.793,0,0,1-2.24,5.61,7.618,7.618,0,0,1-3.28,1.694,4.312,4.312,0,0,1,.99,1.43,9.3,9.3,0,0,0,4.09-2.948,6.827,6.827,0,0,0,1.28-2.42,7.091,7.091,0,0,0,1.28,2.222,10.72,10.72,0,0,0,4.11,3.146,6.847,6.847,0,0,1,.92-1.54,9.127,9.127,0,0,1-2.2-1.034,7.865,7.865,0,0,1-2.17-1.98,6.905,6.905,0,0,1-1.17-4.224,9.416,9.416,0,0,1,.09-1.342h-1.81Zm-0.04,8.712a9.425,9.425,0,0,1,.09,1.5,8.475,8.475,0,0,1-1.39,5.192,7.881,7.881,0,0,1-4.35,3.058,4.874,4.874,0,0,1,.96,1.5,9.74,9.74,0,0,0,3.99-2.86,7.644,7.644,0,0,0,1.67-3.278,8.521,8.521,0,0,0,1.78,3.08,12.672,12.672,0,0,0,3.94,3.036,5.707,5.707,0,0,1,.97-1.65,9.871,9.871,0,0,1-4.49-3.278,7.647,7.647,0,0,1-1.45-4.928,9.558,9.558,0,0,1,.08-1.364h-1.8Zm15.82-5.588a27.623,27.623,0,0,1-4.73-.264l-0.05,1.8a2.148,2.148,0,0,1,.47-0.044,3.789,3.789,0,0,1,.44.022c0.46,0.022,2.64.066,3.08,0.066,0.08,0,.33-0.022.39-0.022a3.892,3.892,0,0,1-.2.352,21.822,21.822,0,0,1-4.81,6.072l1.45,1.452a7.75,7.75,0,0,1,1.76-1.87,8.053,8.053,0,0,1,4.77-2.31,1.493,1.493,0,0,1,1.63,1.562,17.271,17.271,0,0,0-3.23,1.76c-1.57,1.122-2.34,2.31-2.34,3.564a2.93,2.93,0,0,0,1.5,2.64,9.11,9.11,0,0,0,4.51.858,37.116,37.116,0,0,0,5.48-.418,5.214,5.214,0,0,1,.9-0.11l-0.2-2.024a18.483,18.483,0,0,1-5.98.88c-3.1,0-4.36-.572-4.36-1.958a2.638,2.638,0,0,1,1.3-2.068,13.5,13.5,0,0,1,2.64-1.452v0.682c0,1.188-.07,2.486-0.13,2.926l1.8-.022a6.644,6.644,0,0,1-.04-0.9v-0.9c0.02-.44.02-0.9,0.02-1.144,0-.484,0-0.55-0.02-1.276a33.64,33.64,0,0,1,5.83-1.87l-0.79-1.8a6.385,6.385,0,0,1-1.54.638c-1.08.374-1.98,0.7-3.7,1.364a2.73,2.73,0,0,0-2.97-2.4,5.716,5.716,0,0,0-3.04.9,4.728,4.728,0,0,0-.74.55,2.451,2.451,0,0,0-.31.22,0.661,0.661,0,0,1-.05-0.066,0.223,0.223,0,0,0,.05-0.044,0.77,0.77,0,0,1,.22-0.176,6.233,6.233,0,0,0,.7-0.814,15.709,15.709,0,0,0,1.78-2.794c2.16-.066,4.98-0.264,6.49-0.462,1.28-.176,1.28-0.176,1.7-0.22l-0.13-1.76a29.225,29.225,0,0,1-5.94.77c-1.24.066-1.24,0.066-1.39,0.088a15.875,15.875,0,0,0,.66-1.474,4.461,4.461,0,0,1,.53-1.122l-2.07-.308a9.739,9.739,0,0,1-.99,2.926h-0.35Zm26.53,0.132c-2.46.066-3.43,0.088-5.3,0.154-3.32.132-3.46,0.132-4.05,0.132-0.33,0-.51,0-0.95-0.022l0.07,1.892c1.36-.22,6.49-0.506,10.25-0.572,0,1.21.03,2.354,0.05,2.552v0.154a3.323,3.323,0,0,0-2.45-.88,3.8,3.8,0,0,0-4.07,3.74,3.7,3.7,0,0,0,7.11,1.474,4.815,4.815,0,0,1-.64,2.222c-0.94,1.716-2.64,2.794-5.48,3.564a5.638,5.638,0,0,1,1.13,1.694,14.334,14.334,0,0,0,3.63-1.782,6.921,6.921,0,0,0,3.01-5.808,6.315,6.315,0,0,0-.55-2.728v-4.224c1.76-.022,2.14-0.022,2.44-0.022a38.152,38.152,0,0,1,4.05.11v-1.848c-0.72.088-2.4,0.132-6.51,0.154a18.589,18.589,0,0,1,.11-2.882h-1.98a8.9,8.9,0,0,1,.11,1.276Zm-2.22,4.884a2.5,2.5,0,0,1,1.74.638,1.473,1.473,0,0,1,.44,1.166,2.328,2.328,0,0,1-2.45,2.42,2.026,2.026,0,0,1-2.15-2.09A2.238,2.238,0,0,1,1237.54,214.028Zm17.27-4.664a10.745,10.745,0,0,1,1.17-.11c3.21-.132,5.69-0.264,6.51-0.4a0.453,0.453,0,0,0,.17-0.022l0.03,0.044c-0.18.176-.18,0.176-0.25,0.242s-0.08.088-.17,0.176c-3.3,3.256-8.3,7.392-10.23,8.47l1.12,1.672a13.973,13.973,0,0,1,9.24-3.74c2.88,0,4.62,1.21,4.62,3.234a3.362,3.362,0,0,1-1.5,2.816,5.255,5.255,0,0,1-1.8.836,6.207,6.207,0,0,0-.99-2.09,4.511,4.511,0,0,0-3.67-1.8c-1.94,0-3.37,1.166-3.37,2.728a2.978,2.978,0,0,0,.66,1.848c0.81,0.946,2.31,1.43,4.47,1.43,4.86,0,8.09-2.332,8.09-5.808,0-2.86-2.37-4.708-6.07-4.708a10.754,10.754,0,0,0-5.17,1.276l-0.04-.088a53.269,53.269,0,0,0,7.1-6.006,3.975,3.975,0,0,1,1.12-.924l-1.05-1.43a2.253,2.253,0,0,1-1.15.264c-1.95.154-4.86,0.286-6.71,0.286a11.645,11.645,0,0,1-2.22-.132Zm7.19,13.662a7.591,7.591,0,0,1-1.45.132c-1.91,0-3.12-.66-3.12-1.694a1.379,1.379,0,0,1,1.63-1.254C1260.55,220.21,1261.54,221.178,1262,223.026Z" transform="translate(-1015 -197)"/>
</svg>
