<svg id="img_favorite02_on.svg" xmlns="http://www.w3.org/2000/svg" width="152.531" height="17" viewBox="0 0 152.531 17">
  <defs>
    <style>
      .cls-1 {
        fill: #313131;
      }

      .cls-1, .cls-2 {
        fill-rule: evenodd;
      }

      .cls-2 {
        fill: #f05f5f;
      }
    </style>
  </defs>
  <path id="お気に入りを削除" class="cls-1" d="M346.965,10782.3a18.261,18.261,0,0,1-3.265.7v-1.5a8.5,8.5,0,0,1,.08-1.5H342.6a9.225,9.225,0,0,1,.08,1.5v1.6h-1.536a7.649,7.649,0,0,1-1.633-.1v1.1h2.529a2.6,2.6,0,0,1,.64-0.1v3a10.648,10.648,0,0,0-2.256,1.4,2.8,2.8,0,0,0-1.265,2.1,1.844,1.844,0,0,0,.736,1.5,4.345,4.345,0,0,0,2.641,1,1.08,1.08,0,0,0,1.169-1.3v-4a11.685,11.685,0,0,1,3.393-.6c2.1,0,3.426,1,3.426,2.6a2.085,2.085,0,0,1-2.145,2.2c-1.169,0-1.649-.7-1.649-2.3a5.908,5.908,0,0,1,.032-0.7,1.964,1.964,0,0,1-1.056.4,6.779,6.779,0,0,0,.192,1.9,2.4,2.4,0,0,0,2.465,1.8,3.327,3.327,0,0,0,1.616-6.2,5.917,5.917,0,0,0-2.833-.7,11.976,11.976,0,0,0-3.441.6v-2.7c0.752-.1,1.52-0.3,2.833-0.5a0.889,0.889,0,0,1,.48-0.1Zm-4.29,8.8c0,0.7-.048.8-0.368,0.8a3.905,3.905,0,0,1-1.424-.4,1.328,1.328,0,0,1-.689-1c0-.8.9-1.6,2.481-2.4v3Zm9.62-6.7a13.464,13.464,0,0,0-3.233-3.1l-0.832.7a11.93,11.93,0,0,1,3.233,3.1Zm13.664-2.6a8.305,8.305,0,0,1,2.017.2v-1.2a11.231,11.231,0,0,1-2.017.1h-7.875a8.07,8.07,0,0,0,.448-0.9,5.391,5.391,0,0,1,.272-0.5l-1.136-.3a2.974,2.974,0,0,1-.305,1,10.545,10.545,0,0,1-3.057,4,2.557,2.557,0,0,1,.753.7,11.559,11.559,0,0,0,2.513-3.1h8.387Zm-1.5,10.7c-1.12-1-1.984-1.8-3.169-2.7a11.9,11.9,0,0,0,1.377-1.6,5.984,5.984,0,0,1,.4-0.6c0.16-.2.16-0.2,0.224-0.2l-1.025-.6a9.068,9.068,0,0,1-1.792,2.5,36.268,36.268,0,0,0-3.058-2l-0.688.7a23.029,23.029,0,0,1,3.057,1.9,13.7,13.7,0,0,1-4.962,3,2.7,2.7,0,0,1,.769.9,16.586,16.586,0,0,0,5.01-3.3,41.722,41.722,0,0,1,3.121,2.8Zm0.737-6.1a17.227,17.227,0,0,0,.608,5.2c0.432,1.3,1.216,2.3,1.841,2.3a1.247,1.247,0,0,0,.96-1.1,9.375,9.375,0,0,0,.432-2.2,2.09,2.09,0,0,1-.88-0.6c-0.1,1.5-.352,2.7-0.576,2.7a2.233,2.233,0,0,1-.8-1.3,14.724,14.724,0,0,1-.592-4.6,12.442,12.442,0,0,1,.064-1.4,8.509,8.509,0,0,1-1.809.1h-7.667c-0.624,0-1.056-.1-1.488-0.1v1.1a7.878,7.878,0,0,1,1.648-.1h8.26Zm-7.988-2.2a6.277,6.277,0,0,1,1.489-.1h6.387a6.719,6.719,0,0,1,1.568.1v-1.1a6.225,6.225,0,0,1-1.568.1H358.6a5.055,5.055,0,0,1-1.393-.1v1.1Zm15.473-3.8a8.865,8.865,0,0,1-.224,1.2,26.962,26.962,0,0,0-.721,6.4,22.473,22.473,0,0,0,.417,4.5c0.048,0.3.064,0.4,0.1,0.7l1.152-.1v-0.3a14.014,14.014,0,0,1,1.3-4.4l-0.769-.3a13.1,13.1,0,0,0-1.04,3.1c-0.064-.9-0.1-1.8-0.1-3.1a23.838,23.838,0,0,1,.48-5,16.9,16.9,0,0,1,.672-2.5Zm3.3,3a24.826,24.826,0,0,0,2.561.2,17.592,17.592,0,0,0,3.441-.3,8.328,8.328,0,0,1,1.1-.1l-0.08-1.1a16.834,16.834,0,0,1-4.29.4,17.248,17.248,0,0,1-2.721-.2Zm1.169,3.1a4.543,4.543,0,0,0-1.393,3,2.325,2.325,0,0,0,.48,1.5c0.688,0.8,1.841,1.2,3.666,1.2a18.471,18.471,0,0,0,3.281-.3,1.346,1.346,0,0,1,.56-0.1l-0.16-1.3a9.452,9.452,0,0,1-3.681.6c-2.065,0-3.074-.6-3.074-1.8a3.67,3.67,0,0,1,1.2-2.3Zm15.952-5a14.105,14.105,0,0,1-.512,3.5,13.169,13.169,0,0,1-2.465,4.7,15.091,15.091,0,0,1-3.714,3.1,2.473,2.473,0,0,1,.865,1,21.305,21.305,0,0,0,2.016-1.6,19.419,19.419,0,0,0,2.161-2.4,14.521,14.521,0,0,0,2.241-5.2,12.707,12.707,0,0,0,1.009,2.9,15.529,15.529,0,0,0,2.289,3.5,13.038,13.038,0,0,0,3.105,2.7,4.781,4.781,0,0,1,.9-1,13.753,13.753,0,0,1-5.394-5.6,11.844,11.844,0,0,1-1.361-5.6,8.456,8.456,0,0,1,.065-1.1,5.47,5.47,0,0,1-1.489.1h-2.113a4.042,4.042,0,0,1-1.216-.1v1.2c0.528,0,.912-0.1,1.216-0.1h2.4Zm12.735-1.6a2.646,2.646,0,0,1-.048.5,39.683,39.683,0,0,0-.544,5.9v0.4l0.032,1.6,0.016,0.3v0.2h1.152c-0.016-.3-0.016-0.4-0.016-0.4a8.488,8.488,0,0,1,.865-3.6c0.912-1.9,1.937-2.8,3.153-2.8,1.537,0,2.433,1.5,2.433,4.1a5.575,5.575,0,0,1-2.753,5.3,8.536,8.536,0,0,1-3.249,1,2.9,2.9,0,0,1,.64,1.1,9.969,9.969,0,0,0,2.849-1,7.444,7.444,0,0,0,2.737-10.1,2.933,2.933,0,0,0-2.561-1.5,3.812,3.812,0,0,0-3.2,2.1,6.914,6.914,0,0,0-.977,2.4,3.421,3.421,0,0,0-.112.5l-0.064-.1c0.048-.8.273-2.5,0.529-4.1a10.7,10.7,0,0,1,.368-1.7Zm17.3,2.2a23.068,23.068,0,0,1-3.425-.2l-0.016,1.1h3.265c-0.1.2-.1,0.2-0.144,0.2a14.767,14.767,0,0,1-3.585,4.6l0.9,0.9a5.318,5.318,0,0,1,1.233-1.3,6.046,6.046,0,0,1,3.569-1.7,1.217,1.217,0,0,1,1.265,1.3,9.863,9.863,0,0,0-2.385,1.2,3.519,3.519,0,0,0-1.633,2.6c0,1.6,1.392,2.4,4.258,2.4a25.785,25.785,0,0,0,3.889-.3,1.273,1.273,0,0,0,.64-0.1l-0.144-1.2a12.629,12.629,0,0,1-4.273.6c-2.257,0-3.25-.4-3.25-1.5,0-1,.833-1.7,3.01-2.7a4.254,4.254,0,0,1,.016.5c0,0.9-.048,1.9-0.1,2.3l1.088-.1a2.626,2.626,0,0,1-.032-0.5c0-.2,0-0.4.016-0.8,0.016-.3.016-0.6,0.016-0.8,0-.4,0-0.6-0.032-1a21.319,21.319,0,0,1,4.274-1.4l-0.512-1.1c-0.257.1-.305,0.1-1.089,0.4-0.7.3-1.617,0.6-2.785,1.1a1.95,1.95,0,0,0-2.113-1.8,4.373,4.373,0,0,0-2.417.8c-0.16.1-.16,0.1-0.736,0.5h-0.016a0.417,0.417,0,0,1,.208-0.2,3.337,3.337,0,0,0,.544-0.6,10.86,10.86,0,0,0,1.441-2.3,42.521,42.521,0,0,0,5.282-.4c0.288,0,.384-0.1.64-0.1l-0.1-1.1a20.44,20.44,0,0,1-5.042.6,0.5,0.5,0,0,0-.336.1c0.08-.2.288-0.6,0.5-1.1a3.009,3.009,0,0,1,.416-0.9l-1.28-.2a6.738,6.738,0,0,1-.769,2.2h-0.256Zm15.072,1.9h-3.057a10.659,10.659,0,0,1,.064,1.3v6.9a12.6,12.6,0,0,1-.112,1.8h1.2a13.367,13.367,0,0,1-.1-1.8v-2h4.9v2.4c0,0.2-.112.3-0.5,0.3a6.3,6.3,0,0,1-1.808-.2,3.988,3.988,0,0,1,.224,1,9.392,9.392,0,0,0,1.632.1c1.089,0,1.425-.2,1.425-1.1v-7.4a10.659,10.659,0,0,1,.064-1.3h-2.929v-3.2a5.805,5.805,0,0,1,.112-1.3h-1.233a5.805,5.805,0,0,1,.112,1.3v3.2Zm-2,3.5h4.9v1.8h-4.9v-1.8Zm4.9-.9h-4.9v-1.7h4.9v1.7Zm-6.4-6.1a9.281,9.281,0,0,1,1.6,3l0.88-.4a12.286,12.286,0,0,0-1.633-3.1Zm6.851-.5a11.338,11.338,0,0,1-1.585,3.2l0.881,0.4a17.137,17.137,0,0,0,1.632-3.1Zm2.225,0.8a10.856,10.856,0,0,1,.1,1.7v6.2a11.23,11.23,0,0,1-.08,1.8h1.168a10.453,10.453,0,0,1-.08-1.8v-6.2a8.541,8.541,0,0,1,.1-1.7h-1.2Zm3.3-1.1a12.816,12.816,0,0,1,.112,2v10.7c0,0.4-.112.5-0.72,0.5a18.2,18.2,0,0,1-2.081-.2,4.77,4.77,0,0,1,.3,1,9.772,9.772,0,0,0,1.537.1c0.544,0,1.008-.1,1.312-0.1a1.1,1.1,0,0,0,.673-1.3v-10.7a12.816,12.816,0,0,1,.112-2h-1.249Zm12.1,5.3v2H456.9a5.483,5.483,0,0,1-1.376-.1v1.1c0.352,0,.816-0.1,1.376-0.1h2.257v4.6c0,0.3-.16.4-0.608,0.4a12.72,12.72,0,0,1-1.633-.2,3.188,3.188,0,0,1,.32,1.1h1.409c1.136,0,1.52-.3,1.52-1.2v-4.7h2.994c0.624,0,1.088.1,1.52,0.1v-1.1a6.773,6.773,0,0,1-1.52.1h-2.994v-2h1.665a4.633,4.633,0,0,1,1.217.1v-1h-6.483a14.291,14.291,0,0,0,3.169-3.5,14.743,14.743,0,0,0,4.962,4.5c0.176-.3.4-0.7,0.608-1a10.772,10.772,0,0,1-5.042-4.5h-1.12a9.942,9.942,0,0,1-4.546,4.5,2.752,2.752,0,0,1,.64.9c0.609-.4.817-0.6,1.329-0.9v1a4.809,4.809,0,0,1,1.232-.1h1.361Zm-8.051,7.3a13.886,13.886,0,0,1-.1,1.7h1.152c-0.048-.5-0.08-1.1-0.08-1.7v-11.4h2.5a18.67,18.67,0,0,1-1.825,3.8,4.9,4.9,0,0,1,1.457,3.7c0,0.7-.224,1-0.832,1a3.363,3.363,0,0,1-.945-0.1,3.162,3.162,0,0,1,.192,1h0.545a3.592,3.592,0,0,0,1.136-.2c0.576-.1.848-0.7,0.848-1.7a6.22,6.22,0,0,0-.32-2,4.712,4.712,0,0,0-1.024-1.8,27.055,27.055,0,0,0,1.745-3.5,0.589,0.589,0,0,1,.128-0.3,3.194,3.194,0,0,0,.112-0.3l-0.561-.5c-0.224,0-.512.1-1.024,0.1H452.1c-0.4,0-.848-0.1-1.04-0.1,0.032,0.3.048,0.8,0.048,1.2v11.1Zm10.436-3.2a11.73,11.73,0,0,0,2.737,4,5.08,5.08,0,0,1,.768-0.8,9.127,9.127,0,0,1-2.657-3.6Zm-4.85-.5a9.969,9.969,0,0,1-1.1,2.3,8.827,8.827,0,0,1-1.489,1.5,4.192,4.192,0,0,1,.752.7,8.876,8.876,0,0,0,2.737-4.1Z" transform="translate(-312.781 -10779)"/>
  <path id="シェイプ_30" data-name="シェイプ 30" class="cls-2" d="M321.819,10795.8c-0.791-.7-1.555-1.4-2.228-1.9h0a46.315,46.315,0,0,1-4.866-4.5,7.036,7.036,0,0,1-1.943-4.7,5.712,5.712,0,0,1,1.554-4,5.267,5.267,0,0,1,3.92-1.7,4.9,4.9,0,0,1,3.079,1,7.989,7.989,0,0,1,1.245,1.3,7.906,7.906,0,0,1,1.245-1.3,4.9,4.9,0,0,1,3.079-1,5.263,5.263,0,0,1,3.919,1.7,5.709,5.709,0,0,1,1.555,4,7.038,7.038,0,0,1-1.944,4.7,46.093,46.093,0,0,1-4.865,4.5c-0.674.5-1.438,1.2-2.232,1.9a1.8,1.8,0,0,1-.757.2" transform="translate(-312.781 -10779)"/>
</svg>
