<svg id="img_favorite02_sp.svg" xmlns="http://www.w3.org/2000/svg" width="170.544" height="61.4" viewBox="0 0 170.544 61.4">
  <defs>
    <style>
      .cls-1 {
        fill: #333;
      }

      .cls-1, .cls-2 {
        fill-rule: evenodd;
      }

      .cls-2 {
        fill: #313131;
        stroke: #fff;
        stroke-width: 0.4px;
      }
    </style>
  </defs>
  <path id="お気に入り_に追加" data-name="お気に入り に追加" class="cls-1" d="M551.085,27188.4a30.092,30.092,0,0,1-5.712,1.2v-2.7a15.989,15.989,0,0,1,.14-2.6h-2.072a19.9,19.9,0,0,1,.14,2.7v2.7a24.916,24.916,0,0,1-2.688.1,11.73,11.73,0,0,1-2.856-.2v1.9h4.424a7.794,7.794,0,0,1,1.12-.1v5.3a12.91,12.91,0,0,0-3.948,2.3c-1.512,1.3-2.212,2.5-2.212,3.7a3.249,3.249,0,0,0,1.288,2.6,7.359,7.359,0,0,0,4.62,1.8c1.372,0,2.044-.7,2.044-2.2v-7a17.744,17.744,0,0,1,5.936-1.1c3.668,0,5.992,1.7,5.992,4.5a3.731,3.731,0,0,1-3.752,3.9c-2.044,0-2.884-1.2-2.884-4.1a7.924,7.924,0,0,1,.056-1.1,5.321,5.321,0,0,1-1.848.7,10.375,10.375,0,0,0,.336,3.2,4.1,4.1,0,0,0,4.312,3.1,5.728,5.728,0,0,0,2.828-10.7,9.329,9.329,0,0,0-4.956-1.2,20.706,20.706,0,0,0-6.02,1v-4.8c1.316-.2,2.66-0.4,4.956-0.9,0.392,0,.5-0.1.84-0.1Zm-7.5,15.5c0,1.2-.084,1.3-0.644,1.3a4.959,4.959,0,0,1-2.492-.8,2.109,2.109,0,0,1-1.2-1.7c0-1.3,1.568-2.8,4.34-4.2v5.4Zm16.828-11.9a24.194,24.194,0,0,0-5.656-5.3l-1.456,1.1a22.767,22.767,0,0,1,5.656,5.5Zm23.913-4.4a15.407,15.407,0,0,1,3.528.2v-2a29.614,29.614,0,0,1-3.528.2H570.546c0.42-.8.532-1,0.784-1.5a5.025,5.025,0,0,1,.476-1l-1.988-.5a5.759,5.759,0,0,1-.532,1.7,20.261,20.261,0,0,1-5.348,7.1,2.94,2.94,0,0,1,1.316,1.2,21.742,21.742,0,0,0,4.4-5.4h14.672Zm-2.632,18.6a57.256,57.256,0,0,0-5.544-4.6,27.633,27.633,0,0,0,2.408-2.9l0.7-1a1.834,1.834,0,0,0,.392-0.5l-1.792-1a14.572,14.572,0,0,1-3.136,4.4,45.432,45.432,0,0,0-5.348-3.4l-1.2,1.1a58.184,58.184,0,0,1,5.348,3.4,27.138,27.138,0,0,1-8.68,5.3,4.27,4.27,0,0,1,1.344,1.5,31.458,31.458,0,0,0,8.764-5.7,50.194,50.194,0,0,1,5.46,4.9Zm1.288-10.7c0.056,4.5.364,7.1,1.064,9.2,0.756,2.3,2.128,3.9,3.22,3.9,0.7,0,1.316-.6,1.68-1.8a16.745,16.745,0,0,0,.756-3.8,4.356,4.356,0,0,1-1.54-1.1c-0.168,2.5-.616,4.6-1.008,4.6-0.308,0-1.008-1-1.4-2.2a25.676,25.676,0,0,1-1.036-8.1,21.722,21.722,0,0,1,.112-2.4,25.892,25.892,0,0,1-3.164.1H568.25a19.9,19.9,0,0,1-2.6-.1v1.9a21.4,21.4,0,0,1,2.884-.2h14.448Zm-13.972-3.8a16.722,16.722,0,0,1,2.6-.2h11.172a17.588,17.588,0,0,1,2.744.2v-1.9a15.667,15.667,0,0,1-2.744.2h-11.34a12.841,12.841,0,0,1-2.436-.2v1.9Zm26.517-6.7a16.641,16.641,0,0,1-.392,2.3,45.793,45.793,0,0,0-1.26,11,40.7,40.7,0,0,0,.728,8c0.084,0.5.112,0.6,0.168,1.1l2.016-.2v-0.4c0-1.6,1.008-4.9,2.268-7.7l-1.344-.6a24.344,24.344,0,0,0-1.82,5.4c-0.112-1.5-.168-3.1-0.168-5.3a41.87,41.87,0,0,1,.84-8.8c0.42-1.9.756-3.2,1.176-4.5Zm5.768,5.3a36.742,36.742,0,0,0,4.48.3,51.5,51.5,0,0,0,6.02-.4c1.232-.1,1.876-0.2,1.932-0.2l-0.14-2a30.615,30.615,0,0,1-7.5.7,19.592,19.592,0,0,1-4.76-.4Zm2.044,5.5c-1.736,2-2.436,3.5-2.436,5.2a3.816,3.816,0,0,0,.84,2.5c1.2,1.5,3.22,2.2,6.412,2.2a28.391,28.391,0,0,0,5.74-.6,3.981,3.981,0,0,1,.98-0.1l-0.28-2.2a18.758,18.758,0,0,1-6.44,1c-3.612,0-5.376-1-5.376-3.1a6.455,6.455,0,0,1,2.1-4.1Zm26.237-8.8a24.28,24.28,0,0,1-.9,6.1,23.144,23.144,0,0,1-4.312,8.2,24.075,24.075,0,0,1-6.5,5.5,5.1,5.1,0,0,1,1.512,1.6,22.928,22.928,0,0,0,3.528-2.7,24.494,24.494,0,0,0,3.78-4.3,23.339,23.339,0,0,0,3.92-9,22.553,22.553,0,0,0,1.764,5.2,26,26,0,0,0,4,6,27,27,0,0,0,5.432,4.8,5.2,5.2,0,0,1,1.568-1.8,21.331,21.331,0,0,1-5.236-4.1,24.631,24.631,0,0,1-4.2-5.8,20.194,20.194,0,0,1-2.38-9.7,15.475,15.475,0,0,1,.112-1.9,13.563,13.563,0,0,1-2.6.2h-3.7a12.231,12.231,0,0,1-2.128-.1v2c0.924-.1,1.6-0.2,2.128-0.2h4.2Zm18.369-2.8a7.124,7.124,0,0,1-.084.9,70.286,70.286,0,0,0-.952,10.3v0.6l0.056,3,0.028,0.5v0.3l2.016-.1c-0.028-.4-0.028-0.6-0.028-0.7a14.427,14.427,0,0,1,1.512-6.2c1.6-3.3,3.388-4.9,5.516-4.9,2.688,0,4.256,2.6,4.256,7.1s-1.54,7.4-4.816,9.3a15.337,15.337,0,0,1-5.684,1.8,4.794,4.794,0,0,1,1.12,1.9,19.145,19.145,0,0,0,4.984-1.7c4.2-2.1,6.468-5.9,6.468-11,0-3-.5-5.1-1.68-6.8a5.334,5.334,0,0,0-4.48-2.5c-2.184,0-4.032,1.2-5.6,3.6a13.37,13.37,0,0,0-1.708,4.2c-0.14.6-.14,0.6-0.2,0.8h-0.112c0.084-1.4.476-4.5,0.924-7.3a16.693,16.693,0,0,1,.644-2.9Zm-82.379,36.8a16.641,16.641,0,0,1-.392,2.3,45.793,45.793,0,0,0-1.26,11,40.7,40.7,0,0,0,.728,8c0.084,0.5.112,0.6,0.168,1.1l2.016-.2v-0.4c0-1.6,1.008-4.9,2.268-7.7l-1.344-.6a24.344,24.344,0,0,0-1.82,5.4c-0.112-1.5-.168-3.1-0.168-5.3a41.87,41.87,0,0,1,.84-8.8c0.42-1.9.756-3.2,1.176-4.5Zm5.768,5.3a36.742,36.742,0,0,0,4.48.3,51.5,51.5,0,0,0,6.02-.4c1.232-.1,1.876-0.2,1.932-0.2l-0.14-2a30.615,30.615,0,0,1-7.5.7,19.592,19.592,0,0,1-4.76-.4Zm2.044,5.5c-1.736,2-2.436,3.5-2.436,5.2a3.816,3.816,0,0,0,.84,2.5c1.2,1.5,3.22,2.2,6.412,2.2a28.391,28.391,0,0,0,5.74-.6,3.981,3.981,0,0,1,.98-0.1l-0.28-2.2a18.758,18.758,0,0,1-6.44,1c-3.612,0-5.376-1-5.376-3.1a6.455,6.455,0,0,1,2.1-4.1Zm26.965-9.3a16.794,16.794,0,0,1-2.24-.1c0.084,0.9.112,1.4,0.112,1.9v13.7c0,0.7-.028,1.3-0.084,1.9,0.644,0,1.316-.1,2.156-0.1h10.08c0.756,0,1.344.1,1.96,0.1-0.056-.7-0.084-1.2-0.084-1.9v-3.5c0-1,.028-1.6.084-2.2a10.216,10.216,0,0,1-2.016.1H599.975v-2.9h9.492c0.812,0,1.316.1,2.044,0.1a12.258,12.258,0,0,1-.084-1.9v-3.4a13.646,13.646,0,0,1,.084-1.9,11.5,11.5,0,0,1-2.016.1h-4.76a26.459,26.459,0,0,0,1.568-2.6l-1.876-.5a16.313,16.313,0,0,1-1.6,3.1h-2.492Zm-0.364,1.6h9.716v3.9h-9.716v-3.9Zm0,9.8H610.5v4.4H599.975v-4.4Zm-10.612-12.5a24.784,24.784,0,0,1,4.34,5.1l1.428-1.3a34.552,34.552,0,0,0-4.452-5Zm-0.2,11.2a11.54,11.54,0,0,1,2.044-.2h1.848v6.8a19.82,19.82,0,0,1-4.508,3.4l0.924,1.8c0.42-.4.7-0.6,1.036-0.9a27.932,27.932,0,0,0,3.36-3,6.879,6.879,0,0,0,2.828,2.7c1.6,0.7,3.5,1,8.092,1,3.192,0,5.6-.1,9.3-0.2a6.257,6.257,0,0,1,.644-2,99,99,0,0,1-11.116.5c-3.892,0-5.628-.3-6.944-1.1a4.352,4.352,0,0,1-1.848-2.3v-5.5a26.768,26.768,0,0,1,.112-2.9,13.816,13.816,0,0,1-2.1.1h-1.512a13.115,13.115,0,0,1-2.156-.1v1.9Zm33.909-7.8c0.112-4.5.112-4.5,0.252-5.2H621.2a12.2,12.2,0,0,1,.2,3c0,0.9,0,1.5-.056,2.2h-1.624a24.845,24.845,0,0,1-3.08-.1v2a21.63,21.63,0,0,1,2.94-.2h1.68c-0.28,5.1-1.036,8.6-2.464,11.7a17.921,17.921,0,0,1-3.136,4.6,5.978,5.978,0,0,1,1.428,1.6,21.771,21.771,0,0,0,2.828-4.3,23.9,23.9,0,0,0,2.044-5.6,45.092,45.092,0,0,0,1.064-8h4.088c-0.028,3-.084,4.6-0.224,7.3a38.861,38.861,0,0,1-1.064,7.5,1.17,1.17,0,0,1-1.316.7,16.109,16.109,0,0,1-3.276-.5,6.829,6.829,0,0,1,.28,1.9,24.271,24.271,0,0,0,3.416.3c1.932,0,2.52-.7,3.024-3.5a85.452,85.452,0,0,0,.924-11.9,22.189,22.189,0,0,1,.14-3.6,24,24,0,0,1-2.912.1h-3.024Zm10.108,16.9h5.8v2h1.932a19.608,19.608,0,0,1-.168-2.7v-15.1a20.354,20.354,0,0,1,.14-2.9,18.31,18.31,0,0,1-2.436.1h-4.7a18.322,18.322,0,0,1-2.464-.1,20.354,20.354,0,0,1,.14,2.9v14.9a23.877,23.877,0,0,1-.168,3.1h1.932v-2.2Zm0-17h5.8v15.4h-5.8v-15.4Z" transform="translate(-491.8 -27183)"/>
  <path id="シェイプ_30" data-name="シェイプ 30" class="cls-2" d="M512.5,27231a2.85,2.85,0,0,1-1.585-.5c-1.657-1.3-3.255-2.5-4.664-3.5h-0.007a86.959,86.959,0,0,1-10.184-8.4c-2.775-3-4.068-5.7-4.068-8.8a10.631,10.631,0,0,1,3.254-7.7,11.859,11.859,0,0,1,8.2-3.1,11.276,11.276,0,0,1,6.444,2,11.459,11.459,0,0,1,2.6,2.3,11.463,11.463,0,0,1,2.606-2.3,11.276,11.276,0,0,1,6.445-2,11.862,11.862,0,0,1,8.2,3.1,10.63,10.63,0,0,1,3.253,7.7c0,3.1-1.292,5.8-4.068,8.8a86.835,86.835,0,0,1-10.182,8.4c-1.412,1-3.012,2.2-4.672,3.5a2.856,2.856,0,0,1-1.586.5h0Zm-9.049-29.9a9.213,9.213,0,0,0-6.439,2.5,8.438,8.438,0,0,0-2.617,6.2c0,2.6,1.084,4.9,3.515,7.4,2.349,2.5,5.845,5.1,9.892,8.2h0.007c1.415,1,3.019,2.2,4.688,3.5,1.679-1.3,3.285-2.5,4.7-3.5,4.046-3.1,7.541-5.7,9.891-8.2,2.431-2.5,3.515-4.8,3.515-7.4a8.439,8.439,0,0,0-2.618-6.2,9.211,9.211,0,0,0-6.437-2.5,8.708,8.708,0,0,0-4.975,1.5,10.643,10.643,0,0,0-2.773,2.8,1.563,1.563,0,0,1-2.606,0,10.637,10.637,0,0,0-2.772-2.8,8.712,8.712,0,0,0-4.974-1.5h0Zm0,0" transform="translate(-491.8 -27183)"/>
</svg>
