<svg id="img_docment02_sp.svg" xmlns="http://www.w3.org/2000/svg" width="163.312" height="39" viewBox="0 0 163.312 39">
  <defs>
    <style>
      .cls-1 {
        fill: #fff;
        fill-rule: evenodd;
      }
    </style>
  </defs>
  <path id="資料請求" class="cls-1" d="M156.442,27124.9c-0.7,2.7-3.137,4.3-7.282,4.7a4.414,4.414,0,0,1,1.093,1.7,12.032,12.032,0,0,0,4.313-1.5,6.306,6.306,0,0,0,3.053-3.1c1.736,2.9,4.229,4.3,9.131,5.3a9.168,9.168,0,0,1,.98-1.9,13.7,13.7,0,0,1-5.994-1.7,6.56,6.56,0,0,1-3.109-3.5h5.378a7.52,7.52,0,0,1-2.325,1.9,10.2,10.2,0,0,1,1.849.9,11.877,11.877,0,0,0,2.548-2.7c0.308-.4.308-0.4,0.392-0.5,0.225-.3.225-0.3,0.309-0.4l-1.261-1a11.739,11.739,0,0,1-2.156.1h-9.047a18.27,18.27,0,0,0,1.232-1.9l-2.072-.5a11.7,11.7,0,0,1-4.426,5.2,3.781,3.781,0,0,1,1.429,1.3,27.638,27.638,0,0,0,2.632-2.4h3.333Zm-7.282-.7a24.93,24.93,0,0,0-4.537-2.6l-1.317,1.5a17.094,17.094,0,0,1,4.538,2.8Zm0.308,2.7a26.771,26.771,0,0,1-7.03,2.5l0.784,2.1c0.5-.2.729-0.3,1.261-0.5,2.549-1,3.445-1.4,5.545-2.3Zm0.785,15.4a18.51,18.51,0,0,1-8.067,2.4,7.1,7.1,0,0,1,1.232,1.9,23.187,23.187,0,0,0,8.487-3.1Zm7.17,1.2a22.581,22.581,0,0,0,8.738,3.1,9.175,9.175,0,0,1,1.233-1.9,20.33,20.33,0,0,1-8.4-2.4Zm-8.8-12.1a21.888,21.888,0,0,1-2.885-.1c0.056,0.9.084,1.7,0.084,3v5.2a21.582,21.582,0,0,1-.112,2.8,25.6,25.6,0,0,1,3.081-.1h11.9a25.609,25.609,0,0,1,3.081.1,22.414,22.414,0,0,1-.112-2.9v-5c0-1.3.028-2.2,0.084-3.1a20.991,20.991,0,0,1-2.885.1h-12.24Zm-0.756,1.6h13.752v1.5H147.872v-1.5Zm0,3h13.752v1.6H147.872v-1.6Zm0,3.1h13.752v1.5H147.872v-1.5Zm42.733-1.8-7.366,1.7a16.745,16.745,0,0,1-2.717.4l0.448,2.3c0.672-.2,1.485-0.4,2.633-0.7l7-1.6v3.9a20.615,20.615,0,0,1-.168,3.2H192.9a18.3,18.3,0,0,1-.168-3.1v-4.5l0.532-.2c1.064-.2,1.989-0.4,2.689-0.5l-0.42-2.3a13.617,13.617,0,0,1-2.577.8l-0.224.1v-12.7a17.7,17.7,0,0,1,.168-3h-2.465a19.369,19.369,0,0,1,.168,3v13.2Zm-15.573-4.9a24.407,24.407,0,0,1-1.54,3.6,18.872,18.872,0,0,1-3.249,4.6,6.562,6.562,0,0,1,1.148,1.9,20.326,20.326,0,0,0,4.174-7.6c-0.084,1.3-.14,2.8-0.14,4.2v4.4a23.877,23.877,0,0,1-.168,3.1h2.352a22.836,22.836,0,0,1-.14-3v-5.1c0-.7-0.112-2.8-0.168-3.9a16.708,16.708,0,0,0,3.109,4.5,10.1,10.1,0,0,1,1.064-1.8,16.3,16.3,0,0,1-3.865-4.9h1.373a12.024,12.024,0,0,1,2.128.2v-2.1a12.216,12.216,0,0,1-2.1.1h-1.541v-6.6a21.053,21.053,0,0,1,.14-3h-2.352a19.369,19.369,0,0,1,.168,3v6.6h-2.157a14.74,14.74,0,0,1-2.437-.1v2.1a13.7,13.7,0,0,1,2.465-.2h1.736Zm-4.173-8.9a26.442,26.442,0,0,1,1.821,6l1.708-.7a36.175,36.175,0,0,0-1.82-6.1Zm9.215-.8a21.5,21.5,0,0,1-2.017,6l1.541,0.8a30.944,30.944,0,0,0,2.269-6.1Zm2.773,1.9a24.82,24.82,0,0,1,5.041,4.5l1.373-1.7a24.827,24.827,0,0,0-5.014-4.3Zm-0.868,7a21.252,21.252,0,0,1,5.041,4.3l1.373-1.6a26.138,26.138,0,0,0-4.986-4.2Zm32.426-6.9v1.8h-2.661c-1.176,0-1.849-.1-2.521-0.1v1.8a18.784,18.784,0,0,1,2.493-.1h2.689v1.8h-3.641a17.811,17.811,0,0,1-2.857-.2v2a19.933,19.933,0,0,1,2.857-.2h10.083a19.286,19.286,0,0,1,2.773.2v-2a18.644,18.644,0,0,1-2.773.2h-4.538v-1.8h3.137a18.585,18.585,0,0,1,2.549.1v-1.8c-0.672,0-1.316.1-2.521,0.1h-3.165v-1.8h4.034a9.986,9.986,0,0,1,2.689.2v-2a16.792,16.792,0,0,1-2.689.2h-4.034a10.3,10.3,0,0,1,.169-2.3h-2.241a10.369,10.369,0,0,1,.168,2.3H211.1a16.428,16.428,0,0,1-2.6-.2v2a9.311,9.311,0,0,1,2.6-.2h3.305Zm-3.221,17h8.458v1.9c0,0.6-.2.8-0.952,0.8a17.391,17.391,0,0,1-3.025-.3,7.624,7.624,0,0,1,.532,2,22.505,22.505,0,0,0,2.465.1c2.353,0,2.941-.5,2.941-2.3v-8a27.648,27.648,0,0,1,.112-3,8.486,8.486,0,0,1-2.577.2H211.66a18.358,18.358,0,0,1-2.493-.1c0.056,0.7.084,1.2,0.084,2.4v8a19.393,19.393,0,0,1-.14,3h2.241a19.369,19.369,0,0,1-.168-3v-1.7Zm0-1.6v-1.8h8.458v1.8h-8.458Zm0-3.5v-1.8h8.458v1.8h-8.458Zm-12.072-12.8a12.924,12.924,0,0,1,2.1-.1h3.725a13.652,13.652,0,0,1,2.1.1v-2a12.931,12.931,0,0,1-2.1.1h-3.725a12.574,12.574,0,0,1-2.1-.1v2Zm-0.98,4a14.814,14.814,0,0,1,2.241-.1h7.2v-2a12.821,12.821,0,0,1-2.241.1h-4.957a13.884,13.884,0,0,1-2.241-.1v2.1Zm1.064,3.9a9.548,9.548,0,0,1,1.877-.1h4.033a9.681,9.681,0,0,1,1.821.1v-2a8.791,8.791,0,0,1-1.821.1h-4.033a9.543,9.543,0,0,1-1.877-.1v2Zm0,3.8h7.731v-1.9a9.379,9.379,0,0,1-1.821.1h-4.033a9.7,9.7,0,0,1-1.877-.1v1.9Zm2.1,10.8v-1.5h3.753v1.1h1.989a16.838,16.838,0,0,1-.112-2.3v-3.9a20.929,20.929,0,0,1,.084-2.2,10.065,10.065,0,0,1-1.989.1h-3.5a14.834,14.834,0,0,1-2.269-.1,17.8,17.8,0,0,1,.112,2.3v3.8c0,0.9-.056,1.8-0.14,2.7H201.3Zm0-7h3.753v3.8H201.3v-3.8Zm36.347-11.3v15.4c0,0.7-.224.8-1.26,0.8a26.168,26.168,0,0,1-3.669-.3,6.411,6.411,0,0,1,.532,2.2c1.456,0.1,2.409.1,3.445,0.1,2.381,0,3.053-.5,3.053-2.2v-7.6c-0.056-2.1-.084-3.3-0.112-3.6,0-.2-0.028-0.5-0.028-0.9a20.8,20.8,0,0,0,3.473,6.4,25.968,25.968,0,0,0,6.722,6.1,8.252,8.252,0,0,1,1.513-2,20.487,20.487,0,0,1-4.818-3.4,24.494,24.494,0,0,1-2.8-3.1c1.6-1.4,2.829-2.5,3.753-3.5a17.909,17.909,0,0,0,1.681-1.8l-1.877-1.4a20.549,20.549,0,0,1-4.677,5.1,21.1,21.1,0,0,1-2.745-6.3H247.9a21.08,21.08,0,0,1,2.969.2v-2.3a12.616,12.616,0,0,1-2.969.2h-8.15v-2a22.236,22.236,0,0,1,.168-3h-2.437a20.277,20.277,0,0,1,.168,3v2h-8.038a12.372,12.372,0,0,1-2.969-.2v2.3a22.134,22.134,0,0,1,2.885-.2h8.122Zm4.286-5.4a13.607,13.607,0,0,1,4.061,3.3l1.54-1.4a17.037,17.037,0,0,0-4.145-3.2Zm-12.772,8a21.647,21.647,0,0,1,3.781,5l1.792-1.4a31.9,31.9,0,0,0-3.893-4.9Zm7.142,5.2a43.448,43.448,0,0,1-5.35,3.5,20.569,20.569,0,0,1-4.173,1.9l1.092,2.2a13.044,13.044,0,0,1,1.429-.8,49.849,49.849,0,0,0,7.674-4.8Z" transform="translate(-88 -27114)"/>
  <path id="シェイプ_558" data-name="シェイプ 558" class="cls-1" d="M113.437,27129.7a0.708,0.708,0,0,0-.73.7,0.734,0.734,0,1,0,1.461,0A0.708,0.708,0,0,0,113.437,27129.7Zm0,5.3a0.734,0.734,0,0,0-.73.8,0.731,0.731,0,0,0,1.461,0A0.734,0.734,0,0,0,113.437,27135Zm-17.7-10.6a0.708,0.708,0,0,0-.73.7,0.734,0.734,0,1,0,1.461,0A0.708,0.708,0,0,0,95.734,27124.4Zm0,5.3a0.708,0.708,0,0,0-.73.7,0.734,0.734,0,1,0,1.461,0A0.708,0.708,0,0,0,95.734,27129.7Zm0,5.3a0.734,0.734,0,0,0-.73.8,0.731,0.731,0,0,0,1.461,0A0.734,0.734,0,0,0,95.734,27135Zm35.407-17.5h-2.579v-2.6a0.878,0.878,0,0,0-.859-0.9H113.437a4.212,4.212,0,0,0-3.437,1.8,4.214,4.214,0,0,0-3.438-1.8H92.3a0.878,0.878,0,0,0-.859.9v2.6H88.859a0.879,0.879,0,0,0-.859.9v30.2a0.86,0.86,0,0,0,.859.8h15.579a2.6,2.6,0,0,1,2.306,1.5,3.573,3.573,0,0,0,6.511,0,2.6,2.6,0,0,1,2.307-1.5h15.579a0.86,0.86,0,0,0,.859-0.8v-30.2A0.879,0.879,0,0,0,131.141,27117.5Zm-20.411.9a2.787,2.787,0,0,1,2.707-2.8h13.535v28.7H113.437a4.419,4.419,0,0,0-2.5.8l-0.207.2v-26.9Zm-4.168-2.6a2.614,2.614,0,0,1,2.578,2.6v26.6a4.587,4.587,0,0,0-2.578-.9H93.156v-28.3h13.406Zm23.719,31.9H115.562a4.236,4.236,0,0,0-3.844,2.4,1.892,1.892,0,0,1-3.437,0,4.235,4.235,0,0,0-3.843-2.4H89.719v-28.4h1.719v25.7a0.878,0.878,0,0,0,.859.9h14.265a2.637,2.637,0,0,1,2.578,2.7,0.862,0.862,0,0,0,1.719,0,2.637,2.637,0,0,1,2.578-2.7H127.7a0.878,0.878,0,0,0,.859-0.9v-25.7h1.719v28.4Zm-23.719-23.3h-7.39a0.708,0.708,0,0,0-.73.7,0.8,0.8,0,0,0,.73.8h7.39a0.8,0.8,0,0,0,.731-0.8A0.708,0.708,0,0,0,106.562,27124.4Zm0,5.3h-7.39a0.708,0.708,0,0,0-.73.7,0.733,0.733,0,0,0,.73.8h7.39a0.734,0.734,0,0,0,.731-0.8A0.708,0.708,0,0,0,106.562,27129.7Zm0,5.3h-7.39a0.733,0.733,0,0,0-.73.8,0.708,0.708,0,0,0,.73.7h7.39a0.708,0.708,0,0,0,.731-0.7A0.734,0.734,0,0,0,106.562,27135Zm17.7-5.3h-7.39a0.708,0.708,0,0,0-.731.7,0.734,0.734,0,0,0,.731.8h7.39a0.734,0.734,0,0,0,.731-0.8A0.708,0.708,0,0,0,124.265,27129.7Zm0,5.3h-7.39a0.734,0.734,0,0,0-.731.8,0.708,0.708,0,0,0,.731.7h7.39a0.708,0.708,0,0,0,.731-0.7A0.734,0.734,0,0,0,124.265,27135Zm-10.828-10.7a0.708,0.708,0,0,0-.73.7,0.734,0.734,0,1,0,1.461,0A0.708,0.708,0,0,0,113.437,27124.3Zm10.828,0h-7.39a0.708,0.708,0,0,0-.731.7,0.8,0.8,0,0,0,.731.8h7.39a0.8,0.8,0,0,0,.731-0.8A0.708,0.708,0,0,0,124.265,27124.3Z" transform="translate(-88 -27114)"/>
</svg>
