<svg
 xmlns="http://www.w3.org/2000/svg"
 xmlns:xlink="http://www.w3.org/1999/xlink"
 width="340px" height="46px">
<path fill-rule="evenodd"  fill="rgb(255, 255, 255)"
 d="M327.845,35.68 L327.889,35.156 C329.671,34.254 331.211,33.880 333.59,33.880 C336.756,33.880 339.132,35.728 339.132,38.588 C339.132,42.64 335.898,44.396 331.35,44.396 C328.879,44.396 327.383,43.912 326.569,42.966 C326.173,42.504 325.909,41.778 325.909,41.118 C325.909,39.556 327.339,38.390 329.275,38.390 C330.749,38.390 332.69,39.28 332.949,40.194 C333.390,40.788 333.632,41.294 333.940,42.284 C334.754,42.42 335.238,41.822 335.744,41.448 C336.712,40.766 337.240,39.776 337.240,38.632 C337.240,36.608 335.502,35.398 332.619,35.398 C329.363,35.398 325.975,36.762 323.379,39.138 L322.257,37.466 C324.193,36.388 329.187,32.252 332.487,28.996 C332.575,28.908 332.597,28.886 332.663,28.820 C332.729,28.754 332.729,28.754 332.905,28.578 L332.883,28.534 C332.817,28.556 332.773,28.556 332.707,28.556 C331.893,28.688 329.407,28.820 326.195,28.952 C325.733,28.974 325.513,28.996 325.29,29.62 L324.941,27.126 C325.579,27.236 326.41,27.258 327.163,27.258 C329.11,27.258 331.915,27.126 333.874,26.972 C334.512,26.928 334.710,26.884 335.18,26.708 L336.74,28.138 C335.744,28.314 335.612,28.402 334.952,29.62 C331.981,31.922 329.341,34.144 327.845,35.68 ZM329.275,39.908 C328.285,39.908 327.647,40.392 327.647,41.162 C327.647,42.196 328.857,42.856 330.771,42.856 C331.277,42.856 331.519,42.834 332.223,42.724 C331.761,40.876 330.771,39.908 329.275,39.908 ZM311.741,30.404 C311.741,31.702 311.741,31.702 311.741,34.628 C312.137,35.574 312.291,36.300 312.291,37.356 C312.291,39.732 311.279,41.690 309.277,43.164 C308.353,43.824 307.429,44.286 305.646,44.946 C305.206,44.66 305.52,43.824 304.524,43.252 C307.363,42.482 309.57,41.404 310.3,39.688 C310.399,38.984 310.575,38.346 310.641,37.466 C310.421,37.928 310.289,38.170 310.47,38.434 C309.387,39.182 308.419,39.578 307.275,39.578 C305.118,39.578 303.534,38.60 303.534,35.992 C303.534,33.836 305.250,32.252 307.605,32.252 C308.639,32.252 309.497,32.560 310.47,33.132 L310.47,32.978 C310.25,32.780 310.3,31.636 310.3,30.426 C306.241,30.492 301.114,30.778 299.750,30.998 L299.684,29.106 C300.124,29.128 300.300,29.128 300.630,29.128 C301.224,29.128 301.356,29.128 304.678,28.996 C306.549,28.930 307.517,28.908 309.981,28.842 L309.959,27.192 C309.937,26.598 309.915,26.378 309.849,25.916 L311.829,25.916 C311.741,26.598 311.719,26.928 311.719,28.798 C315.833,28.776 317.505,28.732 318.231,28.644 L318.231,30.492 C317.395,30.404 316.603,30.382 314.183,30.382 C313.875,30.382 313.501,30.382 311.741,30.404 ZM309.497,34.364 C309.57,33.946 308.441,33.726 307.759,33.726 C306.373,33.726 305.338,34.650 305.338,35.860 C305.338,37.92 306.219,37.950 307.495,37.950 C308.925,37.950 309.937,36.960 309.937,35.530 C309.937,35.2 309.805,34.672 309.497,34.364 ZM296.780,42.108 C296.296,42.614 295.944,43.54 295.592,43.692 C293.414,42.306 291.764,40.810 290.312,38.918 C288.992,37.158 288.310,35.904 287.584,33.902 C287.584,34.210 287.606,34.474 287.606,34.628 C287.628,34.848 287.650,35.772 287.694,37.400 L287.694,43.362 C287.694,44.748 287.166,45.144 285.296,45.144 C284.482,45.144 283.734,45.100 282.590,45.12 C282.524,44.352 282.436,43.956 282.172,43.296 C283.272,43.472 284.218,43.560 285.54,43.560 C285.868,43.560 286.44,43.450 286.44,42.922 L286.44,30.866 L279.664,30.866 C278.718,30.866 278.57,30.910 277.397,30.998 L277.397,29.216 C278.13,29.304 278.696,29.348 279.730,29.348 L286.44,29.348 L286.44,27.786 C286.44,26.708 286.0,26.70 285.912,25.410 L287.826,25.410 C287.738,26.114 287.694,26.730 287.694,27.786 L287.694,29.348 L294.96,29.348 C295.108,29.348 295.790,29.304 296.428,29.216 L296.428,30.998 C295.834,30.910 295.130,30.866 294.96,30.866 L287.760,30.866 C288.222,32.626 288.948,34.254 289.916,35.772 C291.610,34.386 292.864,33.0 293.590,31.768 L295.64,32.890 C294.888,33.88 294.888,33.88 293.744,34.298 C293.18,35.112 292.50,35.970 290.796,37.26 C291.544,37.994 292.138,38.654 292.996,39.468 C294.228,40.612 295.108,41.206 296.780,42.108 ZM293.810,28.72 L292.600,29.150 C291.390,27.874 290.884,27.456 289.410,26.554 L290.554,25.542 C292.138,26.532 292.512,26.840 293.810,28.72 ZM290.31,16.372 C287.26,16.372 285.442,15.418 285.442,13.582 C285.442,12.755 285.730,12.125 286.684,10.847 L287.926,11.423 C287.404,12.35 287.296,12.179 287.170,12.449 C287.26,12.755 286.936,13.133 286.936,13.420 C286.936,14.410 288.16,14.968 289.959,14.968 C291.291,14.968 292.928,14.698 293.954,14.320 L294.98,15.922 C293.882,15.958 293.882,15.958 293.270,16.66 C291.939,16.282 291.21,16.372 290.31,16.372 ZM286.684,8.976 L286.540,7.536 C288.699,7.86 289.815,6.942 291.471,6.942 C291.813,6.942 292.65,6.942 293.378,6.996 L293.396,8.526 C292.533,8.418 292.29,8.382 291.237,8.382 C289.581,8.382 288.376,8.544 286.684,8.976 ZM287.188,5.773 C286.306,5.952 285.118,6.114 284.183,6.186 C283.931,7.536 283.463,9.498 282.959,11.153 C282.383,13.79 281.879,14.464 280.907,16.786 L279.324,16.120 C280.637,13.798 281.951,9.911 282.653,6.258 C282.419,6.258 281.753,6.276 281.159,6.276 C281.15,6.276 280.529,6.258 280.43,6.240 C279.989,6.240 279.954,6.240 279.918,6.240 C279.864,6.240 279.864,6.240 279.594,6.240 L279.612,4.747 C280.205,4.855 280.925,4.909 281.915,4.909 C282.203,4.909 282.419,4.909 282.905,4.891 C283.157,3.469 283.301,2.425 283.301,1.868 L283.301,1.634 L284.992,1.814 C284.884,2.245 284.884,2.245 284.668,3.523 C284.560,4.135 284.524,4.333 284.434,4.801 C285.802,4.657 286.756,4.495 287.638,4.207 L287.710,5.683 C287.566,5.701 287.566,5.701 287.188,5.773 ZM272.844,33.616 L264.923,33.616 C263.889,33.616 263.317,33.638 262.679,33.748 L262.679,32.164 C263.229,32.274 263.823,32.296 264.923,32.296 L267.783,32.296 L267.783,30.888 L265.671,30.888 C264.835,30.888 264.351,30.910 263.713,30.998 L263.713,29.546 C264.241,29.612 264.769,29.634 265.693,29.634 L267.783,29.634 L267.783,28.248 L265.187,28.248 C264.175,28.248 263.735,28.270 263.141,28.358 L263.141,26.818 C263.779,26.928 264.175,26.950 265.187,26.950 L267.783,26.950 C267.783,26.70 267.761,25.784 267.651,25.190 L269.411,25.190 C269.301,25.762 269.279,26.114 269.279,26.950 L272.448,26.950 C273.526,26.950 273.922,26.928 274.560,26.818 L274.560,28.358 C274.10,28.270 273.416,28.248 272.448,28.248 L269.279,28.248 L269.279,29.634 L271.766,29.634 C272.712,29.634 273.218,29.612 273.746,29.546 L273.746,30.976 C273.152,30.910 272.646,30.888 271.744,30.888 L269.279,30.888 L269.279,32.296 L272.844,32.296 C273.856,32.296 274.406,32.252 275.22,32.164 L275.22,33.748 C274.384,33.638 273.834,33.616 272.844,33.616 ZM266.290,16.948 C266.164,16.336 266.74,16.102 265.732,15.472 C265.858,15.472 265.930,15.472 266.2,15.472 C267.100,15.472 268.539,15.238 269.583,14.914 C271.617,14.248 272.822,12.935 272.822,11.369 C272.822,9.785 271.725,8.940 269.637,8.940 C268.395,8.940 267.46,9.138 264.886,9.659 C263.770,9.911 263.483,10.1 262.907,10.253 L262.547,8.706 C263.15,8.670 263.33,8.652 264.256,8.382 C266.650,7.824 268.251,7.590 269.781,7.590 C271.671,7.590 273.2,8.166 273.704,9.318 C274.82,9.911 274.298,10.685 274.298,11.459 C274.298,13.582 272.696,15.382 270.51,16.246 C268.953,16.606 268.575,16.660 266.290,16.948 ZM256.761,30.558 C255.991,30.558 255.551,30.580 255.1,30.646 L255.1,29.18 C255.507,29.106 255.925,29.128 256.761,29.128 L260.655,29.128 C261.579,29.128 261.953,29.106 262.415,29.18 L262.415,30.624 C261.909,30.580 261.601,30.558 260.787,30.558 L256.761,30.558 ZM257.421,27.456 C256.739,27.456 256.233,27.478 255.771,27.544 L255.771,25.938 C256.299,26.26 256.629,26.48 257.421,26.48 L260.347,26.48 C261.117,26.48 261.447,26.26 261.997,25.938 L261.997,27.544 C261.447,27.478 261.29,27.456 260.347,27.456 L257.421,27.456 ZM254.894,16.48 C253.832,16.588 252.806,16.876 251.205,17.56 C251.25,16.462 250.917,16.210 250.521,15.616 C251.601,15.580 252.338,15.454 253.202,15.166 C255.146,14.482 256.261,13.223 256.261,11.693 C256.261,10.253 255.308,9.228 253.544,8.742 C252.500,11.117 251.493,12.701 250.35,14.140 C248.613,15.562 247.264,16.264 245.968,16.264 C244.546,16.264 243.538,15.76 243.538,13.420 C243.538,11.135 245.104,9.102 247.731,7.950 C247.749,6.654 247.749,6.654 247.821,5.395 L247.228,5.395 C247.30,5.395 246.202,5.377 244.744,5.323 C244.582,5.305 244.456,5.305 244.420,5.305 C244.348,5.305 244.240,5.305 244.96,5.323 L244.114,3.865 C244.888,4.63 245.860,4.135 247.461,4.135 C247.515,4.135 247.587,4.135 247.893,4.135 C247.929,3.739 247.929,3.739 248.1,2.857 C248.19,2.641 248.55,1.994 248.55,1.832 C248.55,1.778 248.37,1.688 248.19,1.544 L249.657,1.652 C249.495,2.138 249.423,2.731 249.297,4.81 C252.194,3.937 254.768,3.559 256.135,3.91 L256.225,4.585 C255.973,4.603 255.902,4.621 255.578,4.675 C253.544,5.17 250.881,5.305 249.207,5.359 C249.117,6.726 249.99,6.870 249.99,7.572 C250.35,7.338 250.737,7.248 251.637,7.248 C251.978,7.248 252.194,7.266 252.644,7.302 C252.860,6.744 252.986,6.240 253.58,5.755 L254.534,6.186 C254.498,6.258 254.318,6.708 253.976,7.554 C256.369,8.112 257.791,9.695 257.791,11.783 C257.791,13.618 256.801,15.76 254.894,16.48 ZM247.749,9.354 C246.904,9.839 246.436,10.217 245.968,10.775 C245.302,11.567 244.942,12.449 244.942,13.313 C244.942,14.248 245.428,14.860 246.166,14.860 C246.778,14.860 247.354,14.608 248.91,13.996 C247.857,12.701 247.749,11.369 247.749,9.354 ZM251.439,8.454 C250.647,8.454 249.801,8.598 249.63,8.868 C249.99,11.63 249.117,11.297 249.243,12.575 C249.261,12.755 249.279,12.917 249.279,12.989 C249.279,13.25 249.279,13.43 249.279,13.97 L249.315,13.97 C249.441,12.917 249.441,12.917 249.747,12.539 C250.863,11.189 251.493,10.163 252.212,8.490 C251.888,8.454 251.798,8.454 251.439,8.454 ZM248.995,27.830 L249.127,29.590 C248.709,29.634 248.709,29.634 247.433,29.810 C245.915,30.8 243.98,30.206 240.942,30.272 C240.304,31.460 239.864,32.186 239.160,33.66 C238.984,33.330 238.522,33.836 238.456,33.880 C238.324,33.968 238.236,34.34 238.236,34.56 C238.214,34.78 238.214,34.78 238.192,34.100 C238.214,34.144 238.236,34.166 238.236,34.166 C238.368,34.56 238.478,33.990 238.544,33.946 C238.940,33.616 239.72,33.528 239.292,33.396 C240.216,32.802 241.294,32.494 242.328,32.494 C243.979,32.494 244.991,33.308 245.299,34.892 C247.15,34.232 247.917,33.902 248.995,33.528 C250.117,33.132 250.183,33.110 250.535,32.890 L251.327,34.694 C250.139,34.892 248.423,35.442 245.497,36.564 C245.519,37.290 245.519,37.356 245.519,37.840 C245.519,38.82 245.519,38.544 245.497,38.984 C245.497,39.402 245.497,39.710 245.497,39.886 C245.497,40.260 245.497,40.436 245.541,40.788 L243.737,40.810 C243.803,40.370 243.869,39.72 243.869,37.884 C243.869,37.532 243.869,37.466 243.869,37.202 C242.526,37.818 241.800,38.214 241.228,38.654 C240.326,39.358 239.930,39.974 239.930,40.722 C239.930,42.108 241.184,42.680 244.287,42.680 C246.531,42.680 248.951,42.328 250.271,41.800 L250.469,43.824 C250.117,43.846 250.29,43.846 249.567,43.934 C247.895,44.198 245.871,44.352 244.89,44.352 C242.42,44.352 240.634,44.88 239.578,43.494 C238.632,42.966 238.82,41.998 238.82,40.854 C238.82,39.600 238.852,38.412 240.414,37.290 C241.228,36.696 242.174,36.190 243.649,35.530 C243.516,34.452 243.10,33.968 242.20,33.968 C240.678,33.968 238.984,34.782 237.246,36.278 C236.366,37.4 235.882,37.532 235.486,38.148 L234.34,36.696 C235.486,35.596 237.356,33.242 238.852,30.624 C238.918,30.514 238.918,30.514 239.50,30.272 C238.984,30.272 238.742,30.294 238.654,30.294 C238.214,30.294 236.36,30.250 235.574,30.228 C235.354,30.206 235.244,30.206 235.134,30.206 C235.24,30.206 234.892,30.206 234.672,30.250 L234.716,28.446 C235.662,28.622 237.48,28.710 239.446,28.710 L239.798,28.710 C240.480,27.170 240.722,26.488 240.788,25.784 L242.856,26.92 C242.680,26.356 242.680,26.356 242.328,27.214 C242.42,27.918 241.800,28.468 241.668,28.688 C241.822,28.666 241.822,28.666 243.54,28.600 C245.783,28.446 247.829,28.182 248.995,27.830 ZM235.453,15.598 C233.330,15.598 231.980,15.148 231.224,14.176 C230.883,13.726 230.685,13.97 230.685,12.449 C230.685,11.387 231.170,10.343 232.286,9.48 L233.510,9.659 C232.574,10.685 232.160,11.513 232.160,12.305 C232.160,13.528 233.276,14.140 235.453,14.140 C237.73,14.140 238.621,13.906 239.646,13.510 L239.808,15.148 C239.575,15.184 239.539,15.184 239.161,15.256 C237.865,15.490 236.659,15.598 235.453,15.598 ZM237.847,5.647 C236.749,5.791 235.346,5.881 234.14,5.881 C233.96,5.881 232.520,5.845 231.602,5.755 C231.548,5.755 231.548,5.755 231.278,5.719 C231.170,5.701 231.134,5.701 230.991,5.683 L231.27,4.171 C231.854,4.369 232.682,4.441 234.68,4.441 C236.173,4.441 237.901,4.261 238.999,3.955 L239.89,5.485 C239.35,5.485 238.621,5.539 237.847,5.647 ZM227.589,13.906 L227.607,13.906 C227.787,12.899 228.75,12.35 228.651,10.613 L229.731,11.117 C228.831,13.25 228.219,15.94 228.219,16.192 C228.219,16.264 228.219,16.390 228.237,16.534 L226.672,16.642 C226.636,16.354 226.618,16.246 226.564,15.886 C226.222,13.906 226.96,12.575 226.96,10.757 C226.96,8.238 226.312,6.294 226.887,3.631 C227.67,2.731 227.103,2.551 227.139,2.102 L228.849,2.335 C228.525,3.181 228.201,4.513 227.949,5.916 C227.679,7.500 227.535,9.372 227.535,11.423 C227.535,11.783 227.553,12.647 227.571,13.133 C227.571,13.528 227.589,13.600 227.589,13.906 ZM220.988,28.160 L222.88,26.950 C224.2,28.336 224.728,28.952 226.26,30.338 L224.948,31.658 C223.474,30.8 222.836,29.458 220.988,28.160 ZM217.885,11.513 L217.885,15.670 C217.885,16.480 217.903,16.966 217.993,17.595 L216.373,17.595 C216.463,16.984 216.499,16.444 216.499,15.670 L216.499,11.513 L213.44,11.513 C212.270,11.513 211.622,11.549 211.136,11.621 L211.136,10.109 C211.604,10.181 212.234,10.217 213.44,10.217 L216.499,10.217 L216.499,6.456 L213.638,6.456 C213.152,7.536 212.774,8.202 212.54,9.210 C211.730,8.868 211.514,8.724 210.866,8.346 C211.802,7.140 212.432,6.6 212.990,4.477 C213.332,3.523 213.512,2.803 213.584,2.120 L215.41,2.515 C214.915,2.875 214.861,3.55 214.718,3.505 C214.430,4.423 214.340,4.657 214.142,5.197 L216.499,5.197 L216.499,3.271 C216.499,2.551 216.463,2.12 216.373,1.436 L217.993,1.436 C217.903,2.30 217.885,2.515 217.885,3.289 L217.885,5.197 L220.404,5.197 C221.304,5.197 221.790,5.161 222.276,5.89 L222.276,6.564 C221.592,6.492 220.980,6.456 220.404,6.456 L217.885,6.456 L217.885,10.217 L221.106,10.217 C221.934,10.217 222.438,10.181 223.32,10.109 L223.32,11.621 C222.474,11.549 221.772,11.513 221.124,11.513 L217.885,11.513 ZM210.57,5.611 L210.57,15.544 C210.57,16.408 210.75,17.2 210.147,17.649 L208.563,17.649 C208.635,16.948 208.671,16.426 208.671,15.508 L208.671,9.803 C208.671,9.102 208.689,8.472 208.725,7.698 C208.167,8.742 207.753,9.354 206.943,10.289 C206.655,9.570 206.601,9.462 206.188,8.904 C207.717,7.212 208.761,5.503 209.553,3.379 C209.913,2.443 210.111,1.724 210.201,1.58 L211.676,1.490 C211.586,1.760 211.532,1.904 211.388,2.299 C210.902,3.757 210.668,4.315 210.57,5.611 ZM207.369,26.950 L208.359,27.742 C208.293,27.852 208.293,27.852 208.117,28.72 C208.51,28.138 208.51,28.138 207.809,28.490 C207.237,29.304 206.577,29.964 205.807,30.580 C205.323,30.294 204.927,30.118 204.355,29.920 C205.235,29.392 205.609,29.62 206.181,28.358 L201.957,28.358 C202.265,29.436 203.167,30.448 204.399,31.174 C205.565,31.856 207.149,32.296 209.108,32.494 C208.734,33.66 208.645,33.242 208.337,34.12 C204.487,33.220 202.529,32.76 201.165,29.832 C200.483,31.42 199.889,31.680 198.767,32.274 C197.887,32.780 196.743,33.154 195.379,33.396 C195.115,32.802 195.27,32.670 194.521,32.98 C197.777,31.790 199.691,30.536 200.241,28.358 L197.623,28.358 C197.7,29.62 196.435,29.590 195.555,30.272 C195.159,29.744 194.961,29.568 194.433,29.238 C196.193,28.28 197.403,26.620 197.909,25.168 L199.537,25.586 C199.119,26.246 198.921,26.554 198.569,27.60 L205.675,27.60 C206.599,27.60 206.907,27.38 207.369,26.950 ZM204.347,9.641 C202.134,9.228 200.658,8.814 198.912,8.148 C198.211,7.896 197.725,7.644 196.807,7.104 C194.629,8.328 192.416,9.102 189.321,9.767 C189.159,9.228 189.51,8.994 188.727,8.544 C191.660,8.40 193.622,7.446 195.673,6.402 C194.845,5.809 194.234,5.287 193.388,4.387 C192.326,5.305 191.444,5.863 189.969,6.582 C189.771,6.168 189.591,5.934 189.159,5.521 C190.562,4.945 191.570,4.351 192.542,3.523 C193.604,2.641 194.180,1.940 194.773,0.932 L196.267,1.310 C196.177,1.400 195.817,1.814 195.205,2.497 L199.128,2.497 C199.956,2.497 200.316,2.479 200.784,2.407 L201.594,3.217 C201.468,3.325 201.432,3.343 201.288,3.523 C200.190,4.693 199.128,5.611 198.13,6.366 C200.82,7.338 202.206,7.932 205.13,8.346 C204.671,8.814 204.545,9.84 204.347,9.641 ZM199.452,3.577 L194.269,3.577 L194.234,3.613 C195.205,4.675 195.745,5.107 196.807,5.737 C197.887,5.17 198.534,4.495 199.452,3.577 ZM191.84,11.765 C190.256,11.765 189.591,11.801 189.33,11.873 L189.33,10.469 C189.519,10.559 189.951,10.577 190.868,10.577 L195.961,10.577 L195.961,9.731 C195.961,9.138 195.943,8.976 195.871,8.526 L197.329,8.526 C197.275,8.886 197.257,9.210 197.257,9.731 L197.257,10.577 L202.512,10.577 C203.483,10.577 203.969,10.559 204.527,10.469 L204.527,11.873 C203.933,11.801 203.303,11.765 202.440,11.765 L198.121,11.765 C198.786,12.467 199.290,12.917 200.100,13.456 C201.648,14.500 203.15,15.148 204.959,15.796 C204.599,16.264 204.437,16.552 204.149,17.181 C201.126,15.904 199.38,14.464 197.203,12.377 C197.239,12.935 197.257,13.492 197.257,13.888 L197.257,15.940 C197.257,16.858 197.275,17.163 197.365,17.649 L195.835,17.649 C195.925,17.109 195.961,16.768 195.961,15.940 L195.961,13.906 C195.961,13.492 195.979,12.935 195.997,12.413 C195.25,13.528 194.341,14.176 193.406,14.860 C192.380,15.616 190.976,16.426 189.519,17.74 C189.303,16.552 189.87,16.192 188.709,15.760 C191.354,14.842 193.568,13.456 195.79,11.765 L191.84,11.765 ZM179.58,16.534 C178.824,15.814 178.698,15.580 178.284,15.76 C179.850,14.824 180.714,14.572 181.596,14.104 C183.395,13.151 184.439,11.387 184.439,9.300 C184.439,7.338 183.485,5.755 181.776,4.927 C181.146,4.621 180.642,4.495 179.760,4.441 C179.454,7.86 178.806,9.731 177.960,11.639 C176.935,13.996 175.855,15.76 174.505,15.76 C172.688,15.76 171.356,13.151 171.356,10.523 C171.356,8.652 172.40,6.852 173.282,5.485 C174.739,3.883 176.755,3.55 179.202,3.55 C183.287,3.55 186.5,5.575 186.5,9.372 C186.5,12.161 184.583,14.392 182.64,15.598 C181.200,16.12 180.444,16.246 179.58,16.534 ZM175.639,5.323 C173.893,6.420 172.832,8.400 172.832,10.541 C172.832,12.179 173.552,13.474 174.487,13.474 C175.189,13.474 175.873,12.647 176.611,10.955 C177.331,9.282 177.978,6.708 178.212,4.477 C177.169,4.567 176.431,4.801 175.639,5.323 ZM177.536,27.566 C182.531,27.566 185.853,30.646 185.853,35.288 C185.853,38.698 184.115,41.426 181.34,42.900 C179.978,43.406 179.54,43.692 177.360,44.44 C177.74,43.164 176.920,42.878 176.414,42.262 C178.328,41.954 179.384,41.646 180.462,41.74 C182.663,39.908 183.939,37.752 183.939,35.200 C183.939,32.802 182.773,30.866 180.682,29.854 C179.912,29.480 179.296,29.326 178.218,29.260 C177.844,32.494 177.52,35.728 176.18,38.60 C174.764,40.942 173.444,42.262 171.794,42.262 C169.572,42.262 167.944,39.908 167.944,36.696 C167.944,34.408 168.780,32.208 170.298,30.536 C172.80,28.578 174.544,27.566 177.536,27.566 ZM173.180,30.338 C171.46,31.680 169.748,34.100 169.748,36.718 C169.748,38.720 170.628,40.304 171.772,40.304 C172.630,40.304 173.466,39.292 174.368,37.224 C175.248,35.178 176.40,32.32 176.326,29.304 C175.50,29.414 174.148,29.700 173.180,30.338 ZM165.593,11.765 C165.125,13.115 164.603,13.996 163.703,14.986 C162.875,15.886 161.975,16.570 160.878,17.145 C160.410,16.552 160.248,16.390 159.726,16.12 C161.76,15.364 161.831,14.842 162.605,13.978 C163.397,13.115 163.973,12.89 164.243,11.63 C162.713,10.289 161.346,9.875 159.546,9.641 C158.826,11.765 158.304,13.133 157.836,13.996 C157.171,15.202 156.469,15.760 155.569,15.760 C154.723,15.760 153.877,15.220 153.445,14.410 C153.211,13.960 153.50,13.259 153.50,12.611 C153.50,11.153 153.859,9.803 155.209,8.994 C156.145,8.454 157.81,8.238 158.502,8.202 C159.60,6.528 159.294,5.809 159.852,3.901 C158.772,3.991 158.592,3.991 156.541,4.81 C155.857,4.99 155.587,4.117 155.191,4.171 L155.137,2.641 C155.587,2.713 156.37,2.749 156.883,2.749 C157.872,2.749 159.420,2.677 160.14,2.605 C160.338,2.569 160.482,2.515 160.680,2.389 L161.777,3.289 C161.526,3.631 161.490,3.721 160.788,5.881 C160.464,6.852 160.338,7.266 159.960,8.328 C161.526,8.508 162.893,8.904 164.603,9.659 C164.765,8.688 164.819,7.824 164.819,6.114 C164.819,5.719 164.801,5.539 164.747,5.215 L166.366,5.251 C166.312,5.593 166.294,5.737 166.276,6.384 C166.240,8.148 166.186,8.814 165.952,10.271 C167.50,10.811 167.374,10.991 168.382,11.585 C168.508,11.657 168.634,11.729 168.868,11.837 L168.292,13.510 C167.734,13.43 166.816,12.449 165.593,11.765 ZM155.281,10.667 C154.759,11.189 154.471,11.909 154.471,12.629 C154.471,13.528 154.957,14.230 155.551,14.230 C156.253,14.230 156.919,12.989 158.88,9.534 C156.811,9.641 155.965,9.983 155.281,10.667 ZM154.700,28.270 C153.203,33.264 151.641,37.664 150.189,41.74 C153.335,40.832 158.66,40.238 160.420,39.754 C159.386,37.642 158.132,35.508 157.120,34.100 L158.814,33.308 C160.728,36.36 162.796,39.820 164.248,43.318 L162.378,44.308 C162.4,43.252 161.806,42.768 161.146,41.404 C160.882,41.470 160.882,41.470 160.398,41.558 C157.868,42.86 153.555,42.636 147.703,43.208 C146.625,43.318 146.207,43.362 145.789,43.472 L145.525,41.294 C145.855,41.338 146.9,41.338 146.119,41.338 C146.339,41.338 147.153,41.294 148.11,41.228 C149.375,38.60 150.167,35.948 151.289,32.472 C152.367,29.150 152.807,27.500 152.983,26.202 L155.272,26.708 C155.74,27.126 154.942,27.478 154.700,28.270 ZM149.536,10.199 L146.782,10.199 L146.782,15.886 C146.782,17.181 146.404,17.487 144.839,17.487 C144.371,17.487 143.543,17.433 142.733,17.361 C142.661,16.696 142.607,16.444 142.409,15.904 C143.417,16.66 144.191,16.156 144.713,16.156 C145.271,16.156 145.396,16.84 145.396,15.778 L145.396,10.199 L143.129,10.199 C142.409,10.199 141.959,10.235 141.455,10.307 L141.455,8.814 C141.869,8.904 142.247,8.922 143.111,8.922 L145.396,8.922 L145.396,8.202 C145.396,7.554 145.360,7.86 145.271,6.474 L145.900,6.474 C147.34,5.539 147.664,4.873 148.528,3.649 L143.741,3.649 C143.57,3.649 142.409,3.685 141.923,3.739 L141.923,2.245 C142.391,2.317 143.3,2.353 143.795,2.353 L148.294,2.353 C149.68,2.353 149.428,2.335 149.733,2.263 L150.489,3.217 C150.345,3.361 150.345,3.361 149.428,4.567 C148.672,5.557 147.916,6.330 146.782,7.320 L146.782,8.922 L149.536,8.922 C150.309,8.922 150.687,8.904 151.191,8.814 L151.191,10.307 C150.669,10.217 150.291,10.199 149.536,10.199 ZM140.916,8.670 C140.574,10.325 140.178,11.513 139.512,12.791 C140.232,13.438 140.592,13.798 141.491,14.770 L140.592,15.958 C139.782,14.986 139.458,14.644 138.810,14.14 C137.802,15.508 136.920,16.372 135.301,17.505 C135.31,17.56 134.743,16.696 134.365,16.336 C135.895,15.400 136.848,14.518 137.802,13.97 C136.741,12.233 136.273,11.891 134.941,11.63 C135.625,9.516 136.93,8.94 136.597,6.96 L136.93,6.96 C135.553,6.96 135.121,6.132 134.671,6.186 L134.671,4.765 C135.157,4.837 135.589,4.873 136.255,4.873 L136.866,4.873 C137.154,3.451 137.334,2.209 137.334,1.490 C137.334,1.454 137.316,1.364 137.316,1.274 L138.864,1.400 C138.810,1.634 138.756,1.976 138.666,2.515 C138.558,3.181 138.378,4.225 138.234,4.873 L139.818,4.873 C140.520,4.873 141.6,4.855 141.419,4.801 C141.383,5.71 141.383,5.71 141.329,5.701 C141.275,6.456 141.60,7.878 140.916,8.670 ZM137.964,6.96 C137.892,6.312 137.892,6.312 137.802,6.708 C137.532,7.788 137.118,9.102 136.579,10.559 C137.550,11.225 137.910,11.477 138.486,11.927 C139.278,10.361 139.710,8.616 139.980,6.96 L137.964,6.96 ZM127.630,4.9 L128.782,3.181 C130.383,4.351 131.355,5.269 132.399,6.672 L131.265,7.626 C130.329,6.276 129.52,4.999 127.630,4.9 ZM131.661,12.719 C131.661,14.896 130.23,16.552 127.864,16.552 C126.424,16.552 125.416,15.832 125.38,14.518 C124.858,13.906 124.787,13.366 124.787,12.413 C125.452,12.233 125.668,12.143 126.208,11.837 C126.190,12.179 126.172,12.323 126.172,12.539 C126.172,13.223 126.262,13.870 126.388,14.212 C126.640,14.806 127.162,15.130 127.900,15.130 C129.195,15.130 130.149,14.122 130.149,12.719 C130.149,11.9 128.728,9.929 126.496,9.929 C125.344,9.929 124.247,10.127 122.771,10.613 L122.771,14.410 C122.771,15.220 122.753,15.400 122.681,15.706 C122.537,16.264 122.15,16.606 121.295,16.606 C120.252,16.606 119.46,16.138 118.218,15.418 C117.624,14.896 117.336,14.302 117.336,13.618 C117.336,12.809 117.822,11.981 118.794,11.153 C119.460,10.595 120.198,10.163 121.349,9.659 L121.349,6.438 C121.205,6.438 121.205,6.438 120.629,6.474 C120.342,6.510 120.36,6.510 119.622,6.510 C119.370,6.510 118.866,6.492 118.560,6.492 C118.362,6.474 118.218,6.474 118.146,6.474 C118.74,6.474 117.948,6.474 117.804,6.492 L117.804,5.53 C118.326,5.161 118.848,5.197 119.748,5.197 C120.162,5.197 120.162,5.197 121.349,5.143 L121.349,3.541 C121.349,2.731 121.313,2.281 121.241,1.724 L122.861,1.724 C122.789,2.245 122.771,2.605 122.771,3.469 L122.771,5.35 C124.49,4.909 125.434,4.621 126.370,4.297 L126.442,5.737 C126.100,5.791 126.28,5.791 125.380,5.934 C124.247,6.150 123.545,6.276 122.753,6.348 L122.753,9.246 C124.229,8.814 125.326,8.634 126.586,8.634 C127.846,8.634 128.998,8.922 129.807,9.426 C130.995,10.181 131.661,11.369 131.661,12.719 ZM121.349,11.81 C119.676,11.927 118.740,12.845 118.740,13.636 C118.740,14.14 118.974,14.338 119.460,14.662 C119.910,14.950 120.504,15.148 120.953,15.148 C121.277,15.148 121.349,15.4 121.349,14.284 L121.349,11.81 ZM117.122,29.700 C118.442,29.700 119.58,29.656 119.829,29.546 L119.829,31.526 C118.948,31.438 118.442,31.416 117.166,31.416 L111.820,31.416 L111.820,42.174 C111.820,43.494 111.842,43.978 111.930,44.660 L109.774,44.660 C109.884,44.22 109.906,43.406 109.906,42.174 L109.906,31.416 L104.692,31.416 C103.438,31.416 102.866,31.438 102.52,31.526 L102.52,29.546 C102.822,29.656 103.460,29.700 104.714,29.700 L109.906,29.700 L109.906,28.292 C109.906,27.148 109.884,26.598 109.774,26.26 L111.930,26.26 C111.842,26.664 111.820,27.148 111.820,28.336 L111.820,29.700 L117.122,29.700 ZM105.110,33.308 L107.68,33.836 C106.980,34.78 106.958,34.122 106.870,34.452 C105.968,38.16 104.846,40.392 102.954,42.834 C102.250,42.262 101.986,42.108 101.172,41.756 C102.602,40.216 103.504,38.676 104.362,36.234 C104.802,35.2 105.22,34.188 105.110,33.308 ZM91.844,39.754 C90.501,37.840 89.643,35.860 88.961,33.22 C88.565,35.24 88.191,36.168 87.399,37.796 C86.607,39.468 85.617,40.810 84.187,42.240 C82.955,43.450 82.119,44.110 80.293,45.254 C79.897,44.550 79.589,44.176 78.973,43.670 C81.547,42.262 82.845,41.228 84.297,39.358 C86.805,36.168 87.949,32.450 87.949,27.500 C87.949,26.620 87.927,26.224 87.861,25.652 L89.929,25.652 C89.863,26.4 89.797,27.16 89.797,27.654 C89.797,29.62 90.61,31.460 90.347,32.626 C90.809,34.496 92.42,37.26 93.384,38.786 C94.198,39.864 95.386,41.74 96.530,41.998 C97.190,42.526 97.718,42.878 98.928,43.582 C98.290,44.154 98.48,44.484 97.608,45.254 C94.946,43.428 93.406,41.954 91.844,39.754 ZM68.875,34.254 C67.467,35.332 65.663,36.498 64.188,37.356 L64.188,39.116 C66.829,38.434 68.457,37.884 70.437,37.70 C71.493,36.608 72.65,36.322 72.527,35.970 L73.847,37.444 C73.627,37.532 73.143,37.730 72.351,38.60 C71.163,38.588 68.589,39.468 67.27,39.930 C66.279,40.150 66.279,40.150 64.188,40.678 L64.188,42.350 C64.188,42.790 64.364,43.32 64.827,43.120 C65.465,43.274 66.411,43.318 68.237,43.318 C71.537,43.318 72.483,43.208 72.857,42.768 C73.143,42.438 73.275,41.646 73.363,39.798 C73.957,40.172 74.397,40.370 75.35,40.524 C74.661,44.858 74.529,44.924 67.973,44.924 C63.220,44.924 62.494,44.638 62.494,42.702 L62.494,38.280 C60.910,39.94 59.656,39.644 57.896,40.348 C57.610,39.776 57.368,39.424 56.840,38.830 C60.184,37.730 63.198,36.278 66.301,34.254 L59.832,34.254 C58.776,34.254 58.50,34.298 57.302,34.386 L57.302,32.582 C57.896,32.670 58.600,32.714 59.832,32.714 L65.201,32.714 L65.201,29.854 L61.548,29.854 C60.404,29.854 59.744,29.876 59.106,29.964 L59.106,28.204 C59.678,28.292 60.338,28.336 61.570,28.336 L65.201,28.336 L65.201,27.500 C65.201,26.532 65.179,26.48 65.69,25.432 L67.5,25.432 C66.917,25.982 66.873,26.532 66.873,27.522 L66.873,28.336 L69.139,28.336 C70.283,28.336 70.965,28.292 71.537,28.204 L71.537,29.942 C72.769,28.644 73.605,27.500 74.1,26.642 L75.673,27.654 C75.365,28.6 75.299,28.94 74.771,28.732 C73.693,30.30 72.307,31.438 70.811,32.714 L74.221,32.714 C75.387,32.714 75.981,32.692 76.619,32.582 L76.619,34.386 C75.915,34.298 75.167,34.254 74.177,34.254 L68.875,34.254 ZM71.515,29.942 C70.723,29.876 70.437,29.854 69.227,29.854 L66.873,29.854 L66.873,32.714 L68.435,32.714 C69.733,31.680 70.481,31.20 71.515,29.942 ZM40.197,39.811 L25.681,39.811 C24.765,39.811 23.942,40.319 23.532,41.132 C22.953,42.280 21.791,42.995 20.499,42.995 C19.205,42.995 18.43,42.280 17.464,41.132 C17.54,40.319 16.231,39.811 15.316,39.811 L0.799,39.811 C0.356,39.811 0.1,39.456 0.1,39.17 L0.1,11.972 C0.1,11.533 0.356,11.177 0.799,11.177 L3.201,11.177 L3.201,8.789 C3.201,8.352 3.560,7.995 4.2,7.995 C4.674,7.995 16.629,7.995 17.295,7.995 C18.604,7.995 19.767,8.621 20.499,9.588 C21.230,8.621 22.393,7.995 23.702,7.995 L36.994,7.995 C37.437,7.995 37.795,8.352 37.795,8.789 L37.795,11.177 L40.197,11.177 C40.640,11.177 40.998,11.533 40.998,11.972 L40.998,39.17 C40.998,39.456 40.640,39.811 40.197,39.811 ZM19.698,11.972 C19.698,10.656 18.620,9.585 17.295,9.585 L4.803,9.585 L4.803,35.40 L17.295,35.40 C18.196,35.40 19.28,35.336 19.698,35.837 L19.698,11.972 ZM36.314,9.466 L23.702,9.466 C22.310,9.466 21.179,10.591 21.179,11.972 L21.179,36.76 L21.371,35.932 C22.49,35.425 22.854,35.160 23.702,35.160 L36.314,35.160 L36.314,9.466 ZM39.396,12.768 L37.795,12.768 L37.795,35.835 C37.795,36.274 37.437,36.630 36.994,36.630 L23.702,36.630 C22.377,36.630 21.299,37.700 21.299,39.17 C21.299,39.456 20.941,39.811 20.499,39.811 C20.56,39.811 19.698,39.456 19.698,39.17 C19.698,37.700 18.620,36.630 17.295,36.630 L4.2,36.630 C3.560,36.630 3.201,36.274 3.201,35.835 L3.201,12.768 L1.600,12.768 L1.600,38.221 L15.316,38.221 C16.842,38.221 18.214,39.65 18.897,40.420 C19.202,41.27 19.816,41.404 20.499,41.404 C21.180,41.404 21.794,41.27 22.99,40.420 C22.783,39.65 24.155,38.221 25.681,38.221 L39.396,38.221 L39.396,12.768 ZM23.20,27.527 C23.20,27.154 23.326,26.851 23.702,26.851 C24.76,26.851 24.382,27.154 24.382,27.527 C24.382,27.900 24.76,28.203 23.702,28.203 C23.326,28.203 23.20,27.900 23.20,27.527 ZM26.905,17.217 L33.791,17.217 C34.167,17.217 34.472,17.521 34.472,17.894 C34.472,18.266 34.167,18.570 33.791,18.570 L26.905,18.570 C26.529,18.570 26.224,18.266 26.224,17.894 C26.224,17.521 26.529,17.217 26.905,17.217 ZM26.905,22.79 L33.791,22.79 C34.167,22.79 34.472,22.382 34.472,22.754 C34.472,23.127 34.167,23.431 33.791,23.431 L26.905,23.431 C26.529,23.431 26.224,23.127 26.224,22.754 C26.224,22.382 26.529,22.79 26.905,22.79 ZM26.905,26.851 L33.791,26.851 C34.167,26.851 34.472,27.154 34.472,27.527 C34.472,27.900 34.167,28.203 33.791,28.203 L26.905,28.203 C26.529,28.203 26.224,27.900 26.224,27.527 C26.224,27.154 26.529,26.851 26.905,26.851 ZM23.702,23.431 C23.326,23.431 23.20,23.127 23.20,22.754 C23.20,22.382 23.326,22.79 23.702,22.79 C24.76,22.79 24.382,22.382 24.382,22.754 C24.382,23.127 24.76,23.431 23.702,23.431 ZM23.702,18.570 C23.326,18.570 23.20,18.266 23.20,17.894 C23.20,17.521 23.326,17.217 23.702,17.217 C24.76,17.217 24.382,17.521 24.382,17.894 C24.382,18.266 24.76,18.570 23.702,18.570 ZM17.295,28.203 L10.408,28.203 C10.33,28.203 9.728,27.900 9.728,27.527 C9.728,27.154 10.33,26.851 10.408,26.851 L17.295,26.851 C17.671,26.851 17.976,27.154 17.976,27.527 C17.976,27.900 17.671,28.203 17.295,28.203 ZM17.295,23.431 L10.408,23.431 C10.33,23.431 9.728,23.127 9.728,22.754 C9.728,22.382 10.33,22.79 10.408,22.79 L17.295,22.79 C17.671,22.79 17.976,22.382 17.976,22.754 C17.976,23.127 17.671,23.431 17.295,23.431 ZM17.295,18.658 L10.408,18.658 C10.33,18.658 9.728,18.355 9.728,17.982 C9.728,17.609 10.33,17.304 10.408,17.304 L17.295,17.304 C17.671,17.304 17.976,17.609 17.976,17.982 C17.976,18.355 17.671,18.658 17.295,18.658 ZM7.205,28.203 C6.830,28.203 6.525,27.900 6.525,27.527 C6.525,27.154 6.830,26.851 7.205,26.851 C7.581,26.851 7.886,27.154 7.886,27.527 C7.886,27.900 7.581,28.203 7.205,28.203 ZM7.205,23.431 C6.830,23.431 6.525,23.127 6.525,22.754 C6.525,22.382 6.830,22.79 7.205,22.79 C7.581,22.79 7.886,22.382 7.886,22.754 C7.886,23.127 7.581,23.431 7.205,23.431 ZM7.205,18.658 C6.830,18.658 6.525,18.355 6.525,17.982 C6.525,17.609 6.830,17.304 7.205,17.304 C7.581,17.304 7.886,17.609 7.886,17.982 C7.886,18.355 7.581,18.658 7.205,18.658 ZM117.276,35.816 C118.266,38.390 119.169,39.996 120.599,41.712 C119.829,42.130 119.565,42.284 118.882,42.878 C117.408,40.766 116.550,39.116 115.516,36.344 C115.340,35.816 115.274,35.618 115.54,34.980 C115.32,34.870 114.966,34.694 114.878,34.452 C114.768,34.100 114.746,34.56 114.636,33.814 L116.462,33.330 C116.616,34.12 116.814,34.628 117.276,35.816 ZM139.145,34.342 C140.905,34.342 141.345,34.320 142.115,34.210 L142.115,36.388 C141.279,36.300 140.641,36.278 139.123,36.278 L126.803,36.278 C125.64,36.278 124.514,36.300 123.744,36.388 L123.744,34.210 C124.448,34.298 125.262,34.342 126.781,34.342 L139.145,34.342 ZM196.677,43.10 C194.411,44.308 193.47,44.814 190.11,45.430 C189.703,44.792 189.527,44.528 189.43,43.978 C191.903,43.626 193.421,43.164 195.379,42.64 L196.677,43.10 ZM194.521,27.874 L193.487,29.172 C192.167,28.116 191.441,27.654 189.923,26.972 L190.957,25.784 C192.607,26.576 193.311,26.994 194.521,27.874 ZM195.203,31.350 C193.553,32.120 192.849,32.428 190.847,33.176 C190.429,33.330 190.253,33.418 189.857,33.616 L189.241,31.944 C190.715,31.680 192.695,30.998 194.763,29.986 L195.203,31.350 ZM206.5,42.86 C205.499,42.20 204.597,41.998 203.585,41.998 L194.235,41.998 C193.179,41.998 192.365,42.20 191.815,42.86 C191.881,41.668 191.903,40.920 191.903,39.842 L191.903,35.794 C191.903,34.782 191.881,34.100 191.837,33.462 C192.343,33.506 193.69,33.528 194.103,33.528 L203.717,33.528 C204.927,33.528 205.389,33.506 205.983,33.462 C205.939,34.100 205.917,34.804 205.917,35.882 L205.917,39.776 C205.917,40.854 205.939,41.668 206.5,42.86 ZM204.311,34.760 L193.509,34.760 L193.509,35.970 L204.311,35.970 L204.311,34.760 ZM204.311,37.136 L193.509,37.136 L193.509,38.346 L204.311,38.346 L204.311,37.136 ZM204.311,39.512 L193.509,39.512 L193.509,40.744 L204.311,40.744 L204.311,39.512 ZM208.844,43.934 C208.359,44.550 208.337,44.572 207.875,45.408 C204.861,44.880 203.233,44.308 201.11,43.10 L202.243,42.86 C204.355,43.164 205.873,43.604 208.844,43.934 ZM211.571,27.324 L212.913,26.708 C213.639,28.600 213.947,29.590 214.343,31.438 L213.1,32.10 C212.605,30.8 212.231,28.754 211.571,27.324 ZM217.226,31.416 C218.18,29.810 218.348,28.820 218.810,26.642 L220.218,27.236 C219.470,29.744 219.272,30.294 218.436,32.10 L217.226,31.416 ZM214.849,34.320 L213.485,34.320 C212.539,34.320 212.55,34.342 211.549,34.430 L211.549,32.758 C211.989,32.846 212.473,32.868 213.463,32.868 L215.157,32.868 L215.157,27.676 C215.157,26.598 215.113,25.916 215.25,25.366 L216.874,25.366 C216.786,25.938 216.764,26.554 216.764,27.654 L216.764,32.868 L217.974,32.868 C218.744,32.868 219.162,32.846 219.624,32.780 L219.624,34.408 C219.140,34.342 218.656,34.320 217.952,34.320 L216.874,34.320 C217.842,36.14 218.634,37.4 219.910,38.104 C219.580,38.588 219.272,39.94 219.74,39.556 C217.864,38.192 217.270,37.334 216.632,36.14 C216.676,36.850 216.764,38.522 216.764,39.50 L216.764,43.54 C216.764,44.110 216.786,44.704 216.874,45.430 L215.25,45.430 C215.113,44.704 215.157,44.0 215.157,43.10 L215.157,39.534 C215.157,38.456 215.201,37.312 215.267,36.256 C214.299,39.28 213.419,40.634 211.989,42.240 C211.681,41.492 211.483,41.184 211.87,40.722 C212.143,39.644 212.847,38.632 213.639,37.136 C214.167,36.124 214.365,35.662 214.849,34.320 ZM221.428,32.450 C223.232,33.704 224.200,34.518 225.344,35.772 L224.266,37.70 C222.858,35.486 222.0,34.760 220.306,33.638 L221.428,32.450 ZM221.296,39.446 L227.82,38.104 L227.82,27.764 C227.82,26.598 227.38,26.4 226.950,25.388 L228.886,25.388 C228.776,26.92 228.754,26.642 228.754,27.742 L228.754,37.708 L228.930,37.664 C229.920,37.422 230.426,37.268 230.954,37.48 L231.284,38.874 C230.734,38.940 230.8,39.72 229.172,39.270 L228.754,39.358 L228.754,42.922 C228.754,44.22 228.776,44.748 228.886,45.364 L226.950,45.364 C227.38,44.704 227.82,44.154 227.82,42.878 L227.82,39.754 L221.582,41.52 C220.680,41.272 220.42,41.448 219.514,41.624 L219.162,39.798 C219.734,39.776 220.460,39.644 221.296,39.446 ZM260.479,32.252 C261.205,32.252 261.513,32.230 261.909,32.164 L261.909,33.704 C261.447,33.660 261.139,33.638 260.479,33.638 L257.311,33.638 C256.585,33.638 256.255,33.660 255.837,33.704 L255.837,32.164 C256.277,32.230 256.563,32.252 257.311,32.252 L260.479,32.252 ZM260.479,35.310 C261.205,35.310 261.425,35.288 261.909,35.222 L261.909,36.762 C261.469,36.718 261.161,36.696 260.457,36.696 L257.289,36.696 C256.607,36.696 256.277,36.718 255.837,36.762 L255.837,35.222 C256.277,35.288 256.585,35.310 257.311,35.310 L260.479,35.310 ZM255.969,40.62 C255.969,39.292 255.947,38.874 255.881,38.280 C256.409,38.346 256.871,38.368 257.663,38.368 L260.413,38.368 C261.205,38.368 261.601,38.346 261.975,38.302 C261.931,38.742 261.909,39.160 261.909,39.996 L261.909,43.120 C261.909,43.890 261.931,44.396 261.997,44.924 L260.435,44.924 L260.435,44.66 L257.487,44.66 L257.487,45.210 L255.859,45.210 C255.925,44.528 255.969,43.824 255.969,43.54 L255.969,40.62 ZM257.487,42.702 L260.435,42.702 L260.435,39.732 L257.487,39.732 L257.487,42.702 ZM263.735,36.652 C263.735,35.706 263.713,35.332 263.669,34.738 C264.307,34.804 264.747,34.826 265.627,34.826 L271.502,34.826 C272.536,34.826 273.42,34.804 273.526,34.716 C273.460,35.310 273.438,35.970 273.438,37.48 L273.438,43.318 C273.438,44.770 272.976,45.122 271.128,45.122 C270.577,45.122 269.939,45.100 269.191,45.34 C269.103,44.396 268.993,44.0 268.773,43.472 C269.609,43.604 270.489,43.692 271.150,43.692 C271.744,43.692 271.898,43.560 271.898,43.76 L271.898,41.624 L265.253,41.624 L265.253,42.900 C265.253,44.22 265.297,44.748 265.385,45.320 L263.625,45.320 C263.713,44.704 263.735,44.110 263.735,42.900 L263.735,36.652 ZM265.253,40.304 L271.898,40.304 L271.898,38.896 L265.253,38.896 L265.253,40.304 ZM265.253,37.598 L271.898,37.598 L271.898,36.146 L265.253,36.146 L265.253,37.598 ZM280.698,31.878 C282.18,33.242 282.722,34.122 283.756,35.684 L282.348,36.784 C281.380,35.134 280.588,34.78 279.378,32.890 L280.698,31.878 ZM284.988,36.938 L285.516,38.544 C283.426,40.62 282.634,40.546 279.488,42.284 C279.4,42.570 278.740,42.724 278.365,42.966 L277.507,41.162 C278.520,40.854 279.378,40.480 280.786,39.688 C282.568,38.698 283.536,38.82 284.988,36.938 Z"/>
</svg>
