<svg
 xmlns="http://www.w3.org/2000/svg"
 xmlns:xlink="http://www.w3.org/1999/xlink"
 width="143px" height="26px">
<path fill-rule="evenodd"  fill="rgb(255, 255, 255)"
 d="M138.254,9.47 C137.812,8.469 137.608,8.78 137.353,7.364 C137.115,8.146 136.894,8.605 136.452,9.200 C135.619,10.288 134.736,10.951 133.155,11.613 C132.951,11.188 132.798,10.985 132.492,10.679 C133.733,10.288 134.379,9.948 135.76,9.319 C136.282,8.231 136.809,6.922 136.809,5.35 C136.809,4.542 136.792,4.270 136.741,3.896 L137.931,3.896 C137.880,4.270 137.846,4.678 137.846,4.984 C137.846,6.310 138.135,7.330 138.747,8.197 C139.155,8.775 139.750,9.353 140.413,9.778 C140.940,10.118 141.348,10.322 142.181,10.628 C141.875,11.19 141.739,11.205 141.552,11.613 C140.22,10.866 139.70,10.135 138.254,9.47 ZM138.968,7.296 C139.869,6.412 140.294,5.800 140.838,4.627 L141.858,5.103 C141.127,6.327 140.651,6.956 139.784,7.840 C139.393,7.551 139.223,7.432 138.968,7.296 ZM132.951,7.755 C133.733,6.752 134.56,6.38 134.294,4.763 L135.313,5.1 C134.957,6.361 134.634,7.109 133.920,8.163 L132.951,7.755 ZM128.208,7.670 C127.630,7.670 127.290,7.687 126.848,7.738 L126.848,6.633 C127.239,6.701 127.562,6.718 128.208,6.718 L131.336,6.718 C132.50,6.718 132.322,6.701 132.696,6.633 L132.696,7.738 C132.305,7.687 132.50,7.670 131.455,7.670 L128.208,7.670 ZM128.854,5.273 C128.361,5.273 127.987,5.290 127.630,5.341 L127.630,4.270 C127.987,4.338 128.293,4.355 128.854,4.355 L130.928,4.355 C131.489,4.355 131.795,4.338 132.152,4.270 L132.152,5.341 C131.727,5.290 131.438,5.273 130.928,5.273 L128.854,5.273 ZM123.55,19.7 L121.916,19.7 L121.916,17.852 L116.528,17.852 L116.528,19.75 L115.372,19.75 C115.423,18.498 115.457,17.886 115.457,17.2 L115.457,6.344 C115.457,5.749 115.440,5.341 115.389,4.508 C115.814,4.542 115.916,4.542 116.715,4.542 L121.746,4.542 C122.494,4.542 122.681,4.542 123.38,4.491 C123.4,4.865 122.987,5.256 122.987,6.191 L122.987,16.985 C122.987,17.920 123.4,18.565 123.55,19.7 ZM121.916,5.528 L116.528,5.528 L116.528,8.571 L121.916,8.571 L121.916,5.528 ZM121.916,9.540 L116.528,9.540 L116.528,12.565 L121.916,12.565 L121.916,9.540 ZM121.916,13.534 L116.528,13.534 L116.528,16.883 L121.916,16.883 L121.916,13.534 ZM114.318,12.837 C113.366,11.596 112.907,10.747 112.346,9.268 C112.397,10.832 112.414,11.460 112.414,12.21 L112.414,17.189 C112.414,18.107 112.448,18.701 112.516,19.160 L111.241,19.160 C111.309,18.684 111.343,18.73 111.343,17.189 L111.343,12.378 C111.343,11.664 111.360,11.290 111.445,9.608 C110.884,11.732 110.69,13.483 108.930,14.996 C108.709,14.537 108.590,14.350 108.267,14.10 C109.474,12.667 110.647,10.237 111.190,7.959 L109.967,7.959 C109.440,7.959 109.66,7.976 108.743,8.27 L108.743,6.956 C109.49,7.7 109.406,7.24 109.967,7.24 L111.343,7.24 L111.343,5.392 C111.343,4.406 111.326,4.15 111.258,3.624 L112.499,3.624 C112.431,4.32 112.414,4.542 112.414,5.375 L112.414,7.24 L113.655,7.24 C114.131,7.24 114.471,7.7 114.777,6.956 L114.777,8.10 C114.403,7.976 114.63,7.959 113.672,7.959 L112.499,7.959 C113.77,9.523 113.740,10.594 114.930,11.885 C114.539,12.395 114.505,12.446 114.318,12.837 ZM99.357,11.341 L99.357,13.517 L102.400,13.517 C103.114,13.517 103.488,13.500 103.964,13.449 C103.913,13.874 103.896,14.333 103.896,14.996 L103.896,17.427 C103.896,18.73 103.930,18.599 103.998,19.109 L102.842,19.109 L102.842,18.294 L95.431,18.294 L95.431,19.109 L94.292,19.109 C94.360,18.616 94.377,18.226 94.377,17.546 L94.377,14.996 C94.377,14.333 94.360,13.908 94.309,13.449 C94.802,13.500 95.74,13.517 95.703,13.517 L98.269,13.517 L98.269,11.341 L93.17,11.341 C92.779,14.979 92.354,16.611 91.45,18.888 C90.756,18.515 90.501,18.277 90.127,18.5 C90.807,16.951 91.164,16.135 91.436,15.64 C91.861,13.381 92.82,10.645 92.82,6.990 C92.82,5.477 92.65,4.967 91.997,4.338 C92.609,4.389 93.170,4.406 94.54,4.406 L102.638,4.406 C103.454,4.406 103.947,4.389 104.423,4.338 C104.389,4.746 104.372,5.120 104.372,5.647 L104.372,7.279 C104.372,7.823 104.389,8.95 104.423,8.537 C103.896,8.503 103.437,8.486 102.740,8.486 L99.357,8.486 L99.357,10.390 L103.437,10.390 C104.168,10.390 104.627,10.356 105.154,10.288 L105.154,11.443 C104.610,11.375 104.117,11.341 103.420,11.341 L99.357,11.341 ZM93.68,10.390 L98.269,10.390 L98.269,8.486 L93.119,8.486 C93.102,9.404 93.85,9.846 93.68,10.390 ZM103.318,7.534 L103.318,5.358 L93.136,5.358 L93.136,7.534 L103.318,7.534 ZM95.431,14.452 L95.431,17.342 L102.842,17.342 L102.842,14.452 L95.431,14.452 ZM84.90,15.880 C83.105,14.758 82.238,13.466 81.660,12.208 C81.150,11.137 80.895,10.390 80.589,9.64 C80.62,11.324 79.365,12.939 78.209,14.571 C77.580,15.472 76.798,16.339 75.914,17.155 C75.285,17.733 74.843,18.90 73.772,18.820 C73.500,18.379 73.279,18.124 72.855,17.818 C74.707,16.662 75.676,15.829 76.798,14.469 C78.22,12.973 78.889,11.341 79.416,9.523 C79.739,8.367 79.875,7.517 79.960,5.817 L77.410,5.817 C77.87,5.817 76.679,5.851 76.118,5.902 L76.118,4.678 C76.458,4.746 76.798,4.763 77.410,4.763 L79.654,4.763 C80.470,4.763 80.895,4.729 81.235,4.661 C81.184,5.86 81.167,5.409 81.167,5.783 C81.167,7.925 81.626,9.829 82.612,11.715 C83.274,12.990 84.107,14.129 85.161,15.234 C86.164,16.254 86.810,16.764 88.340,17.699 C87.881,18.90 87.762,18.209 87.388,18.786 C85.909,17.750 85.110,17.53 84.90,15.880 ZM67.549,12.786 C66.784,12.786 66.155,12.157 66.155,11.392 C66.155,10.628 66.784,9.999 67.549,9.999 C68.314,9.999 68.943,10.628 68.943,11.392 C68.943,12.157 68.314,12.786 67.549,12.786 ZM54.204,14.129 L54.204,17.699 C54.204,18.752 53.881,18.956 52.300,18.956 C51.824,18.956 50.940,18.922 50.345,18.854 C50.226,18.362 50.158,18.141 49.988,17.767 C50.855,17.886 51.654,17.954 52.215,17.954 C52.997,17.954 53.116,17.903 53.116,17.546 L53.116,14.129 L48.16,14.129 C47.269,14.129 46.742,14.163 46.232,14.231 L46.232,13.58 C46.725,13.126 47.269,13.160 47.999,13.160 L53.116,13.160 L53.116,12.871 C53.116,12.531 53.99,12.225 53.65,11.868 L53.779,11.868 C54.952,11.307 55.921,10.696 56.822,9.948 L50.600,9.948 C50.22,9.948 49.444,9.982 48.985,10.33 L48.985,8.928 C49.461,8.979 50.5,9.13 50.634,9.13 L56.771,9.13 C57.400,9.13 57.739,8.996 58.28,8.945 L58.674,9.625 C58.453,9.795 58.453,9.795 58.79,10.118 C56.941,11.70 55.887,11.766 54.204,12.633 L54.204,13.160 L59.252,13.160 C60.17,13.160 60.561,13.126 61.37,13.58 L61.37,14.231 C60.561,14.163 59.983,14.129 59.235,14.129 L54.204,14.129 ZM60.714,10.237 L59.592,10.237 L59.592,7.381 L47.591,7.381 L47.591,10.237 L46.470,10.237 C46.521,9.846 46.555,9.472 46.555,9.47 L46.555,7.789 C46.555,7.160 46.538,6.820 46.487,6.378 C47.116,6.446 47.490,6.463 48.424,6.463 L49.614,6.463 C49.121,5.596 48.815,5.171 48.16,4.253 L49.36,3.930 C49.818,4.899 50.175,5.409 50.770,6.446 L53.252,6.446 C52.929,5.545 52.606,4.882 52.11,3.998 L53.65,3.709 C53.711,4.831 53.983,5.409 54.357,6.446 L56.227,6.446 C57.26,5.528 57.484,4.797 57.977,3.709 L59.48,4.168 C58.334,5.307 57.977,5.800 57.417,6.446 L58.742,6.446 C59.728,6.446 60.102,6.429 60.697,6.378 C60.646,6.820 60.629,7.160 60.629,7.789 L60.629,9.47 C60.629,9.438 60.663,9.846 60.714,10.237 ZM40.416,18.820 C39.22,18.820 38.257,18.735 37.917,18.532 C37.611,18.345 37.509,18.124 37.509,17.580 L37.509,14.163 L35.435,14.163 C35.197,15.574 34.790,16.441 33.940,17.257 C32.937,18.226 31.696,18.803 29.588,19.262 C29.418,18.837 29.282,18.599 28.993,18.243 C30.285,18.5 30.880,17.852 31.594,17.529 C32.767,17.19 33.566,16.271 33.957,15.336 C34.110,14.979 34.144,14.860 34.263,14.163 L33.158,14.163 C32.206,14.163 31.764,14.180 31.237,14.214 C31.305,13.687 31.322,13.211 31.322,12.429 L31.322,6.667 C31.322,5.681 31.288,4.780 31.237,4.406 C31.798,4.474 32.325,4.491 33.56,4.491 L40.161,4.491 C40.858,4.491 41.487,4.457 41.980,4.406 C41.929,4.763 41.895,5.715 41.895,6.667 L41.895,12.429 C41.895,13.228 41.912,13.704 41.980,14.214 C41.504,14.180 40.994,14.163 40.76,14.163 L38.597,14.163 L38.597,17.240 C38.597,17.767 38.767,17.818 40.501,17.818 C42.116,17.818 42.507,17.750 42.745,17.393 C42.932,17.104 43.51,16.492 43.153,15.166 C43.629,15.421 43.884,15.523 44.224,15.625 C43.833,18.667 43.646,18.820 40.416,18.820 ZM40.841,5.494 L32.376,5.494 L32.376,7.347 L40.841,7.347 L40.841,5.494 ZM40.841,8.299 L32.376,8.299 L32.376,10.254 L40.841,10.254 L40.841,8.299 ZM40.841,13.228 L40.841,11.205 L32.376,11.205 L32.376,13.228 L40.841,13.228 ZM17.513,14.115 L17.513,25.348 L0.825,25.348 L0.825,5.267 L5.783,0.2 L17.513,0.2 L17.513,7.154 L19.729,4.800 L22.996,8.270 L17.591,14.32 L17.513,14.115 ZM6.256,0.839 L1.617,5.770 L6.256,5.770 L6.256,0.839 ZM16.620,0.948 L7.150,0.948 L7.150,6.719 L1.720,6.719 L1.720,24.397 L16.620,24.397 L16.620,15.69 L14.349,17.495 L9.955,18.464 L4.449,18.464 L4.449,17.515 L10.400,17.515 L10.916,14.872 L4.449,14.872 L4.449,13.922 L11.178,13.922 L13.652,11.280 L4.449,11.280 L4.449,10.329 L14.541,10.329 L16.620,8.110 L16.620,0.948 ZM14.162,16.347 L12.161,14.220 L11.904,14.494 L11.379,17.180 L13.826,16.639 L13.905,16.621 L14.162,16.347 ZM21.711,8.285 L19.709,6.157 L18.474,7.476 L20.475,9.603 L21.711,8.285 ZM17.843,8.150 L12.979,13.345 L12.791,13.546 L14.793,15.674 L19.845,10.277 L17.843,8.150 ZM127.613,10.67 L127.613,9.30 C127.953,9.81 128.191,9.98 128.769,9.98 L130.962,9.98 C131.523,9.98 131.761,9.81 132.84,9.30 L132.84,10.67 C131.744,10.16 131.438,9.999 130.962,9.999 L128.769,9.999 C128.242,9.999 127.987,10.16 127.613,10.67 ZM132.84,12.412 C131.761,12.361 131.455,12.344 130.945,12.344 L128.752,12.344 C128.225,12.344 127.936,12.361 127.613,12.412 L127.613,11.375 C127.953,11.426 128.191,11.443 128.769,11.443 L130.945,11.443 C131.523,11.443 131.761,11.426 132.84,11.375 L132.84,12.412 ZM127.647,15.30 C127.647,14.520 127.630,14.61 127.579,13.636 C127.868,13.687 128.106,13.704 128.667,13.704 L131.98,13.704 C131.676,13.704 131.846,13.687 132.135,13.653 C132.101,14.10 132.84,14.367 132.84,14.979 L132.84,16.900 C132.84,17.427 132.84,17.682 132.118,18.22 C131.931,17.988 131.897,17.988 131.659,17.988 C131.574,17.988 131.489,17.988 131.404,17.971 C131.268,17.971 131.166,17.971 131.132,17.971 L128.633,17.971 L128.633,18.973 L127.562,18.973 C127.613,18.464 127.647,17.852 127.647,17.325 L127.647,15.30 ZM128.616,17.70 L131.132,17.70 L131.132,14.554 L128.616,14.554 L128.616,17.70 ZM134.141,11.919 L135.161,12.191 C134.770,13.551 134.447,14.299 133.733,15.336 L132.764,14.894 C133.546,13.925 133.903,13.160 134.141,11.919 ZM140.804,11.953 L141.807,12.429 C141.110,13.619 140.583,14.350 139.886,15.98 C139.546,14.826 139.495,14.792 139.70,14.537 C139.869,13.704 140.294,13.75 140.804,11.953 ZM136.758,11.817 C136.758,11.324 136.741,11.2 136.690,10.611 L137.897,10.611 C137.829,10.985 137.812,11.324 137.812,11.749 C137.812,13.296 138.152,14.418 138.917,15.489 C139.801,16.696 140.889,17.495 142.487,18.141 C142.181,18.515 142.45,18.718 141.841,19.194 C140.464,18.481 139.478,17.716 138.645,16.713 C138.16,15.965 137.659,15.285 137.336,14.282 C137.81,15.353 136.758,16.33 136.146,16.832 C135.313,17.886 134.345,18.616 132.917,19.211 C132.679,18.769 132.543,18.565 132.186,18.260 C133.750,17.767 134.838,17.19 135.636,15.880 C136.418,14.775 136.758,13.517 136.758,11.817 Z"/>
</svg>
