<svg
 xmlns="http://www.w3.org/2000/svg"
 xmlns:xlink="http://www.w3.org/1999/xlink"
 width="173px" height="59px">
<path fill-rule="evenodd"  fill="rgb(255, 255, 255)"
 d="M169.366,11.632 C170.570,11.632 171.326,11.576 172.193,11.464 L172.193,13.368 C171.298,13.256 170.486,13.200 169.338,13.200 L162.646,13.200 L162.646,16.784 L167.658,16.784 C168.834,16.784 169.450,16.756 170.234,16.672 C170.150,17.372 170.122,18.128 170.122,19.220 L170.122,23.223 C170.122,24.287 170.178,25.155 170.290,25.995 L168.386,25.995 L168.386,24.651 L156.179,24.651 L156.179,25.995 L154.303,25.995 C154.415,25.183 154.443,24.539 154.443,23.419 L154.443,19.220 C154.443,18.128 154.415,17.428 154.331,16.672 C155.143,16.756 155.591,16.784 156.627,16.784 L160.854,16.784 L160.854,13.200 L152.203,13.200 C151.811,19.192 151.111,21.879 148.955,25.631 C148.479,25.15 148.59,24.623 147.443,24.175 C148.563,22.439 149.151,21.95 149.599,19.332 C150.299,16.560 150.663,12.52 150.663,6.33 C150.663,3.541 150.635,2.701 150.523,1.665 C151.531,1.749 152.455,1.777 153.911,1.777 L168.50,1.777 C169.394,1.777 170.206,1.749 170.990,1.665 C170.934,2.337 170.906,2.953 170.906,3.821 L170.906,6.509 C170.906,7.405 170.934,7.853 170.990,8.581 C170.122,8.525 169.366,8.497 168.218,8.497 L162.646,8.497 L162.646,11.632 L169.366,11.632 ZM152.287,11.632 L160.854,11.632 L160.854,8.497 L152.371,8.497 C152.343,10.9 152.315,10.736 152.287,11.632 ZM169.170,6.929 L169.170,3.345 L152.399,3.345 L152.399,6.929 L169.170,6.929 ZM156.179,18.324 L156.179,23.83 L168.386,23.83 L168.386,18.324 L156.179,18.324 ZM138.61,20.675 C136.437,18.828 135.9,16.700 134.57,14.628 C133.217,12.864 132.797,11.632 132.293,9.449 C131.425,13.172 130.278,15.832 128.374,18.520 C127.338,20.4 126.50,21.431 124.594,22.775 C123.558,23.727 122.830,24.315 121.66,25.519 C120.618,24.791 120.254,24.371 119.554,23.867 C122.606,21.963 124.202,20.591 126.50,18.352 C128.66,15.888 129.494,13.200 130.362,10.205 C130.894,8.301 131.117,6.901 131.257,4.101 L127.58,4.101 C126.526,4.101 125.854,4.157 124.930,4.241 L124.930,2.225 C125.490,2.337 126.50,2.365 127.58,2.365 L130.754,2.365 C132.97,2.365 132.797,2.309 133.357,2.197 C133.273,2.897 133.245,3.429 133.245,4.45 C133.245,7.573 134.1,10.708 135.625,13.816 C136.717,15.916 138.89,17.792 139.825,19.612 C141.477,21.291 142.541,22.131 145.60,23.671 C144.305,24.315 144.109,24.511 143.493,25.463 C141.57,23.755 139.741,22.607 138.61,20.675 ZM114.66,35.776 C113.254,35.776 112.638,35.804 112.50,35.888 L112.50,34.124 C112.638,34.236 113.142,34.264 114.66,34.264 L117.482,34.264 C118.405,34.264 118.909,34.236 119.497,34.124 L119.497,35.888 C118.797,35.804 118.321,35.776 117.482,35.776 L114.66,35.776 ZM110.257,15.580 C108.997,15.580 107.961,14.544 107.961,13.284 C107.961,12.24 108.997,10.988 110.257,10.988 C111.517,10.988 112.553,12.24 112.553,13.284 C112.553,14.544 111.517,15.580 110.257,15.580 ZM106.755,58.398 L104.879,58.398 L104.879,56.494 L96.4,56.494 L96.4,58.510 L94.100,58.510 C94.184,57.558 94.240,56.550 94.240,55.94 L94.240,37.540 C94.240,36.560 94.212,35.888 94.128,34.516 C94.828,34.572 94.996,34.572 96.312,34.572 L104.600,34.572 C105.831,34.572 106.139,34.572 106.727,34.488 C106.671,35.104 106.643,35.748 106.643,37.288 L106.643,55.66 C106.643,56.606 106.671,57.670 106.755,58.398 ZM104.879,36.196 L96.4,36.196 L96.4,41.207 L104.879,41.207 L104.879,36.196 ZM104.879,42.803 L96.4,42.803 L96.4,47.787 L104.879,47.787 L104.879,42.803 ZM104.879,49.383 L96.4,49.383 L96.4,54.898 L104.879,54.898 L104.879,49.383 ZM87.716,17.792 L87.716,23.671 C87.716,25.407 87.184,25.743 84.580,25.743 C83.796,25.743 82.340,25.687 81.360,25.575 C81.164,24.763 81.52,24.399 80.772,23.783 C82.200,23.979 83.516,24.91 84.440,24.91 C85.728,24.91 85.924,24.7 85.924,23.419 L85.924,17.792 L77.525,17.792 C76.293,17.792 75.425,17.848 74.585,17.960 L74.585,16.28 C75.397,16.140 76.293,16.196 77.497,16.196 L85.924,16.196 L85.924,15.720 C85.924,15.160 85.896,14.656 85.840,14.68 L87.16,14.68 C88.948,13.144 90.544,12.136 92.28,10.904 L81.780,10.904 C80.828,10.904 79.876,10.960 79.120,11.44 L79.120,9.225 C79.904,9.309 80.800,9.365 81.836,9.365 L91.944,9.365 C92.979,9.365 93.539,9.337 94.15,9.253 L95.79,10.373 C94.715,10.652 94.715,10.652 94.99,11.184 C92.223,12.752 90.488,13.900 87.716,15.328 L87.716,16.196 L96.31,16.196 C97.291,16.196 98.187,16.140 98.971,16.28 L98.971,17.960 C98.187,17.848 97.235,17.792 96.3,17.792 L87.716,17.792 ZM98.439,11.380 L96.591,11.380 L96.591,6.677 L76.825,6.677 L76.825,11.380 L74.977,11.380 C75.61,10.736 75.117,10.121 75.117,9.421 L75.117,7.349 C75.117,6.313 75.89,5.753 75.5,5.25 C76.41,5.137 76.657,5.165 78.197,5.165 L80.156,5.165 C79.344,3.737 78.840,3.37 77.525,1.525 L79.204,0.994 C80.492,2.589 81.80,3.429 82.60,5.137 L86.148,5.137 C85.616,3.653 85.84,2.561 84.104,1.106 L85.840,0.630 C86.904,2.477 87.352,3.429 87.968,5.137 L91.48,5.137 C92.363,3.625 93.119,2.421 93.931,0.630 L95.695,1.385 C94.519,3.261 93.931,4.73 93.7,5.137 L95.191,5.137 C96.815,5.137 97.431,5.109 98.411,5.25 C98.327,5.753 98.299,6.313 98.299,7.349 L98.299,9.421 C98.299,10.65 98.355,10.736 98.439,11.380 ZM65.6,25.519 C62.711,25.519 61.451,25.379 60.891,25.43 C60.387,24.735 60.219,24.371 60.219,23.475 L60.219,17.848 L56.803,17.848 C56.411,20.171 55.739,21.599 54.339,22.943 C52.687,24.539 50.644,25.491 47.172,26.247 C46.892,25.547 46.668,25.155 46.192,24.567 C48.320,24.175 49.300,23.923 50.476,23.391 C52.407,22.551 53.723,21.319 54.367,19.780 C54.619,19.192 54.675,18.996 54.871,17.848 L53.51,17.848 C51.483,17.848 50.756,17.876 49.888,17.932 C50.0,17.64 50.28,16.280 50.28,14.992 L50.28,5.501 C50.28,3.877 49.972,2.393 49.888,1.777 C50.812,1.889 51.679,1.917 52.883,1.917 L64.587,1.917 C65.734,1.917 66.770,1.861 67.582,1.777 C67.498,2.365 67.442,3.933 67.442,5.501 L67.442,14.992 C67.442,16.308 67.470,17.92 67.582,17.932 C66.798,17.876 65.958,17.848 64.447,17.848 L62.11,17.848 L62.11,22.915 C62.11,23.783 62.291,23.867 65.146,23.867 C67.806,23.867 68.450,23.755 68.842,23.167 C69.150,22.691 69.346,21.683 69.514,19.500 C70.298,19.920 70.718,20.88 71.278,20.255 C70.634,25.267 70.326,25.519 65.6,25.519 ZM65.706,3.569 L51.763,3.569 L51.763,6.621 L65.706,6.621 L65.706,3.569 ZM65.706,8.189 L51.763,8.189 L51.763,11.408 L65.706,11.408 L65.706,8.189 ZM65.706,16.308 L65.706,12.976 L51.763,12.976 L51.763,16.308 L65.706,16.308 ZM30.935,34.154 L30.935,54.485 L0.736,54.485 L0.736,18.146 L9.707,8.610 L30.935,8.610 L30.935,21.561 L34.944,17.302 L40.855,23.583 L31.75,34.5 L30.935,34.154 ZM10.563,10.135 L2.169,19.57 L10.563,19.57 L10.563,10.135 ZM29.317,10.329 L12.181,10.329 L12.181,20.774 L2.355,20.774 L2.355,52.763 L29.317,52.763 L29.317,35.883 L25.209,40.273 L17.257,42.28 L7.294,42.28 L7.294,40.306 L18.62,40.306 L18.996,35.528 L7.294,35.528 L7.294,33.807 L19.470,33.807 L23.946,29.25 L7.294,29.25 L7.294,27.306 L25.556,27.306 L29.317,23.288 L29.317,10.329 ZM24.868,38.195 L21.249,34.350 L20.784,34.843 L19.833,39.700 L24.261,38.726 L24.405,38.694 L24.868,38.195 ZM38.529,23.606 L34.908,19.756 L32.672,22.146 L36.294,25.994 L38.529,23.606 ZM31.531,23.365 L22.729,32.763 L22.389,33.127 L26.11,36.979 L35.153,27.214 L31.531,23.365 ZM85.197,40.199 C84.329,40.199 83.713,40.227 83.181,40.311 L83.181,38.548 C83.685,38.632 84.273,38.660 85.197,38.660 L87.465,38.660 L87.465,35.972 C87.465,34.348 87.437,33.704 87.325,33.60 L89.369,33.60 C89.257,33.732 89.229,34.572 89.229,35.944 L89.229,38.660 L91.272,38.660 C92.56,38.660 92.616,38.632 93.120,38.548 L93.120,40.283 C92.504,40.227 91.944,40.199 91.300,40.199 L89.369,40.199 C90.321,42.775 91.412,44.539 93.372,46.667 C92.728,47.507 92.672,47.591 92.364,48.235 C90.797,46.191 90.41,44.791 89.117,42.355 C89.201,44.931 89.229,45.967 89.229,46.891 L89.229,55.402 C89.229,56.914 89.285,57.894 89.397,58.650 L87.297,58.650 C87.409,57.866 87.465,56.858 87.465,55.402 L87.465,47.479 C87.465,46.303 87.493,45.687 87.633,42.915 C86.709,46.415 85.365,49.299 83.489,51.790 C83.125,51.34 82.929,50.726 82.397,50.166 C84.385,47.955 86.317,43.951 87.213,40.199 L85.197,40.199 ZM118.153,38.156 C119.329,38.156 119.777,38.128 120.393,38.16 L120.393,39.836 C119.749,39.752 119.329,39.724 118.349,39.724 L113.2,39.724 C112.50,39.724 111.490,39.752 110.762,39.836 L110.762,38.16 C111.406,38.128 111.938,38.156 113.2,38.156 L118.153,38.156 ZM112.22,43.671 L112.22,41.963 C112.582,42.47 112.974,42.75 113.926,42.75 L117.538,42.75 C118.461,42.75 118.853,42.47 119.385,41.963 L119.385,43.671 C118.825,43.587 118.321,43.559 117.538,43.559 L113.926,43.559 C113.58,43.559 112.638,43.587 112.22,43.671 ZM119.385,47.535 C118.853,47.451 118.349,47.423 117.510,47.423 L113.898,47.423 C113.30,47.423 112.554,47.451 112.22,47.535 L112.22,45.827 C112.582,45.911 112.974,45.939 113.926,45.939 L117.510,45.939 C118.461,45.939 118.853,45.911 119.385,45.827 L119.385,47.535 ZM112.78,51.846 C112.78,51.6 112.50,50.250 111.966,49.551 C112.442,49.635 112.834,49.663 113.758,49.663 L117.762,49.663 C118.713,49.663 118.993,49.635 119.469,49.579 C119.413,50.166 119.385,50.754 119.385,51.762 L119.385,54.926 C119.385,55.794 119.385,56.214 119.441,56.774 C119.133,56.718 119.77,56.718 118.685,56.718 C118.545,56.718 118.405,56.718 118.265,56.690 C118.42,56.690 117.874,56.690 117.818,56.690 L113.702,56.690 L113.702,58.342 L111.938,58.342 C112.22,57.502 112.78,56.494 112.78,55.626 L112.78,51.846 ZM113.674,55.206 L117.818,55.206 L117.818,51.62 L113.674,51.62 L113.674,55.206 ZM132.236,51.958 C131.677,51.510 131.593,51.454 130.893,51.34 C132.208,49.663 132.908,48.627 133.748,46.779 L135.400,47.563 C134.252,49.523 133.384,50.726 132.236,51.958 ZM124.453,47.171 C123.809,49.411 123.277,50.642 122.101,52.350 L120.505,51.622 C121.793,50.26 122.381,48.767 122.773,46.723 L124.453,47.171 ZM120.813,39.864 C122.101,38.212 122.633,37.36 123.25,34.936 L124.705,35.328 C124.117,37.568 123.585,38.800 122.409,40.535 L120.813,39.864 ZM130.725,39.108 C132.208,37.652 132.908,36.644 133.804,34.712 L135.484,35.496 C134.280,37.512 133.496,38.548 132.68,40.4 C131.425,39.528 131.145,39.332 130.725,39.108 ZM134.980,46.219 C132.460,44.987 130.893,43.783 129.549,41.991 C128.821,41.39 128.485,40.395 128.65,39.220 C127.673,40.507 127.309,41.263 126.581,42.243 C125.209,44.35 123.753,45.127 121.149,46.219 C120.813,45.519 120.561,45.183 120.57,44.679 C122.101,44.35 123.165,43.475 124.313,42.439 C126.301,40.647 127.169,38.492 127.169,35.384 C127.169,34.572 127.141,34.124 127.57,33.508 L129.17,33.508 C128.933,34.124 128.877,34.796 128.877,35.300 C128.877,37.484 129.353,39.164 130.361,40.591 C131.33,41.543 132.13,42.495 133.104,43.195 C133.972,43.755 134.644,44.91 136.16,44.595 C135.512,45.239 135.288,45.547 134.980,46.219 ZM127.85,46.555 C127.85,45.743 127.57,45.211 126.973,44.567 L128.961,44.567 C128.849,45.183 128.821,45.743 128.821,46.443 C128.821,48.991 129.381,50.838 130.641,52.602 C132.96,54.590 133.888,55.906 136.520,56.970 C136.16,57.586 135.792,57.922 135.456,58.706 C133.188,57.530 131.565,56.270 130.193,54.618 C129.157,53.386 128.569,52.266 128.37,50.614 C127.617,52.378 127.85,53.498 126.77,54.814 C124.705,56.550 123.109,57.754 120.757,58.734 C120.365,58.6 120.141,57.670 119.553,57.166 C122.129,56.354 123.921,55.122 125.237,53.246 C126.525,51.426 127.85,49.355 127.85,46.555 Z"/>
</svg>
