<svg id="kaigo_home_info_img_tel_text.svg" data-name="kaigo/home_info/img_tel_text.svg" xmlns="http://www.w3.org/2000/svg" width="326" height="34.344" viewBox="0 0 326 34.344">
  <defs>
    <style>
      .cls-1 {
        fill: #365e95;
      }

      .cls-1, .cls-2 {
        fill-rule: evenodd;
      }

      .cls-2 {
        fill: none;
        stroke: #365e95;
        stroke-width: 2px;
      }
    </style>
  </defs>
  <path id="電話でのご相談_お問い合わせはこちら_" data-name="電話でのご相談・お問い合わせはこちら  " class="cls-1" d="M138.566,636.921v0.5h-3.888a19.418,19.418,0,0,1-2.08-.064,10.852,10.852,0,0,1,.064,1.376v1.04a7.689,7.689,0,0,1-.08,1.3h1.952v-2.192h4.032v1.456a10.006,10.006,0,0,1-.08,1.487h2.176a11.188,11.188,0,0,1-.064-1.487v-1.456h4.255v2.192h1.952a7.574,7.574,0,0,1-.08-1.3v-1.04a10.38,10.38,0,0,1,.064-1.376,19.408,19.408,0,0,1-2.079.064H140.6v-0.5h3.568c0.768,0,1.152.016,1.695,0.048v-1.712a16.454,16.454,0,0,1-1.887.1h-8.528a17.61,17.61,0,0,1-1.9-.1v1.712c0.544-.032.976-0.048,1.728-0.048h3.3Zm6.991,9.423V643.72a13.769,13.769,0,0,1,.064-1.6,13.761,13.761,0,0,1-1.631.065h-8.656a13.722,13.722,0,0,1-1.584-.065,12.148,12.148,0,0,1,.08,1.6v2.832a13.411,13.411,0,0,1-.1,1.68h2.1v-0.7H138.6v0.992c0,1.136.5,1.312,3.664,1.312,3.663,0,4.3-.16,4.687-1.2a5.545,5.545,0,0,0,.24-1.488,7.066,7.066,0,0,1-1.632-.512v-0.288Zm-4.975,1.184h4.527a0.577,0.577,0,0,1-.288.576,7.042,7.042,0,0,1-2.047.176,14.676,14.676,0,0,1-1.92-.1,0.262,0.262,0,0,1-.272-0.288v-0.368Zm-1.984-4v0.64h-2.752v-0.64H138.6Zm1.984,0h2.96v0.64h-2.96v-0.64Zm-1.984,1.9v0.688h-2.752v-0.688H138.6Zm1.984,0h2.96v0.688h-2.96v-0.688ZM135.11,640.3c0.24-.016.432-0.032,0.768-0.032h1.376a4.865,4.865,0,0,1,.752.032v-1.04c-0.176.016-.416,0.032-0.752,0.032h-1.376a4.766,4.766,0,0,1-.768-0.032v1.04Zm0,1.44a5.436,5.436,0,0,1,.768-0.032h1.376a4.439,4.439,0,0,1,.752.032V640.7c-0.192.016-.384,0.032-0.752,0.032h-1.376a4.766,4.766,0,0,1-.768-0.032v1.04Zm6.1-1.456a5.671,5.671,0,0,1,.768-0.032h1.584a3.607,3.607,0,0,1,.672.032h0.08v-1.04c-0.192.016-.384,0.032-0.752,0.032h-1.584a4.766,4.766,0,0,1-.768-0.032v1.04Zm0,1.456a5.436,5.436,0,0,1,.768-0.032h1.584a4.439,4.439,0,0,1,.752.032V640.7c-0.16.016-.4,0.032-0.752,0.032h-1.584a4.874,4.874,0,0,1-.768-0.032v1.04Zm17.056-2.208H157a14.334,14.334,0,0,1-1.84-.1V641.5a14.235,14.235,0,0,1,1.824-.1h1.28v1.807h-1.568c-0.48,0-.832-0.016-1.184-0.048,0.032,0.464.049,0.72,0.049,1.216v3.84a15.052,15.052,0,0,1-.064,1.68h2.079v-0.688h3.488V649.9h2.128c-0.048-.432-0.08-1.1-0.08-1.76V644.5q0-.84.048-1.344a10.775,10.775,0,0,1-1.184.048h-1.712V641.4h1.616a14.951,14.951,0,0,1,1.824.1v-2.064a14.062,14.062,0,0,1-1.824.1h-1.616v-2.016c0.912-.176,2.144-0.464,2.832-0.656,0.24-.064.288-0.08,0.464-0.128l-1.136-1.84a21.983,21.983,0,0,1-7.5,1.376,7.26,7.26,0,0,1,.672,1.872c1.407-.128,1.679-0.16,2.671-0.288v1.68Zm-0.688,5.519h3.488v2.3h-3.488v-2.3Zm-8-7.919c0.384-.032.784-0.048,1.392-0.048h2.368c0.656,0,.992.016,1.392,0.048v-1.712a10.808,10.808,0,0,1-1.392.064h-2.368a10.65,10.65,0,0,1-1.392-.064v1.712Zm-0.5,2.384a9.979,9.979,0,0,1,1.3-.064h3.376a7.857,7.857,0,0,1,1.232.048v-1.84a8.66,8.66,0,0,1-1.3.064h-3.312a7.241,7.241,0,0,1-1.3-.08v1.872Zm0.544,2.24a6.037,6.037,0,0,1,1.008-.048h3.1a8.251,8.251,0,0,1,.976.048v-1.68a7.041,7.041,0,0,1-.976.048h-3.1a8.1,8.1,0,0,1-1.008-.048v1.68Zm0,2.255a5.735,5.735,0,0,1,.992-0.048H153.7a5.84,5.84,0,0,1,1.008.048v-1.68a5.256,5.256,0,0,1-.976.048h-3.1a6.037,6.037,0,0,1-1.008-.048v1.68Zm1.9,5.216h1.408v0.5h1.872a11.247,11.247,0,0,1-.048-1.216v-2.8a9.862,9.862,0,0,1,.032-1.1,5.187,5.187,0,0,1-1.024.048h-2.976c-0.512,0-.816-0.016-1.216-0.048a9.893,9.893,0,0,1,.064,1.232v2.592a10.805,10.805,0,0,1-.08,1.5h1.968v-0.7Zm-0.048-3.008h1.456v1.376h-1.456v-1.376Zm27.1-4.144a8.587,8.587,0,0,0-1.344-2.159l-1.36.608a10.209,10.209,0,0,1,1.328,2.224Zm1.855-.879a8.21,8.21,0,0,0-1.327-2.048l-1.328.576a10.636,10.636,0,0,1,1.3,2.143Zm-14.255-1.552a23.045,23.045,0,0,1,2.352-.288c3.568-.272,3.632-0.288,5.232-0.464-2.224,1.28-3.376,3.04-3.376,5.2a4.359,4.359,0,0,0,2.528,4.08,10.528,10.528,0,0,0,3.872.992,3.893,3.893,0,0,1,.56.08l0.336-2.592c-0.192.016-.3,0.016-0.4,0.016a10.44,10.44,0,0,1-2.368-.368,2.5,2.5,0,0,1-2.08-2.432c0-1.456,1.088-2.943,2.9-3.967a7.372,7.372,0,0,1,3.408-.976,3.491,3.491,0,0,1,.384.016l-0.128-2.448a9.43,9.43,0,0,1-1.792.144c-4.4.192-7.152,0.32-8.256,0.4-2.272.144-2.368,0.144-2.672,0.144-0.064,0-.256,0-0.624-0.016Zm24.9-1.168a3.112,3.112,0,0,1,1.488.512,3.888,3.888,0,0,1,1.712,3.343,4.395,4.395,0,0,1-2.208,3.936,8.021,8.021,0,0,1-3.167.768,6.541,6.541,0,0,1,1.183,2.272,11.422,11.422,0,0,0,2.544-.656,6.276,6.276,0,0,0,4.016-6.175c0-3.744-2.56-6.144-6.575-6.144a7.423,7.423,0,0,0-5.632,2.3,6.9,6.9,0,0,0-1.792,4.751c0,2.752,1.408,4.688,3.392,4.688,1.376,0,2.432-.944,3.328-2.976A22.6,22.6,0,0,0,191.079,638.473Zm-2.335.032a20.58,20.58,0,0,1-1.28,5.151c-0.512,1.3-1.008,1.92-1.472,1.92-0.624,0-1.136-.976-1.136-2.176a5.244,5.244,0,0,1,1.968-4.1A3.6,3.6,0,0,1,188.744,638.505Zm21.568,1.056a10.363,10.363,0,0,1,1.392,1.983l1.28-.751a9.289,9.289,0,0,0-1.424-1.936Zm-1.824.992a8.805,8.805,0,0,1,1.424,2.047l1.312-.768a8.036,8.036,0,0,0-1.424-2.015Zm-7.184-1.984a2.774,2.774,0,0,1,.56.048,30.051,30.051,0,0,0,3.312.192,14.231,14.231,0,0,0,1.824-.1c-0.464.272-1.552,0.944-2.112,1.312l1.632,1.216a30.022,30.022,0,0,1,4.368-2.736l-0.08-2.112a21.47,21.47,0,0,1-4.192.288,24.008,24.008,0,0,1-5.168-.4Zm1.28,3.392c-1.52,1.215-2.176,2.335-2.176,3.647a2.852,2.852,0,0,0,2.144,2.784,12.3,12.3,0,0,0,4.208.528,25.21,25.21,0,0,0,3.616-.256,13.727,13.727,0,0,1,1.44-.144L211.64,645.9a17.1,17.1,0,0,1-5.2.7c-2.5,0-3.6-.416-3.6-1.344a3.019,3.019,0,0,1,1.44-2.08Zm18.017-2.208a6.667,6.667,0,0,1,.976.064v-2.032a6.281,6.281,0,0,1-1.008.08h-0.8v-1.2a11.855,11.855,0,0,1,.08-1.664h-2.192a11.278,11.278,0,0,1,.1,1.68v1.184h-0.832a5.83,5.83,0,0,1-1.2-.08v2.048a5.769,5.769,0,0,1,1.168-.08h0.656a12.557,12.557,0,0,1-2.288,4.655,8.945,8.945,0,0,1,.912,2.224,13.266,13.266,0,0,0,.848-1.456,11.808,11.808,0,0,0,.832-2c-0.048.464-.08,1.472-0.08,2.16v2.64a14.187,14.187,0,0,1-.112,2.016h2.208a17.311,17.311,0,0,1-.1-2.016v-3.744c0-.8-0.016-1.215-0.064-1.9a10.512,10.512,0,0,0,1.344,2.272,8.329,8.329,0,0,1,.88-2.016,7.894,7.894,0,0,1-2.032-2.831h0.7Zm3.456,10.191V649.1h3.551v0.816h2.144a18.925,18.925,0,0,1-.08-2.064v-10.7c0-.688.016-1.152,0.048-1.648a11.405,11.405,0,0,1-1.472.064h-4.815c-0.608,0-1.04-.016-1.488-0.048,0.048,0.752.064,1.152,0.064,1.68v10.655c0,0.768-.032,1.456-0.1,2.1h2.144Zm0-12.415h3.551v1.936h-3.551v-1.936Zm0,3.791h3.551v2.032h-3.551V641.32Zm0,3.888h3.551v1.984h-3.551v-1.984Zm17.152-10.063a3.952,3.952,0,0,1,.064.7,6.37,6.37,0,0,1-.48,2.816,4.831,4.831,0,0,1-3.232,2.528,6.662,6.662,0,0,1,1.088,1.711,6.4,6.4,0,0,1-1.024,2.576l1.7,0.768a11.1,11.1,0,0,0,1.1-2.959l-1.568-.481a6.147,6.147,0,0,0,3.456-3.423,5.471,5.471,0,0,0,1.248,1.776,8.206,8.206,0,0,0,2.528,1.727,8.653,8.653,0,0,1,1.04-1.871,6.136,6.136,0,0,1-2.592-1.456,4.122,4.122,0,0,1-.944-1.344,6.145,6.145,0,0,1,1.632.9,13.214,13.214,0,0,0,1.664-2.784l-1.824-.7a8.018,8.018,0,0,1-1.488,2.544,6.977,6.977,0,0,1-.32-2.112,5.44,5.44,0,0,1,.064-0.912h-2.112Zm-3.3,3.344L239.5,639.1a10.267,10.267,0,0,0,1.072-2.912l-1.792-.4a6.629,6.629,0,0,1-.864,2.432v-0.544a8.8,8.8,0,0,1-1.3.064h-3.2a7.134,7.134,0,0,1-1.3-.08v1.9a9.67,9.67,0,0,1,1.3-.064h3.263a7.633,7.633,0,0,1,1.232.048v-1.056Zm-0.352,9.823a6.581,6.581,0,0,1,.8,1.808,6.915,6.915,0,0,0,2.32-1.424,5.622,5.622,0,0,0,1.632-2.352,8.2,8.2,0,0,0,3.888,3.744,8.433,8.433,0,0,1,1.056-2.048,6.06,6.06,0,0,1-3.536-2.88,7.308,7.308,0,0,1,1.6.928,13.1,13.1,0,0,0,1.488-2.64l-1.84-.655a7.906,7.906,0,0,1-1.264,2.319,6.808,6.808,0,0,1-.464-2.623,7.28,7.28,0,0,1,.048-0.88h-2.112a4.931,4.931,0,0,1,.064.928,5.742,5.742,0,0,1-1.248,4.143,5.419,5.419,0,0,1-2.432,1.52v-2.464a9.554,9.554,0,0,1,.032-1.1,4.529,4.529,0,0,1-.944.048h-2.943a10.345,10.345,0,0,1-1.1-.048,9.968,9.968,0,0,1,.064,1.216v2.528c0,0.48-.032,1.008-0.08,1.568h1.951v-0.752h1.28v0.56h1.776a8.9,8.9,0,0,1-.032-1.04v-0.4Zm-3.088-2.144h1.344v1.392h-1.344v-1.392ZM232.7,637.1c0.384-.032.736-0.048,1.36-0.048h2.111c0.64,0,.912.016,1.36,0.048v-1.68a9.962,9.962,0,0,1-1.36.064h-2.111a9.962,9.962,0,0,1-1.36-.064v1.68Zm0.016,4.719a5.461,5.461,0,0,1,.976-0.047h2.879a5.35,5.35,0,0,1,.944.047v-1.663a4.967,4.967,0,0,1-.944.048H233.69a7.706,7.706,0,0,1-.976-0.048v1.663Zm0,2.256a7.093,7.093,0,0,1,.96-0.048h2.863a6.884,6.884,0,0,1,.976.048v-1.664a6.485,6.485,0,0,1-.944.049H233.69a7.162,7.162,0,0,1-.976-0.049v1.664Zm23.488-3.743a2.16,2.16,0,1,0,2.16,2.16A2.15,2.15,0,0,0,256.2,640.329Zm18.5-2.88a16.993,16.993,0,0,1-3.008.576v-0.784a11.178,11.178,0,0,1,.1-1.856h-2.367a12.364,12.364,0,0,1,.1,1.984v0.8a1.57,1.57,0,0,1-.32.016c-0.592.016-.64,0.016-0.784,0.016a10.635,10.635,0,0,1-2.016-.144l0.016,2.128c0.176-.016.32-0.016,0.4-0.016h0.272c0.832,0.032.864,0.032,1.008,0.032,0.208,0,.64-0.016,1.44-0.032v2.191a9.109,9.109,0,0,0-2.352,1.376,3.607,3.607,0,0,0-1.424,2.528,2.672,2.672,0,0,0,1.344,2.208,5.314,5.314,0,0,0,2.847.912,1.725,1.725,0,0,0,1.472-.656,3.063,3.063,0,0,0,.272-1.856v-3.008a9.083,9.083,0,0,1,2.768-.432c1.68,0,2.72.8,2.72,2.064a1.441,1.441,0,0,1-1.392,1.568c-0.736,0-1.056-.5-1.056-1.648a4.818,4.818,0,0,1,.08-0.88,7.891,7.891,0,0,1-2.112.864,3,3,0,0,0-.016.336c0,2.3,1.072,3.584,3.008,3.584A3.7,3.7,0,0,0,279.5,645.5a3.832,3.832,0,0,0-1.616-3.168,6,6,0,0,0-3.392-.863,10.749,10.749,0,0,0-2.816.335v-1.743c0.736-.08,1.168-0.144,1.968-0.272a10.157,10.157,0,0,1,1.136-.176Zm-5.167,9.071c0,0.528-.064.656-0.3,0.656a1.817,1.817,0,0,1-.88-0.3,0.776,0.776,0,0,1-.448-0.624,2.536,2.536,0,0,1,1.632-1.68v1.952Zm10.687-6.735a13.687,13.687,0,0,0-3.2-3.44l-1.76,1.248a14.053,14.053,0,0,1,3.184,3.6Zm4.481,1.376h2.848c0.48,0,.944.016,1.392,0.032-0.032-.336-0.032-0.624-0.032-1.424v-2.816c0-.624.016-0.96,0.048-1.488a13.182,13.182,0,0,1-1.632.064h-3.072a14.577,14.577,0,0,1-1.632-.064,18.04,18.04,0,0,1,.064,1.824v10.527a15.357,15.357,0,0,1-.1,2.064H284.8a15.406,15.406,0,0,1-.1-2.048v-6.671Zm0-4.144h2.336v0.7H284.7v-0.7Zm0,2.032h2.336v0.7H284.7v-0.7Zm11.615-1.792c0-.816.016-1.28,0.064-1.792a14.375,14.375,0,0,1-1.631.064H291.5a14.216,14.216,0,0,1-1.632-.064c0.032,0.464.048,0.9,0.048,1.488v2.816c0,0.736,0,1.024-.032,1.424,0.368-.016.9-0.032,1.392-0.032H294.3v6.271c0,0.32-.08.384-0.512,0.384a17.032,17.032,0,0,1-1.92-.128,6.742,6.742,0,0,1,.512,2.016c1.072,0.048,1.232.048,1.456,0.048,2.048,0,2.479-.352,2.479-2.016V637.257Zm-4.5-.24h2.48v0.7h-2.48v-0.7Zm0,2.032h2.48v0.7h-2.48v-0.7Zm0.9,4.207c0-.5.016-0.832,0.048-1.168-0.352.032-.72,0.048-1.264,0.048h-4.112c-0.512,0-.864-0.016-1.232-0.048,0.032,0.353.048,0.72,0.048,1.185v3.583a15.532,15.532,0,0,1-.08,1.568h2v-1.136h3.44c0.48,0,.8.016,1.2,0.048a11.138,11.138,0,0,1-.048-1.152v-2.928Zm-4.592.576h2.656v1.728h-2.656v-1.728Zm11.489-7.215a8.5,8.5,0,0,1,.064,1.072c0.1,4.848.32,6.879,0.976,8.511,0.672,1.664,1.616,2.512,2.784,2.512,1.472,0,2.511-1.424,3.359-4.56a7.866,7.866,0,0,1-1.887-1.728,13.384,13.384,0,0,1-.848,2.848,0.832,0.832,0,0,1-.576.656c-0.816,0-1.408-2.832-1.408-6.655a18.778,18.778,0,0,1,.144-2.64Zm8.031,1.616a14.16,14.16,0,0,1,2.3,4.1,16.333,16.333,0,0,1,.976,4.784l2.416-.9a16.392,16.392,0,0,0-3.648-8.943Zm10.865,3.359a13.071,13.071,0,0,1,1.44-.063H325.6a12.258,12.258,0,0,1,1.472.063V640.6a16.7,16.7,0,0,0,2.4,1.215,10.2,10.2,0,0,1,.992-2.111,14.126,14.126,0,0,1-3.92-1.984,9.959,9.959,0,0,1-2.72-2.624h-2.24A10.216,10.216,0,0,1,319,637.721a14.4,14.4,0,0,1-3.9,2.08,7.527,7.527,0,0,1,1.056,1.968,16.165,16.165,0,0,0,2.352-1.184v1.007Zm1.5-1.983a10.856,10.856,0,0,0,2.72-2.688,13.473,13.473,0,0,0,2.848,2.688h-5.568ZM319.4,649.864v-0.736h6.7v0.736h2.224a10.41,10.41,0,0,1-.1-1.712v-3.888a11.119,11.119,0,0,1,.08-1.616c-0.384.032-.784,0.048-1.456,0.048h-8.208c-0.672,0-1.088-.016-1.456-0.048a11.537,11.537,0,0,1,.08,1.616v3.872a13.317,13.317,0,0,1-.1,1.728H319.4Zm0-5.264h6.7v2.656h-6.7V644.6Zm13.633,2.272a10.013,10.013,0,0,1,.656-0.784c0.592-.624.592-0.624,1.152-1.232-0.016.192-.032,0.464-0.032,0.928v1.3a15.057,15.057,0,0,1-.1,2.464l2.464,0.016c-0.064-.768-0.128-2.864-0.128-4.992v-1.551a10.377,10.377,0,0,1,1.92-1.441,5.012,5.012,0,0,1,2.559-.847,2.39,2.39,0,0,1,2.56,2.576,2.994,2.994,0,0,1-3.184,3.167,8.123,8.123,0,0,1-2.719-.512,7.387,7.387,0,0,1,.352,2.4,8.354,8.354,0,0,0,2.319.32,5.794,5.794,0,0,0,3.936-1.328,5.348,5.348,0,0,0,1.632-3.984,4.875,4.875,0,0,0-1.312-3.487,4.532,4.532,0,0,0-3.184-1.328,7.531,7.531,0,0,0-4.879,1.936,0.785,0.785,0,0,0,.016-0.176v-0.3a0.551,0.551,0,0,1,.016-0.144,6.019,6.019,0,0,1,1.072-1.12l-0.96-.832a12.544,12.544,0,0,1,.208-2.448l-2.432-.016a7,7,0,0,1,.048.736v0.128c0,0.192-.016.4-0.016,0.608a12.084,12.084,0,0,1-.032,1.216c-0.8.048-1.584,0.08-2.016,0.08-0.16,0-.288,0-0.544-0.016l0.128,2.128a20.155,20.155,0,0,1,2.368-.224c-0.048,1.487-.048,1.568-0.048,2.047-2,1.824-2.528,2.288-2.9,2.544Zm18.432-11.023a17.665,17.665,0,0,1,.112,2.448v0.672c-1.455.08-2.271,0.128-2.479,0.128-0.112,0-.272-0.016-0.512-0.032l0.144,2.255a26.123,26.123,0,0,1,2.847-.272v1.328c0,2.976.064,3.952,0.336,4.72,0.528,1.5,1.872,2.08,4.848,2.08a35.219,35.219,0,0,0,3.808-.208c0.848-.1.848-0.1,1.456-0.144l-0.144-2.5a16.288,16.288,0,0,1-4.784.624c-2.384,0-3.056-.3-3.2-1.424-0.032-.368-0.08-1.76-0.08-2.688v-1.9c1.424-.08,2.88-0.144,4.384-0.192-0.032,2.032-.176,2.479-0.768,2.479a5.091,5.091,0,0,1-2.08-.687,9.183,9.183,0,0,1,.128,1.551v0.7a5.932,5.932,0,0,0,2.3.5,2.13,2.13,0,0,0,2.1-1.088,8.982,8.982,0,0,0,.464-3.5c1.376-.032,1.472-0.032,1.76-0.032a11.716,11.716,0,0,1,1.3.064l-0.032-2.3c-0.528.064-.528,0.064-3.024,0.16v-1.728a9.758,9.758,0,0,1,.08-1.232h-2.336a12.57,12.57,0,0,1,.1,2.448c0,0.064.016,0.288,0.016,0.592-2.288.1-2.288,0.1-4.352,0.192a17.346,17.346,0,0,1,.144-3.008h-2.528Zm18.945,4.992a0.282,0.282,0,0,1,.1-0.016c0.208,0,.208,0,0.464.016,0.688,0.048,2.112.1,2.688,0.1,0.352,0,.624,0,1.088-0.016,0.048,1.695.08,2.415,0.1,2.959a4.8,4.8,0,0,0-1.152-.128c-2.112,0-3.5,1.136-3.5,2.864s1.344,2.784,3.552,2.784c2.032,0,3.311-.9,3.311-2.3a1.972,1.972,0,0,0-.015-0.272,9.658,9.658,0,0,1,2.063,1.648l0.88-2.3c-0.176-.112-0.224-0.144-0.464-0.3a12.937,12.937,0,0,0-2.447-1.392c-0.128-2.048-.145-2.4-0.16-3.695a18.3,18.3,0,0,0,2.031-.32,3.933,3.933,0,0,1,.624-0.1l-0.08-2.176a13.555,13.555,0,0,1-2.592.528,18.324,18.324,0,0,1,.112-2.928h-2.367a4.084,4.084,0,0,1,.064.832c0.016,1.072.016,1.072,0.016,2.256-0.544.016-.832,0.016-1.28,0.016a14.155,14.155,0,0,1-2.992-.24Zm4.48,5.1a1.489,1.489,0,0,1,.016.336,1.074,1.074,0,0,1-1.328,1.152c-0.784,0-1.264-.32-1.264-0.832,0-.544.56-0.9,1.408-0.9A2.882,2.882,0,0,1,374.894,645.944Zm-7.808-10.223a8.931,8.931,0,0,1-.192,1.36c-0.32,1.728-.32,1.728-0.384,2.208a28.679,28.679,0,0,0-.3,4.3,32.38,32.38,0,0,0,.432,5.248c0.048,0.336.048,0.432,0.064,0.64l2.288-.112c-0.016-.288-0.032-0.448-0.032-0.512a12.654,12.654,0,0,1,1.44-4.88l-1.36-.544c-0.256.512-.368,0.8-0.72,1.664,0-.256.016-0.88,0.016-1.2a30.593,30.593,0,0,1,.208-3.087,22.348,22.348,0,0,1,1.056-4.864Zm17.489,2.832a2.774,2.774,0,0,1,.56.048,30.047,30.047,0,0,0,3.311.192,14.231,14.231,0,0,0,1.824-.1c-0.464.272-1.552,0.944-2.112,1.312l1.632,1.216a30.022,30.022,0,0,1,4.368-2.736l-0.08-2.112a21.47,21.47,0,0,1-4.192.288,24,24,0,0,1-5.167-.4Zm1.28,3.392c-1.52,1.215-2.176,2.335-2.176,3.647a2.852,2.852,0,0,0,2.144,2.784,12.292,12.292,0,0,0,4.207.528,25.21,25.21,0,0,0,3.616-.256,13.727,13.727,0,0,1,1.44-.144l-0.176-2.624a17.1,17.1,0,0,1-5.2.7c-2.5,0-3.6-.416-3.6-1.344a3.019,3.019,0,0,1,1.44-2.08Zm13.616-2.24h0.144c0.128,0,.288,0,0.528.016,1.344,0.1,1.44.112,1.6,0.112h0.7a24.723,24.723,0,0,1-2.08,4.895l2.3,0.768a2.432,2.432,0,0,1,1.1-.88,7.378,7.378,0,0,1,3.376-.768c1.568,0,2.464.5,2.464,1.376,0,1.168-1.424,1.9-3.664,1.9a13.222,13.222,0,0,1-4.224-.768,9.729,9.729,0,0,1,.224,2.384,15.624,15.624,0,0,0,4.1.544c3.68,0,6.048-1.584,6.048-4.048,0-2.144-1.712-3.392-4.64-3.392a7.561,7.561,0,0,0-3.776.881,19.125,19.125,0,0,0,1.088-2.864c1.808-.048,3.072-0.128,4.656-0.288s1.584-.16,2.032-0.192l-0.1-2.3a28.928,28.928,0,0,1-6.048.656c0.368-1.424.56-2.176,0.592-2.3l-2.528-.192a14.174,14.174,0,0,1-.416,2.528,17.076,17.076,0,0,1-3.456-.272Zm19.473-2.4a30.973,30.973,0,0,0,6.559,2.048l0.768-2.208a25.314,25.314,0,0,1-6.207-1.808Zm-1.232,1.216c-0.032.368-.048,0.576-0.1,0.96-0.32,2.111-.592,4.127-0.736,5.311-0.032.208-.032,0.224-0.064,0.432l2.32,0.08a3.074,3.074,0,0,1,.816-0.72,7.127,7.127,0,0,1,3.791-1.072c1.536,0,2.448.576,2.448,1.552,0,1.264-1.5,2.112-3.743,2.112a13.683,13.683,0,0,1-4.208-.768,9.461,9.461,0,0,1,.288,2.432,16.57,16.57,0,0,0,4.063.512,7.352,7.352,0,0,0,4.368-1.136,3.931,3.931,0,0,0,1.728-3.232c0-2.16-1.824-3.551-4.672-3.551a7.456,7.456,0,0,0-4.671,1.391c0.192-1.455.56-3.535,0.736-4.159Z" transform="translate(-115 -634.875)"/>
  <path id="シェイプ" class="cls-2" d="M116,658l149.418-.015,10.281,7.726,10.281-7.726L440,658" transform="translate(-115 -634.875)"/>
</svg>
