<svg id="img_reserve_sp.svg" xmlns="http://www.w3.org/2000/svg" width="270.438" height="49" viewBox="0 0 270.438 49">
  <defs>
    <style>
      .cls-1 {
        fill: #fff;
        fill-rule: evenodd;
      }
    </style>
  </defs>
  <path id="見学_入居相談" data-name="見学・入居相談" class="cls-1" d="M486.342,244.638a7,7,0,0,1-3.073,5.057c-1.632,1.153-3.329,1.729-6.657,2.337a7.753,7.753,0,0,1,1.344,2.272c3.841-.864,6.21-1.952,8.13-3.808a9.313,9.313,0,0,0,2.881-5.858h3.617v6.4c0,2.08.9,2.464,5.729,2.464,6.146,0,6.53-.352,7.2-6.177a9.807,9.807,0,0,1-2.4-1.024c-0.32,4.929-.32,4.929-4.641,4.929-3.137,0-3.425-.1-3.425-1.056v-5.538h2.785c1.6,0,2.689.032,3.521,0.1a23.933,23.933,0,0,1-.16-3.36V230.3a41.611,41.611,0,0,1,.16-4.193,33.528,33.528,0,0,1-3.393.16H484.134a25.964,25.964,0,0,1-3.361-.16,39.353,39.353,0,0,1,.16,4.193v11.075a24.78,24.78,0,0,1-.16,3.36c0.96-.064,1.824-0.1,3.553-0.1h2.016ZM483.3,228.507h15.524v3.1H483.3v-3.1Zm0,5.249h15.524v3.2H483.3v-3.2Zm0,5.345h15.524v3.393H483.3V239.1Zm29.889-9.09c-1.825,0-2.4-.032-3.713-0.128a19.563,19.563,0,0,1,.128,2.625v2.56a17.38,17.38,0,0,1-.16,2.3h2.529v-5.281h22.053v5.281h2.529a18.178,18.178,0,0,1-.16-2.3v-2.56a19.563,19.563,0,0,1,.128-2.625c-1.185.1-1.825,0.128-3.777,0.128H530.57a31.388,31.388,0,0,0,2.881-4.161l-2.433-.864a18.057,18.057,0,0,1-3.1,5.025h-3.265a31.87,31.87,0,0,0-2.369-5.089l-2.368.64a19.824,19.824,0,0,1,2.208,4.449h-4.289a28.409,28.409,0,0,0-3.169-4.673l-2.272.7a19.963,19.963,0,0,1,2.816,3.969H513.19Zm11.171,14.851h9.186a25.565,25.565,0,0,1,3.553.192v-2.592a26.873,26.873,0,0,1-3.553.192h-9.186v-0.736a37.189,37.189,0,0,0,7.073-4.673c0.673-.576.673-0.576,1.121-0.928l-1.377-1.473a14.51,14.51,0,0,1-2.4.128H517.511a29.174,29.174,0,0,1-3.137-.16v2.433a28.822,28.822,0,0,1,3.073-.16h10.915a27.049,27.049,0,0,1-5.218,3.264H521.8a18.059,18.059,0,0,1,.1,1.857v0.448H512.55a26.824,26.824,0,0,1-3.489-.192v2.592a25.814,25.814,0,0,1,3.489-.192H521.9v5.954c0,0.64-.192.736-1.632,0.736a31.277,31.277,0,0,1-4.161-.32,8.707,8.707,0,0,1,.768,2.432c1.12,0.1,2.72.16,3.553,0.16,3.3,0,3.937-.416,3.937-2.56v-6.4Zm27.52-8.449a2.961,2.961,0,1,0,2.945,2.944A2.936,2.936,0,0,0,551.881,236.413Zm26.273-7.33a25.878,25.878,0,0,1-1.056,6.849,24.764,24.764,0,0,1-5.09,9.347,25.933,25.933,0,0,1-7.137,5.921,6.971,6.971,0,0,1,1.984,2.336,31.16,31.16,0,0,0,8.226-7.809,27.263,27.263,0,0,0,4.545-10.179,26.492,26.492,0,0,0,3.873,9.058,31,31,0,0,0,8.738,8.834,9.519,9.519,0,0,1,2.081-2.5,24.064,24.064,0,0,1-5.633-4.289,27.313,27.313,0,0,1-4.9-6.5,23.717,23.717,0,0,1-2.944-11.586,16.262,16.262,0,0,1,.128-2.113,12.869,12.869,0,0,1-2.945.192h-4.481a13.85,13.85,0,0,1-2.593-.16v2.753c1.088-.1,1.953-0.16,2.625-0.16h4.577Zm33.985,10.5v3.713h-4.8c-1.248,0-1.7-.032-2.624-0.1a22.5,22.5,0,0,1,.128,2.817v5.025a19.088,19.088,0,0,1-.16,2.944h2.528v-1.472h13.508v1.472h2.528a30.088,30.088,0,0,1-.16-3.136v-4.833a23.4,23.4,0,0,1,.128-2.849,23.064,23.064,0,0,1-2.849.128H614.54v-3.713h7.586a30.954,30.954,0,0,1,3.2.16v-2.5a18.05,18.05,0,0,1-3.169.192H614.54v-3.3h6.242c1.376,0,2.176.032,3.264,0.1-0.064-.8-0.1-1.44-0.1-2.5v-3.2c0-1.056.032-1.824,0.1-2.561a32.43,32.43,0,0,1-3.424.128H604.169a34.108,34.108,0,0,1-3.969-.16,27.758,27.758,0,0,1,.161,3.553c0,13.251-.705,17.636-3.585,22.117a11.45,11.45,0,0,1,2.08,2.048c2.433-4.225,3.3-7.585,3.713-14.083h9.57Zm0-2.144h-9.474l0.064-3.3h9.41v3.3ZM602.761,232v-3.745h18.821V232H602.761Zm4.449,13.443h13.508v4.929H607.21v-4.929Zm31.521-12.323a20.687,20.687,0,0,1,2.081.1v-2.4a12.908,12.908,0,0,1-2.081.128h-2.208V228a26.107,26.107,0,0,1,.16-3.3h-2.721a15.744,15.744,0,0,1,.192,3.3v2.944h-2.433a14.116,14.116,0,0,1-2.336-.128v2.433a14.683,14.683,0,0,1,2.3-.128H633.8c-1.056,4.225-3.169,8.578-5.345,10.978a8.907,8.907,0,0,1,1.408,2.337,28.8,28.8,0,0,0,4.481-9.666c-0.16,3.04-.192,3.905-0.192,5.185V250.3a28.6,28.6,0,0,1-.192,3.776h2.753a27.944,27.944,0,0,1-.192-3.776V240.99c0-.993-0.032-2.177-0.128-4.929a23.159,23.159,0,0,0,3.52,6.337,9.756,9.756,0,0,1,1.313-2.241,19.333,19.333,0,0,1-4.513-7.041h2.016Zm5.666,20.836v-2.208H654v2.08h2.561a36.833,36.833,0,0,1-.16-3.9V229.4c0-1.6.032-2.464,0.1-3.2a22.565,22.565,0,0,1-2.529.1h-9.506c-1.441,0-1.793,0-2.593-.064,0.1,1.473.128,2.369,0.128,3.425v20.293c0,1.632-.064,2.848-0.16,4H644.4Zm0-25.381H654v5.313h-9.6v-5.313Zm0,7.554H654v5.441h-9.6v-5.441Zm0,7.681H654v5.7h-9.6v-5.7Zm17.853-15.651a17.208,17.208,0,0,1,2.4-.128h3.937a17.2,17.2,0,0,1,2.4.128v-2.337a12.441,12.441,0,0,1-2.4.16h-3.937a12.05,12.05,0,0,1-2.4-.16v2.337Zm-1.408,4.545a20.066,20.066,0,0,1,2.56-.128h6.21a15.427,15.427,0,0,1,2.337.128v-2.4a16.589,16.589,0,0,1-2.561.128H663.4a13.674,13.674,0,0,1-2.56-.16V232.7Zm1.376,4.449a12.517,12.517,0,0,1,2.145-.128h4.449a12.159,12.159,0,0,1,2.08.128v-2.273a10.809,10.809,0,0,1-2.08.128h-4.449a12.281,12.281,0,0,1-2.145-.128v2.273Zm0,4.417a12.339,12.339,0,0,1,2.113-.128h4.449a11.867,11.867,0,0,1,2.112.128v-2.241a16.315,16.315,0,0,1-2.08.1h-4.449a18.237,18.237,0,0,1-2.145-.1v2.241Zm2.273,12.258V252h4.257v1.312h2.208a19.338,19.338,0,0,1-.064-2.112v-5.121a22.5,22.5,0,0,1,.1-2.433,9.966,9.966,0,0,1-1.952.1H664.2a11.471,11.471,0,0,1-2.081-.128,21.615,21.615,0,0,1,.128,2.593v4.481c0,0.992-.064,2.208-0.16,3.136h2.4Zm-0.064-8.193h4.321v4.353h-4.321v-4.353Zm10.306-18.884a11.265,11.265,0,0,1-2.368,5.473l2.144,0.928a17.715,17.715,0,0,0,2.5-5.857Zm12.355-.289a15.379,15.379,0,0,1-3.425,5.026,13.347,13.347,0,0,1,1.889,1.216,24.382,24.382,0,0,0,3.777-5.249Zm-12.611,13.891a11.159,11.159,0,0,1-2.5,5.506l2.176,0.96a17.448,17.448,0,0,0,2.561-5.825Zm12.547-.064a14.212,14.212,0,0,1-3.169,4.9,11.391,11.391,0,0,1,1.889,1.249,26.182,26.182,0,0,0,3.489-5.153Zm-7.65-15.107a10.3,10.3,0,0,1,.16,2.017c0,3.68-.96,6.113-3.264,8.161a11.118,11.118,0,0,1-4.77,2.465,6.175,6.175,0,0,1,1.441,2.08,13.6,13.6,0,0,0,5.953-4.289,10.016,10.016,0,0,0,1.857-3.52,10.3,10.3,0,0,0,1.856,3.232,15.66,15.66,0,0,0,5.986,4.577,9.675,9.675,0,0,1,1.344-2.24,13.073,13.073,0,0,1-3.2-1.5,11.529,11.529,0,0,1-3.169-2.881,10.123,10.123,0,0,1-1.7-6.145,14.573,14.573,0,0,1,.128-1.953h-2.625Zm-0.064,12.675a14.471,14.471,0,0,1,.128,2.176,12.351,12.351,0,0,1-2.016,7.554,11.478,11.478,0,0,1-6.338,4.449,7.287,7.287,0,0,1,1.409,2.176,14.092,14.092,0,0,0,5.793-4.16,10.913,10.913,0,0,0,2.433-4.769,12.485,12.485,0,0,0,2.592,4.48,18.347,18.347,0,0,0,5.73,4.417,8.638,8.638,0,0,1,1.408-2.4,14.388,14.388,0,0,1-6.53-4.769,11.113,11.113,0,0,1-2.112-7.17,12.657,12.657,0,0,1,.128-1.984H679.31Z" transform="translate(-420 -215)"/>
  <path id="シェイプ_558" data-name="シェイプ 558" class="cls-1" d="M464,230.989l-6.483-6.708-4.4,4.551V215h-23.28L420,225.184V264h33.117V242.285l0.153-.159Zm-6.522-4.085,3.971,4.112-2.451,2.55-3.972-4.111Zm-26.7-10.279v9.531h-9.2Zm20.566,45.536H421.775V227.992h10.776V216.835h18.791v13.843l-4.124,4.291H427.191v1.838h18.262l-4.91,5.106H427.191v1.837h12.833L439,248.857H427.191v1.837h10.926l8.72-1.875,4.5-4.687v18.029Zm-8.848-19.671,3.97,4.109-0.509.533-0.157.034-4.856,1.044,1.042-5.192Zm5.223,2.809-3.972-4.112,0.372-.388,9.653-10.043,3.972,4.113Z" transform="translate(-420 -215)"/>
</svg>
