<svg id="img_favorite02.svg" xmlns="http://www.w3.org/2000/svg" width="152.375" height="17" viewBox="0 0 152.375 17">
  <defs>
    <style>
      .cls-1 {
        fill: #313131;
        fill-rule: evenodd;
      }
    </style>
  </defs>
  <path id="お気に入りに追加_" data-name="お気に入りに追加 " class="cls-1" d="M346.965,10742.3a18.261,18.261,0,0,1-3.265.7v-1.5a8.5,8.5,0,0,1,.08-1.5H342.6a9.225,9.225,0,0,1,.08,1.5v1.6h-1.536a7.649,7.649,0,0,1-1.633-.1v1.1h2.529a2.6,2.6,0,0,1,.64-0.1v3a10.648,10.648,0,0,0-2.256,1.4,2.8,2.8,0,0,0-1.265,2.1,1.844,1.844,0,0,0,.736,1.5,4.345,4.345,0,0,0,2.641,1,1.08,1.08,0,0,0,1.169-1.3v-4a11.685,11.685,0,0,1,3.393-.6c2.1,0,3.426,1,3.426,2.6a2.085,2.085,0,0,1-2.145,2.2c-1.169,0-1.649-.7-1.649-2.3a5.908,5.908,0,0,1,.032-0.7,1.964,1.964,0,0,1-1.056.4,6.779,6.779,0,0,0,.192,1.9,2.4,2.4,0,0,0,2.465,1.8,3.327,3.327,0,0,0,1.616-6.2,5.917,5.917,0,0,0-2.833-.7,11.976,11.976,0,0,0-3.441.6v-2.7c0.752-.1,1.52-0.3,2.833-0.5a0.889,0.889,0,0,1,.48-0.1Zm-4.29,8.8c0,0.7-.048.8-0.368,0.8a3.905,3.905,0,0,1-1.424-.4,1.328,1.328,0,0,1-.689-1c0-.8.9-1.6,2.481-2.4v3Zm9.62-6.7a13.464,13.464,0,0,0-3.233-3.1l-0.832.7a11.93,11.93,0,0,1,3.233,3.1Zm13.664-2.6a8.305,8.305,0,0,1,2.017.2v-1.2a11.231,11.231,0,0,1-2.017.1h-7.875a8.07,8.07,0,0,0,.448-0.9,5.391,5.391,0,0,1,.272-0.5l-1.136-.3a2.974,2.974,0,0,1-.305,1,10.545,10.545,0,0,1-3.057,4,2.557,2.557,0,0,1,.753.7,11.559,11.559,0,0,0,2.513-3.1h8.387Zm-1.5,10.7c-1.12-1-1.984-1.8-3.169-2.7a11.9,11.9,0,0,0,1.377-1.6,5.984,5.984,0,0,1,.4-0.6c0.16-.2.16-0.2,0.224-0.2l-1.025-.6a9.068,9.068,0,0,1-1.792,2.5,36.268,36.268,0,0,0-3.058-2l-0.688.7a23.029,23.029,0,0,1,3.057,1.9,13.7,13.7,0,0,1-4.962,3,2.7,2.7,0,0,1,.769.9,16.586,16.586,0,0,0,5.01-3.3,41.722,41.722,0,0,1,3.121,2.8Zm0.737-6.1a17.227,17.227,0,0,0,.608,5.2c0.432,1.3,1.216,2.3,1.841,2.3a1.247,1.247,0,0,0,.96-1.1,9.375,9.375,0,0,0,.432-2.2,2.09,2.09,0,0,1-.88-0.6c-0.1,1.5-.352,2.7-0.576,2.7a2.233,2.233,0,0,1-.8-1.3,14.724,14.724,0,0,1-.592-4.6,12.442,12.442,0,0,1,.064-1.4,8.509,8.509,0,0,1-1.809.1h-7.667c-0.624,0-1.056-.1-1.488-0.1v1.1a7.878,7.878,0,0,1,1.648-.1h8.26Zm-7.988-2.2a6.277,6.277,0,0,1,1.489-.1h6.387a6.719,6.719,0,0,1,1.568.1v-1.1a6.225,6.225,0,0,1-1.568.1H358.6a5.055,5.055,0,0,1-1.393-.1v1.1Zm15.473-3.8a8.865,8.865,0,0,1-.224,1.2,26.962,26.962,0,0,0-.721,6.4,22.473,22.473,0,0,0,.417,4.5c0.048,0.3.064,0.4,0.1,0.7l1.152-.1v-0.3a14.014,14.014,0,0,1,1.3-4.4l-0.769-.3a13.1,13.1,0,0,0-1.04,3.1c-0.064-.9-0.1-1.8-0.1-3.1a23.838,23.838,0,0,1,.48-5,16.9,16.9,0,0,1,.672-2.5Zm3.3,3a24.826,24.826,0,0,0,2.561.2,17.592,17.592,0,0,0,3.441-.3,8.328,8.328,0,0,1,1.1-.1l-0.08-1.1a16.834,16.834,0,0,1-4.29.4,17.248,17.248,0,0,1-2.721-.2Zm1.169,3.1a4.543,4.543,0,0,0-1.393,3,2.325,2.325,0,0,0,.48,1.5c0.688,0.8,1.841,1.2,3.666,1.2a18.471,18.471,0,0,0,3.281-.3,1.346,1.346,0,0,1,.56-0.1l-0.16-1.3a9.452,9.452,0,0,1-3.681.6c-2.065,0-3.074-.6-3.074-1.8a3.67,3.67,0,0,1,1.2-2.3Zm15.952-5a14.105,14.105,0,0,1-.512,3.5,13.169,13.169,0,0,1-2.465,4.7,15.091,15.091,0,0,1-3.714,3.1,2.473,2.473,0,0,1,.865,1,21.305,21.305,0,0,0,2.016-1.6,19.419,19.419,0,0,0,2.161-2.4,14.521,14.521,0,0,0,2.241-5.2,12.707,12.707,0,0,0,1.009,2.9,15.529,15.529,0,0,0,2.289,3.5,13.038,13.038,0,0,0,3.105,2.7,4.781,4.781,0,0,1,.9-1,13.753,13.753,0,0,1-5.394-5.6,11.844,11.844,0,0,1-1.361-5.6,8.456,8.456,0,0,1,.065-1.1,5.47,5.47,0,0,1-1.489.1h-2.113a4.042,4.042,0,0,1-1.216-.1v1.2c0.528,0,.912-0.1,1.216-0.1h2.4Zm12.735-1.6a2.646,2.646,0,0,1-.048.5,39.683,39.683,0,0,0-.544,5.9v0.4l0.032,1.6,0.016,0.3v0.2h1.152c-0.016-.3-0.016-0.4-0.016-0.4a8.488,8.488,0,0,1,.865-3.6c0.912-1.9,1.937-2.8,3.153-2.8,1.537,0,2.433,1.5,2.433,4.1a5.575,5.575,0,0,1-2.753,5.3,8.536,8.536,0,0,1-3.249,1,2.9,2.9,0,0,1,.64,1.1,9.969,9.969,0,0,0,2.849-1,7.444,7.444,0,0,0,2.737-10.1,2.933,2.933,0,0,0-2.561-1.5,3.812,3.812,0,0,0-3.2,2.1,6.914,6.914,0,0,0-.977,2.4,3.421,3.421,0,0,0-.112.5l-0.064-.1c0.048-.8.273-2.5,0.529-4.1a10.7,10.7,0,0,1,.368-1.7Zm14.848,0.5a8.865,8.865,0,0,1-.224,1.2,27.012,27.012,0,0,0-.72,6.4,22.545,22.545,0,0,0,.416,4.5c0.048,0.3.064,0.4,0.1,0.7l1.153-.1v-0.3a14.034,14.034,0,0,1,1.3-4.4l-0.768-.3a13.1,13.1,0,0,0-1.041,3.1c-0.064-.9-0.1-1.8-0.1-3.1a23.77,23.77,0,0,1,.481-5,16.9,16.9,0,0,1,.672-2.5Zm3.3,3a24.805,24.805,0,0,0,2.561.2,17.6,17.6,0,0,0,3.441-.3,8.315,8.315,0,0,1,1.105-.1l-0.081-1.1a16.825,16.825,0,0,1-4.289.4,17.238,17.238,0,0,1-2.721-.2Zm1.168,3.1a4.546,4.546,0,0,0-1.392,3,2.325,2.325,0,0,0,.48,1.5c0.688,0.8,1.84,1.2,3.665,1.2a18.482,18.482,0,0,0,3.282-.3,1.346,1.346,0,0,1,.56-0.1l-0.16-1.3a9.458,9.458,0,0,1-3.682.6c-2.065,0-3.073-.6-3.073-1.8a3.668,3.668,0,0,1,1.2-2.3Zm15.729-5.3h-1.281a8.454,8.454,0,0,1,.064,1.1v7.8c0,0.4-.016.7-0.048,1.1a4.69,4.69,0,0,1,1.233-.1H446.6a3.961,3.961,0,0,1,1.12.1c-0.032-.4-0.048-0.7-0.048-1.1v-2c0-.6.016-0.9,0.048-1.3a3.385,3.385,0,0,1-1.152.1h-5.907v-1.7h5.427a4.433,4.433,0,0,1,1.168.1,7.012,7.012,0,0,1-.048-1.1v-2a6.311,6.311,0,0,1,.048-1h-3.873a14.014,14.014,0,0,0,.9-1.5l-1.073-.2a8.818,8.818,0,0,1-.912,1.7h-1.424Zm-0.209.9h5.555v2.3h-5.555v-2.3Zm0,5.6h6.019v2.5h-6.019v-2.5Zm-6.066-7.1a13.006,13.006,0,0,1,2.481,2.9l0.816-.7a16.873,16.873,0,0,0-2.545-2.9Zm-0.112,6.4a4.14,4.14,0,0,1,1.168-.1h1.057v3.9a11.4,11.4,0,0,1-2.577,1.9l0.528,1a6.46,6.46,0,0,0,.592-0.5,12.859,12.859,0,0,0,1.921-1.7,3.552,3.552,0,0,0,1.617,1.5c0.912,0.5,2,.6,4.626.6,1.824,0,3.2,0,5.314-.1a2.981,2.981,0,0,1,.368-1.1,49.883,49.883,0,0,1-6.355.3c-2.225,0-3.217-.2-3.969-0.7a2.217,2.217,0,0,1-1.057-1.3v-3.1a16.012,16.012,0,0,1,.064-1.7,4.558,4.558,0,0,1-1.2.1h-0.865a4.33,4.33,0,0,1-1.232-.1v1.1Zm19.7-4.4a21.069,21.069,0,0,1,.144-3.1h-1.216a8.212,8.212,0,0,1,.112,1.8c0,0.5,0,.8-0.032,1.3h-0.929a6.969,6.969,0,0,1-1.76-.2v1.2c0.432,0,.976-0.1,1.68-0.1h0.961a17.969,17.969,0,0,1-1.409,6.7,10.1,10.1,0,0,1-1.793,2.6,3.587,3.587,0,0,1,.817.9,11.8,11.8,0,0,0,1.616-2.4,13.2,13.2,0,0,0,1.169-3.2,25.038,25.038,0,0,0,.608-4.6h2.337c-0.016,1.7-.048,2.6-0.128,4.2a24.4,24.4,0,0,1-.608,4.3,0.751,0.751,0,0,1-.753.3,16.553,16.553,0,0,1-1.872-.2,3.624,3.624,0,0,1,.16,1,7.376,7.376,0,0,0,1.952.2c1.105,0,1.441-.4,1.729-2a47.185,47.185,0,0,0,.528-6.8,13.089,13.089,0,0,1,.08-2c-0.48,0-.912.1-1.664,0.1h-1.729Zm5.778,9.6h3.314v1.1h1.1a9.747,9.747,0,0,1-.1-1.5v-8.6a12.176,12.176,0,0,1,.08-1.7,6.026,6.026,0,0,1-1.392.1h-2.69a6.03,6.03,0,0,1-1.408-.1,12.176,12.176,0,0,1,.08,1.7v8.5a15.631,15.631,0,0,1-.1,1.8h1.1v-1.3Zm0-9.7h3.314v8.8h-3.314v-8.8Z" transform="translate(-312 -10739)"/>
  <path id="シェイプ_30" data-name="シェイプ 30" class="cls-1" d="M322.494,10756a1.211,1.211,0,0,1-.812-0.3c-0.848-.7-1.666-1.3-2.387-1.9h0a39.388,39.388,0,0,1-5.212-4.4,6.8,6.8,0,0,1-2.082-4.7,5.508,5.508,0,0,1,1.665-4,5.835,5.835,0,0,1,4.2-1.7,6.283,6.283,0,0,1,3.3,1,8.245,8.245,0,0,1,1.334,1.3,8.245,8.245,0,0,1,1.334-1.3,6.285,6.285,0,0,1,3.3-1,5.835,5.835,0,0,1,4.2,1.7,5.508,5.508,0,0,1,1.665,4,6.8,6.8,0,0,1-2.082,4.7,39.388,39.388,0,0,1-5.212,4.4c-0.723.6-1.541,1.2-2.392,1.9a1.207,1.207,0,0,1-.811.3h0Zm-4.632-15.9a4.511,4.511,0,0,0-4.636,4.6,5.822,5.822,0,0,0,1.8,4,43.619,43.619,0,0,0,5.063,4.3h0c0.724,0.6,1.545,1.2,2.4,1.9,0.86-.7,1.682-1.3,2.407-1.9a43.619,43.619,0,0,0,5.063-4.3,5.822,5.822,0,0,0,1.8-4,4.511,4.511,0,0,0-4.636-4.6,4.578,4.578,0,0,0-2.546.8,6.368,6.368,0,0,0-1.419,1.5,0.756,0.756,0,0,1-1.334,0,6.368,6.368,0,0,0-1.419-1.5,4.578,4.578,0,0,0-2.546-.8h0Zm0,0" transform="translate(-312 -10739)"/>
</svg>
