<svg id="img_docment.svg" xmlns="http://www.w3.org/2000/svg" width="213.125" height="39" viewBox="0 0 213.125 39">
  <defs>
    <style>
      .cls-1 {
        fill: #fff;
        fill-rule: evenodd;
      }
    </style>
  </defs>
  <path id="資料請求をする" class="cls-1" d="M761.239,209.358c-0.55,2.178-2.464,3.432-5.72,3.74a3.8,3.8,0,0,1,.858,1.3,10.552,10.552,0,0,0,3.388-1.122,5.373,5.373,0,0,0,2.4-2.442c1.364,2.244,3.322,3.388,7.173,4.18a6.507,6.507,0,0,1,.77-1.518,11.752,11.752,0,0,1-4.709-1.32,5.139,5.139,0,0,1-2.442-2.816h4.225a5.811,5.811,0,0,1-1.827,1.562,7.279,7.279,0,0,1,1.453.66,10.026,10.026,0,0,0,2-2.09,2.471,2.471,0,0,1,.308-0.418,2.178,2.178,0,0,0,.242-0.33l-0.99-.792a7.851,7.851,0,0,1-1.694.11h-7.107c0.352-.506.55-0.814,0.968-1.474l-1.628-.418a8.742,8.742,0,0,1-3.476,4.07,3.344,3.344,0,0,1,1.122,1.034,13.546,13.546,0,0,0,2.068-1.914h2.618Zm-5.72-.484a19.049,19.049,0,0,0-3.564-2.09l-1.034,1.188a13.927,13.927,0,0,1,3.564,2.2Zm0.242,2.112a22.446,22.446,0,0,1-5.522,1.958l0.616,1.672a7.97,7.97,0,0,1,.99-0.44c2-.748,2.706-1.056,4.356-1.826Zm0.616,12.078a15.053,15.053,0,0,1-6.336,1.914,5.235,5.235,0,0,1,.968,1.452,18.668,18.668,0,0,0,6.666-2.42Zm5.632,0.946a17.978,17.978,0,0,0,6.865,2.4,7.436,7.436,0,0,1,.968-1.474,16.562,16.562,0,0,1-6.6-1.848Zm-6.908-9.482c-1.034,0-1.76-.022-2.266-0.066,0.044,0.638.066,1.32,0.066,2.332v4.048a17.448,17.448,0,0,1-.088,2.244,22.629,22.629,0,0,1,2.42-.088h9.35a22.65,22.65,0,0,1,2.421.088,18.688,18.688,0,0,1-.088-2.31v-3.894c0-1.078.022-1.782,0.066-2.42-0.594.044-1.056,0.066-2.267,0.066H755.1Zm-0.594,1.232h10.8v1.21h-10.8v-1.21Zm0,2.376h10.8v1.21h-10.8v-1.21Zm0,2.376h10.8v1.232h-10.8v-1.232ZM788.08,219.1l-5.786,1.342a11.836,11.836,0,0,1-2.134.352l0.352,1.826c0.528-.176,1.166-0.352,2.068-0.572l5.5-1.3v3.124a16.583,16.583,0,0,1-.132,2.486h1.936a14.375,14.375,0,0,1-.132-2.442v-3.564l0.418-.088a19.768,19.768,0,0,1,2.112-.4l-0.33-1.826a12.839,12.839,0,0,1-2.024.616l-0.176.044v-9.966a13.848,13.848,0,0,1,.132-2.354h-1.936a15.5,15.5,0,0,1,.132,2.376V219.1Zm-12.232-3.784a18.286,18.286,0,0,1-1.21,2.816,14.19,14.19,0,0,1-2.553,3.586,4.7,4.7,0,0,1,.9,1.518,16.12,16.12,0,0,0,3.279-5.984c-0.066,1.056-.11,2.2-0.11,3.278v3.476a19.046,19.046,0,0,1-.132,2.42h1.848a18.106,18.106,0,0,1-.11-2.376v-4c0-.528-0.088-2.2-0.132-3.036a13.864,13.864,0,0,0,2.442,3.542,9.055,9.055,0,0,1,.836-1.452,12.913,12.913,0,0,1-3.036-3.784h1.078a11.963,11.963,0,0,1,1.672.088V213.78a10.862,10.862,0,0,1-1.65.088h-1.21v-5.214a15.013,15.013,0,0,1,.11-2.288h-1.848a14.716,14.716,0,0,1,.132,2.31v5.192h-1.694a9.832,9.832,0,0,1-1.915-.11v1.672a10.831,10.831,0,0,1,1.937-.11h1.364Zm-3.279-7A19.054,19.054,0,0,1,774,213.01l1.342-.572a26.894,26.894,0,0,0-1.43-4.73Zm7.239-.682a17.114,17.114,0,0,1-1.584,4.774l1.21,0.594a23.888,23.888,0,0,0,1.782-4.774Zm2.178,1.518a18.291,18.291,0,0,1,3.96,3.5l1.078-1.32a22.365,22.365,0,0,0-3.938-3.388Zm-0.682,5.478a17.161,17.161,0,0,1,3.96,3.432l1.078-1.3a20.558,20.558,0,0,0-3.916-3.322Zm25.477-5.39v1.386h-2.09a15.348,15.348,0,0,1-1.98-.088V212a12.9,12.9,0,0,1,1.958-.11h2.112V213.3h-2.86a11.492,11.492,0,0,1-2.244-.132v1.584a12.471,12.471,0,0,1,2.244-.132h7.92a11.962,11.962,0,0,1,2.178.132v-1.584a13.963,13.963,0,0,1-2.178.132h-3.564v-1.408h2.464a16.642,16.642,0,0,1,2,.088v-1.43a15.132,15.132,0,0,1-1.98.088h-2.486v-1.386h3.168a13.33,13.33,0,0,1,2.112.11v-1.54a10.649,10.649,0,0,1-2.112.132h-3.168a7.953,7.953,0,0,1,.132-1.76h-1.76a7.837,7.837,0,0,1,.132,1.76h-2.6a10.306,10.306,0,0,1-2.046-.132v1.54a12.418,12.418,0,0,1,2.046-.11h2.6Zm-2.53,13.376H810.9v1.452c0,0.484-.154.616-0.748,0.616a16.438,16.438,0,0,1-2.376-.22,5.612,5.612,0,0,1,.418,1.562c0.748,0.066,1.386.088,1.936,0.088,1.848,0,2.31-.352,2.31-1.8v-6.27a21.06,21.06,0,0,1,.088-2.332,11.186,11.186,0,0,1-2.024.11h-5.874a16.549,16.549,0,0,1-1.958-.088c0.044,0.594.066,0.968,0.066,1.914V223.9a16.484,16.484,0,0,1-.11,2.42h1.76a16.169,16.169,0,0,1-.132-2.42v-1.276Zm0-1.32V219.9H810.9V221.3h-6.644Zm0-2.706v-1.452H810.9V218.6h-6.644Zm-9.483-10.054a11.626,11.626,0,0,1,1.65-.088h2.926a12.475,12.475,0,0,1,1.651.088v-1.606a8.852,8.852,0,0,1-1.651.11h-2.926a8.553,8.553,0,0,1-1.65-.11v1.606Zm-0.77,3.1a13.36,13.36,0,0,1,1.76-.088h4.026a15.4,15.4,0,0,1,1.629.066v-1.606a8.587,8.587,0,0,1-1.761.11h-3.894a9.4,9.4,0,0,1-1.76-.11v1.628Zm0.836,3.058a12.277,12.277,0,0,1,1.474-.066h3.168a12.775,12.775,0,0,1,1.431.066v-1.54a7.749,7.749,0,0,1-1.431.088h-3.168a8.44,8.44,0,0,1-1.474-.088v1.54Zm0,3.058a12.632,12.632,0,0,1,1.452-.066h3.168a12.4,12.4,0,0,1,1.453.066v-1.54a8.379,8.379,0,0,1-1.431.088h-3.168a8.6,8.6,0,0,1-1.474-.088v1.54Zm1.65,8.448v-1.144h2.948v0.858H801a13.87,13.87,0,0,1-.088-1.8V221a15.654,15.654,0,0,1,.066-1.694,12.742,12.742,0,0,1-1.563.066h-2.75a13.3,13.3,0,0,1-1.782-.088,14.163,14.163,0,0,1,.088,1.782v2.992c0,0.77-.044,1.474-0.11,2.156h1.628Zm0-5.478h2.948v2.97h-2.948v-2.97Zm28.557-8.866v12.056c0,0.528-.176.638-0.99,0.638a18.4,18.4,0,0,1-2.882-.264,5.439,5.439,0,0,1,.418,1.716c1.144,0.088,1.892.132,2.706,0.132,1.87,0,2.4-.4,2.4-1.782V218.4c-0.044-1.628-.066-2.552-0.088-2.772,0-.154-0.022-0.418-0.022-0.726a17.146,17.146,0,0,0,2.729,5.016,19.742,19.742,0,0,0,5.28,4.774,7.105,7.105,0,0,1,1.188-1.584,15.825,15.825,0,0,1-3.784-2.64,19.519,19.519,0,0,1-2.2-2.442,29.431,29.431,0,0,0,2.948-2.728c1.144-1.21,1.144-1.21,1.32-1.408l-1.474-1.122a16.1,16.1,0,0,1-3.674,4,17.155,17.155,0,0,1-2.157-4.906h6.337a15.841,15.841,0,0,1,2.332.132v-1.782a16.472,16.472,0,0,1-2.332.132h-6.4v-1.562a17.388,17.388,0,0,1,.132-2.376h-1.914a16.732,16.732,0,0,1,.132,2.376v1.562h-6.314a16.048,16.048,0,0,1-2.332-.132V212a16.316,16.316,0,0,1,2.266-.132h6.38Zm3.367-4.312a12.431,12.431,0,0,1,3.19,2.6l1.21-1.078a15.526,15.526,0,0,0-3.256-2.53Zm-10.033,6.336a16.986,16.986,0,0,1,2.97,3.894l1.408-1.1a22.965,22.965,0,0,0-3.058-3.806Zm5.61,4.048a27.191,27.191,0,0,1-4.2,2.75,15.276,15.276,0,0,1-3.278,1.474l0.858,1.8c0.374-.242.638-0.4,1.122-0.682a44.913,44.913,0,0,0,6.028-3.74Zm20.461-8.228a27.688,27.688,0,0,1-4.73-.264l-0.044,1.8a2.085,2.085,0,0,1,.462-0.044,3.789,3.789,0,0,1,.44.022c0.462,0.022,2.64.066,3.08,0.066,0.088,0,.33-0.022.4-0.022-0.132.242-.132,0.242-0.2,0.352a21.9,21.9,0,0,1-4.818,6.072l1.452,1.452a7.873,7.873,0,0,1,1.76-1.87,8.052,8.052,0,0,1,4.774-2.31,1.493,1.493,0,0,1,1.628,1.562,17.325,17.325,0,0,0-3.234,1.76c-1.562,1.122-2.332,2.31-2.332,3.564a2.935,2.935,0,0,0,1.5,2.64,9.11,9.11,0,0,0,4.51.858,37.089,37.089,0,0,0,5.478-.418,5.232,5.232,0,0,1,.9-0.11l-0.2-2.024a18.491,18.491,0,0,1-5.984.88c-3.1,0-4.356-.572-4.356-1.958a2.63,2.63,0,0,1,1.3-2.068,13.5,13.5,0,0,1,2.64-1.452v0.682a27.677,27.677,0,0,1-.132,2.926l1.8-.022a6.045,6.045,0,0,1-.044-0.9v-0.9c0.022-.44.022-0.9,0.022-1.144,0-.484,0-0.55-0.022-1.276a33.833,33.833,0,0,1,5.831-1.87l-0.792-1.8a6.218,6.218,0,0,1-1.541.638c-1.078.374-1.98,0.7-3.7,1.364a2.729,2.729,0,0,0-2.97-2.4,5.677,5.677,0,0,0-3.036.9,4.983,4.983,0,0,0-.748.55,3.012,3.012,0,0,0-.308.22,0.272,0.272,0,0,1-.044-0.066l0.044-.044a0.737,0.737,0,0,1,.22-0.176,6.2,6.2,0,0,0,.7-0.814,16.543,16.543,0,0,0,1.782-2.794c2.156-.066,4.972-0.264,6.49-0.462,1.276-.176,1.276-0.176,1.694-0.22l-0.132-1.76a29.1,29.1,0,0,1-5.94.77c-1.232.066-1.232,0.066-1.386,0.088a14.367,14.367,0,0,0,.66-1.474,4.744,4.744,0,0,1,.528-1.122l-2.068-.308a9.564,9.564,0,0,1-.99,2.926h-0.352Zm26.533,0.132c-2.464.066-3.432,0.088-5.3,0.154-3.323.132-3.455,0.132-4.049,0.132-0.33,0-.506,0-0.946-0.022L860.748,212c1.364-.22,6.491-0.506,10.253-0.572,0,1.21.022,2.354,0.044,2.552v0.154a3.313,3.313,0,0,0-2.442-.88,3.8,3.8,0,0,0-4.07,3.74,3.8,3.8,0,0,0,6.512,2.442,3.5,3.5,0,0,0,.594-0.968,4.936,4.936,0,0,1-.638,2.222c-0.946,1.716-2.64,2.794-5.478,3.564a5.666,5.666,0,0,1,1.122,1.694,14.2,14.2,0,0,0,3.63-1.782,6.92,6.92,0,0,0,3.014-5.808,6.374,6.374,0,0,0-.55-2.728V211.4c1.76-.022,2.134-0.022,2.442-0.022a38.179,38.179,0,0,1,4.048.11v-1.848c-0.726.088-2.4,0.132-6.512,0.154a18.867,18.867,0,0,1,.11-2.882h-1.98a9.865,9.865,0,0,1,.11,1.276Zm-2.222,4.884a2.488,2.488,0,0,1,1.738.638,1.479,1.479,0,0,1,.44,1.166,2.327,2.327,0,0,1-2.442,2.42,2.028,2.028,0,0,1-2.156-2.09A2.24,2.24,0,0,1,868.757,214.726Zm17.27-4.664a10.959,10.959,0,0,1,1.166-.11c3.213-.132,5.7-0.264,6.513-0.4a0.484,0.484,0,0,0,.176-0.022l0.022,0.044-0.242.242-0.176.176c-3.3,3.256-8.295,7.392-10.231,8.47l1.122,1.672a13.975,13.975,0,0,1,9.241-3.74c2.882,0,4.62,1.21,4.62,3.234a3.363,3.363,0,0,1-1.5,2.816,5.3,5.3,0,0,1-1.8.836,6.169,6.169,0,0,0-.99-2.09,4.514,4.514,0,0,0-3.675-1.8c-1.936,0-3.366,1.166-3.366,2.728a3,3,0,0,0,.66,1.848c0.814,0.946,2.31,1.43,4.467,1.43,4.862,0,8.1-2.332,8.1-5.808,0-2.86-2.376-4.708-6.072-4.708a10.771,10.771,0,0,0-5.171,1.276l-0.044-.088a52.771,52.771,0,0,0,7.107-6.006,3.973,3.973,0,0,1,1.122-.924l-1.056-1.43a2.227,2.227,0,0,1-1.144.264c-1.958.154-4.863,0.286-6.711,0.286a11.644,11.644,0,0,1-2.222-.132Zm7.195,13.662a7.663,7.663,0,0,1-1.452.132c-1.915,0-3.125-.66-3.125-1.694a1.377,1.377,0,0,1,1.628-1.254C891.77,220.908,892.76,221.876,893.222,223.724Z" transform="translate(-687 -198)"/>
  <path id="シェイプ_558" data-name="シェイプ 558" class="cls-1" d="M713.015,213.693a0.754,0.754,0,1,0,.747.753A0.751,0.751,0,0,0,713.015,213.693Zm0,5.318a0.753,0.753,0,1,0,.747.754A0.752,0.752,0,0,0,713.015,219.011Zm-18.106-10.637a0.754,0.754,0,1,0,.748.754A0.751,0.751,0,0,0,694.909,208.374Zm0,5.319a0.754,0.754,0,1,0,.748.753A0.751,0.751,0,0,0,694.909,213.693Zm0,5.318a0.753,0.753,0,1,0,.748.754A0.752,0.752,0,0,0,694.909,219.011Zm36.212-17.466h-2.637v-2.659a0.883,0.883,0,0,0-.879-0.887h-14.59a4.367,4.367,0,0,1-7.031,0h-14.59a0.883,0.883,0,0,0-.879.887v2.659h-2.637a0.882,0.882,0,0,0-.878.886v30.137a0.881,0.881,0,0,0,.878.885h15.933a2.623,2.623,0,0,1,2.359,1.47,3.708,3.708,0,0,0,6.659,0,2.622,2.622,0,0,1,2.359-1.471h15.933a0.882,0.882,0,0,0,.879-0.885V202.431A0.883,0.883,0,0,0,731.121,201.545Zm-20.874.886a2.784,2.784,0,0,1,2.768-2.792h13.843v28.63H713.015a4.2,4.2,0,0,0-2.557.861l-0.211.161v-26.86Zm-4.263-2.659a2.65,2.65,0,0,1,2.636,2.659v26.593a4.348,4.348,0,0,0-2.636-.888H692.273V199.772h13.711Zm24.258,31.909H715.188a4.369,4.369,0,0,0-3.931,2.45,1.957,1.957,0,0,1-3.515,0,4.369,4.369,0,0,0-3.931-2.45H688.758V203.318h1.757v25.7a0.883,0.883,0,0,0,.879.887h14.59a2.65,2.65,0,0,1,2.636,2.659,0.88,0.88,0,1,0,1.759,0,2.65,2.65,0,0,1,2.636-2.659h14.59a0.883,0.883,0,0,0,.879-0.887v-25.7h1.758v28.363Zm-24.258-23.307h-7.558a0.754,0.754,0,0,0,0,1.507h7.558A0.754,0.754,0,0,0,705.984,208.374Zm0,5.319h-7.558a0.754,0.754,0,0,0,0,1.507h7.558A0.754,0.754,0,0,0,705.984,213.693Zm0,5.318h-7.558a0.753,0.753,0,0,0,0,1.506h7.558A0.753,0.753,0,0,0,705.984,219.011Zm18.106-5.318h-7.559a0.754,0.754,0,0,0,0,1.507h7.559A0.754,0.754,0,0,0,724.09,213.693Zm0,5.318h-7.559a0.753,0.753,0,0,0,0,1.506h7.559A0.753,0.753,0,0,0,724.09,219.011Zm-11.075-10.735a0.754,0.754,0,1,0,.747.754A0.751,0.751,0,0,0,713.015,208.276Zm11.075,0h-7.559a0.754,0.754,0,0,0,0,1.507h7.559A0.754,0.754,0,0,0,724.09,208.276Z" transform="translate(-687 -198)"/>
</svg>
