<svg id="img_favorite02_sp_on.svg" xmlns="http://www.w3.org/2000/svg" width="168.344" height="61.9" viewBox="0 0 168.344 61.9">
  <defs>
    <style>
      .cls-1 {
        fill: #333;
      }

      .cls-1, .cls-2 {
        fill-rule: evenodd;
      }

      .cls-2 {
        fill: #f05f5f;
      }
    </style>
  </defs>
  <path id="お気に入り_を削除" data-name="お気に入り を削除" class="cls-1" d="M551.085,27108.4a30.092,30.092,0,0,1-5.712,1.2v-2.7a15.989,15.989,0,0,1,.14-2.6h-2.072a19.9,19.9,0,0,1,.14,2.7v2.7a24.916,24.916,0,0,1-2.688.1,11.73,11.73,0,0,1-2.856-.2v1.9h4.424a7.794,7.794,0,0,1,1.12-.1v5.3a12.91,12.91,0,0,0-3.948,2.3c-1.512,1.3-2.212,2.5-2.212,3.7a3.249,3.249,0,0,0,1.288,2.6,7.359,7.359,0,0,0,4.62,1.8c1.372,0,2.044-.7,2.044-2.2v-7a17.744,17.744,0,0,1,5.936-1.1c3.668,0,5.992,1.7,5.992,4.5a3.731,3.731,0,0,1-3.752,3.9c-2.044,0-2.884-1.2-2.884-4.1a7.924,7.924,0,0,1,.056-1.1,5.321,5.321,0,0,1-1.848.7,10.375,10.375,0,0,0,.336,3.2,4.1,4.1,0,0,0,4.312,3.1,5.728,5.728,0,0,0,2.828-10.7,9.329,9.329,0,0,0-4.956-1.2,20.706,20.706,0,0,0-6.02,1v-4.8c1.316-.2,2.66-0.4,4.956-0.9,0.392,0,.5-0.1.84-0.1Zm-7.5,15.5c0,1.2-.084,1.3-0.644,1.3a4.959,4.959,0,0,1-2.492-.8,2.109,2.109,0,0,1-1.2-1.7c0-1.3,1.568-2.8,4.34-4.2v5.4Zm16.828-11.9a24.194,24.194,0,0,0-5.656-5.3l-1.456,1.1a22.767,22.767,0,0,1,5.656,5.5Zm23.913-4.4a15.407,15.407,0,0,1,3.528.2v-2a29.614,29.614,0,0,1-3.528.2H570.546c0.42-.8.532-1,0.784-1.5a5.025,5.025,0,0,1,.476-1l-1.988-.5a5.759,5.759,0,0,1-.532,1.7,20.261,20.261,0,0,1-5.348,7.1,2.94,2.94,0,0,1,1.316,1.2,21.742,21.742,0,0,0,4.4-5.4h14.672Zm-2.632,18.6a57.256,57.256,0,0,0-5.544-4.6,27.633,27.633,0,0,0,2.408-2.9l0.7-1a1.834,1.834,0,0,0,.392-0.5l-1.792-1a14.572,14.572,0,0,1-3.136,4.4,45.432,45.432,0,0,0-5.348-3.4l-1.2,1.1a58.184,58.184,0,0,1,5.348,3.4,27.138,27.138,0,0,1-8.68,5.3,4.27,4.27,0,0,1,1.344,1.5,31.458,31.458,0,0,0,8.764-5.7,50.194,50.194,0,0,1,5.46,4.9Zm1.288-10.7c0.056,4.5.364,7.1,1.064,9.2,0.756,2.3,2.128,3.9,3.22,3.9,0.7,0,1.316-.6,1.68-1.8a16.745,16.745,0,0,0,.756-3.8,4.356,4.356,0,0,1-1.54-1.1c-0.168,2.5-.616,4.6-1.008,4.6-0.308,0-1.008-1-1.4-2.2a25.676,25.676,0,0,1-1.036-8.1,21.722,21.722,0,0,1,.112-2.4,25.892,25.892,0,0,1-3.164.1H568.25a19.9,19.9,0,0,1-2.6-.1v1.9a21.4,21.4,0,0,1,2.884-.2h14.448Zm-13.972-3.8a16.722,16.722,0,0,1,2.6-.2h11.172a17.588,17.588,0,0,1,2.744.2v-1.9a15.667,15.667,0,0,1-2.744.2h-11.34a12.841,12.841,0,0,1-2.436-.2v1.9Zm26.517-6.7a16.641,16.641,0,0,1-.392,2.3,45.793,45.793,0,0,0-1.26,11,40.7,40.7,0,0,0,.728,8c0.084,0.5.112,0.6,0.168,1.1l2.016-.2v-0.4c0-1.6,1.008-4.9,2.268-7.7l-1.344-.6a24.344,24.344,0,0,0-1.82,5.4c-0.112-1.5-.168-3.1-0.168-5.3a41.87,41.87,0,0,1,.84-8.8c0.42-1.9.756-3.2,1.176-4.5Zm5.768,5.3a36.742,36.742,0,0,0,4.48.3,51.5,51.5,0,0,0,6.02-.4c1.232-.1,1.876-0.2,1.932-0.2l-0.14-2a30.615,30.615,0,0,1-7.5.7,19.592,19.592,0,0,1-4.76-.4Zm2.044,5.5c-1.736,2-2.436,3.5-2.436,5.2a3.816,3.816,0,0,0,.84,2.5c1.2,1.5,3.22,2.2,6.412,2.2a28.391,28.391,0,0,0,5.74-.6,3.981,3.981,0,0,1,.98-0.1l-0.28-2.2a18.758,18.758,0,0,1-6.44,1c-3.612,0-5.376-1-5.376-3.1a6.455,6.455,0,0,1,2.1-4.1Zm26.237-8.8a24.28,24.28,0,0,1-.9,6.1,23.144,23.144,0,0,1-4.312,8.2,24.075,24.075,0,0,1-6.5,5.5,5.1,5.1,0,0,1,1.512,1.6,22.928,22.928,0,0,0,3.528-2.7,24.494,24.494,0,0,0,3.78-4.3,23.339,23.339,0,0,0,3.92-9,22.553,22.553,0,0,0,1.764,5.2,26,26,0,0,0,4,6,27,27,0,0,0,5.432,4.8,5.2,5.2,0,0,1,1.568-1.8,21.331,21.331,0,0,1-5.236-4.1,24.631,24.631,0,0,1-4.2-5.8,20.194,20.194,0,0,1-2.38-9.7,15.475,15.475,0,0,1,.112-1.9,13.563,13.563,0,0,1-2.6.2h-3.7a12.231,12.231,0,0,1-2.128-.1v2c0.924-.1,1.6-0.2,2.128-0.2h4.2Zm18.369-2.8a7.124,7.124,0,0,1-.084.9,70.286,70.286,0,0,0-.952,10.3v0.6l0.056,3,0.028,0.5v0.3l2.016-.1c-0.028-.4-0.028-0.6-0.028-0.7a14.427,14.427,0,0,1,1.512-6.2c1.6-3.3,3.388-4.9,5.516-4.9,2.688,0,4.256,2.6,4.256,7.1s-1.54,7.4-4.816,9.3a15.337,15.337,0,0,1-5.684,1.8,4.794,4.794,0,0,1,1.12,1.9,19.145,19.145,0,0,0,4.984-1.7c4.2-2.1,6.468-5.9,6.468-11,0-3-.5-5.1-1.68-6.8a5.334,5.334,0,0,0-4.48-2.5c-2.184,0-4.032,1.2-5.6,3.6a13.37,13.37,0,0,0-1.708,4.2c-0.14.6-.14,0.6-0.2,0.8h-0.112c0.084-1.4.476-4.5,0.924-7.3a16.693,16.693,0,0,1,.644-2.9Zm-78.1,39.8a38.965,38.965,0,0,1-5.992-.3l-0.028,1.9h1.064c1.036,0,3.668.1,4.116,0.1a0.963,0.963,0,0,0,.532-0.1,3.388,3.388,0,0,0-.252.5,29.3,29.3,0,0,1-6.272,8l1.568,1.5a9.818,9.818,0,0,1,2.156-2.3c2.268-1.9,4.48-3,6.244-3,1.316,0,1.988.7,2.212,2.2a27.406,27.406,0,0,0-4.172,2.3c-1.9,1.4-2.856,2.9-2.856,4.4,0,2.9,2.436,4.3,7.448,4.3a52.628,52.628,0,0,0,6.8-.5c0.56-.1.7-0.1,1.12-0.2l-0.252-2.1a24.75,24.75,0,0,1-7.476,1.1c-3.948,0-5.684-.9-5.684-2.7,0-1.7,1.456-3,5.264-4.8a7.691,7.691,0,0,1,.028.9,39.368,39.368,0,0,1-.168,4h1.9a7.241,7.241,0,0,1-.056-1.1c0-.2,0-0.6.028-1.2s0.028-1.2.028-1.6c0-.7,0-0.9-0.056-1.7a46.406,46.406,0,0,1,7.476-2.4l-0.9-2a4.852,4.852,0,0,1-1.9.8c-1.232.5-2.828,1.1-4.872,1.9a3.373,3.373,0,0,0-3.7-3.1,7.338,7.338,0,0,0-4.228,1.3c-0.28.2-.28,0.2-1.288,1-0.028,0-.028,0-0.056-0.1h0.028a2.27,2.27,0,0,1,.364-0.3,9.888,9.888,0,0,0,.952-1.1,21.5,21.5,0,0,0,2.52-3.9c3.388-.2,6.328-0.4,9.24-0.8a4.464,4.464,0,0,1,1.12-.1l-0.168-1.9c-1.54.5-4.34,0.8-8.82,1.1h-0.588c0.14-.3.5-1,0.868-1.9a4.084,4.084,0,0,1,.728-1.5l-2.24-.4a12.063,12.063,0,0,1-1.344,3.8h-0.448Zm25.817,3.4h-2.884a19.627,19.627,0,0,1-2.464-.1,19.507,19.507,0,0,1,.112,2.4v12.1a22.04,22.04,0,0,1-.2,3.1h2.1a24.488,24.488,0,0,1-.168-3.2v-3.6h8.568v4.3c0,0.4-.2.6-0.868,0.6a13.555,13.555,0,0,1-3.164-.4,6.656,6.656,0,0,1,.392,1.8c0.98,0.1,2.016.2,2.856,0.2,1.9,0,2.492-.5,2.492-2v-12.9a19.507,19.507,0,0,1,.112-2.4,19.856,19.856,0,0,1-2.492.1h-2.632v-5.6a10.7,10.7,0,0,1,.2-2.3h-2.156a10.112,10.112,0,0,1,.2,2.3v5.6Zm-3.5,6h8.568v3.2h-8.568v-3.2Zm8.568-1.5h-8.568v-2.9h8.568v2.9Zm-11.2-10.7a17.012,17.012,0,0,1,2.8,5.3l1.54-.8a23.606,23.606,0,0,0-2.856-5.3Zm11.984-.7a20.369,20.369,0,0,1-2.772,5.4l1.54,0.8a31.678,31.678,0,0,0,2.856-5.5Zm3.892,1.2a20.887,20.887,0,0,1,.168,3.1v10.8a18.52,18.52,0,0,1-.14,3.1h2.044a18.52,18.52,0,0,1-.14-3.1v-10.8a16.943,16.943,0,0,1,.168-3.1h-2.1Zm5.768-1.8a21.011,21.011,0,0,1,.2,3.4v18.7c0,0.7-.2.9-1.26,0.9a27.961,27.961,0,0,1-3.64-.4,8.048,8.048,0,0,1,.532,1.9c1.232,0,2.016.1,2.688,0.1a12.807,12.807,0,0,0,2.3-.2c0.9-.3,1.176-0.8,1.176-2.3v-18.7a20.213,20.213,0,0,1,.2-3.4h-2.184Zm20.609,9.2v3.5h-3.948a16.645,16.645,0,0,1-2.408-.1v1.9a14.839,14.839,0,0,1,2.408-.2h3.948v8c0,0.5-.28.7-1.064,0.7a17.529,17.529,0,0,1-2.856-.3,5.63,5.63,0,0,1,.56,1.8,24.228,24.228,0,0,0,2.464.2c1.988,0,2.66-.6,2.66-2.2v-8.2h5.236a18.851,18.851,0,0,1,2.66.2v-1.9a20.6,20.6,0,0,1-2.66.1h-5.236v-3.5h2.912c0.9,0,1.4.1,2.128,0.1v-1.7a13.1,13.1,0,0,1-2.128.1h-7.028a13.307,13.307,0,0,1-2.184-.1,21.541,21.541,0,0,0,5.544-6.2,24.861,24.861,0,0,0,8.68,8,13.35,13.35,0,0,1,1.064-1.7,20.253,20.253,0,0,1-8.82-7.8h-1.96a19.081,19.081,0,0,1-7.952,7.8,3.526,3.526,0,0,1,1.12,1.5,27.835,27.835,0,0,0,2.324-1.6v1.7c0.728,0,1.288-.1,2.156-0.1h2.38Zm-14.084,12.7a21.231,21.231,0,0,1-.168,3h2.016a28.417,28.417,0,0,1-.14-2.9V27142h4.368a33.654,33.654,0,0,1-3.192,6.6,8.53,8.53,0,0,1,2.548,6.5c0,1.2-.392,1.7-1.456,1.7-0.532,0-.952-0.1-1.652-0.1a4.232,4.232,0,0,1,.336,1.6,4.275,4.275,0,0,0,.952.1,5.731,5.731,0,0,0,1.988-.3c1.008-.3,1.484-1.3,1.484-3.1a11.23,11.23,0,0,0-.56-3.5,9.848,9.848,0,0,0-1.792-3.1,40.142,40.142,0,0,0,3.052-6.2l0.224-.4a2.244,2.244,0,0,0,.2-0.5l-0.98-.9a8.057,8.057,0,0,1-1.792.1h-3.7a9.066,9.066,0,0,1-1.82-.1q0.084,0.9.084,2.1v19.3Zm18.256-5.6a22.364,22.364,0,0,0,4.788,7.2,6.123,6.123,0,0,1,1.344-1.5,15.954,15.954,0,0,1-4.648-6.4Zm-8.484-.7a14.553,14.553,0,0,1-1.932,3.9,13.032,13.032,0,0,1-2.6,2.6,7.056,7.056,0,0,1,1.316,1.3,16.867,16.867,0,0,0,4.788-7.1Z" transform="translate(-494 -27103)"/>
  <path id="シェイプ_30" data-name="シェイプ 30" class="cls-2" d="M511.528,27150.5c-1.535-1.3-3.016-2.5-4.321-3.5H507.2a82.266,82.266,0,0,1-9.435-8.4c-2.572-3-3.769-5.8-3.769-8.8a10.884,10.884,0,0,1,3.014-7.7,10.546,10.546,0,0,1,7.6-3.1,9.824,9.824,0,0,1,5.971,1.9,14.423,14.423,0,0,1,2.414,2.4,14.46,14.46,0,0,1,2.414-2.4,9.829,9.829,0,0,1,5.972-1.9,10.548,10.548,0,0,1,7.6,3.1,10.884,10.884,0,0,1,3.014,7.7c0,3-1.2,5.8-3.769,8.8a82.18,82.18,0,0,1-9.435,8.4c-1.308,1-2.79,2.2-4.329,3.5a2.512,2.512,0,0,1-1.469.5" transform="translate(-494 -27103)"/>
</svg>
