<svg id="kaigo_home_info_img_tel.svg" data-name="kaigo/home_info/img_tel.svg" xmlns="http://www.w3.org/2000/svg" width="265.563" height="60.062" viewBox="0 0 265.563 60.062">
  <defs>
    <style>
      .cls-1 {
        fill: #fff;
      }

      .cls-1, .cls-2 {
        fill-rule: evenodd;
      }
    </style>
  </defs>
  <path id="長方形_43" data-name="長方形 43" class="cls-1" d="M121.509,708.792h37.754v19.632H121.509V708.792Z" transform="translate(-120.906 -688.969)"/>
  <path id="シェイプ_559" data-name="シェイプ 559" class="cls-2" d="M162.559,726.7a2.354,2.354,0,1,0,2.341,2.353A2.348,2.348,0,0,0,162.559,726.7Zm0,4.433a2.081,2.081,0,1,1,2.069-2.079A2.077,2.077,0,0,1,162.559,731.135Zm0.664-2.347a0.765,0.765,0,0,0,.186-0.506,0.738,0.738,0,0,0-.256-0.6,1.041,1.041,0,0,0-.695-0.214h-0.876v3.109h0.36v-1.413h0.4l0.908,1.413H163.7l-0.989-1.489A0.955,0.955,0,0,0,163.223,728.788Zm-1.281.063v-1.068h0.463a0.514,0.514,0,0,1,.631.52,0.5,0.5,0,0,1-.177.392,0.676,0.676,0,0,1-.463.156h-0.454ZM145.171,720.7a4.608,4.608,0,1,0,9.2,0c0-2.529-2.488-4.55-4.6-5.757C147.659,716.146,145.171,718.167,145.171,720.7Zm-23.514,10.4H159.1V706.524h-37.44V731.1Zm0-20.752a20.97,20.97,0,0,1,9.458,2.151,20.988,20.988,0,0,1,18.511,0,21,21,0,0,1,9.465-2.151V712.5a18.851,18.851,0,0,0-7.126,1.359c2.314,1.556,4.551,3.913,4.551,6.889a6.974,6.974,0,0,1-6.89,6.939,6.881,6.881,0,0,1-6.78-6.939c0-2.976,2.127-5.333,4.44-6.889a18.275,18.275,0,0,0-13.831,0c2.314,1.556,4.44,3.913,4.44,6.889a6.881,6.881,0,0,1-6.78,6.939,7.017,7.017,0,0,1-6.941-6.939c0-2.976,2.288-5.333,4.6-6.889a18.82,18.82,0,0,0-7.119-1.359v-2.152Zm4.8,10.4a4.609,4.609,0,1,0,9.206,0c0-2.528-2.49-4.547-4.6-5.756C128.95,716.2,126.461,718.222,126.461,720.75Z" transform="translate(-120.906 -688.969)"/>
  <path id="受付時間_9:00_18:00_土_日_祝日を含む毎日_" data-name="受付時間 9:00~18:00（土・日・祝日を含む毎日）" class="cls-2" d="M122.512,741.453a11.172,11.172,0,0,1-1.441-.058c0.024,0.316.047,0.574,0.047,0.878v0.738a5.934,5.934,0,0,1-.058.832h0.8v-1.7h8.481v1.64h0.8a3.434,3.434,0,0,1-.058-0.726V742.3a6.974,6.974,0,0,1,.046-0.891,12.51,12.51,0,0,1-1.335.047h-1a19.667,19.667,0,0,0,.949-1.816l-0.761-.269a9.882,9.882,0,0,1-.984,2.085h-1.359a11.63,11.63,0,0,0-.621-1.792,32.967,32.967,0,0,0,4.006-.668,3.258,3.258,0,0,1,.469-0.105l-0.516-.692a12.11,12.11,0,0,1-3.069.68,37.6,37.6,0,0,1-5.482.34,2.036,2.036,0,0,1,.269.691c0.609-.012.8-0.012,1.043-0.024a10.064,10.064,0,0,1,.621,1.57h-0.844Zm1.593,0a11.168,11.168,0,0,0-.656-1.605c0.856-.035,1.254-0.07,1.84-0.117a10.718,10.718,0,0,1,.62,1.722h-1.8Zm4.944,1.933a5.58,5.58,0,0,1-1.031.059H123.66a7.571,7.571,0,0,1-1.171-.071v0.785a8.225,8.225,0,0,1,.867-0.07,7.737,7.737,0,0,0,2.1,2.495,12.638,12.638,0,0,1-4.557,1.476,2.958,2.958,0,0,1,.421.738,14.122,14.122,0,0,0,4.768-1.757,11.878,11.878,0,0,0,4.885,1.781,3.6,3.6,0,0,1,.422-0.762,12.3,12.3,0,0,1-4.627-1.453,10.655,10.655,0,0,0,2.378-2.249,3.419,3.419,0,0,1,.4-0.421Zm-0.621.7a9.192,9.192,0,0,1-2.319,2.108,6.379,6.379,0,0,1-1.957-2.108h4.276Zm13.142-2.355h0.574c0.375,0,.75.012,1.113,0.047v-0.8a7.291,7.291,0,0,1-1.113.07H141.57v-1.347a11.121,11.121,0,0,1,.071-1.371h-0.9a8.819,8.819,0,0,1,.082,1.371v1.347h-3.714a8.767,8.767,0,0,1-1.218-.07v0.82a9.021,9.021,0,0,1,1.253-.071h3.679v5.787c0,0.246-.106.305-0.586,0.305a9.54,9.54,0,0,1-1.605-.141,2.6,2.6,0,0,1,.223.8c0.515,0.047.96,0.07,1.417,0.07,1.054,0,1.3-.187,1.3-0.96v-5.858Zm-6.337-.726c0.351-.668.726-1.476,0.89-1.886a4.77,4.77,0,0,1,.293-0.668l-0.844-.269a6.393,6.393,0,0,1-.515,1.5,11.54,11.54,0,0,1-2.355,3.573,1.8,1.8,0,0,1,.434.516l0.082,0.128a9.754,9.754,0,0,0,1.312-1.8c-0.035.539-.047,0.9-0.047,1.418v3.913a11.842,11.842,0,0,1-.07,1.417h0.878c-0.035-.41-0.058-0.855-0.058-1.394v-6.443Zm1.429,2.191a11.968,11.968,0,0,1,1.933,2.729l0.656-.5a14.878,14.878,0,0,0-1.98-2.647Zm14.607-2.87v1.522H149.71a7.768,7.768,0,0,1-1.183-.07v0.785a8.549,8.549,0,0,1,1.183-.07H153v1.37H149.71a7.459,7.459,0,0,1-1.183-.07V744.6a8.729,8.729,0,0,1,1.172-.07H153v3.222c0,0.257-.082.3-0.527,0.3a8.5,8.5,0,0,1-1.335-.14,2.072,2.072,0,0,1,.187.773c0.68,0.035.867,0.047,1.054,0.047,1.09,0,1.348-.176,1.348-0.926v-3.28h0.363a7.788,7.788,0,0,1,1.148.07V743.8a7.161,7.161,0,0,1-1.148.07h-0.363V742.5h0.386a7.5,7.5,0,0,1,1.136.07v-0.785a7.643,7.643,0,0,1-1.183.07H152v-1.522h1.663a9.713,9.713,0,0,1,1.113.058v-0.773a7.059,7.059,0,0,1-1.113.07H152v-0.375a5.7,5.7,0,0,1,.07-0.949H151.2a6,6,0,0,1,.071.949v0.375h-1.242a6.87,6.87,0,0,1-1.113-.07v0.773a10.25,10.25,0,0,1,1.124-.058h1.231Zm-6.01,6.419a9.358,9.358,0,0,1-.07,1.242h0.761v-0.961h1.535v0.586h0.726c-0.023-.258-0.035-0.562-0.035-1.125v-6.419a8.708,8.708,0,0,1,.035-1.148,10.209,10.209,0,0,1-1.054.035H146.29c-0.832-.012-0.832-0.012-1.078-0.035a9.707,9.707,0,0,1,.047,1.124v6.7Zm0.691-7.134h1.535v2.9H145.95v-2.9Zm0,3.538h1.535v3.221H145.95v-3.221Zm5.623,3.748a12.6,12.6,0,0,0-1.687-1.909l-0.574.41a10.692,10.692,0,0,1,1.629,1.968Zm6.36-4.627h2.143c0.469,0,.867.012,1.184,0.035-0.024-.293-0.036-0.621-0.036-1.089v-1.453c0-.433.012-0.785,0.036-1.113a10.315,10.315,0,0,1-1.195.047H158.39a10.9,10.9,0,0,1-1.231-.047,12.668,12.668,0,0,1,.047,1.289v7.568a8.757,8.757,0,0,1-.07,1.312H158a8.434,8.434,0,0,1-.07-1.312v-5.237Zm0-3h2.624v0.937h-2.624v-0.937Zm0,1.488h2.624v0.949h-2.624v-0.949Zm8.7-.82a11.07,11.07,0,0,1,.058-1.289,10.875,10.875,0,0,1-1.23.047h-1.933a10.182,10.182,0,0,1-1.2-.047c0.024,0.352.035,0.7,0.035,1.113v1.453c0,0.433-.011.785-0.035,1.089,0.317-.023.691-0.035,1.183-0.035h2.4v5.365c0,0.282-.094.34-0.574,0.34a12.831,12.831,0,0,1-1.289-.117,2.669,2.669,0,0,1,.211.75c0.293,0.023.926,0.047,1.172,0.047,0.949,0,1.195-.2,1.195-0.973v-7.743Zm-3.6-.668h2.882v0.937H163.04v-0.937Zm0,1.488h2.882v0.949H163.04v-0.949Zm1.043,3.538c0-.469.011-0.773,0.035-1.1a10.456,10.456,0,0,1-1.16.046h-2.144a10.562,10.562,0,0,1-1.159-.046c0.023,0.339.035,0.679,0.035,1.1v2.6a7.211,7.211,0,0,1-.059,1.1h0.727v-0.82h2.565c0.48,0,.867.011,1.195,0.035-0.024-.3-0.035-0.621-0.035-1.066V744.3Zm-3.725-.469h3.057v1.043h-3.057v-1.043Zm0,1.628h3.057V746.6h-3.057v-1.137Zm12.556,0.82a3,3,0,0,0,.82,1.16,2.959,2.959,0,0,0,1.968.633,2.876,2.876,0,0,0,2.436-1.09,6.085,6.085,0,0,0,.973-3.737,7.089,7.089,0,0,0-.34-2.436,3.114,3.114,0,0,0-6.01,1.113,2.987,2.987,0,0,0,.8,2.108,3.22,3.22,0,0,0,4.24-.047,2.331,2.331,0,0,0,.469-0.656,13.273,13.273,0,0,1-.1,1.371,4.707,4.707,0,0,1-.5,1.5,2.023,2.023,0,0,1-1.886,1.078,1.909,1.909,0,0,1-1.476-.55,1.866,1.866,0,0,1-.422-0.75Zm2.858-2.26a1.975,1.975,0,0,1-2.085-2.156,2.487,2.487,0,0,1,.3-1.23,2.175,2.175,0,0,1,1.863-1A2.192,2.192,0,1,1,175.772,744.019Zm6.758-2.414h-1.16v1.16h1.16v-1.16Zm0,6.315v-1.16h-1.16v1.16h1.16Zm5.377,0.175a2.864,2.864,0,0,0,2.483-1.23,6.111,6.111,0,0,0,.82-3.385,8.058,8.058,0,0,0-.445-2.718,2.956,2.956,0,0,0-.7-1.078,3.138,3.138,0,0,0-4.768.609,6.853,6.853,0,0,0-.679,3.187,8.093,8.093,0,0,0,.445,2.706A2.937,2.937,0,0,0,187.907,748.1Zm0-8.434a1.979,1.979,0,0,1,1.839,1.066,6.643,6.643,0,0,1,.527,2.729,7.273,7.273,0,0,1-.363,2.367,2.31,2.31,0,0,1-.551.913,1.948,1.948,0,0,1-1.441.551,2,2,0,0,1-1.815-1.019,6.465,6.465,0,0,1-.551-2.788,7.273,7.273,0,0,1,.363-2.367,2.407,2.407,0,0,1,.527-0.855A1.908,1.908,0,0,1,187.907,739.661Zm8.4,8.434a2.862,2.862,0,0,0,2.483-1.23,6.1,6.1,0,0,0,.82-3.385,8.058,8.058,0,0,0-.445-2.718,2.943,2.943,0,0,0-.7-1.078,3.138,3.138,0,0,0-4.768.609,6.853,6.853,0,0,0-.679,3.187,8.093,8.093,0,0,0,.445,2.706A2.937,2.937,0,0,0,196.305,748.1Zm0-8.434a1.979,1.979,0,0,1,1.839,1.066,6.626,6.626,0,0,1,.527,2.729,7.273,7.273,0,0,1-.363,2.367,2.3,2.3,0,0,1-.551.913,1.947,1.947,0,0,1-1.44.551,2,2,0,0,1-1.816-1.019,6.479,6.479,0,0,1-.551-2.788,7.273,7.273,0,0,1,.363-2.367,2.411,2.411,0,0,1,.528-0.855A1.906,1.906,0,0,1,196.305,739.661Zm9.991,4.393a1.257,1.257,0,0,1-1.054.562,3.02,3.02,0,0,1-1.089-.281,4.229,4.229,0,0,0-1.348-.363,1.937,1.937,0,0,0-1.605.82l0.6,0.632a1.262,1.262,0,0,1,1.031-.562,3.158,3.158,0,0,1,1.124.305,4.185,4.185,0,0,0,1.406.351,1.83,1.83,0,0,0,.762-0.187,2.063,2.063,0,0,0,.773-0.645Zm3.514-4.171a7.206,7.206,0,0,1,1.019-.07h0.633V746.6a7.416,7.416,0,0,1-.094,1.324h1.113a7.416,7.416,0,0,1-.094-1.324V740.9a19.291,19.291,0,0,1,.1-1.945,6.644,6.644,0,0,1-.972.058h-0.738a5.66,5.66,0,0,1-.972-0.058v0.925Zm11.549,3.374a2.04,2.04,0,0,0,1.7-2.108c0-1.441-1.1-2.32-2.894-2.32-1.769,0-2.881.9-2.881,2.32a2.041,2.041,0,0,0,1.7,2.108,2.408,2.408,0,0,0-1.054.4,2.175,2.175,0,0,0-1.043,1.945c0,1.617,1.183,2.507,3.327,2.507,2.062,0,3.233-.9,3.233-2.507a2.161,2.161,0,0,0-.878-1.839A2.362,2.362,0,0,0,221.359,743.257Zm-1.2-3.643c1.207,0,1.98.621,1.98,1.605A2.016,2.016,0,1,1,220.164,739.614Zm0,4.088c1.441,0,2.32.691,2.32,1.839a1.534,1.534,0,0,1-.445,1.16,2.641,2.641,0,0,1-1.886.609c-1.453,0-2.308-.656-2.308-1.769C217.845,744.405,218.724,743.7,220.164,743.7Zm6.536-2.1h-1.16v1.16h1.16v-1.16Zm0,6.315v-1.16h-1.16v1.16h1.16Zm5.376,0.175a2.865,2.865,0,0,0,2.484-1.23,6.111,6.111,0,0,0,.82-3.385,8.058,8.058,0,0,0-.445-2.718,2.956,2.956,0,0,0-.7-1.078,3.138,3.138,0,0,0-4.768.609,6.853,6.853,0,0,0-.679,3.187,8.093,8.093,0,0,0,.445,2.706A2.937,2.937,0,0,0,232.076,748.1Zm0-8.434a1.98,1.98,0,0,1,1.84,1.066,6.643,6.643,0,0,1,.527,2.729,7.273,7.273,0,0,1-.363,2.367,2.31,2.31,0,0,1-.551.913,1.948,1.948,0,0,1-1.441.551,2,2,0,0,1-1.816-1.019,6.481,6.481,0,0,1-.55-2.788,7.273,7.273,0,0,1,.363-2.367,2.407,2.407,0,0,1,.527-0.855A1.908,1.908,0,0,1,232.076,739.661Zm8.4,8.434a2.862,2.862,0,0,0,2.483-1.23,6.1,6.1,0,0,0,.82-3.385,8.058,8.058,0,0,0-.445-2.718,2.943,2.943,0,0,0-.7-1.078,3.138,3.138,0,0,0-4.768.609,6.853,6.853,0,0,0-.679,3.187,8.093,8.093,0,0,0,.445,2.706A2.937,2.937,0,0,0,240.475,748.1Zm0-8.434a1.979,1.979,0,0,1,1.839,1.066,6.626,6.626,0,0,1,.527,2.729,7.273,7.273,0,0,1-.363,2.367,2.3,2.3,0,0,1-.551.913,1.948,1.948,0,0,1-1.441.551,2,2,0,0,1-1.815-1.019,6.465,6.465,0,0,1-.551-2.788,7.273,7.273,0,0,1,.363-2.367,2.407,2.407,0,0,1,.527-0.855A1.91,1.91,0,0,1,240.475,739.661Zm15.825,9.278a7.413,7.413,0,0,1-1.781-2.425,7.32,7.32,0,0,1,0-5.951,7.413,7.413,0,0,1,1.781-2.425h-1.043a7.9,7.9,0,0,0-1.628,2.519,7.668,7.668,0,0,0,0,5.763,7.907,7.907,0,0,0,1.628,2.519H256.3Zm6.032-6.853h-2.46a8.6,8.6,0,0,1-1.277-.071v0.856a9.261,9.261,0,0,1,1.277-.059h2.46v4.674H259.04a10.9,10.9,0,0,1-1.394-.07v0.89a10.237,10.237,0,0,1,1.394-.082h7.7a9.417,9.417,0,0,1,1.324.082v-0.89a10.2,10.2,0,0,1-1.324.07h-3.608v-4.674h2.73a9.282,9.282,0,0,1,1.265.059v-0.856a8.319,8.319,0,0,1-1.265.071h-2.73v-2.519a7.993,7.993,0,0,1,.082-1.23h-0.96a8.31,8.31,0,0,1,.082,1.23v2.519Zm10.811,0.246a1.207,1.207,0,1,0,1.206,1.206A1.205,1.205,0,0,0,273.143,742.332Zm6.969,5.131a8.952,8.952,0,0,1-.071,1.241H280.9v-0.761h6.044V748.7H287.8a9.09,9.09,0,0,1-.07-1.253v-7.509a7.35,7.35,0,0,1,.059-1.078,8.474,8.474,0,0,1-1.207.059h-5.271a9.533,9.533,0,0,1-1.254-.059,8.187,8.187,0,0,1,.059,1.148v7.451Zm0.785-7.826h6.044v3.28H280.9v-3.28Zm0,4h6.044v3.6H280.9v-3.6Zm13.33-1.3a1.207,1.207,0,1,0,1.206,1.206A1.205,1.205,0,0,0,294.227,742.332Zm14.2,1.288a0.213,0.213,0,0,0,.223-0.164h1.359V738.9h-5.541v4.557h3.186v4.4c0,0.832.188,1.066,0.984,1.066h1.078c0.714,0,.9-0.445.96-2.1a1.972,1.972,0,0,1-.667-0.316c-0.035,1.488-.094,1.745-0.375,1.745h-0.879c-0.281,0-.328-0.058-0.328-0.4V743.62Zm0.8-3.994v3.1h-4.007v-3.1h4.007Zm-5.588.667-0.129.047h-1.218v-2.015a0.211,0.211,0,0,0,.222-0.164l-1-.058v2.237h-1.793v0.727h3.351a11.037,11.037,0,0,1-3.561,4.228,2.978,2.978,0,0,1,.421.7,11.62,11.62,0,0,0,1.582-1.417V749h0.773v-4.8c0.539,0.445,1.23,1.043,1.534,1.359l0.457-.656c-0.281-.222-1.323-1.007-1.862-1.382a12.159,12.159,0,0,0,1.593-2.8,0.2,0.2,0,0,0,.152-0.117Zm1.921,3.7c-0.14,1.921-.5,3.573-2.249,4.44a2.192,2.192,0,0,1,.5.586c1.909-1.019,2.3-2.812,2.483-4.768a0.243,0.243,0,0,0,.246-0.164Zm7.66,4.8h0.808v-0.773H320v0.7h0.82v-9.864h-7.6V748.8ZM320,743.023h-5.975v-3.362H320v3.362Zm-5.975.773H320v3.432h-5.975V743.8Zm19.4-1.57c-0.937.363-2.179,0.844-3.163,1.289a1.52,1.52,0,0,0-1.452-1.523,3.119,3.119,0,0,0-1.886.761h-0.012a8.534,8.534,0,0,0,.843-1.979,17.66,17.66,0,0,0,4.393-.656l-0.14-.785a16.007,16.007,0,0,1-4.03.679c0.105-.422.211-0.832,0.293-1.3a0.291,0.291,0,0,0,.293-0.211l-1.148-.141a15.228,15.228,0,0,1-.317,1.676l-0.8.011c-0.481,0-1.312,0-2.027-.011V740.8h1.956l0.656-.012a8.219,8.219,0,0,1-2.952,4.323l0.574,0.574c0.5-.457.961-0.914,1.289-1.277a3.942,3.942,0,0,1,2.8-1.652,0.978,0.978,0,0,1,.867,1.1c-1.757.878-3.116,1.874-3.116,2.9,0,1.2,1,1.734,3.245,1.734,1.206,0,2.26-.024,2.952-0.094l-0.012-.785a26.179,26.179,0,0,1-2.94.117c-1.617,0-2.425-.328-2.425-1.007,0-.7,1.077-1.488,2.4-2.132,0.012,0.128.012,0.292,0.012,0.468,0,0.457-.024,1-0.059,1.418l0.855-.047c0.024-.457.036-0.879,0.036-1.254,0-.339-0.012-0.644-0.036-0.913,0.973-.422,2.273-0.9,3.163-1.195a0.3,0.3,0,0,0,.176.07,0.175,0.175,0,0,0,.07-0.023Zm5.165-.925H343.2v-0.6a16.664,16.664,0,0,0,2.706,1.348,3.752,3.752,0,0,1,.469-0.68,13.6,13.6,0,0,1-5.061-3.022,0.273,0.273,0,0,0,.223-0.153l-1.136-.058a12.674,12.674,0,0,1-5.038,3.385,3.149,3.149,0,0,1,.434.621,16.576,16.576,0,0,0,2.788-1.476V741.3Zm0.082-.68a10.975,10.975,0,0,0,2.132-1.78,12.139,12.139,0,0,0,2.261,1.78h-4.393Zm5.025,1.687h-6.712v0.7h6.209c-0.305.562-.7,1.265-1.055,1.828H337.2V749h0.784v-0.48h5.776V749h0.8v-4.158h-1.523c0.469-.75.961-1.594,1.266-2.156a0.7,0.7,0,0,0,.117-0.152l-0.563-.27Zm-5.7,5.506v-2.273h5.776v2.273h-5.776Zm12.815-9.348c0,0.5-.024,1.124-0.071,1.769-0.281.012-2.085,0.023-2.542,0.012V741c0.012,0,1.558.024,2.507-.023l-0.129,1.687a1.066,1.066,0,0,0-.8-0.34,2.006,2.006,0,0,0-1.9,2.2,1.492,1.492,0,0,0,1.406,1.7,1.466,1.466,0,0,0,.55-0.106,2.168,2.168,0,0,0-.222.9c0,1.488,2.108,1.488,3.092,1.488a10.807,10.807,0,0,0,2.683-.269,1.866,1.866,0,0,0,1.57-1.851,4.675,4.675,0,0,0-1.242-2.765,4.3,4.3,0,0,1-.714.317,3.822,3.822,0,0,1,1.077,2.284c0,1.207-1.042,1.535-3.42,1.535-1.266,0-2.238-.106-2.238-0.973a2.7,2.7,0,0,1,.352-1.136,3.147,3.147,0,0,0,.55-1.816,2.249,2.249,0,0,0-.023-0.4c0.058-.574.152-1.5,0.234-2.5a13.832,13.832,0,0,0,2.73-.457l-0.129-.785a13.43,13.43,0,0,1-2.542.48c0.023-.468.058-0.914,0.07-1.359a0.328,0.328,0,0,0,.328-0.246Zm7.368,3.257a10.725,10.725,0,0,0-3.338-.879l-0.176.726a10.256,10.256,0,0,1,3.256.926Zm-8.751,3.807a0.925,0.925,0,0,1-.866-1.078,1.315,1.315,0,0,1,1.241-1.5,0.836,0.836,0,0,1,.762.984C350.555,744.183,350.414,745.53,349.418,745.53Zm20.757-1.687h-1.687q0.071-1.036.141-2.39a2.235,2.235,0,0,0,.035-0.246l-0.433-.058-0.188.023h-6.4c-0.094.808-.234,1.734-0.375,2.671h-1.944v0.726h1.827c-0.211,1.312-.445,2.589-0.644,3.5l0.785,0.047c0.046-.223.093-0.481,0.152-0.75h5.869c-0.2.867-.41,1.031-0.832,1.031-0.258,0-.867-0.012-1.558-0.082a1.527,1.527,0,0,1,.2.644c0.434,0.035.867,0.047,1.218,0.047,0.973,0,1.465-.082,1.781-1.64h1.734v-0.7h-1.628c0.082-.551.152-1.242,0.21-2.1h1.734v-0.726Zm-8.13,0c0.094-.668.2-1.347,0.293-1.968h2.3c-0.047.609-.117,1.288-0.187,1.968h-2.4Zm5.8-1.968c-0.035.726-.082,1.382-0.117,1.968h-2.554c0.07-.68.152-1.347,0.211-1.968h2.46Zm-6.267,4.791c0.117-.644.234-1.371,0.351-2.1h2.425c-0.082.762-.187,1.488-0.281,2.1h-2.5Zm6.091-2.1c-0.058.879-.14,1.558-0.222,2.1H364.81c0.082-.6.176-1.335,0.269-2.1h2.589Zm1.91-5.26H362.49c0.176-.316.34-0.621,0.469-0.913a0.209,0.209,0,0,0,.234-0.153c-0.1-.011-0.222-0.035-1.007-0.14a9.394,9.394,0,0,1-2.577,3.549,2.649,2.649,0,0,1,.644.481,10.56,10.56,0,0,0,1.792-2.1h7.533v-0.727Zm3.372,9.489h0.808v-0.773h5.975v0.7h0.82v-9.864h-7.6V748.8Zm6.783-5.775h-5.975v-3.362h5.975v3.362Zm-5.975.773h5.975v3.432h-5.975V743.8Zm10.507,5.143a7.889,7.889,0,0,0,1.628-2.519,7.655,7.655,0,0,0,0-5.763,7.879,7.879,0,0,0-1.628-2.519h-1.043A7.292,7.292,0,0,1,385,740.563a7.32,7.32,0,0,1,0,5.951,7.292,7.292,0,0,1-1.781,2.425h1.043Z" transform="translate(-120.906 -688.969)"/>
  <path id="_0120-17-1165" data-name="0120-17-1165" class="cls-2" d="M180.518,731.62a8.633,8.633,0,0,0,7.392-3.59c1.43-1.978,2.252-5.263,2.252-9a20.465,20.465,0,0,0-1.187-7.059,8.507,8.507,0,0,0-2.008-3.072,8.834,8.834,0,0,0-6.419-2.465,8.651,8.651,0,0,0-7.758,4.229,17.913,17.913,0,0,0-1.856,8.428,20.36,20.36,0,0,0,1.187,7,8.519,8.519,0,0,0,2.008,3.073A8.766,8.766,0,0,0,180.518,731.62Zm0.03-3.529a4.457,4.457,0,0,1-3.894-1.978c-0.974-1.4-1.552-4.046-1.552-7.24,0-3.317.67-5.811,2.008-7.393a4.091,4.091,0,0,1,3.408-1.552,4.395,4.395,0,0,1,3.316,1.278c1.369,1.491,2.129,4.259,2.129,7.788,0,3.56-.76,6.389-2.129,7.819A4.42,4.42,0,0,1,180.548,728.091Zm21.418,3.042a25.432,25.432,0,0,1-.244-3.955V711.784a45.735,45.735,0,0,1,.244-5.02,22.1,22.1,0,0,1-3.1.152h-2.8a16.926,16.926,0,0,1-3.042-.182V710.6a27.217,27.217,0,0,1,3.134-.182h1.46v16.763a25.318,25.318,0,0,1-.243,3.955h4.594Zm20.322,0c1.947,0,3.164.061,4.594,0.183V727.3a32,32,0,0,1-4.442.243h-8.518a7.329,7.329,0,0,1,1.734-2.738,26.573,26.573,0,0,1,3.62-3.042c3.955-2.708,4.259-2.951,5.111-3.742a6.176,6.176,0,0,0,2.16-4.868c0-4.168-3.285-6.724-8.61-6.724-3.042,0-5.445.944-6.967,2.708a9.136,9.136,0,0,0-2.1,4.868l4.351,0.517a5.786,5.786,0,0,1,.943-2.8,4.3,4.3,0,0,1,3.864-1.795c2.586,0,4.2,1.278,4.2,3.347,0,1.551-.852,2.555-3.651,4.472a41.928,41.928,0,0,0-5.02,3.681,15.026,15.026,0,0,0-4.168,5.963,15.586,15.586,0,0,0-.791,3.894,28.166,28.166,0,0,1,3.925-.152h9.766Zm17.128,0.487a8.636,8.636,0,0,0,7.393-3.59c1.43-1.978,2.251-5.263,2.251-9a20.465,20.465,0,0,0-1.186-7.059,8.533,8.533,0,0,0-2.008-3.072,8.838,8.838,0,0,0-6.42-2.465,8.651,8.651,0,0,0-7.758,4.229,17.925,17.925,0,0,0-1.856,8.428,20.36,20.36,0,0,0,1.187,7,8.519,8.519,0,0,0,2.008,3.073A8.766,8.766,0,0,0,239.416,731.62Zm0.03-3.529a4.457,4.457,0,0,1-3.894-1.978c-0.973-1.4-1.552-4.046-1.552-7.24,0-3.317.67-5.811,2.008-7.393a4.094,4.094,0,0,1,3.408-1.552,4.395,4.395,0,0,1,3.316,1.278c1.369,1.491,2.13,4.259,2.13,7.788,0,3.56-.761,6.389-2.13,7.819A4.42,4.42,0,0,1,239.446,728.091Zm14.907-4.168a16.754,16.754,0,0,1,2.86-.183h4.716a16.7,16.7,0,0,1,2.89.183v-4.046a19.312,19.312,0,0,1-2.89.182h-4.716a19.161,19.161,0,0,1-2.86-.182v4.046Zm21.479,7.21a25.432,25.432,0,0,1-.244-3.955V711.784a45.735,45.735,0,0,1,.244-5.02,22.1,22.1,0,0,1-3.1.152h-2.8a16.926,16.926,0,0,1-3.042-.182V710.6a27.217,27.217,0,0,1,3.134-.182h1.46v16.763a25.318,25.318,0,0,1-.243,3.955h4.594Zm23.547-24.369a33.553,33.553,0,0,1-4.168.152h-9.675a33.632,33.632,0,0,1-4.168-.213v4.016a29.083,29.083,0,0,1,3.986-.213h9.4a50.29,50.29,0,0,0-5.325,8.853,45.5,45.5,0,0,0-3.681,11.774h4.807a39.194,39.194,0,0,1,5.659-16.459,20.69,20.69,0,0,1,3.164-4.381v-3.529Zm0.486,17.159a16.754,16.754,0,0,1,2.86-.183h4.716a16.7,16.7,0,0,1,2.89.183v-4.046a19.312,19.312,0,0,1-2.89.182h-4.716a19.161,19.161,0,0,1-2.86-.182v4.046Zm22.7,7.21a25.432,25.432,0,0,1-.244-3.955V711.784a45.735,45.735,0,0,1,.244-5.02,22.1,22.1,0,0,1-3.1.152h-2.8a16.919,16.919,0,0,1-3.042-.182V710.6a27.217,27.217,0,0,1,3.134-.182h1.46v16.763a25.318,25.318,0,0,1-.243,3.955h4.594Zm16.184,0a25.566,25.566,0,0,1-.243-3.955V711.784a45.984,45.984,0,0,1,.243-5.02,22.073,22.073,0,0,1-3.1.152h-2.8a16.919,16.919,0,0,1-3.042-.182V710.6a27.213,27.213,0,0,1,3.133-.182H334.4v16.763a25.185,25.185,0,0,1-.244,3.955h4.594Zm24.7-19.258a8.788,8.788,0,0,0-1.917-3.1,8.38,8.38,0,0,0-6.237-2.312,8.64,8.64,0,0,0-7.423,3.62c-1.552,2.069-2.5,5.659-2.5,9.4,0,4.594,1.278,8.245,3.529,10.192a9.582,9.582,0,0,0,6.176,2.008c5.172,0,8.823-3.408,8.823-8.214a8.744,8.744,0,0,0-1.095-4.564,7.912,7.912,0,0,0-7.058-3.62c-3.073,0-4.868.821-6.511,3.042a13.386,13.386,0,0,1,1.247-5.385,5.057,5.057,0,0,1,4.777-3.164c2.16,0,3.285.852,4.076,3.073Zm-8.4,6.724c3.012,0,4.807,1.764,4.807,4.776a5.2,5.2,0,0,1-.7,2.769,5.15,5.15,0,0,1-9.31-2.677A4.91,4.91,0,0,1,355.052,718.6Zm12.747,7.119a8.463,8.463,0,0,0,8.853,5.963c5.659,0,9.157-3.316,9.157-8.671a7.475,7.475,0,0,0-2.16-5.719,7.814,7.814,0,0,0-5.932-2.282,7.484,7.484,0,0,0-5.2,1.856c0.092-.609.152-1.035,0.183-1.278l0.487-5.324h7.149a29.279,29.279,0,0,1,4.2.243v-3.833a23.176,23.176,0,0,1-4.229.243h-7.484c-1.613,0-2.313-.03-3.225-0.091-0.031,1.521-.092,2.555-0.122,3.1l-0.7,7.545c-0.061.852-.091,1-0.395,3.164l3.8,0.365a3.481,3.481,0,0,1,.912-1.369,5.347,5.347,0,0,1,3.773-1.4,4.536,4.536,0,0,1,4.776,4.9,4.718,4.718,0,0,1-4.989,5.02,4.606,4.606,0,0,1-3.742-1.552,4.168,4.168,0,0,1-.913-1.764Z" transform="translate(-120.906 -688.969)"/>
  <path id="いーな_いい_ろう_ご" data-name="いーな     いい ろう ご" class="cls-2" d="M267.569,690.183c0.023,0.226.023,0.273,0.035,0.713a18.788,18.788,0,0,0,.63,5.618c0.4,1.2,1.069,1.912,1.793,1.912,0.9,0,1.461-.819,2.067-2.981a4.112,4.112,0,0,1-.832-0.8,8.635,8.635,0,0,1-.617,2.067,0.761,0.761,0,0,1-.57.57c-0.428,0-.879-0.8-1.129-2.019a20.832,20.832,0,0,1-.285-3.575,9.953,9.953,0,0,1,.083-1.5Zm6.009,1.046a10.653,10.653,0,0,1,2.459,6l1.021-.4a11.23,11.23,0,0,0-2.613-6.022Zm5.091,3.491a13.107,13.107,0,0,1,1.651-.059h6.651a14.028,14.028,0,0,1,1.616.059v-1.175a9.786,9.786,0,0,1-1.6.071h-6.675a13.074,13.074,0,0,1-1.639-.071v1.175Zm14.5-5.748a12.915,12.915,0,0,1-.392,2.185c-0.19.012-.5,0.012-0.819,0.012a7.811,7.811,0,0,1-1.437-.1v0.974h0.416c0.356,0.012.451,0.012,0.736,0.012,0.5,0,.546,0,0.855-0.012a16.216,16.216,0,0,1-2.34,4.858l0.962,0.558c0.06-.107.131-0.237,0.238-0.416,0.451-.795.558-1,0.843-1.567a22.3,22.3,0,0,0,1.307-3.469,18.61,18.61,0,0,0,1.936-.237,3.529,3.529,0,0,1,.4-0.06l-0.035-.985a10.043,10.043,0,0,1-2.055.368c0.143-.558.214-0.82,0.3-1.223a5.746,5.746,0,0,1,.178-0.761Zm7.162,3.23a16,16,0,0,0-3.195-1.579l-0.51.807a13.209,13.209,0,0,1,3.218,1.628Zm0.012,5.286c-0.071-.06-0.071-0.06-0.178-0.143a3.316,3.316,0,0,0-.332-0.285,8.062,8.062,0,0,0-2.02-1.187,14.83,14.83,0,0,1-.13-1.746,3.442,3.442,0,0,1,.166-1.141l-0.974-.083a5.082,5.082,0,0,0-.119,1.105c0,0.392.036,1.033,0.083,1.615a4.592,4.592,0,0,0-1.2-.154c-1.461,0-2.482.772-2.482,1.876a1.623,1.623,0,0,0,1.14,1.556,3.831,3.831,0,0,0,1.294.214,2.359,2.359,0,0,0,1.877-.713,2.057,2.057,0,0,0,.392-1.223,1.627,1.627,0,0,0-.024-0.309,6.864,6.864,0,0,1,2.007,1.568Zm-3.456-.95a3.319,3.319,0,0,1,.036.475,1.147,1.147,0,0,1-1.39,1.211c-0.891,0-1.425-.344-1.425-0.914,0-.606.594-1,1.532-1A3.372,3.372,0,0,1,296.884,696.538Zm18.471-6.355c0.023,0.226.023,0.273,0.035,0.713a18.788,18.788,0,0,0,.63,5.618c0.4,1.2,1.069,1.912,1.793,1.912,0.9,0,1.461-.819,2.067-2.981a4.112,4.112,0,0,1-.832-0.8,8.635,8.635,0,0,1-.617,2.067,0.759,0.759,0,0,1-.57.57c-0.428,0-.879-0.8-1.129-2.019a20.832,20.832,0,0,1-.285-3.575,9.953,9.953,0,0,1,.083-1.5Zm6.009,1.046a10.653,10.653,0,0,1,2.459,6l1.022-.4a11.245,11.245,0,0,0-2.613-6.022Zm7.525-1.046a7.09,7.09,0,0,1,.036.713,18.763,18.763,0,0,0,.629,5.618c0.4,1.2,1.069,1.912,1.794,1.912,0.9,0,1.461-.819,2.066-2.981a4.132,4.132,0,0,1-.831-0.8,8.634,8.634,0,0,1-.618,2.067,0.759,0.759,0,0,1-.57.57c-0.427,0-.879-0.8-1.128-2.019a20.832,20.832,0,0,1-.285-3.575,9.953,9.953,0,0,1,.083-1.5Zm6.01,1.046a10.653,10.653,0,0,1,2.459,6l1.021-.4a11.23,11.23,0,0,0-2.613-6.022Zm14.34-.392a6.276,6.276,0,0,1,.891-0.072,28.86,28.86,0,0,0,3.408-.225l0.012,0.012c-0.035.035-.154,0.154-0.213,0.225-0.832.9-2.53,2.518-3.825,3.623a10.471,10.471,0,0,1-1.544,1.152l0.677,0.891a5.664,5.664,0,0,1,.95-0.761,6.912,6.912,0,0,1,3.753-1.27c1.414,0,2.281.593,2.281,1.567,0,1.176-1.223,1.972-3.017,1.972a7.118,7.118,0,0,1-3.029-.7,4.584,4.584,0,0,1,.107.891v0.238a8.818,8.818,0,0,0,2.839.522,6.1,6.1,0,0,0,2.577-.511,2.68,2.68,0,0,0,1.592-2.422c0-1.473-1.212-2.4-3.124-2.4a4.98,4.98,0,0,0-2.791.832l-0.036-.036a15.983,15.983,0,0,0,2.114-1.793l1.331-1.319c0.38-.368.582-0.558,0.594-0.582a2.009,2.009,0,0,1,.332-0.261l-0.57-.808a1.3,1.3,0,0,1-.534.119c-0.772.083-2.316,0.155-3.326,0.155a7.278,7.278,0,0,1-1.5-.084Zm13.535-.642a23.5,23.5,0,0,0,5.154.772l0.155-1.021a18.023,18.023,0,0,1-3.29-.3,8.79,8.79,0,0,1-1.675-.428Zm-1.176,3.884a16.721,16.721,0,0,1,4.668-.8c1.318,0,2.042.535,2.042,1.509a2.78,2.78,0,0,1-1.579,2.363,7.972,7.972,0,0,1-3.421.95,3.157,3.157,0,0,1,.451,1.034,9.683,9.683,0,0,0,3.54-1.105,3.851,3.851,0,0,0,2.1-3.3,2.213,2.213,0,0,0-1.057-1.948,4.049,4.049,0,0,0-2.078-.463,19.857,19.857,0,0,0-3.682.428,10.109,10.109,0,0,1-1.247.2Zm20.435-2.352a7.469,7.469,0,0,1,1.128,1.544l0.654-.38a7.367,7.367,0,0,0-1.141-1.52Zm-1.14.642a6.814,6.814,0,0,1,1.128,1.568l0.665-.381a7.368,7.368,0,0,0-1.14-1.555Zm-5.321-1.354c0.154,0.012.19,0.012,0.4,0.035a21.18,21.18,0,0,0,2.506.155,11.5,11.5,0,0,0,1.769-.131c-0.118.059-.142,0.071-0.225,0.119l-0.309.166c-0.475.273-.689,0.4-1.461,0.915l0.725,0.582a17.614,17.614,0,0,1,3.04-1.853l-0.059-.95a19.2,19.2,0,0,1-6.307-.048Zm7.079,6.045a11.185,11.185,0,0,1-3.587.475,7.816,7.816,0,0,1-2.15-.225,1.155,1.155,0,0,1-.974-1.093,2.375,2.375,0,0,1,1.116-1.71l-0.724-.547a3.188,3.188,0,0,0-1.413,2.376,1.919,1.919,0,0,0,1.4,1.841,8.131,8.131,0,0,0,2.815.38,20.5,20.5,0,0,0,3.195-.273,3.587,3.587,0,0,1,.428-0.06Z" transform="translate(-120.906 -688.969)"/>
</svg>
