<svg id="img_docment02.svg" xmlns="http://www.w3.org/2000/svg" width="100.375" height="24" viewBox="0 0 100.375 24">
  <defs>
    <style>
      .cls-1 {
        fill: #fff;
        fill-rule: evenodd;
      }
    </style>
  </defs>
  <path id="資料請求" class="cls-1" d="M200.164,11215.4c-0.4,1.6-1.791,2.5-4.159,2.7a2.778,2.778,0,0,1,.624.9,5.72,5.72,0,0,0,2.463-.8,3.973,3.973,0,0,0,1.744-1.7c0.992,1.6,2.416,2.4,5.215,3a3.8,3.8,0,0,1,.56-1.1,9.419,9.419,0,0,1-3.423-1,3.518,3.518,0,0,1-1.776-2h3.071a4.547,4.547,0,0,1-1.327,1.1c0.415,0.2.7,0.3,1.055,0.5a6.048,6.048,0,0,0,1.456-1.5c0.176-.3.176-0.3,0.224-0.3a2.032,2.032,0,0,0,.176-0.3l-0.72-.5h-6.4a6.494,6.494,0,0,0,.7-1l-1.184-.3a6.617,6.617,0,0,1-2.527,2.9,3.166,3.166,0,0,1,.816.8,10.754,10.754,0,0,0,1.5-1.4h1.9Zm-4.159-.4a18.635,18.635,0,0,0-2.591-1.5l-0.752.9a9.417,9.417,0,0,1,2.591,1.6Zm0.176,1.6a18.146,18.146,0,0,1-4.015,1.4l0.448,1.2c0.288-.1.416-0.2,0.72-0.3,1.455-.6,1.967-0.8,3.167-1.3Zm0.448,8.8a10.2,10.2,0,0,1-4.607,1.3,3.546,3.546,0,0,1,.7,1.1,11.888,11.888,0,0,0,4.847-1.8Zm4.095,0.6a12.464,12.464,0,0,0,4.991,1.8,8.434,8.434,0,0,1,.7-1.1,11.191,11.191,0,0,1-4.8-1.3Zm-5.023-6.9h-1.648c0.032,0.5.048,1,.048,1.7v2.9a13.765,13.765,0,0,1-.064,1.7,8.4,8.4,0,0,1,1.76-.1h6.8a8.391,8.391,0,0,1,1.759.1,13.765,13.765,0,0,1-.064-1.7v-2.8c0-.8.016-1.3,0.048-1.8H195.7Zm-0.432.9h7.855v0.9h-7.855v-0.9Zm0,1.8h7.855v0.8h-7.855v-0.8Zm0,1.7h7.855v0.9h-7.855v-0.9Zm24.415-1-4.207.9a5.179,5.179,0,0,1-1.552.3l0.256,1.3c0.384-.1.848-0.2,1.5-0.4l4-.9v2.2a13.033,13.033,0,0,1-.1,1.9H221a11.146,11.146,0,0,1-.1-1.8v-2.6l0.3-.1c0.608-.1,1.135-0.2,1.535-0.3l-0.24-1.3a7.287,7.287,0,0,1-1.471.5H220.9v-7.3a9.835,9.835,0,0,1,.1-1.7h-1.408a12.382,12.382,0,0,1,.1,1.8v7.5Zm-8.894-2.8a16.148,16.148,0,0,1-.88,2.1,10.342,10.342,0,0,1-1.856,2.6,2.616,2.616,0,0,1,.656,1.1,12.386,12.386,0,0,0,2.384-4.4c-0.048.8-.08,1.6-0.08,2.4v2.5a13.367,13.367,0,0,1-.1,1.8h1.343a13.081,13.081,0,0,1-.08-1.7v-2.9c0-.4-0.063-1.6-0.095-2.2a11.091,11.091,0,0,0,1.775,2.5,5.576,5.576,0,0,1,.608-1,8.8,8.8,0,0,1-2.208-2.8h0.784a4.383,4.383,0,0,1,1.216.1v-1.2c-0.336,0-.64.1-1.2,0.1h-0.88v-3.8a11.33,11.33,0,0,1,.08-1.7h-1.343a10.856,10.856,0,0,1,.1,1.7v3.8h-1.232c-0.72,0-1.072-.1-1.392-0.1v1.2a5.3,5.3,0,0,1,1.408-.1h0.992Zm-2.384-5.1a15.543,15.543,0,0,1,1.04,3.4l0.976-.4a21.055,21.055,0,0,0-1.04-3.4Zm5.263-.5a12.837,12.837,0,0,1-1.152,3.5l0.88,0.4a15.99,15.99,0,0,0,1.3-3.4Zm1.584,1.1a15.2,15.2,0,0,1,2.879,2.6l0.784-1a16.179,16.179,0,0,0-2.863-2.4Zm-0.5,4a13.4,13.4,0,0,1,2.879,2.5l0.784-.9a14.916,14.916,0,0,0-2.847-2.4Zm18.528-3.9v1h-2.959v1a6.164,6.164,0,0,1,1.423-.1h1.536v1h-3.711v1.1a7.48,7.48,0,0,1,1.631-.1h5.759a7.165,7.165,0,0,1,1.584.1v-1.1h-4.175v-1h1.791a6.113,6.113,0,0,1,1.456.1v-1h-3.247v-1h2.3a6.492,6.492,0,0,1,1.536.1v-1.1c-0.464,0-.752.1-1.536,0.1h-2.3a5.937,5.937,0,0,1,.1-1.3h-1.28a5.422,5.422,0,0,1,.1,1.3H231.4c-0.735,0-1.023-.1-1.487-0.1v1.1a6.052,6.052,0,0,1,1.487-.1h1.888Zm-1.84,9.7h4.831v1.1c0,0.3-.112.4-0.543,0.4a10.785,10.785,0,0,1-1.728-.1,3.658,3.658,0,0,1,.3,1.1,7.386,7.386,0,0,0,1.408.1c1.343,0,1.679-.3,1.679-1.3v-4.6a14.851,14.851,0,0,1,.064-1.7,5.517,5.517,0,0,1-1.472.1h-4.271a6.025,6.025,0,0,1-1.423-.1c0.032,0.5.048,0.7,0.048,1.4v4.6a11.33,11.33,0,0,1-.08,1.7h1.279a10.856,10.856,0,0,1-.1-1.7v-1Zm0-.9v-1.1h4.831v1.1h-4.831Zm0-2v-1.1h4.831v1.1h-4.831Zm-6.894-7.3a4.263,4.263,0,0,1,1.2-.1h2.127a4.5,4.5,0,0,1,1.2.1v-1.2a4.263,4.263,0,0,1-1.2.1h-2.127a4.149,4.149,0,0,1-1.2-.1v1.2Zm-0.56,2.3a4.882,4.882,0,0,1,1.28-.1h4.111v-1.1h-5.391v1.2Zm0.608,2.2a3.162,3.162,0,0,1,1.072-.1h2.3a3.2,3.2,0,0,1,1.04.1v-1.1H224.6v1.1Zm0,2.2c0.32,0,.56-0.1,1.056-0.1h2.3c0.512,0,.736.1,1.056,0.1v-1.1H224.6v1.1Zm1.2,6.1v-0.8h2.143v0.6h1.136a9.659,9.659,0,0,1-.064-1.3v-2.3a10.564,10.564,0,0,1,.048-1.2c-0.272,0-.56.1-1.136,0.1h-2c-0.575,0-.911-0.1-1.295-0.1a9.659,9.659,0,0,1,.064,1.3v2.2c0,0.5-.032,1-0.08,1.5H225.8Zm0-3.9h2.143v2.1H225.8v-2.1Zm20.767-6.5v8.8c0,0.4-.128.4-0.72,0.4a8.148,8.148,0,0,1-2.095-.2,4.262,4.262,0,0,1,.3,1.3,14.627,14.627,0,0,0,1.967.1c1.36,0,1.744-.3,1.744-1.3v-4.3c-0.032-1.2-.048-1.9-0.064-2.1,0-.1-0.016-0.3-0.016-0.5a12.472,12.472,0,0,0,1.983,3.7,15.355,15.355,0,0,0,3.84,3.4,8.644,8.644,0,0,1,.864-1.1,14.135,14.135,0,0,1-2.752-1.9,15.339,15.339,0,0,1-1.6-1.8,24.51,24.51,0,0,0,2.144-2,9.288,9.288,0,0,1,.96-1l-1.072-.8a11.491,11.491,0,0,1-2.671,2.9,12.4,12.4,0,0,1-1.568-3.6h4.607a7.976,7.976,0,0,1,1.7.1v-1.3a8.214,8.214,0,0,1-1.7.1h-4.655v-1.1a14.443,14.443,0,0,1,.1-1.8H246.47a13.367,13.367,0,0,1,.1,1.8v1.1h-4.591a8.055,8.055,0,0,1-1.7-.1v1.3a8.037,8.037,0,0,1,1.648-.1h4.639Zm2.448-3.1a7.036,7.036,0,0,1,2.319,1.9l0.88-.8a14.79,14.79,0,0,0-2.368-1.9Zm-7.3,4.6a10.916,10.916,0,0,1,2.16,2.8l1.023-.8a18.9,18.9,0,0,0-2.223-2.8Zm4.079,2.9a14.925,14.925,0,0,1-3.055,2,9.378,9.378,0,0,1-2.384,1.1l0.624,1.3a7.291,7.291,0,0,1,.816-0.5,37.57,37.57,0,0,0,4.383-2.7Z" transform="translate(-154 -11210)"/>
  <path id="シェイプ_558" data-name="シェイプ 558" class="cls-1" d="M169.614,11219.7a0.441,0.441,0,0,0-.449.4,0.451,0.451,0,1,0,.9,0A0.441,0.441,0,0,0,169.614,11219.7Zm0,3.2a0.462,0.462,0,0,0-.449.5,0.451,0.451,0,1,0,.9,0A0.462,0.462,0,0,0,169.614,11222.9Zm-10.867-6.5a0.441,0.441,0,0,0-.448.4,0.451,0.451,0,1,0,.9,0A0.441,0.441,0,0,0,158.747,11216.4Zm0,3.3a0.441,0.441,0,0,0-.448.4,0.451,0.451,0,1,0,.9,0A0.441,0.441,0,0,0,158.747,11219.7Zm0,3.2a0.462,0.462,0,0,0-.448.5,0.451,0.451,0,1,0,.9,0A0.462,0.462,0,0,0,158.747,11222.9Zm21.733-10.7H178.9v-1.7a0.5,0.5,0,0,0-.527-0.5h-8.756a2.518,2.518,0,0,0-2.11,1.1,2.519,2.519,0,0,0-2.11-1.1h-8.757a0.5,0.5,0,0,0-.527.5v1.7h-1.583a0.5,0.5,0,0,0-.527.5v18.6a0.5,0.5,0,0,0,.527.5h9.563a1.673,1.673,0,0,1,1.415.9,2.186,2.186,0,0,0,4,0,1.674,1.674,0,0,1,1.416-.9h9.562a0.5,0.5,0,0,0,.527-0.5v-18.6A0.5,0.5,0,0,0,180.48,11212.2Zm-12.528.5a1.707,1.707,0,0,1,1.662-1.7h8.308v17.6h-8.308a2.267,2.267,0,0,0-1.535.6l-0.127.1v-16.6Zm-2.558-1.6a1.582,1.582,0,0,1,1.582,1.6v16.4a2.31,2.31,0,0,0-1.582-.6h-8.229v-17.4h8.229Zm14.558,19.6h-9.034a2.662,2.662,0,0,0-2.36,1.5,1.144,1.144,0,0,1-2.109,0,2.662,2.662,0,0,0-2.359-1.5h-9.035v-17.4h1.055v15.8a0.5,0.5,0,0,0,.527.5h8.757a1.671,1.671,0,0,1,1.582,1.7,0.528,0.528,0,0,0,1.055,0,1.671,1.671,0,0,1,1.583-1.7h8.756a0.5,0.5,0,0,0,.527-0.5v-15.8h1.055v17.4Zm-14.558-14.3h-4.537a0.441,0.441,0,0,0-.448.4,0.462,0.462,0,0,0,.448.5h4.537a0.462,0.462,0,0,0,.448-0.5A0.441,0.441,0,0,0,165.394,11216.4Zm0,3.3h-4.537a0.441,0.441,0,0,0-.448.4,0.462,0.462,0,0,0,.448.5h4.537a0.462,0.462,0,0,0,.448-0.5A0.441,0.441,0,0,0,165.394,11219.7Zm0,3.2h-4.537a0.462,0.462,0,0,0-.448.5,0.533,0.533,0,0,0,.448.5h4.537a0.533,0.533,0,0,0,.448-0.5A0.462,0.462,0,0,0,165.394,11222.9Zm10.866-3.2h-4.536a0.441,0.441,0,0,0-.449.4,0.462,0.462,0,0,0,.449.5h4.536a0.462,0.462,0,0,0,.448-0.5A0.441,0.441,0,0,0,176.26,11219.7Zm0,3.2h-4.536a0.462,0.462,0,0,0-.449.5,0.533,0.533,0,0,0,.449.5h4.536a0.533,0.533,0,0,0,.448-0.5A0.462,0.462,0,0,0,176.26,11222.9Zm-6.646-6.6a0.462,0.462,0,0,0-.449.5,0.451,0.451,0,0,0,.9,0A0.462,0.462,0,0,0,169.614,11216.3Zm6.646,0h-4.536a0.462,0.462,0,0,0-.449.5,0.441,0.441,0,0,0,.449.4h4.536a0.441,0.441,0,0,0,.448-0.4A0.462,0.462,0,0,0,176.26,11216.3Z" transform="translate(-154 -11210)"/>
</svg>
