<?xml version="1.0" encoding="utf-8"?>
<!-- Generator: Adobe Illustrator 26.0.1, SVG Export Plug-In . SVG Version: 6.00 Build 0)  -->
<svg version="1.1" id="kaigo_common_tel-header01_fixed.svg"
	 xmlns="http://www.w3.org/2000/svg" xmlns:xlink="http://www.w3.org/1999/xlink" x="0px" y="0px" viewBox="0 0 182.2 32.5"
	 style="enable-background:new 0 0 182.2 32.5;" xml:space="preserve">
<style type="text/css">
	.st0{fill-rule:evenodd;clip-rule:evenodd;}
</style>
<path id="_0120-17-1165" class="st0" d="M38.8,18.7c1.9,0.1,3.7-0.8,4.7-2.3c1.1-2,1.7-4.2,1.6-6.5c0-1.8-0.3-3.5-0.8-5.2
	c-0.3-0.8-0.7-1.5-1.3-2.1c-2.4-2.2-6.2-2.1-8.5,0.3c-0.2,0.3-0.4,0.5-0.6,0.8c-0.9,1.9-1.4,4-1.3,6.1c0,1.8,0.3,3.5,0.8,5.2
	C34.2,17.3,36.4,18.7,38.8,18.7z M38.8,2.6c1.5-0.1,2.8,0.7,3.5,2c0.7,1.6,1,3.4,1,5.2c0,1.5-0.2,3.1-0.7,4.5
	c-0.2,0.7-0.6,1.3-1.1,1.7c-0.7,0.7-1.7,1.1-2.7,1c-1.4,0.1-2.8-0.7-3.5-1.9c-0.7-1.7-1.1-3.5-1.1-5.3c0-1.5,0.2-3.1,0.7-4.5
	c0.2-0.6,0.6-1.2,1-1.6C36.7,2.9,37.7,2.5,38.8,2.6L38.8,2.6z M47.9,3c0.6-0.1,1.3-0.1,1.9-0.1h1.2v12.9c0,0.8,0,1.7-0.2,2.5H53
	c-0.1-0.8-0.2-1.7-0.2-2.5V4.9c0-1.2,0.1-2.5,0.2-3.7c-0.6,0.1-1.2,0.1-1.9,0.1h-1.4c-0.6,0-1.2,0-1.9-0.1L47.9,3L47.9,3z
	 M67.8,18.3c0.9,0,1.8,0,2.7,0.1v-1.9c-0.9,0.1-1.8,0.2-2.7,0.2h-7.1c0.2-1,0.7-1.8,1.3-2.6c0.9-1.1,2-2,3.2-2.7
	c2.5-1.7,3.1-2.1,3.8-2.9c0.8-0.9,1.3-2,1.3-3.2c0-2.6-2.2-4.3-5.5-4.3c-1.7-0.1-3.3,0.5-4.5,1.7c-0.8,0.9-1.3,2-1.4,3.2l1.9,0.3
	c0.1-0.8,0.3-1.6,0.8-2.3c0.8-1,2-1.6,3.2-1.5c2.3,0,3.7,1.1,3.7,2.8c0,1.4-0.7,2.3-2.9,3.8c-1.2,0.7-2.3,1.6-3.4,2.5
	c-1.3,1-2.3,2.3-2.9,3.8c-0.4,0.9-0.6,1.9-0.6,2.9c0.8-0.1,1.6-0.1,2.5-0.1L67.8,18.3L67.8,18.3z M79.7,18.7
	c1.9,0.1,3.7-0.8,4.7-2.3c1.1-2,1.7-4.2,1.6-6.5c0-1.8-0.3-3.5-0.8-5.2c-0.3-0.8-0.7-1.5-1.3-2.1c-2.4-2.2-6.2-2.1-8.5,0.3
	c-0.2,0.3-0.4,0.5-0.6,0.8c-0.9,1.9-1.4,4-1.3,6.1c0,1.8,0.3,3.5,0.9,5.2C75.1,17.3,77.3,18.7,79.7,18.7L79.7,18.7z M79.7,2.6
	c1.5-0.1,2.8,0.7,3.5,2c0.7,1.6,1,3.4,1,5.2c0,1.5-0.2,3.1-0.7,4.5c-0.2,0.7-0.6,1.3-1.1,1.7c-0.7,0.7-1.7,1.1-2.7,1
	c-1.4,0.1-2.8-0.7-3.5-1.9c-0.7-1.7-1.1-3.5-1.1-5.3c0-1.5,0.2-3.1,0.7-4.5c0.2-0.6,0.6-1.2,1-1.6C77.6,2.9,78.6,2.5,79.7,2.6
	L79.7,2.6z M90.3,12.8c0.7-0.1,1.4-0.1,2-0.1H95c0.7,0,1.4,0,2.1,0.1v-1.9C96.4,11,95.7,11,95,11h-2.7c-0.7,0-1.4,0-2-0.1L90.3,12.8
	L90.3,12.8z M99.1,3c0.6-0.1,1.3-0.1,1.9-0.1h1.2v12.9c0,0.8,0,1.7-0.2,2.5h2.1c-0.1-0.8-0.2-1.7-0.2-2.5V4.9c0-1.2,0.1-2.5,0.2-3.7
	c-0.6,0.1-1.2,0.1-1.9,0.1h-1.4c-0.6,0-1.2,0-1.9-0.1L99.1,3L99.1,3z M120.7,1.2c-0.9,0.1-1.7,0.1-2.6,0.1h-6.7
	c-0.9,0-1.7,0-2.5-0.2v1.9c0.8-0.1,1.7-0.2,2.5-0.2h7.3c-1.6,2-2.9,4.2-4,6.5c-1.4,2.8-2.3,5.8-2.7,8.9h2.1c0.5-4.8,2.2-9.4,5-13.3
	c0.4-0.8,1-1.5,1.7-2.1L120.7,1.2L120.7,1.2z M121.4,12.8c0.7-0.1,1.4-0.1,2-0.1h2.7c0.7,0,1.4,0,2.1,0.1v-1.9
	c-0.7,0.1-1.4,0.1-2.1,0.1h-2.7c-0.7,0-1.4,0-2-0.1V12.8L121.4,12.8z M132.4,3c0.6-0.1,1.3-0.1,1.9-0.1h1.2v12.9
	c0,0.8,0,1.7-0.2,2.5h2.1c-0.1-0.8-0.2-1.7-0.2-2.5V4.9c0-1.2,0.1-2.5,0.2-3.7c-0.6,0.1-1.2,0.1-1.9,0.1h-1.4c-0.6,0-1.2,0-1.9-0.1
	L132.4,3L132.4,3z M144,3c0.6-0.1,1.3-0.1,1.9-0.1h1.2v12.9c0,0.8,0,1.7-0.2,2.5h2.1c-0.1-0.8-0.2-1.7-0.2-2.5V4.9
	c0-1.2,0.1-2.5,0.2-3.7c-0.6,0.1-1.2,0.1-1.9,0.1h-1.4c-0.6,0-1.2,0-1.9-0.1L144,3L144,3z M167.2,4.5c-0.4-1-1-1.9-1.9-2.5
	c-1-0.7-2.2-1-3.4-0.9c-1.9,0-3.7,0.9-4.7,2.4c-1.2,2-1.8,4.4-1.7,6.7c0,3.2,0.8,5.7,2.3,7c1.1,1,2.6,1.5,4,1.4c3,0.2,5.6-2,5.8-5
	c0-0.2,0-0.5,0-0.7c0-3.4-2.1-5.6-5.6-5.6c-1.4-0.1-2.7,0.4-3.8,1.4c-0.5,0.4-0.8,0.9-1.1,1.4c0-1.6,0.3-3.3,0.9-4.8
	c0.6-1.7,2.1-2.8,3.9-2.8c1,0,2,0.4,2.7,1.1c0.3,0.4,0.6,0.9,0.8,1.4L167.2,4.5z M165.9,12.9c0,0.8-0.2,1.6-0.6,2.4
	c-1.3,1.9-4,2.4-5.9,1c-1.1-0.8-1.8-2.1-1.8-3.4c0-1.1,0.4-2.1,1.1-2.8c0.8-0.8,1.9-1.3,3.1-1.3C164.4,8.8,165.9,10.3,165.9,12.9
	L165.9,12.9z M172.8,2.9h5.3c0.9,0,1.7,0,2.6,0.2V1.2c-0.9,0.1-1.7,0.2-2.6,0.2h-4.6c-0.8,0-1.6,0-2.4-0.1c0,0.3,0,0.6,0,1
	c0,0.4,0,0.7-0.1,1.3l-0.5,5c-0.1,0.8-0.2,1.5-0.3,2.3l1.7,0.2c0.2-0.5,0.6-1,1-1.3c0.8-0.6,1.9-1,2.9-0.9c2.1-0.1,3.8,1.5,3.9,3.6
	c0,0.2,0,0.3,0,0.5c0.2,2.2-1.5,4.1-3.7,4.3c-0.2,0-0.3,0-0.5,0c-1.2,0-2.4-0.4-3.2-1.3c-0.3-0.4-0.6-0.8-0.7-1.3l-1.8,0.5
	c0.3,0.8,0.8,1.5,1.4,2.1c1.2,1,2.7,1.6,4.3,1.5c3.7,0,6-2.3,6-5.9c0.1-1.5-0.5-2.9-1.5-3.9c-1.1-1-2.5-1.6-4-1.5
	c-1.5,0-2.9,0.5-3.9,1.5c0.1-0.3,0.1-0.7,0.2-1L172.8,2.9z"/>
<g>
	<path d="M36.2,23l0-0.2l-0.2,0c-0.3,0-0.5,0.1-0.8,0h-0.6c-0.3,0-0.5,0-0.8,0l-0.1,0v1.1l0.1,0c0.3,0,0.6,0,0.9-0.1H35v5.7
		c0,0.4,0,0.7-0.1,1.1l0,0.1h1.2l0-0.1c-0.1-0.4-0.1-0.7-0.1-1.1v-4.9C36.1,24.1,36.1,23.5,36.2,23z"/>
	<path d="M112,27.2c-0.1,1.8-0.5,3-1.9,3.7l-0.2,0.1l0.2,0.1c0.2,0.1,0.3,0.3,0.4,0.5l0.1,0.1l0.1-0.1c1.7-0.9,2-2.5,2.2-4.1
		c0.1,0,0.2-0.1,0.2-0.2l0.1-0.1l-1.1-0.1L112,27.2z"/>
	<path d="M169.5,31.6l0.2-0.2h0.8v-0.7h4.8v0.6h1v-8.7h-6.7V31.6z M170.4,26.3v-2.6h4.8v2.6H170.4z M175.3,27.2v2.7h-4.8v-2.7H175.3
		z"/>
	<path d="M23.1,23.5c-0.5-0.5-1.3-0.8-2-0.7c-0.7,0-1.4,0.3-1.9,0.9c-0.1,0.1-0.2,0.2-0.3,0.4c-0.4,0.9-0.6,1.8-0.6,2.8
		c0,0.8,0.1,1.6,0.4,2.4c0.4,1,1.4,1.7,2.5,1.7c0,0,0.1,0,0.1,0c0,0,0.1,0,0.1,0c0.8,0,1.6-0.4,2.1-1.1c0.5-0.9,0.8-1.9,0.7-3
		c0-0.8-0.1-1.6-0.4-2.4C23.6,24.1,23.4,23.7,23.1,23.5z M21.2,29.9c-0.6,0-1.1-0.3-1.4-0.8c-0.3-0.7-0.5-1.5-0.5-2.3
		c0-0.7,0.1-1.3,0.3-2c0.1-0.3,0.2-0.5,0.4-0.7c0.3-0.3,0.7-0.5,1.2-0.5h0c0.6,0,1.2,0.3,1.4,0.8c0.3,0.7,0.5,1.5,0.4,2.3
		c0,0.7-0.1,1.3-0.3,2c-0.1,0.3-0.2,0.5-0.4,0.7C22.1,29.8,21.6,29.9,21.2,29.9z"/>
	<path d="M44.3,26.9c-0.2-0.2-0.4-0.3-0.6-0.3c0.7-0.3,1.1-1,1.1-1.8c0-1.3-1-2.1-2.6-2.1c-1.6,0-2.6,0.8-2.6,2.1
		c0,0.8,0.4,1.5,1.1,1.8c-0.2,0.1-0.3,0.1-0.5,0.2c-0.6,0.4-1,1.1-1,1.8c0,1.5,1.1,2.3,3,2.3c1.8,0,2.9-0.8,2.9-2.3
		C45.1,28,44.8,27.3,44.3,26.9z M41.9,26.2c-0.8-0.1-1.3-0.7-1.3-1.3c0-0.7,0.8-1.3,1.6-1.3c0,0,0,0,0.1,0c0.1,0,0.1,0,0.2,0
		c0.5,0.1,0.9,0.3,1.1,0.6c0.2,0.3,0.2,0.6,0.2,0.9C43.6,25.8,42.8,26.3,41.9,26.2z M44,28.6c0,0.3-0.1,0.7-0.3,0.9
		c-0.4,0.4-1,0.5-1.5,0.5c-1.2,0-1.8-0.5-1.8-1.4c0-0.9,0.7-1.4,1.9-1.4C43.3,27.1,44,27.7,44,28.6z"/>
	<path d="M118.5,31.5h0.9v-0.7h4.9v0.6h1v-8.7h-6.7V31.5z M119.4,26.3v-2.6h4.8v2.6H119.4z M124.3,27.2v2.7h-4.8v-2.7H124.3z"/>
	<path d="M166.1,25.1c0-0.1,0-0.1,0-0.2l0-0.1l-0.5-0.1l-0.2,0h-5.6l0,0.1c-0.1,0.7-0.2,1.4-0.3,2.2h-1.7v0.9h1.5
		c-0.2,1.1-0.4,2.1-0.5,2.8l0,0.1l0.9,0.1l0-0.1c0-0.1,0-0.2,0.1-0.3c0-0.1,0-0.2,0.1-0.3h4.8c-0.2,0.6-0.3,0.6-0.6,0.6
		c-0.1,0-0.7,0-1.3-0.1l-0.2,0l0.1,0.2c0.1,0.1,0.1,0.3,0.2,0.5l0,0.1l0.1,0c0.4,0,0.8,0,1,0c0.9,0,1.3-0.1,1.6-1.4h1.5v-0.8h-1.4
		c0.1-0.4,0.1-0.9,0.2-1.5h1.5V27h-1.4C166,26.4,166,25.8,166.1,25.1z M162.1,27.9c-0.1,0.6-0.1,1.1-0.2,1.5h-1.9
		c0.1-0.5,0.2-1,0.3-1.5H162.1z M165,27.9c0,0.6-0.1,1.1-0.2,1.5h-2c0.1-0.5,0.1-1,0.2-1.5H165z M162.4,25.6c0,0.4-0.1,0.9-0.1,1.4
		h-1.8c0.1-0.4,0.1-0.8,0.2-1.1l0-0.3H162.4z M165.1,25.6c0,0.4,0,0.8-0.1,1.1l0,0.3h-1.9c0-0.2,0-0.4,0.1-0.6
		c0-0.3,0.1-0.6,0.1-0.8H165.1z"/>
	<polygon points="10.4,25.2 10.3,25.2 10.3,25.1 9.1,25.1 9.1,26.3 10.4,26.3 	"/>
	<path d="M158.7,25.7L158.7,25.7l0.2,0c0.6-0.5,1.1-1.1,1.5-1.8h6.5v-0.7h-0.1v-0.1h-5.8c0.1-0.2,0.2-0.4,0.3-0.5
		c0.1,0,0.2-0.1,0.2-0.2l0-0.1l-0.1,0c0,0-0.1,0-0.1,0c-0.1,0-0.3,0-0.7-0.1l-0.1,0l0,0.1c-0.5,1.1-1.2,2.2-2.2,3l-0.1,0.1l0.2,0.1
		C158.4,25.5,158.5,25.6,158.7,25.7z"/>
	<path d="M135.7,25.7c-0.7,0.3-1.7,0.6-2.4,1c-0.1-0.7-0.6-1.2-1.4-1.2c-0.4,0-0.9,0.2-1.3,0.4c0.2-0.4,0.3-0.8,0.5-1.2
		c1.2,0,2.5-0.2,3.7-0.6l0.1,0l-0.2-0.9l-0.1,0c-1.1,0.3-2.1,0.5-3.2,0.6c0.1-0.3,0.1-0.6,0.2-0.9c0.1,0,0.2-0.1,0.3-0.3l0-0.1
		l-1.2-0.2l0,0.1c-0.1,0.4-0.1,0.9-0.2,1.3l-0.6,0c-0.4,0-1.1,0-1.7,0l-0.1,0v0.9h1.8l0.4,0c-0.4,1.4-1.3,2.6-2.4,3.5l-0.1,0.1
		l0.7,0.7l0.1-0.1c0.4-0.4,0.8-0.8,1.1-1.1c0.5-0.8,1.4-1.3,2.3-1.4c0.2,0,0.4,0.1,0.5,0.3c0.1,0.1,0.2,0.3,0.2,0.5
		c-1.8,0.9-2.7,1.7-2.7,2.6c0,1.1,0.9,1.6,2.9,1.6c1.2,0,2,0,2.5-0.1l0.1,0l0-0.9l-0.1,0c-0.8,0.1-1.7,0.1-2.5,0.1
		c-1.3,0-1.9-0.2-1.9-0.7c0-0.5,0.7-1,1.8-1.6c0,0.1,0,0.1,0,0.2c0,0.4,0,0.8,0,1.2l0,0.1l1-0.1l0-0.1c0-0.4,0-0.8,0-1.1
		c0-0.3,0-0.5,0-0.7c0.8-0.4,1.9-0.7,2.5-1c0.1,0,0.1,0,0.2,0c0,0,0.1,0,0.1,0l0.1-0.1l-0.4-1L135.7,25.7z"/>
	<path d="M16.4,23.5c-0.5-0.5-1.3-0.8-2-0.7c-0.7,0-1.4,0.3-1.9,0.9c-0.1,0.1-0.2,0.2-0.3,0.4c-0.4,0.9-0.6,1.8-0.6,2.8
		c0,0.8,0.1,1.6,0.4,2.4c0.4,1,1.4,1.7,2.5,1.7c0,0,0.1,0,0.1,0c0,0,0.1,0,0.1,0c0.8,0,1.6-0.4,2.1-1.1c0.5-0.9,0.8-1.9,0.7-3
		c0-0.8-0.1-1.6-0.4-2.4C16.9,24.1,16.6,23.7,16.4,23.5z M14.4,29.9c-0.6,0-1.1-0.3-1.4-0.8c-0.3-0.7-0.5-1.5-0.5-2.3
		c0-0.7,0.1-1.3,0.3-2c0.1-0.3,0.2-0.5,0.4-0.7c0.3-0.3,0.7-0.5,1.2-0.5h0c0,0,0,0,0.1,0c0.6,0,1.1,0.3,1.4,0.8
		c0.3,0.7,0.5,1.5,0.4,2.3c0,0.7-0.1,1.3-0.3,2c-0.1,0.3-0.2,0.5-0.4,0.7C15.3,29.8,14.9,29.9,14.4,29.9z"/>
	<path d="M180.8,24.3c-0.3-0.8-0.8-1.6-1.4-2.2l0,0h-1.3l0.2,0.2c0.6,0.6,1.1,1.3,1.5,2c0.7,1.6,0.7,3.4,0,5c-0.4,0.8-0.9,1.5-1.5,2
		l-0.2,0.2h1.3l0,0c0.6-0.6,1.1-1.4,1.4-2.2C181.4,27.7,181.4,26,180.8,24.3z"/>
	<path d="M6.1,22.9c-0.7-0.3-1.4-0.3-2.1,0c-1.1,0.4-1.8,1.4-1.8,2.6c0,0.7,0.2,1.4,0.7,1.9c1.1,0.9,2.7,0.9,3.8,0
		c0.1-0.1,0.1-0.1,0.2-0.2c0,0.2,0,0.5-0.1,0.7c-0.1,0.4-0.2,0.9-0.4,1.2c-0.3,0.5-0.9,0.9-1.5,0.9c-0.4,0-0.9-0.1-1.2-0.4
		c-0.2-0.2-0.3-0.4-0.3-0.6l0-0.1l-1.1,0.3l0,0.1c0.2,0.4,0.4,0.8,0.7,1c0.5,0.4,1.1,0.6,1.7,0.6c0.1,0,0.1,0,0.2,0
		c0.8,0,1.5-0.4,2-1c0.6-1,0.9-2.1,0.9-3.3c0-0.7-0.1-1.4-0.3-2.1C7.3,23.8,6.8,23.2,6.1,22.9z M6.7,25.4c0,1-0.8,1.8-1.7,1.8
		l-0.1,0c-0.9,0.1-1.6-0.6-1.7-1.5c0-0.1,0-0.2,0-0.3c0-0.3,0.1-0.7,0.2-1c0.3-0.5,0.9-0.8,1.5-0.8c0,0,0,0,0,0
		c0.5,0,0.9,0.2,1.2,0.5C6.5,24.5,6.7,24.9,6.7,25.4z"/>
	<rect x="9.1" y="29.5" width="1.2" height="1.2"/>
	<path d="M31,27.2c-0.2,0.3-0.5,0.4-0.8,0.4c0,0,0,0,0,0c-0.3,0-0.6-0.1-0.9-0.2c-0.4-0.2-0.8-0.3-1.2-0.3c0,0,0,0,0,0
		c-0.6,0-1.1,0.3-1.5,0.8l-0.1,0.1l0.7,0.7l0.1-0.1c0.2-0.3,0.5-0.4,0.8-0.4c0.3,0,0.6,0.1,0.9,0.2c0.4,0.2,0.8,0.3,1.3,0.3
		c0.2,0,0.5-0.1,0.7-0.2c0.3-0.1,0.5-0.3,0.7-0.6l0.1-0.1l-0.7-0.7L31,27.2z"/>
	<path d="M154.2,24.4l-0.1,0l-0.2,0.9l0.1,0c1,0.1,1.9,0.4,2.7,0.8l0.1,0.1l0.3-0.9l-0.1,0C156.1,24.8,155.2,24.5,154.2,24.4z"/>
	<path d="M116,29.3l-0.2-0.1l0,0.2c0,1.1-0.1,1.4-0.2,1.4h-0.8c-0.2,0-0.2,0-0.2-0.2V27c0.1,0,0.1-0.1,0.1-0.1h1.2v-4.1h-5v1.5
		l-0.6-0.3l-0.1,0.1h-0.9v-1.5c0.1,0,0.2-0.1,0.2-0.2l0-0.1l-1.1-0.1V24H107v0.9h2.8c-0.7,1.3-1.7,2.5-2.9,3.4l-0.1,0.1l0.1,0.1
		c0.1,0.2,0.3,0.4,0.3,0.6l0.1,0.1l0.1-0.1c0.4-0.3,0.8-0.6,1.2-1v3.6h0.9v-4c0.4,0.3,0.9,0.7,1.1,1l0.1,0.1l0.5-0.8l-0.1-0.1
		c-0.2-0.2-1-0.8-1.5-1.1c0.5-0.7,0.9-1.5,1.3-2.3c0.1,0,0.1-0.1,0.2-0.2l0,0v2.6h2.7v3.6c0,0.8,0.2,1,1,1h0.9
		c0.8,0,0.9-0.6,0.9-1.9l0-0.1l-0.1,0C116.3,29.5,116.1,29.4,116,29.3z M115.1,23.6V26h-3.2v-2.4H115.1z"/>
	<path d="M84.4,25.7L84.4,25.7c-0.6,0-1.2,0.5-1.2,1.2s0.5,1.2,1.2,1.2c0.6,0,1.2-0.5,1.2-1.2c0-0.3-0.1-0.6-0.3-0.8
		C85,25.8,84.7,25.7,84.4,25.7z M84.4,25.8L84.4,25.8L84.4,25.8L84.4,25.8z"/>
	<path d="M97,30.2v-6.4c0-0.3,0-0.6,0-0.9l0-0.2l-0.2,0c-0.3,0-0.7,0.1-1,0h-4.5c-0.3,0-0.7,0-1.1,0l-0.2,0l0,0.2c0,0.3,0.1,0.6,0,1
		l0,6.4c0,0.4,0,0.7-0.1,1l0,0.1h1v-0.7h4.9v0.7h1l0-0.1C97,30.9,97,30.5,97,30.2z M96.1,27.1v2.8h-4.9v-2.8H96.1z M91.2,26.2v-2.5
		h4.9v2.5H91.2z"/>
	<path d="M102.4,25.7L102.4,25.7c-0.6,0-1.2,0.5-1.2,1.2s0.5,1.2,1.2,1.2s1.2-0.5,1.2-1.2C103.6,26.2,103.1,25.7,102.4,25.7z
		 M102.4,25.8L102.4,25.8L102.4,25.8L102.4,25.8z"/>
	<path d="M142.8,22.5c0,0,0.1-0.1,0.1-0.1l0.1-0.2l-1.2-0.1l0,0c-1.2,1.3-2.6,2.3-4.2,2.9l-0.2,0.1l0.1,0.1c0.1,0.2,0.3,0.3,0.4,0.5
		l0.1,0.1l0.1,0c0.8-0.3,1.5-0.7,2.2-1.1v0.3h0.1v0.1h4.1v-0.4c0.7,0.4,1.4,0.8,2.1,1l0.1,0l0.1-0.1c0.1-0.2,0.2-0.4,0.4-0.6
		l0.1-0.1l-0.2-0.1C145.4,24.4,144,23.5,142.8,22.5z M140.8,24.2c0.5-0.4,1-0.8,1.4-1.2c0.5,0.5,1,0.9,1.5,1.2H140.8z"/>
	<path d="M154.9,26.8L154.9,26.8c-0.3,0.2-0.5,0.2-0.7,0.3l-0.2,0.1l0.1,0.1c0.5,0.5,0.8,1.2,0.9,1.9c0,0.9-0.7,1.2-2.8,1.2
		c-1.1,0-1.8-0.1-1.8-0.7c0-0.3,0.1-0.6,0.3-0.9c0.3-0.5,0.5-1,0.5-1.6c0-0.1,0-0.2,0-0.3c0-0.5,0.1-1.2,0.2-2
		c0.8-0.1,1.5-0.2,2.2-0.4l0.1,0l-0.2-0.9l-0.1,0c-0.7,0.2-1.3,0.3-2,0.4c0-0.1,0-0.2,0-0.3c0-0.2,0-0.4,0-0.6
		c0.1,0,0.2-0.1,0.3-0.3l0-0.1l-1.3-0.1v0.1c0,0.4,0,0.9-0.1,1.4c-0.4,0-1.7,0-2,0l-0.1,0v0.8l0,0.1l0.1,0c0.2,0,1.3,0,2,0l-0.1,1.1
		c-0.2-0.1-0.4-0.2-0.6-0.2c-0.5,0-0.9,0.2-1.3,0.6c-0.3,0.4-0.5,0.8-0.5,1.3c0,0,0,0.1,0,0.1c-0.1,0.7,0.4,1.4,1.1,1.6
		c0.2,0,0.3,0,0.5,0c-0.1,0.2-0.1,0.4-0.1,0.6c0,1.4,1.9,1.4,2.7,1.4c0,0,0,0,0,0c0.1,0,0.2,0,0.2,0c0.7,0,1.4-0.1,2.1-0.2
		c0.8-0.1,1.4-0.9,1.4-1.7C156,28.4,155.6,27.5,154.9,26.8L154.9,26.8z M148.9,27.6c0-0.3,0-0.5,0.2-0.7c0.2-0.2,0.4-0.4,0.7-0.4
		c0,0,0.1,0,0.1,0c0.2,0,0.3,0.1,0.4,0.2c0.1,0.1,0.2,0.3,0.1,0.4c0,0,0,0,0,0.1c0,0,0,1.2-0.8,1.2c-0.2,0-0.3-0.1-0.5-0.2
		c-0.1-0.1-0.2-0.3-0.2-0.5C148.9,27.7,148.9,27.7,148.9,27.6L148.9,27.6L148.9,27.6z"/>
	<rect x="46.2" y="25.1" width="1.2" height="1.2"/>
	<path d="M53.5,23.5c-0.6-0.5-1.3-0.8-2-0.7c-0.7,0-1.4,0.3-1.9,0.9c-0.1,0.1-0.2,0.2-0.3,0.4c-0.4,0.9-0.6,1.8-0.6,2.8
		c0,0.8,0.1,1.6,0.4,2.4c0.4,1.1,1.4,1.7,2.5,1.7c0,0,0.1,0,0.1,0c0.8,0,1.6-0.4,2.1-1.1c0.5-0.9,0.8-1.9,0.7-3
		c0-0.8-0.1-1.6-0.4-2.4C54,24.1,53.8,23.7,53.5,23.5z M51.6,29.9c-0.6,0-1.1-0.3-1.4-0.8c-0.3-0.7-0.5-1.5-0.5-2.3
		c0-0.7,0.1-1.3,0.3-2c0.1-0.3,0.2-0.5,0.4-0.7c0.3-0.3,0.7-0.5,1.1-0.5c0,0,0,0,0.1,0h0c0.6,0,1.2,0.3,1.4,0.8
		c0.3,0.7,0.5,1.5,0.4,2.3c0,0.7-0.1,1.3-0.3,2c-0.1,0.3-0.2,0.5-0.4,0.7C52.4,29.8,52,29.9,51.6,29.9z"/>
	<rect x="46.2" y="29.5" width="1.2" height="1.2"/>
	<path d="M78.9,30.1h-3v-3.7h2.2c0.4,0,0.7,0,1.1,0l0.1,0v-1l-0.1,0c-0.4,0-0.7,0.1-1.1,0.1H76v-2c0-0.3,0-0.7,0.1-1l0-0.1H75l0,0.1
		c0,0.3,0.1,0.7,0.1,1v2h-2c-0.4,0-0.7,0-1.1-0.1l-0.1,0v1l0.1,0c0.4,0,0.7-0.1,1.1,0h2v3.7h-2.7c-0.4,0-0.8,0-1.2-0.1l-0.1,0v1
		l0.1,0c0.4,0,0.8-0.1,1.2-0.1h6.6c0.4,0,0.8,0,1.1,0.1l0.1,0v-1l-0.1,0C79.7,30.1,79.3,30.1,78.9,30.1z"/>
	<path d="M145.3,26.2c0,0,0.1-0.1,0.1-0.1l0.1-0.1l-0.6-0.3l-0.2,0h-5.8v0.8h5.2c-0.2,0.3-0.5,0.8-0.8,1.3H139v3.8h0.9v-0.4h4.7v0.4
		h0.9v-3.8h-1.2C144.7,27.3,145,26.7,145.3,26.2z M144.6,28.7v1.7h-4.7v-1.7H144.6z"/>
	<path d="M70.1,22.3l0.2-0.2h-1.3l0,0c-0.6,0.6-1.1,1.4-1.4,2.2c-0.7,1.6-0.7,3.4,0,5c0.3,0.8,0.8,1.6,1.4,2.2l0,0h1.3l-0.2-0.2
		c-0.6-0.6-1.1-1.3-1.5-2c-0.7-1.6-0.7-3.4,0-5C69,23.6,69.5,22.9,70.1,22.3z"/>
	<path d="M60.6,23.5c-0.6-0.5-1.3-0.8-2-0.7c-0.7,0-1.4,0.3-1.9,0.9c-0.1,0.1-0.2,0.3-0.3,0.4c-0.4,0.9-0.6,1.8-0.6,2.8
		c0,0.8,0.1,1.6,0.4,2.4c0.4,1.1,1.4,1.7,2.5,1.7c0,0,0.1,0,0.1,0c0.8,0,1.6-0.4,2.1-1.1c0.5-0.9,0.8-1.9,0.7-3
		c0-0.8-0.1-1.6-0.4-2.4C61.1,24.1,60.9,23.7,60.6,23.5z M58.7,29.9c-0.6,0-1.1-0.3-1.4-0.8c-0.3-0.7-0.5-1.5-0.5-2.3
		c0-0.7,0.1-1.3,0.3-2c0.1-0.3,0.2-0.5,0.4-0.7c0.3-0.3,0.7-0.5,1.1-0.5c0,0,0,0,0.1,0h0c0.6,0,1.2,0.3,1.4,0.8
		c0.3,0.7,0.5,1.5,0.4,2.3c0,0.7-0.1,1.3-0.3,2c-0.1,0.3-0.2,0.5-0.4,0.7C59.6,29.8,59.2,29.9,58.7,29.9z"/>
</g>
<path id="シェイプ_1" class="st0" d="M26,17c0,0.8,0.7,1.5,1.5,1.5c0.8,0,1.5-0.7,1.5-1.5c0-0.8-0.7-1.5-1.5-1.5c0,0,0,0,0,0
	C26.6,15.5,26,16.1,26,17C26,17,26,17,26,17 M26.1,17c0-0.7,0.6-1.4,1.3-1.4s1.4,0.6,1.4,1.3c0,0.7-0.6,1.4-1.3,1.4c0,0,0,0,0,0
	C26.7,18.3,26.1,17.7,26.1,17L26.1,17z M28.2,17.9h-0.3L27.3,17h-0.3v0.9h-0.2v-2h0.6c0.2,0,0.3,0,0.5,0.1c0.1,0.1,0.2,0.2,0.2,0.4
	c0,0.1,0,0.2-0.1,0.3c-0.1,0.1-0.2,0.2-0.3,0.2L28.2,17.9 M27.1,16.8h0.3c0.1,0,0.2,0,0.3-0.1c0.1-0.1,0.1-0.2,0.1-0.2
	c0-0.2-0.1-0.3-0.3-0.3c0,0-0.1,0-0.1,0h-0.3L27.1,16.8L27.1,16.8z M16.2,11.7c0,1.6,1.3,3,2.9,3.1c1.6,0,3-1.3,3.1-2.9
	c0-0.1,0-0.1,0-0.2c0-1.6-1.6-2.9-3-3.6C17.8,8.8,16.2,10.1,16.2,11.7L16.2,11.7z M4.1,11.7c-0.1,1.6,1.2,3,2.9,3.1s3-1.2,3.1-2.9
	c0-0.1,0-0.1,0-0.2c0-1.6-1.6-2.9-3-3.6C5.7,8.8,4.1,10.1,4.1,11.7L4.1,11.7z M1,2.7v15.6h24.2V2.7L1,2.7L1,2.7z M25.2,6.5
	c-1.6,0-3.1,0.3-4.6,0.9c1.5,1,2.9,2.5,2.9,4.4c0,2.4-2,4.4-4.5,4.4c-2.4,0-4.4-2-4.4-4.4c0-1.9,1.4-3.4,2.9-4.4
	c-2.9-1.1-6.1-1.1-9,0c1.5,1,2.9,2.5,2.9,4.4c0,2.4-2,4.4-4.4,4.4c-2.4,0-4.4-2-4.5-4.4c0-1.9,1.5-3.4,3-4.4C4.1,6.8,2.6,6.5,1,6.5
	V5.1c2.1,0,4.2,0.4,6.1,1.4c3.8-1.8,8.2-1.8,12,0c1.9-0.9,4-1.4,6.1-1.4V6.5L25.2,6.5z"/>
</svg>
