<?xml version="1.0" encoding="utf-8"?>
<!-- Generator: Adobe Illustrator 26.0.1, SVG Export Plug-In . SVG Version: 6.00 Build 0)  -->
<svg version="1.1" id="kaigo_common_tel-header01.svg"
	 xmlns="http://www.w3.org/2000/svg" xmlns:xlink="http://www.w3.org/1999/xlink" x="0px" y="0px" viewBox="0 0 208.7 35"
	 style="enable-background:new 0 0 208.7 35;" xml:space="preserve">
<style type="text/css">
	.st0{fill-rule:evenodd;clip-rule:evenodd;}
</style>
<path id="_0120-17-1165" class="st0" d="M45.3,20.2c2.1,0.1,4.2-0.9,5.4-2.7c1.1-1.6,1.8-4.3,1.8-7.4c0-2-0.3-4-1-5.9
	c-0.3-0.9-0.9-1.7-1.5-2.4c-2.8-2.6-7.1-2.4-9.7,0.4c-0.3,0.3-0.5,0.6-0.7,0.9c-1,2.2-1.6,4.6-1.5,7c0,2,0.3,4,1,5.9
	C40,18.6,42.5,20.3,45.3,20.2z M45.3,1.8c1.7-0.1,3.2,0.8,4,2.3c0.8,1.9,1.2,3.9,1.2,6c0,1.8-0.2,3.5-0.8,5.2
	c-0.2,0.7-0.6,1.4-1.2,2c-0.8,0.8-2,1.2-3.1,1.2c-1.6,0.1-3.2-0.8-4-2.2c-0.8-1.9-1.3-4-1.2-6.1c0-1.8,0.2-3.5,0.8-5.2
	c0.2-0.7,0.6-1.3,1.1-1.9C42.9,2.2,44.1,1.8,45.3,1.8z M55.7,2.3c0.7-0.1,1.5-0.2,2.2-0.2h1.4v14.8c0,1-0.1,1.9-0.2,2.9h2.4
	c-0.2-1-0.2-1.9-0.2-2.9V4.5c0-1.4,0.1-2.8,0.2-4.2c-0.7,0.1-1.4,0.1-2.1,0.1h-1.6c-0.7,0-1.4,0-2.1-0.1L55.7,2.3L55.7,2.3z
	 M78.5,19.8c1.1,0,2.1,0,3.1,0.2v-2.1c-1,0.1-2.1,0.2-3.1,0.2h-8.2c0.2-1.1,0.7-2.1,1.5-3c1-1.3,2.3-2.3,3.7-3.1
	c2.9-1.9,3.6-2.4,4.3-3.3c0.9-1,1.5-2.3,1.5-3.6c0-3-2.5-5-6.3-5c-1.9-0.1-3.8,0.6-5.1,2c-0.9,1-1.4,2.3-1.6,3.7L70.4,6
	c0.1-0.9,0.4-1.8,0.9-2.6c0.9-1.2,2.3-1.8,3.7-1.7c2.6,0,4.2,1.3,4.2,3.2c0,1.6-0.8,2.7-3.4,4.4c-1.4,0.8-2.7,1.8-3.9,2.8
	c-1.5,1.2-2.6,2.7-3.3,4.4c-0.4,1.1-0.7,2.2-0.7,3.4c0.9-0.1,1.9-0.2,2.8-0.1L78.5,19.8L78.5,19.8z M92.1,20.2
	c2.1,0.1,4.2-0.9,5.4-2.7c1.1-1.6,1.8-4.3,1.8-7.4c0-2-0.3-4-1-5.9c-0.3-0.9-0.9-1.7-1.5-2.4c-2.8-2.6-7.1-2.4-9.7,0.4
	c-0.3,0.3-0.5,0.6-0.7,0.9c-1,2.2-1.6,4.6-1.5,7c0,2,0.3,4,1,5.9C86.8,18.6,89.3,20.3,92.1,20.2L92.1,20.2z M92.1,1.8
	c1.7-0.1,3.2,0.8,4,2.3c0.8,1.9,1.2,3.9,1.1,6c0,1.8-0.2,3.5-0.8,5.2c-0.2,0.7-0.7,1.4-1.2,2c-0.8,0.8-2,1.2-3.1,1.2
	c-1.6,0.1-3.2-0.8-4-2.2c-0.8-1.9-1.3-4-1.2-6.1c0-1.8,0.2-3.5,0.8-5.2c0.2-0.7,0.6-1.3,1.1-1.9C89.7,2.2,90.9,1.7,92.1,1.8
	L92.1,1.8z M104.3,13.5c0.8-0.1,1.5-0.1,2.3-0.1h3c0.8,0,1.6,0,2.4,0.1v-2.1c-0.8,0.1-1.6,0.1-2.4,0.1h-3c-0.8,0-1.6,0-2.3-0.1
	L104.3,13.5L104.3,13.5z M114.3,2.3c0.7-0.1,1.5-0.2,2.2-0.2h1.4v14.8c0,1,0,1.9-0.2,2.9h2.4c-0.2-1-0.2-1.9-0.2-2.9V4.5
	c0-1.4,0.1-2.8,0.2-4.2c-0.7,0.1-1.4,0.1-2.1,0.1h-1.6c-0.7,0-1.4,0-2.1-0.1L114.3,2.3L114.3,2.3z M139,0.3c-1,0.1-2,0.2-3,0.1h-7.7
	c-1,0-1.9,0-2.9-0.2v2.2c1-0.1,1.9-0.2,2.9-0.2h8.3c-1.8,2.3-3.3,4.8-4.6,7.4c-1.6,3.2-2.6,6.7-3.1,10.2h2.4
	c0.6-5.5,2.6-10.7,5.7-15.2c0.5-0.9,1.1-1.7,1.9-2.5L139,0.3L139,0.3z M139.9,13.5c0.8-0.1,1.5-0.1,2.3-0.1h3c0.8,0,1.6,0,2.4,0.1
	v-2.1c-0.8,0.1-1.6,0.1-2.4,0.1h-3c-0.8,0-1.6,0-2.3-0.1V13.5z M152.4,2.3c0.7-0.1,1.5-0.2,2.2-0.2h1.4v14.8c0,1,0,1.9-0.2,2.9h2.4
	c-0.2-1-0.2-1.9-0.2-2.9V4.5c0-1.4,0.1-2.8,0.2-4.2c-0.7,0.1-1.4,0.1-2.1,0.1h-1.6c-0.7,0-1.4,0-2.1-0.1L152.4,2.3L152.4,2.3z
	 M165.6,2.3c0.7-0.1,1.5-0.2,2.2-0.2h1.4v14.8c0,1,0,1.9-0.2,2.9h2.4c-0.2-1-0.2-1.9-0.2-2.9V4.5c0-1.4,0.1-2.8,0.2-4.2
	c-0.7,0.1-1.4,0.1-2.1,0.1h-1.6c-0.7,0-1.4,0-2.1-0.1L165.6,2.3L165.6,2.3z M192.2,4c-0.4-1.1-1.2-2.1-2.1-2.9
	c-1.2-0.7-2.5-1.1-3.9-1.1c-2.2,0-4.2,1-5.4,2.8c-1.2,1.7-1.9,4.5-1.9,7.7c0,3.6,0.9,6.5,2.6,8c1.3,1.1,2.9,1.7,4.6,1.6
	c4,0,6.7-2.6,6.7-6.6c0-3.9-2.5-6.4-6.4-6.4c-1.6-0.1-3.1,0.5-4.3,1.6c-0.5,0.5-1,1-1.3,1.6c0-1.9,0.4-3.8,1.1-5.5
	c0.6-1.9,2.4-3.2,4.4-3.2c1.2,0,2.3,0.4,3,1.3c0.4,0.5,0.7,1,0.9,1.6L192.2,4z M190.7,13.7c0,0.9-0.2,1.9-0.7,2.7
	c-1.5,2.2-4.6,2.7-6.8,1.2c-1.3-0.9-2.1-2.4-2.1-3.9c0-1.2,0.4-2.4,1.3-3.2c0.9-0.9,2.2-1.4,3.5-1.5C189,8.9,190.7,10.6,190.7,13.7
	L190.7,13.7z M198.6,2.2h6c1,0,2,0,3,0.2V0.2c-1,0.2-2,0.2-3,0.2h-5.3c-0.9,0-1.8,0-2.7-0.1c0,0.4,0.1,0.7,0.1,1.1
	c0,0.5,0,0.8-0.1,1.5l-0.6,5.8c-0.1,0.9-0.2,1.8-0.4,2.6l1.9,0.2c0.2-0.6,0.6-1.2,1.2-1.5c1-0.7,2.1-1.1,3.4-1.1
	c2.4-0.1,4.4,1.7,4.5,4.1c0,0.2,0,0.4,0,0.6c0.2,2.5-1.7,4.7-4.2,4.9c-0.2,0-0.4,0-0.6,0c-1.4,0-2.7-0.5-3.6-1.5
	c-0.4-0.4-0.7-0.9-0.8-1.5l-2.1,0.6c0.4,0.9,0.9,1.7,1.6,2.4c1.3,1.2,3.1,1.8,4.9,1.7c4.2,0,6.9-2.6,6.9-6.8
	c0.1-1.7-0.5-3.3-1.7-4.5c-1.2-1.2-2.9-1.8-4.6-1.7c-1.7,0-3.3,0.6-4.5,1.8c0.1-0.4,0.2-0.8,0.2-1.1L198.6,2.2z"/>
<g>
	<path d="M38.3,25.7l0-0.2l-0.2,0c-0.3,0-0.6,0.1-0.9,0.1h-0.7c-0.3,0-0.6,0-0.9-0.1l-0.1,0v1h0.1l0,0.1h0.1v0c0.3,0,0.6,0,0.8,0
		h0.5v6.1c0,0.4,0,0.8-0.1,1.2l0,0.1h1.3l0-0.1c-0.1-0.4-0.1-0.8-0.1-1.2v-5.2C38.2,26.8,38.3,26.2,38.3,25.7z"/>
	<rect x="49.2" y="27.9" width="1.3" height="1.3"/>
	<rect x="9.4" y="27.9" width="1.3" height="1.3"/>
	<path d="M47.1,30c-0.2-0.2-0.4-0.3-0.7-0.4c0.7-0.3,1.2-1.1,1.2-1.9c0-1.4-1.1-2.3-2.8-2.3c-1.7,0-2.8,0.9-2.8,2.2
		c0,0.8,0.5,1.6,1.2,1.9c-0.2,0.1-0.4,0.2-0.5,0.3c-0.7,0.4-1,1.1-1,1.9c0,1.6,1.1,2.4,3.2,2.4c2,0,3.1-0.9,3.1-2.4
		C48,31,47.7,30.4,47.1,30z M46.8,31.7c0,0.4-0.1,0.7-0.4,1c-0.5,0.4-1,0.6-1.6,0.5c-1.3,0-2-0.5-2-1.5c0-1,0.8-1.6,2-1.6
		C46.1,30.1,46.8,30.7,46.8,31.7z M46.3,27.1c0.2,0.3,0.3,0.6,0.2,0.9c-0.2,0.8-1,1.3-2,1.1c-0.8-0.1-1.4-0.7-1.4-1.4
		c0-0.8,0.8-1.4,1.7-1.4c0,0,0,0,0.1,0c0.1,0,0.1,0,0.2,0v0C45.6,26.4,46,26.7,46.3,27.1z"/>
	<path d="M180.3,28L180.3,28l0.2,0c0.7-0.6,1.3-1.3,1.8-2.1h7.8V25l-0.1-0.1h-7.1c0.1-0.2,0.2-0.5,0.3-0.7c0.1,0,0.2-0.1,0.3-0.2
		l0-0.1l-0.1,0c0,0-0.1,0-0.2,0c-0.1,0-0.4-0.1-0.9-0.1l-0.1,0l0,0.1c-0.6,1.4-1.5,2.6-2.6,3.6l-0.1,0.1l0.2,0.1
		C180,27.7,180.2,27.8,180.3,28z"/>
	<rect x="49.2" y="32.7" width="1.3" height="1.3"/>
	<path d="M17.1,26.2c-0.6-0.5-1.4-0.8-2.2-0.8c-0.8,0-1.5,0.4-2.1,1c-0.1,0.1-0.2,0.3-0.3,0.4c-0.4,0.9-0.7,2-0.6,3
		c0,0.9,0.1,1.7,0.4,2.5c0.4,1.1,1.5,1.8,2.6,1.8c0,0,0.1,0,0.1,0c0,0,0.1,0,0.1,0c0.9,0,1.7-0.4,2.3-1.2c0.6-1,0.8-2.1,0.8-3.2
		c0-0.9-0.1-1.7-0.4-2.5C17.6,26.9,17.4,26.5,17.1,26.2z M15.1,26.4c0.6,0,1.2,0.4,1.5,0.9c0.3,0.8,0.5,1.6,0.5,2.5
		c0,0.7-0.1,1.4-0.3,2.1c-0.1,0.3-0.3,0.6-0.5,0.8C16,33,15.5,33.2,15,33.2c0,0,0,0-0.1,0c-0.6,0-1.2-0.3-1.5-0.9
		c-0.3-0.8-0.5-1.6-0.5-2.5c0-0.7,0.1-1.4,0.3-2.1c0.1-0.3,0.3-0.5,0.5-0.7C14.1,26.6,14.6,26.4,15.1,26.4L15.1,26.4
		C15.1,26.4,15.1,26.4,15.1,26.4z"/>
	<path d="M6,25.7c-0.7-0.3-1.5-0.3-2.3,0c-1.1,0.4-1.9,1.5-1.9,2.7c0,0.8,0.3,1.5,0.8,2c1.2,1,2.9,1,4.1,0c0.1-0.1,0.1-0.1,0.2-0.2
		c0,0.3,0,0.5-0.1,0.8c-0.1,0.5-0.2,0.9-0.4,1.3c-0.3,0.6-0.9,0.9-1.5,0.9c0,0-0.1,0-0.1,0c-0.5,0-0.9-0.1-1.3-0.5
		c-0.2-0.2-0.3-0.4-0.4-0.6l0-0.1L2,32.3l0,0.1c0.2,0.4,0.4,0.8,0.8,1.1c0.5,0.4,1.2,0.6,1.9,0.6c0.1,0,0.1,0,0.2,0
		c0.8,0,1.6-0.4,2.2-1.1c0.7-1,1-2.3,0.9-3.5c0-0.8-0.1-1.5-0.3-2.3C7.3,26.6,6.8,26,6,25.7z M6.7,28.3c0,0.5-0.2,1-0.5,1.3
		c-0.4,0.4-0.8,0.6-1.3,0.6c0,0-0.1,0-0.1,0h0c-0.5,0-0.9-0.1-1.2-0.4C3.2,29.4,3,29,3,28.6c0-0.1,0-0.2,0-0.3
		c0-0.4,0.1-0.7,0.3-1.1c0.3-0.5,0.9-0.9,1.6-0.9c0,0,0,0,0,0C5.9,26.4,6.7,27.2,6.7,28.3z"/>
	<path d="M206.8,26.4c-0.4-1-1-1.9-1.7-2.6l0,0h-1.4l0.2,0.2c0.8,0.7,1.4,1.5,1.8,2.4c0.8,1.9,0.8,4.1,0,6c-0.4,0.9-1,1.8-1.8,2.4
		l-0.2,0.2h1.5v-0.1c0.7-0.8,1.3-1.6,1.7-2.6C207.6,30.4,207.6,28.3,206.8,26.4z"/>
	<polygon points="9.4,34 10.5,34 10.5,33.9 10.7,33.9 10.7,32.7 9.4,32.7 	"/>
	<path d="M193.3,34.6l-0.5,0l0.8,0.3v-0.1h0.8v-0.8h5.9v0.7h1.1V24.5h-8V34.6z M200.3,25.5v3.2h-5.9v-3.2H200.3z M200.3,29.8V33
		h-5.9v-3.3H200.3z"/>
	<path d="M32.9,30.3c-0.2,0.3-0.5,0.5-0.9,0.5c0,0,0,0,0,0c-0.3,0-0.7-0.1-1-0.2c-0.4-0.2-0.8-0.3-1.3-0.3c0,0,0,0,0,0
		c-0.6,0-1.2,0.3-1.6,0.8L28.1,31l0.7,0.8l0.1-0.1c0.2-0.3,0.5-0.5,0.8-0.5c0.3,0,0.7,0.1,1,0.3c0.4,0.2,0.9,0.3,1.3,0.3
		c0.3,0,0.5-0.1,0.8-0.2c0.3-0.1,0.6-0.4,0.8-0.6l0.1-0.1l-0.7-0.8L32.9,30.3z"/>
	<path d="M24.4,26.2c-0.6-0.5-1.4-0.8-2.2-0.8c-0.8,0-1.5,0.4-2.1,1c-0.1,0.1-0.2,0.3-0.3,0.4c-0.4,0.9-0.7,2-0.6,3
		c0,0.9,0.1,1.7,0.4,2.5c0.4,1.1,1.5,1.8,2.6,1.8c0,0,0.1,0,0.1,0c0,0,0.1,0,0.1,0c0.9,0,1.7-0.4,2.3-1.2c0.6-1,0.8-2.1,0.8-3.2
		c0-0.9-0.1-1.7-0.4-2.5C24.9,26.9,24.7,26.5,24.4,26.2z M23.9,27.3c0.3,0.8,0.5,1.6,0.5,2.5c0,0.7-0.1,1.4-0.3,2.1
		c-0.1,0.3-0.3,0.6-0.5,0.8c-0.3,0.3-0.8,0.5-1.2,0.5c0,0,0,0-0.1,0c-0.6,0-1.2-0.3-1.5-0.9c-0.3-0.8-0.5-1.6-0.5-2.5
		c0-0.7,0.1-1.4,0.3-2.1c0.1-0.3,0.3-0.5,0.5-0.7c0.3-0.3,0.8-0.5,1.2-0.5h0C23,26.4,23.6,26.7,23.9,27.3z"/>
	<path d="M132.1,34.6l-0.5,0l0.7,0.3v-0.1h0.8v-0.8h5.9v0.7h1.1V24.5h-8V34.6z M139.1,25.5v3.2h-5.9v-3.2H139.1z M139.1,29.8V33
		h-5.9v-3.3H139.1z"/>
	<path d="M129,32.3l-0.2-0.1l0,0.2c0,1.4-0.1,1.7-0.3,1.7h-0.9c-0.2,0-0.2,0-0.2-0.3v-4.2c0.1,0,0.1-0.1,0.2-0.2h1.4v-4.9h-5.9v4.9
		h3.3v4.4c0,0.9,0.3,1.2,1.1,1.2h1.1c0.9,0,1.1-0.7,1.1-2.3l0-0.1l-0.1,0C129.4,32.6,129.2,32.5,129,32.3z M128,25.5v2.9h-3.9v-2.9
		H128z"/>
	<path d="M175.8,29.3L175.8,29.3c-0.3,0.2-0.6,0.3-0.8,0.4l-0.2,0.1l0.1,0.1c0.6,0.6,1,1.4,1.1,2.3c0,1.1-0.9,1.4-3.4,1.4
		c-1.4,0-2.2-0.1-2.2-0.9c0-0.4,0.2-0.8,0.3-1.1c0.4-0.6,0.6-1.2,0.6-1.9c0-0.1,0-0.3,0-0.4l0-0.1c0.1-0.6,0.1-1.4,0.2-2.4
		c0.9-0.1,1.8-0.2,2.7-0.5l0.1,0l-0.2-1l-0.1,0c-0.8,0.2-1.6,0.4-2.4,0.5c0-0.1,0-0.2,0-0.4c0-0.3,0-0.5,0-0.8
		c0.2,0,0.3-0.2,0.3-0.3l0-0.1l-1.5-0.1v0.1c0,0.5,0,1.1-0.1,1.7c-0.5,0-2.1,0-2.5,0l-0.1,0v0.9l0,0.1l0.1,0c0.3,0,1.5,0,2.4,0
		l-0.1,1.3c-0.2-0.1-0.4-0.2-0.7-0.2c0,0,0,0,0,0c-0.6,0-1.1,0.3-1.5,0.7s-0.6,1-0.6,1.6c0,0,0,0.1,0,0.1c-0.1,0.4,0,0.8,0.3,1.2
		c0.2,0.4,0.6,0.6,1,0.7c0.2,0,0.4,0,0.6,0c-0.1,0.2-0.1,0.5-0.1,0.7c0,1.6,2.3,1.6,3.3,1.6c0,0,0,0,0,0c0.1,0,0.2,0,0.3,0
		c0.8,0,1.7-0.1,2.5-0.3c1-0.2,1.7-1,1.7-2C177.1,31.2,176.6,30.2,175.8,29.3L175.8,29.3z M168.6,30.3c0-0.3,0-0.6,0.2-0.9
		c0.2-0.3,0.5-0.4,0.8-0.5c0,0,0.1,0,0.1,0c0.4,0,0.7,0.4,0.7,0.8c0,0,0,0.1,0,0.1c0,0.2-0.1,0.9-0.4,1.3c-0.2,0.2-0.3,0.2-0.6,0.2
		l0,0c-0.2,0-0.4-0.1-0.6-0.3c-0.1-0.2-0.2-0.4-0.2-0.6C168.6,30.4,168.6,30.4,168.6,30.3L168.6,30.3L168.6,30.3z"/>
	<path d="M174.9,26.5l-0.1,0l-0.2,1l0.1,0c1.1,0.1,2.3,0.4,3.3,0.9l0.1,0.1l0.3-1l-0.1,0C177.2,26.9,176.1,26.6,174.9,26.5z"/>
	<path d="M122.6,31.6l0.6-0.9l-0.1-0.1c-0.3-0.2-1.2-0.9-1.8-1.3c0.6-0.8,1.1-1.8,1.5-2.7c0.1,0,0.1-0.1,0.2-0.2l0-0.1l-0.7-0.4
		l-0.2,0.1h-1.1v-1.8c0.1,0,0.2-0.1,0.2-0.2l0-0.1l-1.3-0.1V26h-1.8v1h3.4c-0.8,1.6-2,3-3.5,4.1l-0.1,0.1l0.1,0.1
		c0.2,0.2,0.3,0.4,0.4,0.7l0.1,0.1l0.1-0.1c0.5-0.4,1-0.8,1.4-1.2v4.3h1v-4.8c0.5,0.4,1.1,0.9,1.4,1.2L122.6,31.6z"/>
	<path d="M124.3,29.8c-0.2,2.1-0.6,3.6-2.2,4.4l-0.2,0.1l0.2,0.1c0.2,0.2,0.4,0.3,0.5,0.6l0.1,0.1l0.1-0.1c2-1.1,2.4-3,2.6-4.9
		c0.1,0,0.2-0.1,0.3-0.2l0.1-0.2l-1.3-0.1L124.3,29.8z"/>
	<path d="M164.2,28.6c0,0,0.1-0.1,0.1-0.2l0.1-0.1l-0.7-0.4l-0.2,0.1h-7v1h6.3c-0.2,0.4-0.6,1.1-0.9,1.6h-5.1v4.5h1v-0.5h5.7v0.5
		h1.1v-4.5H163C163.4,29.9,163.9,29.1,164.2,28.6z M163.4,31.5v2.1h-5.7v-2.1H163.4z"/>
	<path d="M153,27.9l-0.1,0c-0.9,0.3-2.1,0.8-3.1,1.2c-0.1-0.8-0.8-1.5-1.6-1.5c-0.6,0-1.1,0.2-1.6,0.5c0.2-0.5,0.4-1,0.6-1.5
		c1.5,0,3-0.3,4.4-0.7l0.1,0l-0.2-1l-0.1,0c-1.3,0.4-2.6,0.6-3.9,0.7c0.1-0.3,0.2-0.7,0.2-1.1c0.1,0,0.3-0.1,0.3-0.3l0-0.1l-1.4-0.2
		l0,0.1c-0.1,0.5-0.2,1.1-0.3,1.6l-0.7,0c-0.5,0-1.3,0-2.1,0l-0.1,0v1h2.1l0.5,0c-0.5,1.7-1.5,3.2-2.9,4.2L143,31l0.8,0.8l0.1-0.1
		c0.5-0.5,1-0.9,1.3-1.3c0.6-0.9,1.7-1.5,2.8-1.6c0.5,0,0.8,0.4,0.8,0.9c-2.2,1.1-3.2,2.1-3.2,3.1c0,1.3,1.1,1.9,3.4,1.9
		c1.4,0,2.4,0,3-0.1l0.1,0l0-1l-0.1,0c-1,0.1-2,0.1-3,0.1c-1.6,0-2.4-0.3-2.4-0.9c0-0.6,0.8-1.3,2.2-2c0,0.1,0,0.2,0,0.3
		c0,0.5,0,1-0.1,1.4l0,0.1l1.1-0.1l0-0.1c0-0.5,0-0.9,0-1.3c0-0.3,0-0.6,0-0.9c1-0.4,2.3-0.9,3.1-1.2c0.1,0,0.1,0.1,0.2,0.1
		c0,0,0.1,0,0.1,0l0.1-0.1l-0.4-1L153,27.9z"/>
	<path d="M189.1,27.3c0-0.1,0-0.2,0-0.3l0-0.1l-0.6-0.1l-0.2,0h-6.7l0,0.1c-0.1,0.8-0.2,1.7-0.4,2.6h-2v1h1.9
		c-0.2,1.3-0.4,2.5-0.6,3.4l0,0.1l1.1,0.1l0-0.1c0-0.2,0.1-0.4,0.1-0.6l0,0h5.8c-0.2,0.8-0.4,0.8-0.7,0.8c-0.2,0-0.8,0-1.6-0.1
		l-0.2,0l0.1,0.2c0.1,0.2,0.2,0.4,0.2,0.6l0,0.1l0.1,0c0.5,0,1,0,1.3,0c1,0,1.6-0.1,1.9-1.7h1.8v-1h-1.6c0.1-0.5,0.1-1.1,0.2-1.9
		h1.8v-1H189C189.1,28.9,189.1,28.1,189.1,27.3z M184.5,30.5c-0.1,0.7-0.2,1.4-0.3,1.9h-2.3c0.1-0.6,0.2-1.3,0.3-1.9H184.5z
		 M187.9,30.5c0,0.7-0.1,1.3-0.2,1.9h-2.4c0.1-0.6,0.2-1.2,0.2-1.9H187.9z M184.8,27.8c0,0.6-0.1,1.2-0.2,1.8h-2.2l0-0.3
		c0.1-0.5,0.1-1,0.2-1.5H184.8z M188.1,27.8c0,0.5-0.1,0.9-0.1,1.3l0,0.5h-2.4c0-0.3,0.1-0.5,0.1-0.8c0-0.3,0.1-0.7,0.1-1H188.1z"/>
	<path d="M161.3,24.1c0,0,0.1-0.1,0.1-0.1l0.1-0.2l-1.4-0.1l0,0c-1.4,1.5-3.2,2.7-5.1,3.4l-0.2,0.1l0.1,0.1c0.2,0.2,0.3,0.4,0.4,0.6
		l0.1,0.1l0.1,0c0.9-0.4,1.8-0.9,2.7-1.4v0.6h5v-0.5c0.8,0.5,1.7,0.9,2.6,1.3l0.1,0l0.1-0.1c0.1-0.2,0.3-0.5,0.5-0.7l0.1-0.1
		l-0.2-0.1C164.4,26.4,162.7,25.4,161.3,24.1z M160.5,24.7c0.6,0.6,1.2,1.1,1.9,1.5h-3.7C159.4,25.8,160,25.3,160.5,24.7z"/>
	<path d="M112.8,28L112.8,28c-0.8,0-1.4,0.6-1.4,1.4c0,0.8,0.6,1.4,1.4,1.4s1.4-0.6,1.4-1.4C114.1,28.6,113.6,28,112.8,28z"/>
	<path d="M56.9,26.2c-1.2-1.1-3.1-1-4.2,0.2c-0.1,0.1-0.2,0.3-0.3,0.4c-0.4,0.9-0.7,2-0.6,3c0,0.9,0.1,1.7,0.4,2.5
		c0.4,1.1,1.5,1.9,2.7,1.8c0,0,0.1,0,0.1,0c0.9,0,1.7-0.4,2.3-1.2c0.6-1,0.8-2.1,0.8-3.2c0-0.9-0.1-1.7-0.4-2.5
		C57.5,26.9,57.2,26.5,56.9,26.2z M54.9,33.2C54.9,33.2,54.8,33.2,54.9,33.2c-0.7,0-1.2-0.3-1.5-0.9c-0.3-0.8-0.5-1.6-0.5-2.5
		c0-0.7,0.1-1.4,0.3-2.1c0.1-0.3,0.3-0.5,0.5-0.7c0.3-0.3,0.8-0.5,1.2-0.5l0-0.1l0,0.1l0,0l0,0c0.6,0,1.3,0.3,1.6,0.9
		c0.3,0.8,0.5,1.6,0.5,2.5c0,0.7-0.1,1.4-0.3,2.1c-0.1,0.3-0.3,0.6-0.5,0.8C55.8,33,55.4,33.2,54.9,33.2z"/>
	<path d="M74,23.9l0.2-0.2h-1.4l0,0c-0.7,0.8-1.3,1.6-1.7,2.6c-0.8,1.9-0.8,4.1,0,6c0.4,1,1,1.9,1.7,2.6l0,0h1.1l0.2,0.2v-0.4H74
		c-0.7-0.7-1.3-1.5-1.7-2.4c-0.8-1.9-0.8-4.1,0-6C72.7,25.4,73.3,24.6,74,23.9z"/>
	<path d="M64.6,26.2c-1.2-1.1-3.1-1-4.2,0.2c-0.1,0.1-0.2,0.3-0.3,0.4c-0.4,0.9-0.7,2-0.6,3c0,0.9,0.1,1.7,0.4,2.5
		c0.4,1.1,1.5,1.9,2.7,1.8c0,0,0.1,0,0.1,0c0.9,0,1.7-0.4,2.3-1.2c0.6-1,0.8-2.1,0.8-3.2c0-0.9-0.1-1.7-0.4-2.5
		C65.2,26.9,64.9,26.5,64.6,26.2z M64.1,27.3c0.3,0.8,0.5,1.6,0.5,2.5c0,0.7-0.1,1.4-0.3,2.1c-0.1,0.3-0.3,0.6-0.5,0.8
		c-0.3,0.3-0.8,0.5-1.2,0.5c-0.6,0-1.2-0.3-1.5-0.9c-0.3-0.8-0.5-1.6-0.5-2.5c0-0.7,0.1-1.4,0.3-2.1c0.1-0.3,0.3-0.5,0.5-0.7
		c0.3-0.3,0.8-0.5,1.2-0.5h0C63.2,26.4,63.9,26.7,64.1,27.3z"/>
	<path d="M84.6,33.3h-3.6v-4.5h2.7c0.4,0,0.9,0,1.3,0.1l0.1,0v-1.2l-0.1,0c-0.4,0.1-0.9,0.1-1.3,0.1h-2.7v-2.5c0-0.4,0-0.8,0.1-1.2
		l0-0.1h-1.3l0,0.1c0.1,0.4,0.1,0.8,0.1,1.2v2.5h-2.4c-0.4,0-0.9,0-1.3-0.1l-0.1,0v1.2l0.1,0c0.4,0,0.9-0.1,1.3-0.1H80v4.5h-3.2
		c-0.5,0-0.9,0-1.4-0.1l-0.1,0v1.2l0.1,0c0.5-0.1,0.9-0.1,1.4-0.1h7.9c0.4,0,0.9,0,1.3,0.1l0.1,0v-1.2l-0.1,0
		C85.5,33.3,85.1,33.3,84.6,33.3z"/>
	<path d="M106.3,33.4v-7.7c0-0.4,0-0.7,0.1-1.1l0-0.2l-0.2,0c-0.4,0-0.8,0.1-1.2,0.1h-5.4c-0.4,0-0.9,0-1.3-0.1l-0.2,0l0,0.2
		c0,0.4,0.1,0.8,0.1,1.2v7.6c0,0.4,0,0.8-0.1,1.3l0,0.1h1.1V34h5.9v0.8h1.1l0-0.1C106.3,34.2,106.2,33.8,106.3,33.4z M105.2,29.6V33
		h-5.9v-3.4H105.2z M105.2,25.5v3.1h-5.9v-3.1H105.2z"/>
	<path d="M91.3,28L91.3,28c-0.8,0-1.4,0.6-1.4,1.4c0,0.8,0.6,1.4,1.4,1.4s1.4-0.6,1.4-1.4C92.5,28.6,92,28.1,91.3,28z"/>
</g>
<path id="シェイプ_1" class="st0" d="M29.5,17.1c0,1,0.7,1.7,1.7,1.8c1,0,1.7-0.7,1.8-1.7c0-1-0.7-1.7-1.7-1.8c0,0,0,0,0,0
	C30.2,15.4,29.5,16.2,29.5,17.1 M29.7,17.1c0-0.8,0.7-1.5,1.5-1.6c0.8,0,1.5,0.7,1.6,1.5s-0.7,1.5-1.5,1.6c0,0,0,0,0,0
	C30.4,18.6,29.7,18,29.7,17.1L29.7,17.1z M32,18.2h-0.3l-0.7-1h-0.3v1h-0.3V16h0.6c0.2,0,0.4,0,0.5,0.2c0.1,0.1,0.2,0.3,0.2,0.4
	c0,0.1,0,0.3-0.1,0.4c-0.1,0.1-0.2,0.2-0.4,0.2L32,18.2 M30.7,17h0.3c0.1,0,0.2,0,0.3-0.1c0.1-0.1,0.1-0.2,0.1-0.3
	c0-0.2-0.2-0.4-0.4-0.4c0,0-0.1,0-0.1,0h-0.3L30.7,17L30.7,17z M18.3,11.1c0,1.9,1.4,3.4,3.3,3.5c1.9,0,3.4-1.4,3.5-3.3
	c0-0.1,0-0.1,0-0.2c0-1.8-1.8-3.3-3.4-4.2C20.2,7.8,18.3,9.2,18.3,11.1L18.3,11.1z M4.5,11.1c-0.1,1.9,1.4,3.5,3.3,3.5
	s3.5-1.4,3.5-3.3c0-0.1,0-0.1,0-0.2c0-1.8-1.8-3.3-3.4-4.2C6.3,7.8,4.4,9.3,4.5,11.1L4.5,11.1z M0.9,0.8v17.8h27.7V0.8L0.9,0.8
	L0.9,0.8z M28.6,5.1c-1.8,0-3.6,0.3-5.3,1c1.7,1.1,3.4,2.8,3.4,5c0,2.8-2.3,5-5.1,5c-2.8,0-5-2.3-5-5c0-2.2,1.6-3.9,3.3-5
	c-3.3-1.3-7-1.3-10.2,0c1.7,1.1,3.3,2.8,3.3,5c0,2.8-2.3,5-5,5c-2.8,0-5.1-2.2-5.1-5c0-2.2,1.7-3.9,3.4-5c-1.7-0.7-3.5-1-5.3-1V3.6
	c2.4,0,4.8,0.5,7,1.6c4.3-2.1,9.4-2.1,13.7,0c2.2-1,4.6-1.6,7-1.6L28.6,5.1L28.6,5.1z"/>
</svg>
