<svg id="kaigo_common_tel_white.svg" data-name="kaigo/common/tel_white.svg" xmlns="http://www.w3.org/2000/svg" width="351.687" height="81.6" viewBox="0 0 351.687 81.6">
  <defs>
    <style>
      .cls-1 {
        fill: #fff;
      }

      .cls-2 {
        fill-rule: evenodd;
      }
    </style>
  </defs>
  <rect id="長方形_43" data-name="長方形 43" class="cls-1" x="2.875" y="25.22" width="50" height="26"/>
  <path id="シェイプ_559" data-name="シェイプ 559" class="cls-2" d="M582.365,2875.72a3.115,3.115,0,1,0,3.1,3.12A3.111,3.111,0,0,0,582.365,2875.72Zm0,5.87a2.755,2.755,0,1,1,2.74-2.75A2.751,2.751,0,0,1,582.365,2881.59Zm0.88-3.11a1,1,0,0,0,.246-0.67,0.972,0.972,0,0,0-.339-0.79,1.386,1.386,0,0,0-.921-0.29h-1.159v4.12h0.477v-1.87h0.527l1.2,1.87h0.6l-1.309-1.97A1.227,1.227,0,0,0,583.245,2878.48Zm-1.7.09v-1.42h0.613a0.683,0.683,0,0,1,.836.69,0.667,0.667,0,0,1-.235.52,0.889,0.889,0,0,1-.614.21h-0.6Zm-22.212-10.81a6.1,6.1,0,1,0,12.19,0c0-3.34-3.3-6.02-6.1-7.62C562.632,2861.74,559.337,2864.42,559.337,2867.76ZM528.2,2881.54H577.78V2849H528.2v32.54Zm0-27.48a27.706,27.706,0,0,1,12.526,2.85,27.784,27.784,0,0,1,24.515,0,27.747,27.747,0,0,1,12.535-2.85v2.85a24.949,24.949,0,0,0-9.436,1.8c3.064,2.06,6.027,5.18,6.027,9.12a9.237,9.237,0,0,1-9.126,9.19,9.113,9.113,0,0,1-8.978-9.19c0-3.94,2.816-7.06,5.88-9.12a24.2,24.2,0,0,0-18.318,0c3.065,2.06,5.88,5.18,5.88,9.12a9.113,9.113,0,0,1-8.979,9.19,9.294,9.294,0,0,1-9.193-9.19c0-3.94,3.031-7.06,6.1-9.12a24.913,24.913,0,0,0-9.428-1.8v-2.85Zm6.361,13.78a6.1,6.1,0,1,0,12.192,0c0-3.35-3.3-6.03-6.1-7.63C537.855,2861.81,534.558,2864.49,534.558,2867.84Z" transform="translate(-525.125 -2826.78)"/>
  <path id="受付時間_9:00_18:00_土_日_祝日を含む毎日_" data-name="受付時間 9:00~18:00（土・日・祝日を含む毎日）" class="cls-2" d="M527.264,2898.35a13.158,13.158,0,0,1-1.908-.08c0.031,0.42.062,0.76,0.062,1.17v0.98a7.814,7.814,0,0,1-.078,1.1H526.4v-2.25h11.233v2.17h1.055a4.585,4.585,0,0,1-.078-0.96v-1.01a9.27,9.27,0,0,1,.062-1.18,15.768,15.768,0,0,1-1.768.06H535.58a26.916,26.916,0,0,0,1.257-2.4l-1.009-.36a12.945,12.945,0,0,1-1.3,2.76h-1.8a15.356,15.356,0,0,0-.822-2.37,42.511,42.511,0,0,0,5.306-.89c0.419-.1.419-0.1,0.621-0.14l-0.683-.91a16.217,16.217,0,0,1-4.065.9,50.622,50.622,0,0,1-7.261.45,2.66,2.66,0,0,1,.357.91c0.807-.01,1.055-0.01,1.381-0.03a13.22,13.22,0,0,1,.822,2.08h-1.117Zm2.11,0a14.415,14.415,0,0,0-.869-2.12c1.133-.05,1.66-0.1,2.436-0.16a14.22,14.22,0,0,1,.822,2.28h-2.389Zm6.547,2.56a7.554,7.554,0,0,1-1.365.08h-5.771a10.421,10.421,0,0,1-1.552-.09v1.04a10.854,10.854,0,0,1,1.148-.1,10.291,10.291,0,0,0,2.777,3.31,16.592,16.592,0,0,1-6.035,1.95,3.892,3.892,0,0,1,.559.98,18.64,18.64,0,0,0,6.314-2.33,15.8,15.8,0,0,0,6.47,2.36,4.967,4.967,0,0,1,.558-1.01,16.4,16.4,0,0,1-6.128-1.92,14.379,14.379,0,0,0,3.149-2.98,4.373,4.373,0,0,1,.528-0.56Zm-0.822.93a12.354,12.354,0,0,1-3.072,2.8,8.528,8.528,0,0,1-2.591-2.8H535.1Zm17.4-3.12h0.761a14.319,14.319,0,0,1,1.473.07v-1.06a9.826,9.826,0,0,1-1.473.09H552.5v-1.78a14.623,14.623,0,0,1,.093-1.81H551.4a11.5,11.5,0,0,1,.108,1.81v1.78h-4.918a11.814,11.814,0,0,1-1.613-.09v1.09a12.178,12.178,0,0,1,1.66-.1h4.871v7.67c0,0.32-.139.4-0.775,0.4a12.591,12.591,0,0,1-2.126-.18,3.369,3.369,0,0,1,.295,1.05c0.683,0.06,1.272.09,1.877,0.09,1.4,0,1.722-.24,1.722-1.27v-7.76Zm-8.393-.96c0.465-.88.962-1.95,1.179-2.5a6.551,6.551,0,0,1,.388-0.88l-1.117-.36a8.64,8.64,0,0,1-.683,1.99,15.3,15.3,0,0,1-3.118,4.73,2.52,2.52,0,0,1,.574.68l0.109,0.17a12.681,12.681,0,0,0,1.737-2.38c-0.046.71-.062,1.19-0.062,1.87v5.18a15.761,15.761,0,0,1-.093,1.88h1.164c-0.047-.54-0.078-1.13-0.078-1.84v-8.54Zm1.893,2.9a16.09,16.09,0,0,1,2.56,3.62l0.868-.67a19.708,19.708,0,0,0-2.621-3.5Zm19.344-3.8v2.02h-2.063a10.647,10.647,0,0,1-1.567-.09v1.04a10.129,10.129,0,0,1,1.567-.1h4.36v1.82h-4.36a8.874,8.874,0,0,1-1.567-.1v1.08a10.326,10.326,0,0,1,1.551-.1h4.376v4.27c0,0.34-.109.4-0.7,0.4a12.308,12.308,0,0,1-1.768-.18,2.752,2.752,0,0,1,.248,1.02c0.9,0.05,1.148.06,1.4,0.06,1.443,0,1.784-.23,1.784-1.22v-4.35h0.481a9.248,9.248,0,0,1,1.521.1v-1.08a8.523,8.523,0,0,1-1.521.1h-0.481v-1.82h0.512a8.911,8.911,0,0,1,1.5.1v-1.04a10.5,10.5,0,0,1-1.567.09H566.31v-2.02h2.2a12,12,0,0,1,1.474.08v-1.02a9.693,9.693,0,0,1-1.474.09h-2.2v-0.5a7.466,7.466,0,0,1,.093-1.25h-1.148a7.815,7.815,0,0,1,.093,1.25v0.5H563.7a9.416,9.416,0,0,1-1.474-.09v1.02a12.662,12.662,0,0,1,1.489-.08h1.629Zm-7.958,8.5a12.447,12.447,0,0,1-.094,1.65H558.3v-1.27h2.032v0.77H561.3c-0.031-.34-0.046-0.74-0.046-1.49v-8.5a11.6,11.6,0,0,1,.046-1.52,13.3,13.3,0,0,1-1.4.05h-1.148c-1.1-.02-1.1-0.02-1.428-0.05a12.7,12.7,0,0,1,.063,1.49v8.87Zm0.915-9.44h2.032v3.84H558.3v-3.84Zm0,4.68h2.032v4.27H558.3v-4.27Zm7.447,4.97a16.5,16.5,0,0,0-2.234-2.53l-0.761.54a13.924,13.924,0,0,1,2.157,2.61Zm8.422-6.13h2.839c0.621,0,1.148.01,1.567,0.04-0.031-.38-0.046-0.82-0.046-1.44v-1.92c0-.58.015-1.04,0.046-1.48a12.527,12.527,0,0,1-1.582.07h-2.219a13.238,13.238,0,0,1-1.629-.07,17.1,17.1,0,0,1,.062,1.71v10.02a11.634,11.634,0,0,1-.093,1.74h1.148a11.183,11.183,0,0,1-.093-1.74v-6.93Zm0-3.97h3.475v1.24h-3.475v-1.24Zm0,1.97h3.475v1.25h-3.475v-1.25Zm11.527-1.09a14.782,14.782,0,0,1,.078-1.71,13.227,13.227,0,0,1-1.629.07h-2.56a12.371,12.371,0,0,1-1.582-.07c0.031,0.47.046,0.93,0.046,1.48v1.92c0,0.58-.015,1.04-0.046,1.44,0.419-.03.915-0.04,1.567-0.04h3.18v7.1c0,0.38-.124.45-0.76,0.45-0.326,0-.978-0.06-1.707-0.15a3.491,3.491,0,0,1,.28.99c0.387,0.03,1.225.06,1.551,0.06,1.257,0,1.582-.26,1.582-1.28v-10.26Zm-4.762-.88h3.816v1.24h-3.816v-1.24Zm0,1.97h3.816v1.25h-3.816v-1.25Zm1.38,4.68c0-.62.016-1.02,0.047-1.46a12.7,12.7,0,0,1-1.536.07h-2.839a12.861,12.861,0,0,1-1.536-.07c0.031,0.45.046,0.9,0.046,1.46v3.45a9.447,9.447,0,0,1-.077,1.45h0.962v-1.08h3.4c0.636,0,1.148.01,1.583,0.04-0.031-.4-0.047-0.82-0.047-1.41v-2.45Zm-4.933-.62h4.049v1.38h-4.049v-1.38Zm0,2.16h4.049v1.5h-4.049v-1.5Zm16.629,1.08a3.959,3.959,0,0,0,1.086,1.54,3.915,3.915,0,0,0,2.606.84,3.807,3.807,0,0,0,3.227-1.45,8.026,8.026,0,0,0,1.288-4.94,9.4,9.4,0,0,0-.45-3.23,4.123,4.123,0,0,0-7.959,1.47,3.986,3.986,0,0,0,1.055,2.8,3.888,3.888,0,0,0,2.792,1.02,3.817,3.817,0,0,0,2.824-1.09,3.059,3.059,0,0,0,.621-0.87,17.328,17.328,0,0,1-.14,1.82,6.265,6.265,0,0,1-.667,1.99,2.684,2.684,0,0,1-2.5,1.42,2.533,2.533,0,0,1-1.955-.73,2.432,2.432,0,0,1-.558-0.99Zm3.785-2.99a2.617,2.617,0,0,1-2.761-2.86,3.258,3.258,0,0,1,.4-1.62A2.913,2.913,0,1,1,597.8,2901.75Zm8.951-3.2h-1.536v1.54h1.536v-1.54Zm0,8.37v-1.54h-1.536v1.54h1.536Zm7.12,0.23a3.785,3.785,0,0,0,3.289-1.63,8.1,8.1,0,0,0,1.086-4.48,10.668,10.668,0,0,0-.59-3.6,4.093,4.093,0,0,0-7.245-.62,9.054,9.054,0,0,0-.9,4.22,10.72,10.72,0,0,0,.59,3.58A3.885,3.885,0,0,0,613.871,2907.15Zm0-11.17a2.622,2.622,0,0,1,2.436,1.41,8.809,8.809,0,0,1,.7,3.61,9.638,9.638,0,0,1-.481,3.14,3.083,3.083,0,0,1-.729,1.21,2.591,2.591,0,0,1-1.909.73,2.641,2.641,0,0,1-2.4-1.35,8.572,8.572,0,0,1-.729-3.69,9.666,9.666,0,0,1,.48-3.14,3.18,3.18,0,0,1,.7-1.13A2.515,2.515,0,0,1,613.871,2895.98Zm11.122,11.17a3.782,3.782,0,0,0,3.289-1.63,8.1,8.1,0,0,0,1.086-4.48,10.669,10.669,0,0,0-.589-3.6,4.093,4.093,0,0,0-7.245-.62,9.054,9.054,0,0,0-.9,4.22,10.745,10.745,0,0,0,.589,3.58A3.885,3.885,0,0,0,624.993,2907.15Zm0-11.17a2.622,2.622,0,0,1,2.436,1.41,8.792,8.792,0,0,1,.7,3.61,9.638,9.638,0,0,1-.481,3.14,3.06,3.06,0,0,1-.729,1.21,2.587,2.587,0,0,1-1.908.73,2.643,2.643,0,0,1-2.4-1.35,8.572,8.572,0,0,1-.729-3.69,9.638,9.638,0,0,1,.481-3.14,3.163,3.163,0,0,1,.7-1.13A2.518,2.518,0,0,1,624.993,2895.98Zm13.233,5.82a1.681,1.681,0,0,1-1.4.74,3.975,3.975,0,0,1-1.443-.37,5.641,5.641,0,0,0-1.784-.48,2.562,2.562,0,0,0-2.126,1.08l0.791,0.84a1.676,1.676,0,0,1,1.366-.74,4.182,4.182,0,0,1,1.489.4,5.562,5.562,0,0,0,1.862.47,2.5,2.5,0,0,0,1.008-.25,2.74,2.74,0,0,0,1.024-.86Zm4.653-5.53a9.693,9.693,0,0,1,1.35-.09h0.838v8.98a9.781,9.781,0,0,1-.125,1.76h1.474a10.026,10.026,0,0,1-.124-1.76v-7.54a25.251,25.251,0,0,1,.14-2.57,9.136,9.136,0,0,1-1.288.07h-0.977a7.84,7.84,0,0,1-1.288-.07v1.22Zm15.3,4.47a2.7,2.7,0,0,0,2.25-2.79c0-1.91-1.459-3.07-3.833-3.07-2.342,0-3.816,1.19-3.816,3.07a2.7,2.7,0,0,0,2.25,2.79,3.158,3.158,0,0,0-1.4.53,2.872,2.872,0,0,0-1.381,2.57c0,2.14,1.567,3.32,4.407,3.32,2.73,0,4.281-1.19,4.281-3.32a2.847,2.847,0,0,0-1.163-2.43A3.087,3.087,0,0,0,658.175,2900.74Zm-1.583-4.82c1.6,0,2.622.82,2.622,2.12,0,1.38-.977,2.22-2.606,2.22s-2.622-.84-2.622-2.22C653.986,2896.75,655.01,2895.92,656.592,2895.92Zm0,5.41c1.909,0,3.072.92,3.072,2.44a2.018,2.018,0,0,1-.589,1.53,3.491,3.491,0,0,1-2.5.81c-1.924,0-3.056-.87-3.056-2.34C653.521,2902.26,654.684,2901.33,656.592,2901.33Zm8.656-2.78h-1.536v1.54h1.536v-1.54Zm0,8.37v-1.54h-1.536v1.54h1.536Zm7.121,0.23a3.785,3.785,0,0,0,3.289-1.63,8.108,8.108,0,0,0,1.086-4.48,10.668,10.668,0,0,0-.59-3.6,4.093,4.093,0,0,0-7.245-.62,9.054,9.054,0,0,0-.9,4.22,10.72,10.72,0,0,0,.59,3.58A3.882,3.882,0,0,0,672.369,2907.15Zm0-11.17a2.62,2.62,0,0,1,2.435,1.41,8.792,8.792,0,0,1,.7,3.61,9.666,9.666,0,0,1-.48,3.14,3.074,3.074,0,0,1-.73,1.21,2.587,2.587,0,0,1-1.908.73,2.643,2.643,0,0,1-2.4-1.35,8.572,8.572,0,0,1-.729-3.69,9.638,9.638,0,0,1,.481-3.14,3.163,3.163,0,0,1,.7-1.13A2.518,2.518,0,0,1,672.369,2895.98Zm11.122,11.17a3.785,3.785,0,0,0,3.289-1.63,8.1,8.1,0,0,0,1.086-4.48,10.693,10.693,0,0,0-.589-3.6,4.094,4.094,0,0,0-7.246-.62,9.054,9.054,0,0,0-.9,4.22,10.72,10.72,0,0,0,.59,3.58A3.885,3.885,0,0,0,683.491,2907.15Zm0-11.17a2.622,2.622,0,0,1,2.436,1.41,8.809,8.809,0,0,1,.7,3.61,9.638,9.638,0,0,1-.481,3.14,3.083,3.083,0,0,1-.729,1.21,2.59,2.59,0,0,1-1.908.73,2.643,2.643,0,0,1-2.4-1.35,8.572,8.572,0,0,1-.729-3.69,9.638,9.638,0,0,1,.481-3.14,3.163,3.163,0,0,1,.7-1.13A2.515,2.515,0,0,1,683.491,2895.98Zm20.959,12.29a9.782,9.782,0,0,1-2.359-3.22,9.692,9.692,0,0,1,0-7.88,9.859,9.859,0,0,1,2.359-3.21h-1.381a10.479,10.479,0,0,0-2.157,3.34,10.153,10.153,0,0,0,0,7.63,10.479,10.479,0,0,0,2.157,3.34h1.381Zm7.988-9.08H709.18a11.826,11.826,0,0,1-1.691-.09v1.13a12.577,12.577,0,0,1,1.691-.08h3.258v6.19h-4.36a14.956,14.956,0,0,1-1.846-.09v1.18a13.054,13.054,0,0,1,1.846-.11h10.193a12,12,0,0,1,1.753.11v-1.18a14,14,0,0,1-1.753.09h-4.778v-6.19h3.615a12.617,12.617,0,0,1,1.675.08v-1.13a11.44,11.44,0,0,1-1.675.09h-3.615v-3.34a10.434,10.434,0,0,1,.108-1.62h-1.272a10.655,10.655,0,0,1,.109,1.62v3.34Zm14.318,0.33a1.6,1.6,0,1,0,1.6,1.59A1.592,1.592,0,0,0,726.756,2899.52Zm9.229,6.79a12.05,12.05,0,0,1-.093,1.65h1.133v-1.01h8v1.01h1.133a12.007,12.007,0,0,1-.093-1.66v-9.95a9.808,9.808,0,0,1,.077-1.43,10.131,10.131,0,0,1-1.6.08h-6.981a11.357,11.357,0,0,1-1.66-.08,10.888,10.888,0,0,1,.077,1.52v9.87Zm1.04-10.36h8v4.34h-8v-4.34Zm0,5.29h8V2906h-8v-4.76Zm17.654-1.72a1.6,1.6,0,1,0,1.6,1.59A1.591,1.591,0,0,0,754.679,2899.52Zm18.8,1.7a0.281,0.281,0,0,0,.295-0.22h1.8v-6.03h-7.338V2901h4.219v5.84c0,1.1.249,1.41,1.3,1.41h1.427c0.946,0,1.195-.59,1.272-2.78a2.39,2.39,0,0,1-.884-0.42c-0.047,1.97-.124,2.32-0.5,2.32h-1.163c-0.373,0-.435-0.08-0.435-0.53v-5.62Zm1.055-5.29v4.11h-5.306v-4.11h5.306Zm-7.4.89-0.171.06h-1.613v-2.67a0.282,0.282,0,0,0,.295-0.22l-1.319-.08v2.97h-2.374v0.96h4.437a14.648,14.648,0,0,1-4.716,5.6,3.923,3.923,0,0,1,.558.93,15.155,15.155,0,0,0,2.1-1.88v5.85h1.024v-6.36c0.713,0.59,1.629,1.38,2.032,1.8l0.605-.87c-0.372-.29-1.753-1.33-2.467-1.83a16.032,16.032,0,0,0,2.11-3.71,0.243,0.243,0,0,0,.2-0.15Zm2.544,4.9c-0.186,2.54-.667,4.73-2.978,5.88a3.02,3.02,0,0,1,.667.77c2.529-1.35,3.041-3.72,3.289-6.31a0.317,0.317,0,0,0,.326-0.22Zm10.145,6.36h1.07v-1.02h7.913v0.93h1.086v-13.07H779.824v13.16Zm8.983-7.65h-7.913v-4.45h7.913v4.45Zm-7.913,1.02h7.913V2906h-7.913v-4.55Zm25.69-2.07c-1.241.48-2.885,1.11-4.188,1.7-0.2-1.25-.869-2.01-1.924-2.01a4.149,4.149,0,0,0-2.5,1h-0.016a10.979,10.979,0,0,0,1.117-2.62,22.89,22.89,0,0,0,5.818-.87l-0.186-1.04a20.808,20.808,0,0,1-5.337.9c0.14-.55.279-1.1,0.388-1.72a0.378,0.378,0,0,0,.388-0.28l-1.52-.18a20.486,20.486,0,0,1-.419,2.21l-1.055.02c-0.636,0-1.738,0-2.684-.02v1.01h2.591l0.868-.01a10.879,10.879,0,0,1-3.909,5.72l0.76,0.76c0.667-.6,1.272-1.21,1.707-1.69,1.4-1.55,2.575-2.19,3.707-2.19,0.621,0,1.055.48,1.149,1.46-2.328,1.17-4.127,2.48-4.127,3.85,0,1.58,1.318,2.3,4.3,2.3,1.6,0,2.994-.03,3.91-0.13l-0.016-1.04a33.26,33.26,0,0,1-3.894.16c-2.141,0-3.211-.44-3.211-1.34,0-.93,1.427-1.97,3.18-2.82,0.016,0.17.016,0.39,0.016,0.62,0,0.61-.031,1.32-0.078,1.88l1.133-.06c0.031-.61.046-1.17,0.046-1.66,0-.45-0.015-0.86-0.046-1.21,1.287-.56,3.009-1.2,4.189-1.59a0.376,0.376,0,0,0,.232.1,0.189,0.189,0,0,0,.093-0.04Zm6.84-1.23h6.113v-0.79a21.938,21.938,0,0,0,3.584,1.78,4.92,4.92,0,0,1,.621-0.9,17.978,17.978,0,0,1-6.7-4,0.354,0.354,0,0,0,.295-0.2l-1.5-.08a16.693,16.693,0,0,1-6.671,4.48,4.194,4.194,0,0,1,.574.83,21.825,21.825,0,0,0,3.692-1.96v0.84Zm0.109-.9a14.389,14.389,0,0,0,2.824-2.36,15.972,15.972,0,0,0,2.994,2.36h-5.818Zm6.656,2.23H811.3v0.94h8.223c-0.4.74-.931,1.67-1.4,2.42h-6.531v5.5h1.039v-0.63h7.649v0.63h1.055v-5.5H819.32c0.62-1,1.272-2.11,1.675-2.86a0.852,0.852,0,0,0,.156-0.2l-0.745-.36Zm-7.556,7.3v-3.01h7.649v3.01h-7.649ZM829.6,2894.4c0,0.66-.031,1.49-0.093,2.34-0.372.01-2.762,0.03-3.367,0.01v1c0.016,0,2.064.03,3.32-.03l-0.17,2.23a1.41,1.41,0,0,0-1.055-.45,2.657,2.657,0,0,0-2.513,2.92,1.979,1.979,0,0,0,1.861,2.25,2.027,2.027,0,0,0,.729-0.14,2.828,2.828,0,0,0-.294,1.19c0,1.97,2.792,1.97,4.095,1.97a14.161,14.161,0,0,0,3.553-.36,2.463,2.463,0,0,0,2.079-2.45,6.2,6.2,0,0,0-1.644-3.66,5.882,5.882,0,0,1-.947.42,5.077,5.077,0,0,1,1.428,3.03c0,1.59-1.381,2.03-4.531,2.03-1.675,0-2.963-.14-2.963-1.29a3.56,3.56,0,0,1,.466-1.5,4.2,4.2,0,0,0,.729-2.41,2.985,2.985,0,0,0-.031-0.53c0.077-.76.2-1.98,0.31-3.3a17.908,17.908,0,0,0,3.615-.61l-0.171-1.04a17.436,17.436,0,0,1-3.366.64c0.031-.62.077-1.21,0.093-1.8a0.428,0.428,0,0,0,.434-0.32Zm9.759,4.31a14.211,14.211,0,0,0-4.422-1.16l-0.233.96a13.544,13.544,0,0,1,4.313,1.22Zm-11.59,5.04a1.227,1.227,0,0,1-1.148-1.43,1.741,1.741,0,0,1,1.645-1.98,1.105,1.105,0,0,1,1.008,1.3C829.278,2901.97,829.092,2903.75,827.773,2903.75Zm27.49-2.23h-2.234c0.062-.92.124-1.97,0.186-3.17a2.916,2.916,0,0,0,.047-0.32l-0.574-.08-0.249.03h-8.47c-0.124,1.07-.311,2.3-0.5,3.54H840.9v0.96h2.42c-0.279,1.74-.59,3.43-0.853,4.64l1.039,0.06c0.062-.3.124-0.64,0.2-0.99h7.773c-0.264,1.14-.543,1.36-1.1,1.36a19.639,19.639,0,0,1-2.063-.11,2.036,2.036,0,0,1,.263.86c0.574,0.04,1.148.06,1.614,0.06,1.288,0,1.939-.11,2.358-2.17h2.3v-0.93h-2.156c0.108-.73.2-1.65,0.279-2.78h2.3v-0.96Zm-10.767,0c0.124-.89.264-1.79,0.388-2.61h3.041c-0.062.81-.155,1.71-0.248,2.61H844.5Zm7.68-2.61c-0.047.96-.109,1.83-0.155,2.61h-3.383c0.094-.9.2-1.79,0.28-2.61h3.258Zm-8.3,6.35c0.155-.86.31-1.82,0.465-2.78h3.211c-0.108,1.01-.248,1.97-0.372,2.78h-3.3Zm8.067-2.78c-0.078,1.16-.186,2.06-0.295,2.78h-3.49c0.108-.8.232-1.77,0.356-2.78h3.429Zm2.529-6.97h-9.386c0.232-.42.45-0.82,0.62-1.21a0.268,0.268,0,0,0,.311-0.2c-0.14-.01-0.3-0.05-1.335-0.19a12.521,12.521,0,0,1-3.413,4.71,3.407,3.407,0,0,1,.853.63,13.755,13.755,0,0,0,2.374-2.78h9.976v-0.96Zm4.466,12.57h1.071v-1.02h7.912v0.93h1.086v-13.07H858.938v13.16Zm8.983-7.65h-7.912v-4.45h7.912v4.45Zm-7.912,1.02h7.912V2906h-7.912v-4.55Zm13.914,6.82a10.479,10.479,0,0,0,2.157-3.34,10.153,10.153,0,0,0,0-7.63,10.479,10.479,0,0,0-2.157-3.34h-1.381a9.657,9.657,0,0,1,2.359,3.21,9.692,9.692,0,0,1,0,7.88,9.682,9.682,0,0,1-2.359,3.22h1.381Z" transform="translate(-525.125 -2826.78)"/>
  <path id="_0120-17-1165" data-name="0120-17-1165" class="cls-2" d="M603.053,2883.26a11.44,11.44,0,0,0,9.791-4.75c1.894-2.62,2.982-6.97,2.982-11.93a27.057,27.057,0,0,0-1.572-9.34,11.3,11.3,0,0,0-2.659-4.07,11.689,11.689,0,0,0-8.5-3.27,11.469,11.469,0,0,0-10.274,5.6c-1.491,2.46-2.458,6.89-2.458,11.16a26.967,26.967,0,0,0,1.571,9.27,11.307,11.307,0,0,0,2.66,4.07A11.585,11.585,0,0,0,603.053,2883.26Zm0.04-4.67a5.91,5.91,0,0,1-5.157-2.62c-1.289-1.85-2.055-5.36-2.055-9.59,0-4.39.887-7.69,2.659-9.79a5.417,5.417,0,0,1,4.513-2.05,5.815,5.815,0,0,1,4.392,1.69c1.813,1.97,2.82,5.64,2.82,10.31,0,4.72-1.007,8.47-2.82,10.36A5.846,5.846,0,0,1,603.093,2878.59Zm28.365,4.03a33.846,33.846,0,0,1-.322-5.24v-20.39a60.753,60.753,0,0,1,.322-6.64,29.505,29.505,0,0,1-4.109.2h-3.707a22.566,22.566,0,0,1-4.03-.24v5.11a36.108,36.108,0,0,1,4.151-.24H625.7v22.2a33.383,33.383,0,0,1-.323,5.24h6.084Zm26.915,0c2.578,0,4.19.08,6.084,0.24v-5.32a42.329,42.329,0,0,1-5.883.33H647.292a9.667,9.667,0,0,1,2.3-3.63,35.141,35.141,0,0,1,4.795-4.03c5.238-3.59,5.641-3.91,6.769-4.96a8.161,8.161,0,0,0,2.861-6.44c0-5.52-4.352-8.91-11.4-8.91-4.029,0-7.212,1.25-9.227,3.59-1.491,1.73-2.216,3.38-2.78,6.45l5.762,0.68a7.7,7.7,0,0,1,1.249-3.71c1.007-1.57,2.78-2.37,5.117-2.37,3.425,0,5.56,1.69,5.56,4.43,0,2.05-1.128,3.38-4.835,5.92a55.262,55.262,0,0,0-6.648,4.88,19.824,19.824,0,0,0-5.52,7.89,20.671,20.671,0,0,0-1.048,5.16,37.413,37.413,0,0,1,5.2-.2h12.934Zm22.684,0.64a11.438,11.438,0,0,0,9.79-4.75c1.894-2.62,2.982-6.97,2.982-11.93a27.08,27.08,0,0,0-1.571-9.34,11.307,11.307,0,0,0-2.66-4.07,11.687,11.687,0,0,0-8.5-3.27,11.469,11.469,0,0,0-10.275,5.6c-1.49,2.46-2.457,6.89-2.457,11.16a26.943,26.943,0,0,0,1.571,9.27A11.3,11.3,0,0,0,672.6,2880,11.589,11.589,0,0,0,681.057,2883.26Zm0.04-4.67a5.912,5.912,0,0,1-5.158-2.62c-1.289-1.85-2.054-5.36-2.054-9.59,0-4.39.886-7.69,2.659-9.79a5.414,5.414,0,0,1,4.513-2.05,5.812,5.812,0,0,1,4.391,1.69c1.813,1.97,2.821,5.64,2.821,10.31,0,4.72-1.008,8.47-2.821,10.36A5.844,5.844,0,0,1,681.1,2878.59Zm19.742-5.52a22.341,22.341,0,0,1,3.788-.24h6.245a22.274,22.274,0,0,1,3.828.24v-5.36a25.638,25.638,0,0,1-3.828.24h-6.245a25.435,25.435,0,0,1-3.788-.24v5.36Zm28.446,9.55a33.712,33.712,0,0,1-.323-5.24v-20.39a60.5,60.5,0,0,1,.323-6.64,29.521,29.521,0,0,1-4.11.2h-3.707a22.547,22.547,0,0,1-4.029-.24v5.11a36.09,36.09,0,0,1,4.15-.24h1.934v22.2a33.516,33.516,0,0,1-.322,5.24h6.084Zm31.185-32.27a44.833,44.833,0,0,1-5.52.2H742.137a44.835,44.835,0,0,1-5.52-.28v5.31a38.756,38.756,0,0,1,5.279-.28h12.45a66.656,66.656,0,0,0-7.051,11.73,60.121,60.121,0,0,0-4.876,15.59h6.366a51.907,51.907,0,0,1,7.5-21.8,27.441,27.441,0,0,1,4.19-5.8v-4.67Zm0.644,22.72a22.341,22.341,0,0,1,3.788-.24h6.245a22.274,22.274,0,0,1,3.828.24v-5.36a25.638,25.638,0,0,1-3.828.24H764.9a25.435,25.435,0,0,1-3.788-.24v5.36Zm30.057,9.55a33.846,33.846,0,0,1-.322-5.24v-20.39a60.753,60.753,0,0,1,.322-6.64,29.505,29.505,0,0,1-4.109.2h-3.707a22.547,22.547,0,0,1-4.029-.24v5.11a36.077,36.077,0,0,1,4.15-.24h1.934v22.2a33.383,33.383,0,0,1-.323,5.24h6.084Zm21.435,0a33.722,33.722,0,0,1-.322-5.24v-20.39a60.5,60.5,0,0,1,.322-6.64,29.512,29.512,0,0,1-4.11.2h-3.707a22.554,22.554,0,0,1-4.029-.24v5.11a36.1,36.1,0,0,1,4.15-.24h1.934v22.2a33.394,33.394,0,0,1-.322,5.24h6.084Zm32.717-25.5a11.518,11.518,0,0,0-2.539-4.11,11.083,11.083,0,0,0-8.26-3.07,11.432,11.432,0,0,0-9.831,4.8c-2.055,2.74-3.3,7.49-3.3,12.45,0,6.08,1.692,10.92,4.674,13.5a12.7,12.7,0,0,0,8.179,2.66c6.85,0,11.685-4.52,11.685-10.88a11.587,11.587,0,0,0-1.451-6.05c-1.772-3.02-5.237-4.79-9.347-4.79-4.07,0-6.447,1.09-8.623,4.03a17.672,17.672,0,0,1,1.652-7.13c1.37-2.78,3.465-4.19,6.326-4.19s4.352,1.12,5.4,4.06Zm-11.121,8.9c3.989,0,6.366,2.34,6.366,6.33a6.828,6.828,0,0,1-.927,3.66,6.393,6.393,0,0,1-5.52,2.82c-3.948,0-6.809-2.7-6.809-6.36C827.312,2868.76,830.253,2866.02,834.2,2866.02Zm16.882,9.43a11.937,11.937,0,0,0,2.538,4.39c2.216,2.38,5.2,3.51,9.187,3.51,7.494,0,12.128-4.4,12.128-11.49a9.893,9.893,0,0,0-2.861-7.57,10.332,10.332,0,0,0-7.857-3.02,9.917,9.917,0,0,0-6.89,2.45c0.121-.8.2-1.37,0.242-1.69l0.644-7.05h9.469a38.925,38.925,0,0,1,5.56.32v-5.07a30.893,30.893,0,0,1-5.6.32h-9.912c-2.136,0-3.062-.04-4.271-0.12-0.04,2.01-.121,3.38-0.161,4.11l-0.927,9.99c-0.081,1.13-.121,1.33-0.524,4.19l5.037,0.48a4.619,4.619,0,0,1,1.208-1.81,7.078,7.078,0,0,1,5-1.85c3.827,0,6.326,2.53,6.326,6.48a6.25,6.25,0,0,1-6.608,6.65,6.1,6.1,0,0,1-4.956-2.05,5.56,5.56,0,0,1-1.209-2.34Z" transform="translate(-525.125 -2826.78)"/>
  <path id="いーな_いい_ろう_ご" data-name="いーな     いい ろう ご" class="cls-2" d="M718.341,2828.39a9.072,9.072,0,0,1,.047.94c0.079,3.93.3,5.87,0.834,7.44,0.535,1.59,1.416,2.53,2.375,2.53,1.2,0,1.935-1.08,2.737-3.94a5.57,5.57,0,0,1-1.1-1.06,11.457,11.457,0,0,1-.818,2.74,1,1,0,0,1-.755.75c-0.566,0-1.164-1.05-1.494-2.67a27.591,27.591,0,0,1-.378-4.74,13.019,13.019,0,0,1,.111-1.98Zm7.96,1.38a14.125,14.125,0,0,1,3.256,7.95l1.352-.54a14.841,14.841,0,0,0-3.46-7.97Zm6.742,4.63a15.82,15.82,0,0,1,2.186-.08h8.809a16.844,16.844,0,0,1,2.139.08v-1.56a12.885,12.885,0,0,1-2.124.09h-8.84a17.973,17.973,0,0,1-2.17-.09v1.56Zm19.2-7.62a17.234,17.234,0,0,1-.52,2.9c-0.251.01-.66,0.01-1.085,0.01a10.8,10.8,0,0,1-1.9-.12v1.29h0.55c0.472,0.01.6,0.01,0.976,0.01,0.66,0,.723,0,1.132-0.01a21.545,21.545,0,0,1-3.1,6.43l1.274,0.74c0.079-.14.173-0.31,0.315-0.55,0.6-1.05.739-1.32,1.117-2.08a29.061,29.061,0,0,0,1.73-4.59,25.27,25.27,0,0,0,2.564-.31,2.885,2.885,0,0,1,.535-0.08l-0.047-1.31a13.7,13.7,0,0,1-2.722.49c0.189-.74.284-1.09,0.394-1.62a7.12,7.12,0,0,1,.236-1.01Zm9.485,4.28a21.522,21.522,0,0,0-4.232-2.09l-0.676,1.07a17.428,17.428,0,0,1,4.263,2.15Zm0.015,7c-0.094-.08-0.094-0.08-0.236-0.19a4.566,4.566,0,0,0-.44-0.38,11.009,11.009,0,0,0-2.674-1.57,19.563,19.563,0,0,1-.173-2.31,4.565,4.565,0,0,1,.22-1.51l-1.29-.11a6.656,6.656,0,0,0-.157,1.46c0,0.52.047,1.37,0.11,2.14a5.978,5.978,0,0,0-1.589-.2c-1.934,0-3.287,1.02-3.287,2.48a2.141,2.141,0,0,0,1.51,2.06,5.059,5.059,0,0,0,1.714.29,3.123,3.123,0,0,0,2.486-.95,2.719,2.719,0,0,0,.519-1.62,2.2,2.2,0,0,0-.032-0.41,9.2,9.2,0,0,1,2.659,2.08Zm-4.577-1.26a4.471,4.471,0,0,1,.047.63c0,1.09-.6,1.61-1.84,1.61-1.18,0-1.888-.46-1.888-1.21,0-.81.787-1.33,2.029-1.33A4.491,4.491,0,0,1,757.166,2836.8Zm24.462-8.41c0.031,0.3.031,0.36,0.047,0.94,0.079,3.93.3,5.87,0.834,7.44,0.535,1.59,1.416,2.53,2.375,2.53,1.2,0,1.935-1.08,2.737-3.94a5.516,5.516,0,0,1-1.1-1.06,11.5,11.5,0,0,1-.818,2.74,1,1,0,0,1-.755.75c-0.566,0-1.164-1.05-1.494-2.67a27.49,27.49,0,0,1-.378-4.74,13.174,13.174,0,0,1,.11-1.98Zm7.959,1.38a14.118,14.118,0,0,1,3.256,7.95l1.353-.54a14.841,14.841,0,0,0-3.46-7.97Zm9.966-1.38c0.031,0.3.031,0.36,0.047,0.94,0.079,3.93.3,5.87,0.834,7.44,0.535,1.59,1.415,2.53,2.375,2.53,1.2,0,1.935-1.08,2.737-3.94a5.516,5.516,0,0,1-1.1-1.06,11.5,11.5,0,0,1-.818,2.74,1,1,0,0,1-.755.75c-0.566,0-1.164-1.05-1.494-2.67a27.49,27.49,0,0,1-.378-4.74,13.041,13.041,0,0,1,.11-1.98Zm7.959,1.38a14.118,14.118,0,0,1,3.256,7.95l1.353-.54a14.835,14.835,0,0,0-3.461-7.97Zm18.992-.52a8.782,8.782,0,0,1,1.179-.09,40.365,40.365,0,0,0,4.515-.3l0.016,0.01c-0.048.05-.205,0.21-0.284,0.3a69.206,69.206,0,0,1-5.065,4.8,14.054,14.054,0,0,1-2.045,1.53l0.9,1.18a7.215,7.215,0,0,1,1.258-1.01,9.141,9.141,0,0,1,4.971-1.68c1.872,0,3.02.78,3.02,2.07,0,1.56-1.62,2.61-4,2.61a9.459,9.459,0,0,1-4.011-.92,6.08,6.08,0,0,1,.141,1.18v0.31a11.716,11.716,0,0,0,3.76.69,8.163,8.163,0,0,0,3.413-.67,3.558,3.558,0,0,0,2.108-3.21c0-1.95-1.6-3.18-4.137-3.18a6.581,6.581,0,0,0-3.7,1.1l-0.047-.05a21.3,21.3,0,0,0,2.8-2.37l1.762-1.75c0.5-.48.771-0.74,0.786-0.77a2.733,2.733,0,0,1,.441-0.34l-0.755-1.07a1.816,1.816,0,0,1-.708.15c-1.022.11-3.067,0.21-4.4,0.21a10.068,10.068,0,0,1-1.982-.11Zm17.925-.85a31.779,31.779,0,0,0,6.826,1.03l0.205-1.36a23.159,23.159,0,0,1-4.357-.39,11.215,11.215,0,0,1-2.218-.57Zm-1.558,5.15a22.11,22.11,0,0,1,6.182-1.06c1.746,0,2.706.71,2.706,2a3.684,3.684,0,0,1-2.092,3.13,10.624,10.624,0,0,1-4.53,1.26,4.173,4.173,0,0,1,.6,1.37,12.682,12.682,0,0,0,4.688-1.47,5.083,5.083,0,0,0,2.784-4.37,2.93,2.93,0,0,0-1.4-2.58,5.4,5.4,0,0,0-2.753-.61,27,27,0,0,0-4.876.56,12.387,12.387,0,0,1-1.652.27Zm27.064-3.12a9.9,9.9,0,0,1,1.5,2.05l0.865-.51a9.933,9.933,0,0,0-1.51-2.01Zm-1.51.85a9.2,9.2,0,0,1,1.5,2.08l0.88-.51a9.789,9.789,0,0,0-1.51-2.06Zm-7.047-1.79a4.207,4.207,0,0,1,.535.05,29.392,29.392,0,0,0,3.319.2,16,16,0,0,0,2.344-.17c-0.157.08-.189,0.09-0.3,0.15-0.205.11-.236,0.13-0.409,0.22-0.629.37-.912,0.54-1.935,1.22l0.96,0.77a23.323,23.323,0,0,1,4.027-2.46l-0.079-1.26a18.3,18.3,0,0,1-4.137.32,18.512,18.512,0,0,1-4.216-.38Zm9.375,8a14.73,14.73,0,0,1-4.75.63,10.746,10.746,0,0,1-2.847-.29,1.535,1.535,0,0,1-1.29-1.45,3.165,3.165,0,0,1,1.478-2.27l-0.959-.72c-1.29,1.1-1.872,2.08-1.872,3.15a2.527,2.527,0,0,0,1.856,2.43,10.735,10.735,0,0,0,3.728.51,27.88,27.88,0,0,0,4.232-.36,3.515,3.515,0,0,1,.566-0.08Z" transform="translate(-525.125 -2826.78)"/>
</svg>
